<?xml version="1.0" encoding="utf-8"?>
<svg width="1366" height="1024" viewBox="-683 -512 1366 1024" xmlns="http://www.w3.org/2000/svg">
  <style>

#looom { --version:2; }

#t0 {
--visible:1; --timeOffset:12; --speed:8; --bookmarkIndex:-1; --latched:0; --playMode:0; --masked:0; --blendMode:0; 
stroke:#FFFFFF; stroke-opacity:1; fill-opacity:0; stroke-width:10; stroke-linecap:round; stroke-linejoin:round;
}
@keyframes t0 { 0% { opacity: 1; } 25% { opacity: 0; } }
#t0 .frame { animation:t0 0.5s calc(var(--index) * 0.125s) steps(1) infinite; }

#t1 {
--visible:1; --timeOffset:10.5; --speed:8; --bookmarkIndex:-1; --latched:0; --playMode:0; --masked:0; --blendMode:0; 
stroke:#FFFFFF; stroke-opacity:1; fill-opacity:0; stroke-width:10; stroke-linecap:round; stroke-linejoin:round;
}
@keyframes t1 { 0% { opacity: 1; } 25% { opacity: 0; } }
#t1 .frame { animation:t1 0.5s calc(var(--index) * 0.125s) steps(1) infinite; }

#t2 {
--visible:1; --timeOffset:8; --speed:8; --bookmarkIndex:-1; --latched:0; --playMode:0; --masked:0; --blendMode:0; 
stroke:#FFFFFF; stroke-opacity:1; fill-opacity:0; stroke-width:10; stroke-linecap:round; stroke-linejoin:round;
}
@keyframes t2 { 0% { opacity: 1; } 12.5% { opacity: 0; } }
#t2 .frame { animation:t2 1s calc(var(--index) * 0.125s) steps(1) infinite; }

</style>
  <g id="w0" transform="translate(-427.25 -140.00) scale(0.53 0.53) rotate(-1.63)" class="weave">
    <g id="t0" transform="translate(-564.77 28.43) scale(0.66 0.66) rotate(-350.71)" class="thread">
      <g id="f0" transform="translate(1991.57 161.34)" style="--index:0; opacity:1;" class="frame">
        <path d="M551.37,39.08L548.58,47.94L544.43,56.38L551.37,39.08" />
        <path d="M552.14,36.61L563.92,7.50L573.42,-22.29L583.87,-76.96L587.87,-115.83L589.84,-162.69L586.41,-208.94L578.91,-258.97L574.23,-279.10L566.16,-300.95L537.33,-371.97L525.40,-390.05L503.60,-426.52L498.28,-433.95L465.74,-471.88L425.19,-511.78L403.82,-527.23L383.48,-545.40L372.38,-552.53L349.15,-565.13L339.43,-571.83L325.97,-579.51L300.00,-592.69L273.50,-601.77L247.12,-608.92L175.76,-624.16L153.48,-627.32L127.76,-627.43L80.88,-625.36" />
        <path d="M189.83,-629.80L179.75,-624.17L155.40,-627.88L128.77,-628.14L97.39,-627.64L62.81,-624.75L11.54,-618.27L-30.94,-608.68L-67.41,-597.51L-80.61,-587.58L-90.83,-581.09L-102.93,-575.51L-123.95,-564.17L-150.92,-546.82L-187.09,-519.92L-198.02,-510.81L-232.32,-478.97L-252.47,-455.38L-270.69,-431.76L-278.96,-418.78L-312.17,-359.99L-319.21,-345.85L-323.81,-334.28L-344.85,-265.69L-354.45,-224.08L-357.33,-197.89L-358.97,-171.13L-359.86,-144.12L-359.02,-116.69L-357.13,-94.25L-351.06,-61.88L-334.52,5.00L-329.88,28.03L-292.24,99.30L-278.99,118.05L-262.69,136.76L-251.21,152.78L-233.30,171.81L-201.93,202.38L-170.17,228.94L-138.92,250.95L-84.53,279.42L-52.87,293.03L-18.81,303.96L2.15,308.82L34.01,313.99L69.29,318.29L107.00,320.49L131.32,321.18L168.69,318.73L195.14,315.45L217.46,311.32L248.02,305.26L256.12,302.47L283.43,291.20L298.98,283.46L326.76,272.29L350.78,258.64L375.47,242.25L389.47,234.72L401.39,227.00L421.81,210.61L445.59,190.02L485.56,148.92L494.84,135.33L520.81,101.74L525.64,94.47L541.47,67.23L557.46,35.99L558.73,34.16L558.00,37.64" />
      </g>
      <g id="f1" transform="translate(1991.57 161.34)" style="--index:1; opacity:0;" class="frame">
        <path d="M334.64,273.02L325.99,277.19L357.51,259.45L399.03,229.21L423.27,207.90L441.70,194.83L461.69,171.38L479.27,153.51L483.83,147.36L492.42,133.01L518.13,94.61L530.45,71.45L541.69,42.98L565.77,-10.42L569.71,-25.27L574.60,-51.16L581.31,-96.53L584.35,-146.38L584.79,-183.72L581.06,-224.82L575.41,-259.46L570.03,-272.94L566.15,-286.61L560.39,-300.88L557.78,-310.37L539.89,-356.29L528.14,-379.40L500.42,-424.59L494.36,-432.20L483.97,-441.92L476.30,-454.34L460.52,-473.03L443.14,-488.49L425.80,-506.72L379.55,-543.50L338.55,-567.45L328.02,-572.28L299.11,-587.94L288.29,-592.52L257.62,-603.08L211.12,-614.48L181.88,-620.08L167.16,-622.01L134.07,-624.23L89.19,-625.51" />
        <path d="M343.33,273.03L334.88,278.33L318.09,286.65L268.08,305.72" />
        <path d="M182.71,-626.99L192.17,-623.31L194.81,-624.51L194.64,-622.50L192.94,-619.64L186.54,-619.83L153.03,-623.92L129.73,-625.59L91.82,-626.56L51.33,-623.95L5.05,-615.44L-24.79,-608.26L-65.72,-594.56L-86.93,-582.34L-109.94,-572.07L-141.44,-553.83L-157.11,-541.84L-182.81,-524.59L-191.42,-517.79L-211.98,-496.75L-234.40,-476.75L-245.24,-462.22L-261.31,-444.58L-275.60,-427.13L-290.02,-400.85L-305.21,-375.40L-319.83,-346.25L-325.94,-330.31L-344.93,-271.23L-350.96,-249.66L-355.30,-229.02L-361.62,-193.10L-363.95,-172.28L-364.92,-147.93L-363.04,-117.05L-354.66,-71.40L-341.47,-14.57L-329.26,24.29L-320.88,42.12L-315.35,50.45L-311.07,59.76L-307.98,69.17L-287.05,109.88L-252.82,160.56L-229.27,188.39L-220.63,197.05L-200.69,211.33L-170.26,236.10L-148.51,252.18L-87.75,287.12L-65.84,297.43L-44.11,305.87L-22.56,312.14L22.18,322.84L67.83,329.18L91.25,330.85L130.49,332.24L157.67,331.12L180.34,327.12L196.23,325.55L227.27,319.27L274.89,305.14L291.40,298.32" />
      </g>
      <g id="f2" transform="translate(1991.57 161.34)" style="--index:2; opacity:0;" class="frame">
        <path d="M44.70,-636.70L33.13,-633.00L23.46,-631.91L4.85,-626.28L-22.97,-619.41L-75.68,-602.55L-105.96,-588.42L-127.03,-575.58L-144.70,-567.02L-157.49,-559.09L-179.96,-541.60L-193.00,-533.18L-230.13,-498.78L-244.77,-483.09L-278.45,-442.28L-290.70,-421.25L-308.12,-396.48L-318.78,-378.92L-325.06,-365.27L-344.16,-316.26L-361.41,-261.39L-363.34,-250.64L-368.62,-198.33L-369.60,-168.30L-370.03,-139.13L-367.70,-97.57L-357.94,-61.57L-355.56,-48.17L-349.27,-23.47L-344.46,-10.63L-331.77,32.12L-326.45,43.74L-310.11,74.77L-292.81,105.33L-285.85,116.22L-264.38,143.37L-251.13,162.23L-202.97,208.13L-195.99,214.10L-182.46,223.16L-175.48,229.29L-165.87,236.11L-153.21,245.03L-137.17,254.79L-88.00,277.69L-49.86,292.73L-34.32,297.71L17.82,309.39L34.33,310.98L51.30,314.37L95.25,318.38L118.97,319.20L142.93,318.76L192.50,314.99L220.97,307.51L236.70,301.80L268.23,292.12L293.35,282.65L315.96,272.60L341.41,260.00L365.30,245.46" />
        <path d="M354.80,253.48L346.21,259.28L346.24,258.51L397.89,220.62L416.15,201.15L432.77,186.52L443.40,175.27L452.01,163.16L469.26,144.28L481.99,128.56L527.03,55.50L541.37,18.18L547.69,4.40L560.11,-30.84L565.76,-52.69L569.99,-65.39L575.65,-110.14L578.15,-139.63L579.27,-178.72L578.68,-206.52L575.23,-244.86L565.90,-282.24L564.73,-289.44L546.72,-340.90L538.54,-361.75L511.53,-405.17L501.53,-424.68L485.90,-443.13L470.34,-465.70L456.62,-481.82L420.73,-517.44L381.73,-549.09L355.05,-565.47L340.17,-575.81L313.24,-590.06L293.65,-598.67L248.89,-614.29L213.18,-625.73L169.14,-634.54L145.48,-637.47L105.51,-639.61L76.62,-639.43L57.49,-636.22L44.80,-636.19L34.96,-634.61L16.51,-630.60L-18.65,-621.03" />
      </g>
      <g id="f3" transform="translate(1991.57 161.34)" style="--index:3; opacity:0;" class="frame">
        <path d="M552.59,25.04L569.94,-33.32L577.00,-86.82L579.04,-109.65L580.64,-143.58L581.07,-176.66L578.97,-208.41L574.85,-243.98L542.98,-345.66L535.12,-365.25L517.89,-394.03L501.40,-424.06L485.47,-441.75L468.33,-465.76L425.49,-508.48L419.37,-513.96L400.04,-527.69L381.81,-543.70L359.37,-557.67L308.68,-585.54L296.45,-591.66L260.43,-604.77L204.60,-619.93L192.03,-622.57L147.63,-628.49L133.08,-629.53L94.36,-630.90L71.75,-630.54L37.86,-626.97L-10.84,-617.79" />
        <path d="M151.43,-634.16L141.14,-629.56L89.59,-631.27L65.35,-630.57L12.90,-623.03L-13.75,-616.98L-33.09,-612.14L-65.40,-601.37L-84.87,-592.23L-95.47,-586.11L-140.53,-563.37L-148.44,-558.95L-160.51,-550.11L-170.41,-541.09L-185.17,-530.70L-236.09,-483.73L-255.04,-460.75L-271.02,-446.60L-279.65,-434.91L-290.86,-415.86L-303.24,-400.22L-309.02,-391.35L-317.04,-377.75L-327.38,-340.81L-338.38,-312.31L-341.90,-298.57L-349.50,-278.53L-354.56,-255.04L-362.78,-222.96L-368.22,-159.70L-368.96,-142.01L-368.23,-119.33L-367.42,-107.37L-361.50,-82.29L-357.75,-60.05L-341.43,-3.22L-332.94,20.27L-330.55,29.52L-293.74,99.26L-292.01,103.69L-261.47,142.68L-252.57,156.03L-231.33,177.25L-212.97,197.27L-176.26,226.36L-141.44,250.76L-119.10,264.22L-85.91,280.89L-71.94,286.95L-37.52,299.01L-18.44,303.46L26.66,311.27L67.23,315.59L81.86,316.63L132.05,317.80L144.98,317.31L193.47,311.52L232.88,302.70L249.86,297.41L270.89,290.19L278.92,285.65L294.51,280.94L322.14,268.01L348.66,252.54L359.05,245.55L369.12,240.18L392.28,224.99L397.40,221.35L417.35,203.31L436.35,188.39L479.17,144.33L495.09,122.39L503.03,112.81L524.71,78.60L532.96,62.22L541.59,42.47L548.04,30.84L550.58,20.96L553.30,14.25L566.80,-14.42L573.24,-38.14L574.36,-46.91" />
      </g>
    </g>
    <g id="t1" transform="translate(-768.92 -141.37) scale(0.96 0.96) rotate(-359.60)" class="thread">
      <g id="f0" style="--index:0; opacity:1;" class="frame">
        <path d="M1600.18,305.18L1600.18,305.18" />
        <path d="M1481.51,345.30L1487.83,330.50L1494.85,319.29L1507.80,305.95L1517.21,300.03L1524.30,297.04L1539.88,294.88L1545.79,293.31L1571.63,293.63L1580.99,296.17L1591.87,300.32L1600.18,305.18L1598.14,304.76" />
        <path d="M1809.00,345.45L1809.00,345.45" />
        <path d="M1692.14,305.63L1708.82,294.10L1721.83,289.27L1735.76,285.65L1743.35,284.25L1753.54,284.19L1763.91,287.03L1777.57,295.71L1783.33,301.07L1790.06,309.19L1797.67,320.08L1808.88,345.18L1808.00,344.39" />
        <path d="M1481.60,238.42L1495.80,239.25L1515.62,234.97L1530.62,229.28L1537.85,225.53L1561.34,208.88L1572.37,198.92L1580.68,188.91L1582.54,188.15" />
        <path d="M1709.31,180.57L1713.40,190.61L1720.52,199.91L1726.91,206.33L1738.38,213.76L1792.12,233.25L1805.11,236.39L1819.56,236.98" />
        <path d="M1606.48,518.51L1612.54,526.43L1621.43,533.27L1637.58,540.83L1651.34,542.70L1662.86,542.14L1667.69,541.08L1674.41,538.21L1683.62,530.43L1689.71,520.49L1694.93,501.62L1696.49,490.17L1697.51,460.10L1695.47,440.18L1691.15,423.73L1681.78,402.46L1672.81,389.85L1667.81,385.56L1661.76,382.01L1649.96,378.64L1645.36,378.54L1639.20,380.47L1633.25,383.76L1625.90,391.30L1616.49,404.47L1605.28,428.81L1601.32,442.98L1599.68,452.10L1598.73,482.94L1602.46,504.21L1606.48,518.51" />
        <path d="M1604.19,515.25L1606.48,518.51L1609.54,526.21" />
        <path d="M1686.17,499.05L1688.77,503.06L1686.17,499.05" />
        <path d="M1601.34,500.80L1608.86,491.01L1618.67,484.30L1630.00,480.63L1640.57,480.33L1657.86,482.77L1662.55,484.44L1665.22,486.23L1676.87,491.04L1686.11,498.97" />
      </g>
      <g id="f1" transform="translate(2149.96 593.16)" style="--index:1; opacity:0;" class="frame">
        <path d="M-662.75,-359.03L-626.73,-370.98L-604.63,-380.31L-584.07,-390.75L-568.32,-400.69" />
        <path d="M-434.23,-405.48L-424.64,-396.11L-409.48,-384.95L-377.32,-366.46L-353.89,-357.52L-331.28,-350.93" />
        <path d="M-669.84,-249.98L-666.14,-259.45L-661.23,-268.00L-644.32,-289.72L-640.46,-293.70L-633.15,-299.18L-621.80,-305.07L-604.61,-309.53L-578.50,-308.72L-569.57,-305.26L-558.90,-298.99L-550.57,-290.84" />
        <path d="M-449.70,-288.41L-441.71,-296.86L-429.41,-303.65L-410.66,-307.71L-401.42,-307.51L-392.41,-305.99L-387.67,-303.02L-381.59,-300.92L-367.12,-293.80L-358.10,-287.32L-351.35,-279.87L-345.78,-266.02L-342.36,-249.19" />
        <path d="M-544.33,-80.24L-536.18,-69.08L-524.73,-60.73L-508.82,-55.28L-497.86,-54.79L-489.08,-56.02L-473.50,-63.94L-462.42,-74.94L-457.53,-84.38L-454.70,-93.35L-451.90,-108.84L-450.63,-125.97L-450.54,-135.89L-452.35,-149.02L-452.27,-164.20L-454.14,-174.44L-459.96,-188.31L-466.56,-198.89L-479.98,-210.98L-491.43,-219.05L-501.05,-220.71L-506.84,-219.14L-515.15,-215.00L-522.60,-208.60L-532.57,-193.91L-543.70,-167.88L-545.94,-160.84L-547.63,-149.26L-549.09,-112.52L-548.62,-97.88L-547.59,-90.24L-544.33,-80.24" />
        <path d="M-550.33,-96.71L-545.65,-83.27L-542.42,-76.80" />
        <path d="M-549.06,-94.59L-537.48,-105.86L-531.91,-108.76L-524.71,-110.94L-508.64,-111.27L-494.48,-108.35L-474.40,-100.46L-463.88,-92.62L-462.72,-91.30L-462.02,-87.35" />
      </g>
      <g id="f2" transform="translate(2149.96 593.16)" style="--index:2; opacity:0;" class="frame">
        <path d="M-440.27,-410.43L-433.78,-403.31L-426.32,-397.36L-399.43,-381.14L-369.34,-367.75L-341.69,-359.21L-327.21,-355.53" />
        <path d="M-558.58,-289.19L-567.94,-296.97L-590.09,-304.38L-612.40,-304.86L-626.18,-302.14L-631.70,-299.80L-645.05,-292.11L-650.78,-287.64L-656.37,-281.76L-658.80,-277.87L-662.40,-268.92L-665.76,-258.03L-667.12,-250.20" />
        <path d="M-451.58,-287.12L-445.89,-295.66L-442.32,-299.09L-436.08,-303.02L-429.38,-304.97L-416.69,-306.52L-406.66,-306.42L-394.83,-304.47L-385.07,-301.52L-366.48,-292.89L-355.93,-284.81L-347.07,-272.85L-342.83,-263.46L-340.44,-252.56L-339.19,-251.21L-339.29,-252.38" />
        <path d="M-665.05,-357.41L-631.07,-364.90L-612.11,-373.39L-588.72,-386.90L-579.04,-393.87L-567.54,-404.74L-566.11,-404.71" />
        <path d="M-540.81,-75.65L-524.57,-62.42L-518.50,-60.08L-513.72,-56.83L-508.51,-56.59L-503.08,-54.91L-495.88,-55.00L-484.36,-57.61L-470.63,-63.88L-461.67,-73.48L-455.41,-85.39L-451.14,-102.30L-447.90,-124.71L-447.64,-137.03L-448.47,-153.65L-451.79,-180.52L-452.76,-183.44L-460.74,-196.02L-468.47,-205.49L-481.97,-215.58L-489.87,-219.17L-495.09,-219.01L-499.03,-217.52L-507.38,-216.78L-513.20,-213.91L-522.91,-205.47L-525.20,-202.53L-529.39,-196.58L-535.81,-183.01L-547.39,-148.98L-549.94,-133.60L-550.66,-106.27L-549.44,-95.92L-546.83,-89.46L-545.64,-83.67L-540.81,-75.65" />
        <path d="M-544.83,-79.47L-540.81,-75.65L-538.11,-70.70L-537.04,-70.80" />
        <path d="M-546.56,-96.51L-538.28,-104.83L-530.22,-108.97L-511.76,-111.34L-504.20,-111.30L-494.70,-109.65L-475.44,-101.53L-465.01,-93.82L-458.67,-86.75L-459.57,-87.05" />
      </g>
      <g id="f3" style="--index:3; opacity:0;" class="frame">
        <path d="M1479.70,343.69L1489.79,323.77L1501.33,308.58L1506.95,303.47L1516.19,297.91L1535.32,289.30L1546.60,286.52L1564.23,286.38L1568.90,287.13L1577.96,291.79L1586.60,295.12L1595.20,302.24L1596.63,302.27" />
        <path d="M1696.37,307.41L1707.11,295.63L1714.35,291.20L1723.31,287.36L1740.34,284.58L1763.43,286.50L1776.33,292.41L1786.74,301.39L1790.42,305.81L1796.96,311.56L1799.46,315.40L1803.18,325.95L1804.42,332.91L1806.20,336.49L1806.75,341.06" />
        <path d="M1482.93,235.98L1497.21,235.25L1509.79,232.75L1524.77,227.86L1535.06,223.37L1568.48,203.95L1579.91,193.73L1585.16,186.91" />
        <path d="M1711.07,178.91L1719.26,191.63L1730.65,202.35L1744.24,212.59L1751.12,215.36L1754.97,218.06L1766.61,223.39L1785.12,229.83L1799.42,233.53L1807.03,237.08L1814.30,239.33L1820.57,240.14L1820.59,238.82" />
        <path d="M1601.19,509.74L1604.82,516.71L1611.00,525.47L1614.70,528.94L1622.23,532.36L1632.34,534.03L1638.70,536.51L1646.36,537.35L1653.02,537.50L1660.66,535.69L1664.69,535.53L1671.15,533.18L1683.71,526.12L1692.18,514.66L1699.03,500.02L1704.92,480.52L1706.30,441.06L1700.06,416.35L1693.96,401.68L1689.68,394.66L1680.33,386.07L1675.61,380.37L1670.34,376.71L1662.17,374.44L1646.53,374.10L1640.74,375.42L1632.30,380.08L1626.18,385.58L1619.46,394.58L1608.43,421.95L1603.47,438.44L1602.03,445.86L1600.08,464.15L1598.69,498.13L1601.19,509.74" />
        <path d="M1599.65,506.77L1603.16,513.53L1604.47,513.56" />
        <path d="M1599.30,499.96L1610.91,487.67L1619.09,483.50L1627.08,482.78L1649.64,482.87L1668.97,489.45L1677.44,495.24L1688.20,504.62L1693.04,511.13" />
      </g>
    </g>
    <g id="t2" class="thread">
      <g id="f0" style="--index:0; opacity:1;" class="frame">
        <path d="M967.46,242.23" />
        <path d="M913.73,215.55L914.14,231.91" />
        <path d="M714.71,225.40L713.60,254.69" />
        <path d="M657.47,241.68" />
      </g>
      <g id="f1" style="--index:1; opacity:0;" class="frame">
        <path d="M912.72,233.11L911.73,281.51L912.12,298.38L912.53,310.33L913.42,315.27L914.93,314.69" />
        <path d="M966.53,244.34L965.82,277.52" />
        <path d="M715.31,227.75L714.03,246.31L713.97,262.16" />
        <path d="M656.88,241.66L657.35,251.32L656.66,288.25" />
      </g>
      <g id="f2" style="--index:2; opacity:0;" class="frame">
        <path d="M965.77,265.31L965.49,303.04" />
        <path d="M716.47,257.70L714.40,303.82" />
        <path d="M654.71,273.92L653.72,312.59L655.53,384.52" />
        <path d="M912.02,270.98L912.52,287.78L911.52,323.17L912.28,362.77" />
      </g>
      <g id="f3" style="--index:3; opacity:0;" class="frame">
        <path d="M962.69,294.28L960.06,382.39L959.23,389.53" />
        <path d="M712.67,297.96L709.95,376.88" />
        <path d="M912.64,344.61L911.14,354.36L910.17,396.78L910.86,429.36L909.77,463.27L910.83,466.08L911.06,480.09" />
        <path d="M655.89,468.78L655.86,469.59L655.89,468.78" />
        <path d="M654.86,359.58L654.74,404.17L656.10,444.91L655.90,468.44" />
      </g>
      <g id="f4" style="--index:4; opacity:0;" class="frame">
        <path d="M961.73,380.69L959.86,403.14L958.00,458.92L955.76,494.20" />
        <path d="M657.05,437.56L656.19,458.18L658.18,498.70" />
        <path d="M911.01,450.27L912.19,523.45" />
        <path d="M711.51,354.20L709.94,379.08L710.04,428.15" />
      </g>
      <g id="f5" style="--index:5; opacity:0;" class="frame">
        <path d="M956.49,481.89L955.12,525.94L953.45,526.63" />
        <path d="M912.49,508.95L912.95,545.03" />
        <path d="M709.57,410.12L707.49,491.35" />
        <path d="M657.66,485.30L657.22,506.20L658.77,534.79" />
      </g>
      <g id="f6" style="--index:6; opacity:0;" class="frame">
        <path d="M953.19,509.49L952.75,524.99" />
        <path d="M912.45,526.61L912.71,545.41" />
        <path d="M657.42,515.96L656.84,527.98L657.45,532.86" />
        <path d="M708.21,484.23L706.60,518.75L706.95,550.44" />
      </g>
      <g id="f7" style="--index:7; opacity:0;" class="frame">
        <path d="M714.50,221.68" />
        <path d="M911.75,539.10" />
        <path d="M705.13,543.87" />
        <path d="M658.17,525.51" />
      </g>
    </g>
  </g>
</svg>