<?xml version="1.0" encoding="utf-8"?>
<svg width="1366" height="1024" viewBox="-683 -512 1366 1024" xmlns="http://www.w3.org/2000/svg">
  <style>

#looom { --version:2; }

#t0 {
--visible:1; --timeOffset:18; --speed:8; --bookmarkIndex:-1; --latched:0; --playMode:0; --masked:0; --blendMode:0; 
stroke:#1826FF; stroke-opacity:1; fill-opacity:0; stroke-width:6; stroke-linecap:round; stroke-linejoin:round;
}
@keyframes t0 { 0% { opacity: 1; } 6.25% { opacity: 0; } }
#t0 .frame { animation:t0 2s calc(var(--index) * 0.125s) steps(1) infinite; }

</style>
  <g id="w0" transform="translate(367.75 113.00) scale(0.67 0.67) rotate(-4.95)" class="weave">
    <g id="t0" transform="translate(-501.42 -118.30)" class="thread">
      <g id="f0" style="--index:0; opacity:1;" class="frame">
        <path d="M-76.58,-16.70L-61.81,-13.87L-56.93,-13.75L-49.34,-15.34L-35.85,-21.07L-31.16,-24.94L-28.25,-28.88L-24.81,-37.89L-14.98,-54.56L-13.66,-59.87L-14.11,-67.17L-17.71,-72.39L-24.71,-77.87L-37.60,-78.92L-44.66,-77.58L-52.41,-71.25L-64.53,-52.36L-76.45,-40.59L-80.98,-33.68L-82.56,-28.44L-82.46,-23.60L-78.47,-19.03L-75.49,-17.40" />
        <path d="M165.04,225.68L178.17,224.42L181.14,222.75L183.08,220.17L183.71,215.49L183.17,208.39L185.15,204.69L185.50,202.11L182.79,200.43L176.35,199.74L172.93,201.01L166.36,207.46L160.57,210.56L158.76,213.00L158.35,216.96L160.32,219.29L166.15,222.67" />
      </g>
      <g id="f1" style="--index:1; opacity:0;" class="frame">
        <path d="M-65.17,-86.00L-65.76,-72.98L-63.82,-68.48L-60.50,-64.92L-54.88,-61.61L-51.54,-60.76L-42.31,-60.10L-34.80,-61.49L-30.00,-64.68L-21.34,-73.85L-14.16,-79.08L-8.81,-86.37L-5.88,-96.19L-5.28,-103.52L-6.02,-107.25L-9.84,-112.61L-14.65,-117.23L-26.13,-121.02L-36.37,-120.98L-43.86,-118.40L-54.38,-112.69L-61.87,-104.54L-65.22,-97.46L-67.00,-88.25" />
        <path d="M140.37,193.36L150.94,193.33L159.75,190.67L166.53,187.54L180.66,178.51L185.74,171.62L186.83,167.27L186.90,162.85L183.75,159.23L180.16,157.71L172.09,157.81L159.69,163.32L146.25,165.82L141.89,167.33L136.45,171.70L133.01,177.80L132.77,184.48L136.36,189.18L144.91,192.19" />
      </g>
      <g id="f2" style="--index:2; opacity:0;" class="frame">
        <path d="M-8.28,-151.03L-13.14,-149.88L-18.26,-147.08L-29.40,-138.41L-33.66,-132.08L-34.83,-127.21L-35.15,-120.14L-32.06,-112.22L-27.28,-107.48L-13.81,-103.43L-6.28,-103.35L4.71,-107.79L13.01,-114.25L17.86,-120.96L28.51,-132.56L31.70,-138.53L32.33,-145.19L28.62,-151.95L24.15,-156.47L16.37,-158.81L7.00,-158.88L-5.63,-156.36L-15.98,-149.63" />
        <path d="M89.83,145.53L95.26,147.25L98.63,147.31L105.68,145.32L121.67,136.02L134.39,131.77L146.41,126.39L154.74,120.33L161.17,112.61L164.42,104.99L165.32,96.08L163.61,92.04L158.69,87.83L155.70,86.60L150.09,86.46L143.08,88.27L131.49,94.93L119.75,99.74L114.10,100.73L95.49,100.06L91.16,100.90L81.05,106.70L76.32,111.75L72.74,121.16L72.45,127.51L75.14,135.28L79.90,140.68L92.85,144.33" />
        <path d="M-142.17,171.51" />
      </g>
      <g id="f3" style="--index:3; opacity:0;" class="frame">
        <path d="M31.73,-191.15L24.48,-185.92L7.27,-180.91L-0.47,-175.24L-3.19,-171.09L-4.68,-162.74L-2.27,-156.10L1.96,-151.25L6.93,-147.63L15.93,-146.45L20.50,-148.67L38.10,-160.62L42.18,-165.31L44.98,-171.35L46.62,-184.07L45.79,-187.14L43.30,-191.27L41.65,-192.73L35.98,-193.59L29.62,-190.90" />
        <path d="M35.08,82.34L53.66,81.82L68.70,78.79L79.33,75.40L101.62,65.47L111.97,62.26L117.82,59.75L123.75,56.07L130.32,48.03L132.13,43.38L133.31,36.49L133.46,22.98L131.40,17.75L128.09,12.67L120.75,6.84L115.86,5.08L108.22,5.01L101.81,6.70L94.36,9.87L85.80,14.73L64.85,33.16L41.47,44.31L32.33,53.92L28.10,61.78L25.88,68.65L25.68,74.19L27.45,79.82L31.76,83.09L36.36,83.71" />
        <path d="M-168.24,153.90L-164.17,157.16L-159.93,158.30L-153.87,158.51L-149.56,156.63L-147.31,154.38L-142.24,143.84L-142.35,137.82L-147.11,132.47L-152.77,131.94L-159.30,133.10L-162.47,135.10L-166.26,141.00L-170.53,145.87L-170.54,148.59L-168.97,152.28" />
      </g>
      <g id="f4" style="--index:4; opacity:0;" class="frame">
        <path d="M41.30,-223.65L32.33,-220.59L27.02,-216.21L22.45,-206.59L20.99,-197.10L22.60,-194.07L27.57,-189.20L35.35,-186.92L41.20,-187.83L54.58,-199.81L57.56,-204.07L59.70,-210.15L59.48,-216.91L56.61,-223.23L50.15,-225.72L45.07,-225.70" />
        <path d="M31.44,-2.31L36.16,-1.35L44.83,-1.30L56.99,-3.58L88.09,-1.40L101.74,-2.24L108.98,-3.65L121.45,-10.40L126.60,-14.13L130.14,-20.82L130.93,-28.21L127.03,-35.56L123.40,-39.33L110.53,-46.94L103.64,-48.51L95.01,-48.82L81.24,-44.28L75.13,-43.24L56.58,-43.72L42.81,-41.36L35.59,-36.92L31.15,-32.70L26.96,-26.51L24.69,-20.23L23.80,-15.57L23.97,-9.27L24.75,-7.32L28.58,-3.27L31.44,-2.31" />
        <path d="M30.98,-2.41L32.10,-2.29" />
        <path d="M-194.87,115.61L-185.00,118.74L-176.99,118.50L-171.48,117.24L-163.05,112.57L-159.76,109.39L-155.91,107.14L-145.32,97.06L-144.11,92.88L-143.86,87.65L-145.33,82.83L-155.53,76.04L-163.70,75.48L-167.23,76.56L-171.52,79.58L-180.00,89.92L-192.01,96.71L-196.22,101.60L-197.56,104.06L-198.05,110.20L-196.76,113.03L-194.27,115.57" />
      </g>
      <g id="f5" style="--index:5; opacity:0;" class="frame">
        <path d="M55.66,-250.20L47.80,-246.79L41.35,-241.98L37.28,-235.11L36.40,-229.25L36.57,-224.48L40.55,-217.97L46.76,-215.77L50.72,-215.57L53.85,-216.58L56.79,-218.92L61.05,-225.78L68.15,-233.68L69.72,-236.93L70.29,-241.86L67.57,-247.20L65.08,-249.67L59.30,-250.74L54.51,-249.52" />
        <path d="M46.75,-71.60L49.53,-66.21L55.93,-60.22L66.72,-54.00L77.06,-51.26L95.53,-50.60L110.70,-53.30L121.49,-53.83L129.91,-56.77L133.67,-60.02L136.07,-64.50L137.51,-71.59L137.51,-77.29L132.51,-86.93L129.05,-90.24L126.07,-91.73L121.59,-92.10L100.17,-89.68L90.86,-89.81L75.42,-93.48L67.03,-93.91L57.11,-91.55L50.47,-87.16L47.30,-83.56L46.08,-80.76L45.54,-75.15" />
        <path d="M-218.80,44.53L-213.69,41.86L-209.78,41.14L-179.89,40.30L-166.03,37.21L-155.35,32.23L-150.76,27.82L-148.80,24.65L-145.12,6.78L-146.21,3.90L-148.62,0.97L-150.66,-0.64L-154.47,-1.69L-162.71,-2.13L-197.32,9.09L-209.94,10.94L-215.93,13.85L-219.35,16.90L-223.46,23.24L-225.57,28.59L-226.50,35.98L-225.01,40.78L-221.44,43.97L-216.84,44.93" />
      </g>
      <g id="f6" style="--index:6; opacity:0;" class="frame">
        <path d="M58.25,-245.35L63.80,-247.07L70.03,-253.00L73.88,-259.02L74.15,-266.56L72.15,-269.81L68.56,-271.19L65.33,-271.04L60.69,-267.37L58.58,-263.73L57.56,-259.08L55.08,-255.99L54.53,-253.95L54.43,-249.53L55.89,-247.29L58.14,-245.74" />
        <path d="M65.38,-112.30L68.30,-107.36L73.27,-103.94L77.53,-99.16L83.24,-94.72L96.14,-89.75L110.79,-88.90L121.52,-91.90L134.37,-98.18L139.66,-101.83L142.70,-106.02L143.67,-108.84L144.26,-118.16L143.43,-120.70L140.13,-124.20L130.56,-126.58L123.44,-126.71L113.72,-124.80L102.51,-123.75L95.79,-124.06L81.43,-127.22L72.80,-127.92L66.70,-125.24L64.70,-122.78L63.81,-116.60L65.08,-113.04" />
        <path d="M-215.71,-60.28L-212.13,-55.06L-209.19,-52.57L-196.02,-45.61L-180.83,-40.03L-166.79,-39.20L-152.49,-41.81L-141.16,-48.68L-135.20,-54.30L-133.84,-57.35L-133.25,-61.04L-134.49,-64.86L-139.69,-72.85L-148.75,-78.41L-153.29,-80.29L-169.55,-82.26L-185.64,-82.98L-190.62,-83.75L-195.81,-86.44L-201.48,-87.12L-207.72,-84.30L-211.27,-80.84L-216.28,-70.44L-217.46,-63.00L-213.27,-54.77" />
        <path d="M135.81,116.50" />
      </g>
      <g id="f7" style="--index:7; opacity:0;" class="frame">
        <path d="M70.01,-285.51" />
        <path d="M94.20,-147.74L99.31,-141.14L111.29,-132.37L121.32,-128.71L133.04,-127.76L145.27,-129.70L152.26,-133.08L157.83,-140.63L158.89,-144.77L158.94,-149.66L157.35,-153.49L153.01,-157.62L146.27,-161.05L142.33,-162.04L123.22,-163.06L111.88,-165.91L103.58,-166.35L98.79,-163.87L94.05,-156.82L93.04,-150.64L94.31,-147.21" />
        <path d="M-198.64,-114.81L-194.43,-108.58L-181.96,-94.96L-169.45,-86.76L-161.66,-84.69L-151.71,-84.01L-145.12,-85.49L-138.13,-88.68L-133.89,-92.57L-130.30,-98.66L-129.50,-106.70L-131.12,-111.27L-134.75,-114.98L-141.17,-118.05L-159.45,-124.47L-167.09,-128.78L-179.32,-134.05L-187.75,-134.81L-195.75,-132.65L-198.07,-130.69L-199.41,-128.21L-199.10,-120.53L-196.34,-114.40" />
        <path d="M141.86,64.58L156.80,76.29L159.08,77.28L164.97,77.98L172.81,77.68L179.00,75.62L184.89,70.60L188.65,62.68L189.06,56.58L175.00,36.21L171.82,34.07L163.06,33.41L150.96,36.12L145.17,40.38L140.66,47.93L139.05,58.20L139.79,59.06" />
      </g>
      <g id="f8" style="--index:8; opacity:0;" class="frame">
        <path d="M113.22,-181.03L119.15,-171.48L127.38,-164.89L133.61,-161.76L138.78,-160.44L150.59,-160.28L155.65,-162.69L160.73,-166.40L164.31,-170.72L166.75,-175.99L167.76,-185.62L164.09,-192.24L160.76,-195.07L156.98,-196.33L152.37,-196.57L136.74,-195.60L122.74,-196.10L118.95,-195.45L115.65,-193.32L111.78,-188.55L111.70,-184.45L114.38,-180.32" />
        <path d="M-186.50,-149.52L-184.49,-142.76L-170.34,-128.17L-164.35,-124.12L-156.08,-120.44L-143.90,-119.67L-134.07,-123.09L-130.53,-125.88L-128.63,-128.99L-127.98,-134.58L-128.77,-137.99L-131.56,-143.19L-137.95,-149.31L-145.69,-159.72L-151.38,-163.29L-156.66,-165.01L-171.95,-166.09L-179.74,-164.51L-183.27,-161.79L-185.92,-158.11L-187.17,-152.87L-186.90,-151.07" />
        <path d="M165.97,-17.10L176.58,-7.17L191.95,0.51L196.96,2.04L204.42,2.87L211.27,2.58L216.10,1.50L219.80,0.14L222.95,-2.15L229.12,-12.92L234.68,-18.88L238.20,-20.68L242.87,-25.32L246.71,-33.02L248.10,-42.21L244.85,-49.24L242.57,-51.73L226.34,-61.75L214.75,-64.95L203.63,-65.60L196.18,-64.57L189.74,-63.14L183.96,-60.47L178.57,-56.47L171.59,-48.84L168.38,-42.79L165.99,-35.64L165.39,-23.99" />
      </g>
      <g id="f9" style="--index:9; opacity:0;" class="frame">
        <path d="M125.79,-211.02L129.70,-202.40L133.78,-197.69L142.00,-193.44L151.09,-192.38L156.79,-194.68L162.98,-199.70L172.90,-211.19L173.93,-213.93L173.55,-218.31L168.38,-223.26L162.54,-226.18L153.91,-226.90L145.20,-225.15L135.22,-225.18L131.08,-224.07L129.39,-222.80L127.49,-219.63L125.76,-215.39L125.95,-213.60" />
        <path d="M-171.95,-179.52L-165.56,-169.10L-162.20,-165.60L-157.93,-162.87L-147.05,-158.77L-137.97,-158.18L-134.88,-158.93L-131.24,-161.25L-129.49,-163.77L-128.64,-167.78L-128.93,-170.64L-132.39,-174.99L-142.57,-180.53L-145.94,-184.08L-151.29,-187.92L-160.75,-191.56L-165.08,-191.98L-169.55,-190.69L-172.31,-187.28L-172.37,-182.13L-171.42,-179.24" />
        <path d="M182.90,-79.10L188.68,-73.53L207.31,-62.51L213.27,-60.50L228.90,-58.26L233.90,-58.83L247.02,-62.83L254.58,-68.13L257.64,-73.61L258.15,-80.61L255.87,-90.92L256.04,-100.83L245.22,-108.61L232.67,-112.17L225.60,-112.57L207.28,-110.30L198.72,-107.57L191.31,-103.96L186.84,-100.56L183.34,-94.33L182.94,-90.79L183.63,-86.06" />
      </g>
      <g id="f10" style="--index:10; opacity:0;" class="frame">
        <path d="M95.73,344.33" />
        <path d="M138.72,-241.53L145.13,-232.64L152.58,-226.80L155.84,-225.71L162.48,-226.33L171.21,-230.17L175.38,-234.06L176.63,-237.73L176.74,-252.42L173.24,-255.65L168.01,-257.04L163.44,-257.33L153.83,-255.82L144.81,-251.38L140.21,-250.29L139.02,-248.15L139.00,-246.03" />
        <path d="M-155.85,-206.29L-155.62,-200.06L-150.34,-192.25L-141.91,-186.13L-137.47,-184.84L-129.62,-184.55L-126.02,-186.81L-125.28,-191.41L-130.55,-202.67L-135.39,-209.66L-140.94,-213.30L-147.08,-214.97L-150.65,-214.97L-153.61,-212.02L-154.26,-204.91" />
        <path d="M198.05,-115.56L206.42,-114.04L220.20,-109.89L238.21,-108.51L246.61,-110.96L252.97,-114.68L256.02,-118.88L256.99,-126.83L253.39,-135.26L246.72,-139.51L226.85,-142.11L204.37,-143.97L197.42,-142.49L191.30,-139.45L186.41,-135.51L182.15,-129.83L180.72,-123.41L183.01,-120.34L190.93,-117.95L196.33,-115.11" />
      </g>
      <g id="f11" style="--index:11; opacity:0;" class="frame">
        <path d="M77.93,335.56L83.31,334.96L85.88,333.12L90.13,325.19L90.52,317.87L88.57,315.47L80.33,315.05L78.14,316.83L75.62,320.90L71.59,324.40L71.33,328.29L72.37,330.59L74.70,331.73L79.11,332.08" />
        <path d="M149.53,-270.67L153.21,-266.50L154.85,-265.85L163.05,-264.23L169.57,-264.14L175.44,-265.50L179.37,-268.15L181.27,-271.33L181.73,-274.88L180.57,-278.04L176.96,-280.61L152.58,-283.61L150.15,-282.76L148.22,-280.44L147.63,-274.98L148.79,-273.67" />
        <path d="M-137.76,-222.65L-137.00,-216.52L-130.95,-208.44L-125.94,-205.87L-120.07,-205.66L-118.33,-208.12L-116.22,-217.11L-121.55,-225.18L-124.28,-226.79L-132.64,-227.44L-135.40,-225.68L-136.29,-222.92" />
        <path d="M205.97,-141.94L219.36,-140.08L229.87,-141.36L236.03,-145.29L239.88,-151.98L240.30,-159.00L238.75,-163.01L236.25,-166.10L228.98,-169.90L222.56,-171.34L213.72,-172.11L202.02,-168.27L178.76,-163.63L173.31,-160.04L169.17,-153.65L167.21,-146.79L167.22,-143.71L169.29,-139.95L172.29,-138.22L177.05,-137.11L187.17,-136.33L190.68,-136.91L195.05,-139.22L200.82,-140.80L201.68,-141.73" />
      </g>
      <g id="f12" style="--index:12; opacity:0;" class="frame">
        <path d="M31.47,299.80L44.99,294.46L51.62,290.33L59.42,278.76L70.47,270.88L74.47,266.79L76.39,262.29L76.70,253.69L74.22,249.30L71.01,246.60L66.85,244.74L61.07,244.33L53.19,246.43L42.69,253.53L27.28,274.35L22.32,285.84L22.02,290.07L23.45,293.16L27.50,296.15L31.09,296.94" />
        <path d="M157.61,-293.62L164.82,-289.92L170.04,-290.00L172.39,-291.18L173.58,-292.85L174.43,-298.12L172.61,-300.69L170.21,-302.10L163.04,-302.83L158.95,-301.32L156.30,-297.57" />
        <path d="M-119.40,-236.95L-118.59,-230.50L-116.45,-227.65L-111.83,-225.55L-110.31,-225.50L-107.24,-228.04L-106.08,-230.85L-105.97,-234.09L-108.42,-239.48L-112.12,-241.20L-116.28,-241.61L-119.74,-239.09" />
        <path d="M191.93,-169.33L201.07,-169.94L207.05,-172.78L212.78,-177.05L215.19,-183.38L214.87,-188.66L211.30,-192.05L207.05,-193.30L195.07,-194.44L183.19,-186.45L168.87,-182.13L162.61,-176.05L162.16,-173.00L167.40,-168.39L177.48,-167.22L188.23,-168.06" />
      </g>
      <g id="f13" style="--index:13; opacity:0;" class="frame">
        <path d="M-9.69,214.65L4.42,213.71L20.89,211.32L30.43,205.10L35.20,200.84L54.10,194.96L56.09,192.99L57.47,189.65L58.19,178.89L57.41,171.26L54.53,164.33L49.24,157.59L44.92,154.79L42.10,153.89L34.19,153.54L30.10,155.05L26.98,157.45L16.56,168.00L13.57,170.14L3.82,171.18L-2.36,174.28L-8.34,179.28L-11.87,183.60L-14.86,189.39L-16.00,193.44L-16.32,202.24L-12.71,210.51L-11.55,211.47" />
        <path d="M168.28,-316.34" />
        <path d="M-97.44,-249.20" />
        <path d="M178.80,-191.48L188.63,-192.03L191.49,-193.06L200.58,-198.42L204.26,-202.07L205.32,-204.26L206.27,-211.61L205.35,-213.58L202.82,-215.29L197.82,-215.82L191.64,-214.18L187.38,-211.77L174.50,-206.93L166.71,-205.04L162.39,-198.76L161.90,-194.13L164.09,-192.07L166.76,-190.96L178.10,-189.18" />
      </g>
      <g id="f14" style="--index:14; opacity:0;" class="frame">
        <path d="M-50.71,109.79L-42.55,116.17L-33.74,119.00L-11.34,120.74L0.01,115.58L10.64,106.36L17.12,97.19L19.76,91.33L22.99,77.28L22.83,68.40L20.80,64.56L14.41,58.57L-4.07,32.28L-12.36,27.23L-15.75,26.32L-22.67,25.99L-29.26,27.22L-36.88,31.58L-42.44,37.54L-46.07,44.83L-47.31,57.34L-54.22,73.26L-57.99,88.01L-58.25,95.28L-57.39,98.88L-55.97,101.73L-49.69,108.64" />
        <path d="M169.98,-217.64L180.02,-215.98L184.51,-216.39L190.16,-219.84L192.77,-222.61L194.84,-227.07L195.33,-232.68L193.22,-235.76L188.64,-237.84L181.37,-238.46L176.77,-235.69L171.36,-228.92L169.87,-225.38L170.60,-221.54" />
      </g>
      <g id="f15" style="--index:15; opacity:0;" class="frame">
        <path d="M-73.77,37.42L-69.13,39.56L-58.50,41.20L-49.96,40.91L-40.88,36.27L-35.51,32.16L-31.06,27.42L-27.72,21.24L-25.30,12.46L-16.89,-8.16L-13.39,-19.35L-13.01,-24.29L-13.83,-29.15L-15.88,-33.00L-19.89,-36.99L-25.35,-39.56L-31.73,-40.40L-36.38,-39.36L-44.06,-35.74L-46.57,-33.45L-58.67,-16.73L-62.61,-13.43L-70.77,-8.76L-77.35,-2.05L-81.97,6.80L-83.63,14.14L-83.98,22.14L-82.80,28.14L-78.57,33.86L-73.77,37.42" />
        <path d="M-76.22,36.06L-73.16,37.82" />
        <path d="M180.74,235.64" />
        <path d="M175.83,-253.21" />
      </g>
    </g>
  </g>
</svg>