<?xml version="1.0" encoding="utf-8"?>
<svg width="1366" height="1024" viewBox="-500 -420 1366 1024" xmlns="http://www.w3.org/2000/svg">
  <style>
svg { background-color:#FFA1FC; }

#looom { --version:2; }

#t0 {
--visible:1; --timeOffset:36; --speed:8; --bookmarkIndex:-1; --latched:0; --playMode:0; --masked:0; --blendMode:0; 
fill:#F086F0; stroke-opacity:0; fill-opacity:1; stroke-width:10; stroke-linecap:round; stroke-linejoin:round;
}
@keyframes t0 { 0% { opacity: 1; } 6.25% { opacity: 0; } }
#t0 .frame { animation:t0 2s calc(var(--index) * 0.125s) steps(1) infinite; }

#t1 {
--visible:1; --timeOffset:36; --speed:8; --bookmarkIndex:-1; --latched:0; --playMode:0; --masked:0; --blendMode:0; 
fill:#FF009D; stroke-opacity:0; fill-opacity:1; stroke-width:10; stroke-linecap:round; stroke-linejoin:round;
}
@keyframes t1 { 0% { opacity: 1; } 6.25% { opacity: 0; } }
#t1 .frame { animation:t1 2s calc(var(--index) * 0.125s) steps(1) infinite; }

#t2 {
--visible:1; --timeOffset:22; --speed:8; --bookmarkIndex:-1; --latched:0; --playMode:0; --masked:0; --blendMode:0; 
stroke:#4E84D0; stroke-opacity:0; fill-opacity:0; stroke-width:14.07505; stroke-linecap:round; stroke-linejoin:round;
}
@keyframes t2 { 0% { opacity: 1; } 6.25% { opacity: 0; } }
#t2 .frame { animation:t2 2s calc(var(--index) * 0.125s) steps(1) infinite; }

#t3 {
--visible:1; --timeOffset:12; --speed:8; --bookmarkIndex:-1; --latched:0; --playMode:0; --masked:0; --blendMode:0; 
stroke:#FFD700; stroke-opacity:0; fill-opacity:0; stroke-width:28.1908; stroke-linecap:round; stroke-linejoin:round;
}
@keyframes t3 { 0% { opacity: 1; } 6.25% { opacity: 0; } }
#t3 .frame { animation:t3 2s calc(var(--index) * 0.125s) steps(1) infinite; }

#t4 {
--visible:1; --timeOffset:6; --speed:8; --bookmarkIndex:-1; --latched:0; --playMode:0; --masked:0; --blendMode:0; 
fill:#97E1CC; stroke-opacity:0; fill-opacity:0; stroke-width:12.77164; stroke-linecap:round; stroke-linejoin:round;
}
@keyframes t4 { 0% { opacity: 1; } 6.25% { opacity: 0; } }
#t4 .frame { animation:t4 2s calc(var(--index) * 0.125s) steps(1) infinite; }

</style>
  <g id="w0" transform="translate(276.00 -9.50) scale(0.69 0.69) rotate(-359.98)" class="weave">
    <g id="t0" transform="translate(-1267.81 176.41) scale(0.88 0.88) rotate(-357.93)" class="thread">
      <g id="f0" transform="translate(798.33 -145.57)" style="--index:0; opacity:1;" class="frame">
        <path d="M4.19,-148.80L4.19,-148.80" />
        <path d="M4.71,-148.88L4.71,-148.88" />
        <path d="M82.83,-146.41L38.48,-150.92L25.24,-150.47L10.40,-148.80L3.46,-148.88L-4.17,-150.66L-9.86,-149.27L-13.90,-120.88L-16.49,-94.20L-19.20,-78.74L-19.20,-65.41L-17.95,-61.95L-8.13,-61.75L7.15,-58.50L23.85,-56.70L40.21,-52.45L45.56,-51.80L67.41,-51.94L67.41,-57.97L75.68,-92.67L78.08,-111.25L83.10,-128.83L83.65,-143.03L82.37,-145.55" />
        <path d="M268.57,47.59L233.28,41.30L224.28,40.56L212.90,40.77L208.40,41.83L203.89,44.94L204.08,50.25L202.43,61.86L201.77,92.31L208.06,93.19L246.21,104.13L256.52,106.52L270.82,108.05L274.47,108.05L276.45,107.11L277.85,105.19L279.10,80.11L278.51,54.09L277.18,49.13L271.70,48.33" />
      </g>
      <g id="f1" transform="translate(798.33 -145.57)" style="--index:1; opacity:0;" class="frame">
        <path d="M58.22,-121.74L58.22,-121.74" />
        <path d="M53.44,-122.80L45.29,-124.85L26.30,-126.97L15.76,-127.05L5.57,-124.85L5.50,-124.19L8.15,-123.19L8.42,-121.47L2.25,-100.44L1.94,-88.69L5.63,-75.75L22.26,-75.69L40.85,-73.50L53.78,-70.91L53.38,-83.31L55.97,-98.70L58.22,-121.74L55.69,-121.94" />
        <path d="M286.00,36.72L280.89,32.53L273.41,29.55L262.55,27.03L210.50,21.59L192.64,21.13L191.97,22.39L195.53,24.50L195.93,25.56L189.91,43.48L187.99,51.52L187.13,61.53L187.07,73.67L188.99,96.24L190.05,99.22L191.76,101.02L198.91,105.72L210.71,111.36L223.03,115.02L232.16,116.47L283.47,119.86L295.73,116.14L296.52,108.91L295.67,58.88L291.48,40.63L290.04,40.30" />
        <path d="M-162.87,20.45L-170.17,21.45L-183.07,21.45L-182.22,22.19L-178.84,36.19L-164.48,36.78L-166.19,21.98" />
      </g>
      <g id="f2" transform="translate(798.33 -145.57)" style="--index:2; opacity:0;" class="frame">
        <path d="M38.60,-107.74L30.81,-108.59L23.64,-107.59L24.12,-104.67L22.20,-98.64L20.86,-87.16L24.57,-87.95L39.48,-86.03L40.21,-87.09L40.33,-94.13L39.60,-106.14" />
        <path d="M304.19,15.55L292.21,10.64L262.36,5.73L242.81,3.55L224.88,2.48L187.20,2.02L185.28,2.67L185.68,8.25L175.42,32.20L170.77,50.05L165.21,91.78L164.87,101.81L167.79,106.99L174.36,112.55L180.78,119.99L185.01,122.58L191.30,124.70L201.25,126.69L263.67,131.53L302.88,137.30L314.14,137.17L315.84,136.50L316.85,135.25L320.35,104.66L320.16,83.03L317.57,36.39L317.57,32.27L319.64,21.78L313.68,16.75" />
        <path d="M-176.61,8.97L-174.07,4.14L-176.61,8.97" />
        <path d="M-176.71,9.17L-184.40,18.80L-193.74,28.42L-194.99,31.20L-190.76,30.67L-188.97,31.55L-176.25,39.56L-172.29,43.02L-171.29,43.02L-165.12,39.83L-150.58,24.17L-156.39,21.13L-175.19,4.59" />
      </g>
      <g id="f3" transform="translate(798.33 -145.57)" style="--index:3; opacity:0;" class="frame">
        <path d="M39.60,-111.31L38.22,-111.27L37.41,-112.44" />
        <path d="M-624.79,154.55" />
        <path d="M240.64,-6.41L235.80,-4.63L217.46,7.25L193.22,23.58L164.42,44.41L149.45,57.75L144.49,61.27L141.63,67.24L152.49,80.91L170.31,99.22L198.97,121.45L226.13,138.24L238.12,148.58L240.97,149.45L248.12,148.52L268.72,135.85L294.46,111.16L307.57,103.27L312.41,99.22L334.79,74.47L342.27,69.56L325.72,56.36L299.50,31.41L275.32,10.91L267.32,5.27L249.71,-5.22L245.27,-6.67L240.64,-6.41" />
        <path d="M237.39,-3.23L241.89,-6.41L240.49,-6.34" />
        <path d="M-155.60,-5.16L-162.62,-6.41L-169.31,-6.22L-195.39,-1.03L-207.44,2.94L-204.27,9.78L-195.26,46.94L-193.60,50.78L-190.62,52.17L-182.82,52.17L-163.21,49.52L-142.36,48.06L-136.65,46.27L-136.07,44.02L-139.24,35.19L-144.74,8.84L-148.51,-1.38L-152.89,-9.80" />
      </g>
      <g id="f4" transform="translate(798.33 -145.57)" style="--index:4; opacity:0;" class="frame">
        <path d="M311.43,8.31L306.65,6.33L297.98,4.41L255.21,-2.50L189.26,-4.83L185.80,-5.55L185.68,-2.77L180.97,4.67L176.86,13.69L173.82,25.03L170.25,47.13L164.87,98.22L164.75,116.27L166.33,132.72L170.58,131.60L190.91,131.53L219.57,133.33L232.95,135.52L255.67,140.63L264.94,141.08L279.18,139.77L293.60,141.16L304.07,139.36L305.46,137.56L305.86,131.47L310.61,110.77L312.16,94.05L313.68,52.05L315.84,17.81L311.49,6.92" />
        <path d="M-171.63,-19.02L-177.59,-10.53L-191.43,4.59L-196.85,12.09L-200.56,18.41L-206.19,33.06L-207.77,35.19L-207.92,36.45L-205.73,38.58L-192.74,47.39L-179.90,55.09L-160.62,63.86L-155.26,67.44L-150.49,69.09L-148.32,65.58L-128.31,41.89L-119.31,29.16L-110.83,19.86L-124.08,9.64L-143.01,-6.75L-156.12,-16.44L-170.44,-25.66" />
      </g>
      <g id="f5" transform="translate(798.33 -145.57)" style="--index:5; opacity:0;" class="frame">
        <path d="M260.63,-16.09L234.80,-1.38L219.90,5.53L187.07,18.53L175.82,25.23L156.54,41.77L152.18,44.14L151.51,45.73L153.83,48.72L161.31,67.30L168.06,79.58L185.34,106.25L193.62,118.33L200.91,127.22L221.90,150.58L226.47,147.33L260.96,134.85L277.39,130.00L296.65,125.56L307.32,121.70L323.41,109.64L338.17,103.66L338.17,101.55L336.19,95.97L322.20,64.25L304.13,28.81L283.87,-6.67L279.89,-9.73L274.01,-17.56L271.16,-18.83L267.51,-18.42L262.88,-15.77" />
        <path d="M-133.36,-32.30L-144.68,-32.22L-168.10,-30.50L-179.90,-28.77L-193.74,-25.06L-204.54,-20.02L-208.23,-20.02L-206.71,-13.58L-208.17,15.34L-207.58,37.17L-204.66,59.88L-202.60,63.52L-200.95,64.84L-179.24,65.44L-168.25,64.66L-154.93,62.45L-131.11,56.28L-118.31,54.36L-114.35,53.17L-112.16,51.38L-111.56,41.63L-114.54,10.70L-122.42,-25.92L-122.23,-29.30" />
      </g>
      <g id="f6" transform="translate(798.33 -145.57)" style="--index:6; opacity:0;" class="frame">
        <path d="M-1.81,-105.42L-1.81,-105.42" />
        <path d="M9.40,-108.20L15.03,-108.92L4.59,-108.92L-5.23,-107.33L-3.44,-103.42L-2.83,-92.41L1.27,-91.67L11.01,-92.08L10.07,-107.27" />
        <path d="M281.56,19.66L272.16,15.81L252.35,12.50L232.43,10.58L217.40,11.17L203.08,15.42L205.27,15.75L205.14,19.33L202.23,35.86L198.97,65.44L195.53,83.09L195.14,93.31L196.66,96.03L202.77,103.74L206.39,105.66L222.03,106.25L243.62,108.97L267.11,110.44L276.45,110.30L289.10,108.05L289.62,101.81L293.81,92.05L295.46,85.49L295.79,80.05L295.40,31.14L295.52,26.89L295.98,26.03L296.86,26.23L296.98,22.58L294.94,20.39L292.60,19.86" />
        <path d="M-164.27,-64.27L-184.07,-47.22L-192.95,-40.58L-209.35,-25.59L-227.05,-4.36L-224.92,-3.23L-219.09,4.00L-201.81,30.22L-186.11,50.78L-165.21,72.41L-154.54,81.11L-145.86,86.61L-146.20,83.56L-142.55,79.58L-99.72,47.00L-78.98,29.81L-77.00,27.83L-76.54,24.97L-90.44,5.33L-96.74,-1.83L-130.44,-35.94L-153.87,-60.89L-154.87,-63.34" />
      </g>
      <g id="f7" transform="translate(798.33 -145.57)" style="--index:7; opacity:0;" class="frame">
        <path d="M24.30,-107.80L-8.61,-112.64L-8.53,-102.42L-11.99,-90.08L3.25,-89.16L21.07,-85.91L21.72,-94.66L25.10,-105.61" />
        <path d="M251.35,25.23L253.88,20.86L253.67,20.06L251.75,21.13L237.12,32.86L213.15,49.25L207.58,53.97L202.56,60.00L202.37,61.00L206.39,62.99L213.54,72.94L221.36,80.38L227.13,84.09L241.10,91.13L252.81,94.77L257.92,95.03L258.19,94.05L261.48,92.58L275.26,80.70L289.96,62.19L293.42,59.08L278.18,45.20L252.48,26.17" />
        <path d="M-250.62,58.28L-250.62,58.28" />
        <path d="M-111.76,-49.88L-118.85,-53.52L-127.25,-55.64L-139.57,-56.97L-155.60,-56.84L-190.37,-51.94L-218.05,-46.36L-215.25,-45.77L-214.52,-44.44L-216.13,-0.64L-215.13,12.83L-209.04,45.41L-208.04,47.92L-198.70,55.03L-180.49,58.94L-170.69,60.20L-158.18,60.47L-112.37,55.36L-95.07,52.38L-90.65,50.98L-83.96,46.59L-80.44,46.08L-82.29,42.75L-84.54,34.59L-93.30,-6.88L-98.72,-43.11L-99.38,-45.16L-102.03,-48.14" />
      </g>
      <g id="f8" transform="translate(798.33 -145.57)" style="--index:8; opacity:0;" class="frame">
        <path d="M34.31,-74.95L34.31,-74.95" />
        <path d="M36.62,-114.36L21.47,-114.09L2.25,-118.41L-16.74,-119.14L-16.67,-113.38L-18.47,-101.09L-19.26,-80.20L-15.49,-80.39L15.30,-76.41L32.06,-75.88L34.31,-74.95L36.96,-94.20L38.29,-111.38" />
        <path d="M257.46,44.22L251.69,42.48L227.38,40.83L232.82,45.02L233.89,48.39L232.37,69.50L233.80,73.55L246.33,73.41L265.07,76.53L265.92,75.27L266.65,58.28L268.90,47.86L268.97,44.02L267.78,43.75" />
        <path d="M-157.79,-70.11L-154.14,-74.49L-165.52,-58.36L-174.00,-48.48L-192.07,-30.77L-198.77,-22.20L-203.14,-13.52L-207.92,0.42L-210.08,3.55L-216.32,6.86L-217.65,9.38L-206.58,18.94L-194.41,31.02L-179.51,43.75L-158.91,58.55L-139.63,71.16L-139.05,68.89L-135.53,64.99L-103.82,39.38L-95.55,31.08L-79.91,11.44L-69.51,-0.31L-72.56,-3.09L-77.46,-10.13L-89.19,-21.94L-111.10,-41.84L-134.21,-59.16L-151.37,-70.25" />
      </g>
      <g id="f9" transform="translate(798.33 -145.57)" style="--index:9; opacity:0;" class="frame">
        <path d="M46.36,-122.60L8.02,-126.97L-21.39,-132.41L-36.94,-134.14L-35.62,-130.42L-35.56,-125.05L-36.81,-103.28L-36.94,-74.03L-36.75,-70.70L-34.68,-67.13L-19.99,-63.61L-6.42,-61.81L42.92,-57.23L46.29,-57.23L49.40,-58.23L50.28,-59.69L51.40,-66.99L54.57,-117.22" />
        <path d="M222.36,52.05L222.36,50.98L222.36,52.05" />
        <path d="M253.02,53.91L244.75,61.00L242.29,63.92L242.16,65.38L245.39,65.91L253.08,71.95L260.63,64.45L258.71,59.81L253.15,56.55" />
        <path d="M-118.39,-47.55L-140.70,-49.28L-164.94,-48.41L-175.59,-46.36L-183.74,-43.50L-196.39,-36.94L-195.39,-36.00L-194.14,-31.16L-194.14,-22.41L-197.24,-1.38L-197.45,7.66L-196.39,27.42L-194.81,36.66L-193.47,38.31L-183.95,40.17L-157.33,40.44L-118.12,35.19L-114.22,34.33L-110.83,32.27L-110.37,27.03L-113.62,6.66L-115.27,-21.41L-119.91,-38.19L-119.77,-41.84" />
      </g>
      <g id="f10" transform="translate(798.33 -145.57)" style="--index:10; opacity:0;" class="frame">
        <path d="M35.62,-139.25L28.81,-136.06L10.73,-131.10L-9.80,-123.78L-37.21,-111.38L-48.00,-105.55" />
        <path d="M-49.13,-102.09L-21.72,-67.19L-8.21,-51.80L2.33,-41.58L5.50,-37.67L2.06,-39.52" />
        <path d="M7.63,-37.00L19.61,-42.17L40.67,-53.66L49.61,-57.56L78.08,-73.63L62.45,-102.42L59.13,-107.27L48.73,-120.00L26.83,-143.56L25.64,-144.03" />
        <path d="M23.91,-143.89L19.28,-139.58L12.07,-137.39L-11.11,-124.58L-25.22,-118.55L-38.85,-110.52L-46.81,-107.33L-41.10,-99.97L-29.79,-79.06L-23.76,-70.58L-19.99,-61.88L-13.51,-50.27L-5.63,-41.25L-0.13,-37.06L5.90,-34.41L6.57,-36.53L10.34,-38.92L24.91,-42.97L34.10,-46.83L45.84,-54.84L59.93,-65.94L67.16,-68.66L67.89,-69.91L68.20,-75.16" />
        <path d="M-155.93,-40.98L-187.72,-4.95L-191.49,0.28L-193.28,5.27L-158.52,31.81L-149.24,38.50L-145.99,39.91L-145.93,36.84L-145.20,35.78L-120.77,21.19L-111.97,12.70L-106.80,6.06L-106.41,4.08L-112.16,-4.22L-129.65,-22.88L-152.49,-44.83L-150.97,-44.83" />
      </g>
      <g id="f11" transform="translate(798.33 -145.57)" style="--index:11; opacity:0;" class="frame">
        <path d="M-19.78,-150.27L-12.24,-147.02L7.48,-141.97L34.64,-132.67L52.59,-127.64L77.75,-118.75L78.02,-114.70L76.89,-111.45L48.09,-47.69L45.96,-42.77L45.56,-39.13L27.28,-44.17L-9.73,-51.73L-24.37,-56.11L-37.60,-61.55L-46.21,-62.48L-36.94,-87.69L-29.85,-120.94L-22.03,-148.88" />
        <path d="M-183.22,41.23" />
        <path d="M-198.31,46.27L-198.77,46.67L-198.31,46.27" />
        <path d="M-130.96,-29.11L-169.11,-29.23L-172.75,-28.64L-172.88,-27.64L-171.36,-25.52L-171.02,-20.14L-173.00,0.75L-172.88,12.83L-164.27,13.89L-142.55,14.28L-125.33,12.44L-126.67,-24.13L-127.65,-24.13" />
      </g>
      <g id="f12" transform="translate(798.33 -145.57)" style="--index:12; opacity:0;" class="frame">
        <path d="M-34.10,-138.31L-34.10,-138.31" />
        <path d="M74.31,-134.88L23.45,-135.27L5.23,-137.78L-17.13,-139.31L-34.10,-138.31L-44.02,-88.75L-44.75,-80.00L-44.42,-62.14L-36.94,-60.75L19.07,-57.03L58.01,-57.30L62.84,-56.52L64.03,-55.45L65.37,-59.69L70.99,-95.72L73.37,-117.49L76.16,-133.61" />
        <path d="M-147.45,-22.34L-153.08,-18.16L-170.50,1.16L-170.50,2.94L-150.97,11.50L-144.22,13.30L-142.76,13.16L-138.78,8.52L-126.06,0.36L-122.81,-2.70L-139.11,-19.88L-139.17,-21.41" />
      </g>
      <g id="f13" transform="translate(798.33 -145.57)" style="--index:13; opacity:0;" class="frame">
        <path d="M88.73,-119.41L63.45,-133.67L32.85,-148.61L20.74,-155.77L17.70,-156.44L6.29,-144.95L-15.36,-125.19L-21.64,-118.02L-32.37,-102.42L-54.15,-73.83L-46.94,-71.97L-34.50,-65.94L-12.51,-50.20L13.38,-33.34L26.70,-26.78L31.06,-25.92L50.40,-49.73L66.82,-71.77L73.31,-82.78L90.13,-117.16" />
        <path d="M-137.86,-13.52L-142.61,-15.50L-145.66,-14.84L-153.74,-12.25L-159.89,-8.27L-159.43,-7.28L-156.72,-6.34L-154.41,3.73L-152.62,8.13L-147.66,6.33L-135.34,5.47L-135.34,-10.27" />
      </g>
      <g id="f14" transform="translate(798.33 -145.57)" style="--index:14; opacity:0;" class="frame">
        <path d="M-11.26,-148.88L-4.90,-147.88L39.14,-150.06L58.61,-148.20L76.56,-147.81L75.22,-130.10L75.10,-61.61L73.97,-53.78L53.05,-51.73L-3.29,-52.45L-10.05,-53.25L-19.32,-56.44L-21.32,-57.91L-22.97,-61.61L-23.24,-67.78L-17.68,-111.99L-16.95,-138.72L-15.61,-144.56" />
        <path d="M245.54,63.52L228.45,60.67L224.01,60.80L226.80,64.92L227.20,75.80L235.53,77.25L245.54,77.45L246.85,63.78" />
      </g>
      <g id="f15" transform="translate(798.33 -145.57)" style="--index:15; opacity:0;" class="frame">
        <path d="M-39.85,-117.81L-39.85,-117.81" />
        <path d="M48.82,-156.89L19.80,-143.42L-16.34,-128.63L-39.85,-117.81L-36.27,-116.22L-33.83,-113.56L3.31,-44.63L6.29,-43.44L12.59,-46.69L29.54,-53.39L64.09,-64.14L77.54,-69.52L90.25,-76.22L86.75,-81.59L74.95,-110.66L56.95,-150.27L54.90,-153.19" />
        <path d="M252.02,57.48L246.52,53.91L226.74,47.39L218.59,46.67L214.15,47.00L209.83,48.53L208.06,50.58L209.38,54.44L209.58,82.17L210.96,84.22L225.13,87.61L244.41,90.53L257.71,91.25L259.44,90.53L260.11,89.20L260.23,65.25L258.59,57.88L256.34,56.48" />
      </g>
    </g>
    <g id="t1" transform="translate(-535.80 -0.09)" class="thread">
      <g id="f0" style="--index:0; opacity:1;" class="frame">
        <path d="M4.19,-148.80L4.19,-148.80" />
        <path d="M4.71,-148.88L4.71,-148.88" />
        <path d="M82.83,-146.41L38.48,-150.92L25.24,-150.47L10.40,-148.80L3.46,-148.88L-4.17,-150.66L-9.86,-149.27L-13.90,-120.88L-16.49,-94.20L-19.20,-78.74L-19.20,-65.41L-17.95,-61.95L-8.13,-61.75L7.15,-58.50L23.85,-56.70L40.21,-52.45L45.56,-51.80L67.41,-51.94L67.41,-57.97L75.68,-92.67L78.08,-111.25L83.10,-128.83L83.65,-143.03L82.37,-145.55" />
        <path d="M268.57,47.59L233.28,41.30L224.28,40.56L212.90,40.77L208.40,41.83L203.89,44.94L204.08,50.25L202.43,61.86L201.77,92.31L208.06,93.19L246.21,104.13L256.52,106.52L270.82,108.05L274.47,108.05L276.45,107.11L277.85,105.19L279.10,80.11L278.51,54.09L277.18,49.13L271.70,48.33" />
      </g>
      <g id="f1" style="--index:1; opacity:0;" class="frame">
        <path d="M58.22,-121.74L58.22,-121.74" />
        <path d="M53.44,-122.80L45.29,-124.85L26.30,-126.97L15.76,-127.05L5.57,-124.85L5.50,-124.19L8.15,-123.19L8.42,-121.47L2.25,-100.44L1.94,-88.69L5.63,-75.75L22.26,-75.69L40.85,-73.50L53.78,-70.91L53.38,-83.31L55.97,-98.70L58.22,-121.74L55.69,-121.94" />
        <path d="M286.00,36.72L280.89,32.53L273.41,29.55L262.55,27.03L210.50,21.59L192.64,21.13L191.97,22.39L195.53,24.50L195.93,25.56L189.91,43.48L187.99,51.52L187.13,61.53L187.07,73.67L188.99,96.24L190.05,99.22L191.76,101.02L198.91,105.72L210.71,111.36L223.03,115.02L232.16,116.47L283.47,119.86L295.73,116.14L296.52,108.91L295.67,58.88L291.48,40.63L290.04,40.30" />
        <path d="M-162.87,20.45L-170.17,21.45L-183.07,21.45L-182.22,22.19L-178.84,36.19L-164.48,36.78L-166.19,21.98" />
      </g>
      <g id="f2" style="--index:2; opacity:0;" class="frame">
        <path d="M38.60,-107.74L30.81,-108.59L23.64,-107.59L24.12,-104.67L22.20,-98.64L20.86,-87.16L24.57,-87.95L39.48,-86.03L40.21,-87.09L40.33,-94.13L39.60,-106.14" />
        <path d="M304.19,15.55L292.21,10.64L262.36,5.73L242.81,3.55L224.88,2.48L187.20,2.02L185.28,2.67L185.68,8.25L175.42,32.20L170.77,50.05L165.21,91.78L164.87,101.81L167.79,106.99L174.36,112.55L180.78,119.99L185.01,122.58L191.30,124.70L201.25,126.69L263.67,131.53L302.88,137.30L314.14,137.17L315.84,136.50L316.85,135.25L320.35,104.66L320.16,83.03L317.57,36.39L317.57,32.27L319.64,21.78L313.68,16.75" />
        <path d="M-176.61,8.97L-174.07,4.14L-176.61,8.97" />
        <path d="M-176.71,9.17L-184.40,18.80L-193.74,28.42L-194.99,31.20L-190.76,30.67L-188.97,31.55L-176.25,39.56L-172.29,43.02L-171.29,43.02L-165.12,39.83L-150.58,24.17L-156.39,21.13L-175.19,4.59" />
      </g>
      <g id="f3" style="--index:3; opacity:0;" class="frame">
        <path d="M39.60,-111.31L38.22,-111.27L37.41,-112.44" />
        <path d="M-624.79,154.55" />
        <path d="M240.64,-6.41L235.80,-4.63L217.46,7.25L193.22,23.58L164.42,44.41L149.45,57.75L144.49,61.27L141.63,67.24L152.49,80.91L170.31,99.22L198.97,121.45L226.13,138.24L238.12,148.58L240.97,149.45L248.12,148.52L268.72,135.85L294.46,111.16L307.57,103.27L312.41,99.22L334.79,74.47L342.27,69.56L325.72,56.36L299.50,31.41L275.32,10.91L267.32,5.27L249.71,-5.22L245.27,-6.67L240.64,-6.41" />
        <path d="M237.39,-3.23L241.89,-6.41L240.49,-6.34" />
        <path d="M-155.60,-5.16L-162.62,-6.41L-169.31,-6.22L-195.39,-1.03L-207.44,2.94L-204.27,9.78L-195.26,46.94L-193.60,50.78L-190.62,52.17L-182.82,52.17L-163.21,49.52L-142.36,48.06L-136.65,46.27L-136.07,44.02L-139.24,35.19L-144.74,8.84L-148.51,-1.38L-152.89,-9.80" />
      </g>
      <g id="f4" style="--index:4; opacity:0;" class="frame">
        <path d="M311.43,8.31L306.65,6.33L297.98,4.41L255.21,-2.50L189.26,-4.83L185.80,-5.55L185.68,-2.77L180.97,4.67L176.86,13.69L173.82,25.03L170.25,47.13L164.87,98.22L164.75,116.27L166.33,132.72L170.58,131.60L190.91,131.53L219.57,133.33L232.95,135.52L255.67,140.63L264.94,141.08L279.18,139.77L293.60,141.16L304.07,139.36L305.46,137.56L305.86,131.47L310.61,110.77L312.16,94.05L313.68,52.05L315.84,17.81L311.49,6.92" />
        <path d="M-171.63,-19.02L-177.59,-10.53L-191.43,4.59L-196.85,12.09L-200.56,18.41L-206.19,33.06L-207.77,35.19L-207.92,36.45L-205.73,38.58L-192.74,47.39L-179.90,55.09L-160.62,63.86L-155.26,67.44L-150.49,69.09L-148.32,65.58L-128.31,41.89L-119.31,29.16L-110.83,19.86L-124.08,9.64L-143.01,-6.75L-156.12,-16.44L-170.44,-25.66" />
      </g>
      <g id="f5" style="--index:5; opacity:0;" class="frame">
        <path d="M260.63,-16.09L234.80,-1.38L219.90,5.53L187.07,18.53L175.82,25.23L156.54,41.77L152.18,44.14L151.51,45.73L153.83,48.72L161.31,67.30L168.06,79.58L185.34,106.25L193.62,118.33L200.91,127.22L221.90,150.58L226.47,147.33L260.96,134.85L277.39,130.00L296.65,125.56L307.32,121.70L323.41,109.64L338.17,103.66L338.17,101.55L336.19,95.97L322.20,64.25L304.13,28.81L283.87,-6.67L279.89,-9.73L274.01,-17.56L271.16,-18.83L267.51,-18.42L262.88,-15.77" />
        <path d="M-133.36,-32.30L-144.68,-32.22L-168.10,-30.50L-179.90,-28.77L-193.74,-25.06L-204.54,-20.02L-208.23,-20.02L-206.71,-13.58L-208.17,15.34L-207.58,37.17L-204.66,59.88L-202.60,63.52L-200.95,64.84L-179.24,65.44L-168.25,64.66L-154.93,62.45L-131.11,56.28L-118.31,54.36L-114.35,53.17L-112.16,51.38L-111.56,41.63L-114.54,10.70L-122.42,-25.92L-122.23,-29.30" />
      </g>
      <g id="f6" style="--index:6; opacity:0;" class="frame">
        <path d="M-1.81,-105.42L-1.81,-105.42" />
        <path d="M9.40,-108.20L15.03,-108.92L4.59,-108.92L-5.23,-107.33L-3.44,-103.42L-2.83,-92.41L1.27,-91.67L11.01,-92.08L10.07,-107.27" />
        <path d="M281.56,19.66L272.16,15.81L252.35,12.50L232.43,10.58L217.40,11.17L203.08,15.42L205.27,15.75L205.14,19.33L202.23,35.86L198.97,65.44L195.53,83.09L195.14,93.31L196.66,96.03L202.77,103.74L206.39,105.66L222.03,106.25L243.62,108.97L267.11,110.44L276.45,110.30L289.10,108.05L289.62,101.81L293.81,92.05L295.46,85.49L295.79,80.05L295.40,31.14L295.52,26.89L295.98,26.03L296.86,26.23L296.98,22.58L294.94,20.39L292.60,19.86" />
        <path d="M-164.27,-64.27L-184.07,-47.22L-192.95,-40.58L-209.35,-25.59L-227.05,-4.36L-224.92,-3.23L-219.09,4.00L-201.81,30.22L-186.11,50.78L-165.21,72.41L-154.54,81.11L-145.86,86.61L-146.20,83.56L-142.55,79.58L-99.72,47.00L-78.98,29.81L-77.00,27.83L-76.54,24.97L-90.44,5.33L-96.74,-1.83L-130.44,-35.94L-153.87,-60.89L-154.87,-63.34" />
      </g>
      <g id="f7" style="--index:7; opacity:0;" class="frame">
        <path d="M24.30,-107.80L-8.61,-112.64L-8.53,-102.42L-11.99,-90.08L3.25,-89.16L21.07,-85.91L21.72,-94.66L25.10,-105.61" />
        <path d="M251.35,25.23L253.88,20.86L253.67,20.06L251.75,21.13L237.12,32.86L213.15,49.25L207.58,53.97L202.56,60.00L202.37,61.00L206.39,62.99L213.54,72.94L221.36,80.38L227.13,84.09L241.10,91.13L252.81,94.77L257.92,95.03L258.19,94.05L261.48,92.58L275.26,80.70L289.96,62.19L293.42,59.08L278.18,45.20L252.48,26.17" />
        <path d="M-250.62,58.28L-250.62,58.28" />
        <path d="M-111.76,-49.88L-118.85,-53.52L-127.25,-55.64L-139.57,-56.97L-155.60,-56.84L-190.37,-51.94L-218.05,-46.36L-215.25,-45.77L-214.52,-44.44L-216.13,-0.64L-215.13,12.83L-209.04,45.41L-208.04,47.92L-198.70,55.03L-180.49,58.94L-170.69,60.20L-158.18,60.47L-112.37,55.36L-95.07,52.38L-90.65,50.98L-83.96,46.59L-80.44,46.08L-82.29,42.75L-84.54,34.59L-93.30,-6.88L-98.72,-43.11L-99.38,-45.16L-102.03,-48.14" />
      </g>
      <g id="f8" style="--index:8; opacity:0;" class="frame">
        <path d="M34.31,-74.95L34.31,-74.95" />
        <path d="M36.62,-114.36L21.47,-114.09L2.25,-118.41L-16.74,-119.14L-16.67,-113.38L-18.47,-101.09L-19.26,-80.20L-15.49,-80.39L15.30,-76.41L32.06,-75.88L34.31,-74.95L36.96,-94.20L38.29,-111.38" />
        <path d="M257.46,44.22L251.69,42.48L227.38,40.83L232.82,45.02L233.89,48.39L232.37,69.50L233.80,73.55L246.33,73.41L265.07,76.53L265.92,75.27L266.65,58.28L268.90,47.86L268.97,44.02L267.78,43.75" />
        <path d="M-157.79,-70.11L-154.14,-74.49L-165.52,-58.36L-174.00,-48.48L-192.07,-30.77L-198.77,-22.20L-203.14,-13.52L-207.92,0.42L-210.08,3.55L-216.32,6.86L-217.65,9.38L-206.58,18.94L-194.41,31.02L-179.51,43.75L-158.91,58.55L-139.63,71.16L-139.05,68.89L-135.53,64.99L-103.82,39.38L-95.55,31.08L-79.91,11.44L-69.51,-0.31L-72.56,-3.09L-77.46,-10.13L-89.19,-21.94L-111.10,-41.84L-134.21,-59.16L-151.37,-70.25" />
      </g>
      <g id="f9" style="--index:9; opacity:0;" class="frame">
        <path d="M46.36,-122.60L8.02,-126.97L-21.39,-132.41L-36.94,-134.14L-35.62,-130.42L-35.56,-125.05L-36.81,-103.28L-36.94,-74.03L-36.75,-70.70L-34.68,-67.13L-19.99,-63.61L-6.42,-61.81L42.92,-57.23L46.29,-57.23L49.40,-58.23L50.28,-59.69L51.40,-66.99L54.57,-117.22" />
        <path d="M222.36,52.05L222.36,50.98L222.36,52.05" />
        <path d="M253.02,53.91L244.75,61.00L242.29,63.92L242.16,65.38L245.39,65.91L253.08,71.95L260.63,64.45L258.71,59.81L253.15,56.55" />
        <path d="M-118.39,-47.55L-140.70,-49.28L-164.94,-48.41L-175.59,-46.36L-183.74,-43.50L-196.39,-36.94L-195.39,-36.00L-194.14,-31.16L-194.14,-22.41L-197.24,-1.38L-197.45,7.66L-196.39,27.42L-194.81,36.66L-193.47,38.31L-183.95,40.17L-157.33,40.44L-118.12,35.19L-114.22,34.33L-110.83,32.27L-110.37,27.03L-113.62,6.66L-115.27,-21.41L-119.91,-38.19L-119.77,-41.84" />
      </g>
      <g id="f10" style="--index:10; opacity:0;" class="frame">
        <path d="M35.62,-139.25L28.81,-136.06L10.73,-131.10L-9.80,-123.78L-37.21,-111.38L-48.00,-105.55" />
        <path d="M-49.13,-102.09L-21.72,-67.19L-8.21,-51.80L2.33,-41.58L5.50,-37.67L2.06,-39.52" />
        <path d="M7.63,-37.00L19.61,-42.17L40.67,-53.66L49.61,-57.56L78.08,-73.63L62.45,-102.42L59.13,-107.27L48.73,-120.00L26.83,-143.56L25.64,-144.03" />
        <path d="M23.91,-143.89L19.28,-139.58L12.07,-137.39L-11.11,-124.58L-25.22,-118.55L-38.85,-110.52L-46.81,-107.33L-41.10,-99.97L-29.79,-79.06L-23.76,-70.58L-19.99,-61.88L-13.51,-50.27L-5.63,-41.25L-0.13,-37.06L5.90,-34.41L6.57,-36.53L10.34,-38.92L24.91,-42.97L34.10,-46.83L45.84,-54.84L59.93,-65.94L67.16,-68.66L67.89,-69.91L68.20,-75.16" />
        <path d="M-155.93,-40.98L-187.72,-4.95L-191.49,0.28L-193.28,5.27L-158.52,31.81L-149.24,38.50L-145.99,39.91L-145.93,36.84L-145.20,35.78L-120.77,21.19L-111.97,12.70L-106.80,6.06L-106.41,4.08L-112.16,-4.22L-129.65,-22.88L-152.49,-44.83L-150.97,-44.83" />
      </g>
      <g id="f11" style="--index:11; opacity:0;" class="frame">
        <path d="M-19.78,-150.27L-12.24,-147.02L7.48,-141.97L34.64,-132.67L52.59,-127.64L77.75,-118.75L78.02,-114.70L76.89,-111.45L48.09,-47.69L45.96,-42.77L45.56,-39.13L27.28,-44.17L-9.73,-51.73L-24.37,-56.11L-37.60,-61.55L-46.21,-62.48L-36.94,-87.69L-29.85,-120.94L-22.03,-148.88" />
        <path d="M-183.22,41.23" />
        <path d="M-198.31,46.27L-198.77,46.67L-198.31,46.27" />
        <path d="M-130.96,-29.11L-169.11,-29.23L-172.75,-28.64L-172.88,-27.64L-171.36,-25.52L-171.02,-20.14L-173.00,0.75L-172.88,12.83L-164.27,13.89L-142.55,14.28L-125.33,12.44L-126.67,-24.13L-127.65,-24.13" />
      </g>
      <g id="f12" style="--index:12; opacity:0;" class="frame">
        <path d="M-34.10,-138.31L-34.10,-138.31" />
        <path d="M74.31,-134.88L23.45,-135.27L5.23,-137.78L-17.13,-139.31L-34.10,-138.31L-44.02,-88.75L-44.75,-80.00L-44.42,-62.14L-36.94,-60.75L19.07,-57.03L58.01,-57.30L62.84,-56.52L64.03,-55.45L65.37,-59.69L70.99,-95.72L73.37,-117.49L76.16,-133.61" />
        <path d="M-147.45,-22.34L-153.08,-18.16L-170.50,1.16L-170.50,2.94L-150.97,11.50L-144.22,13.30L-142.76,13.16L-138.78,8.52L-126.06,0.36L-122.81,-2.70L-139.11,-19.88L-139.17,-21.41" />
      </g>
      <g id="f13" style="--index:13; opacity:0;" class="frame">
        <path d="M88.73,-119.41L63.45,-133.67L32.85,-148.61L20.74,-155.77L17.70,-156.44L6.29,-144.95L-15.36,-125.19L-21.64,-118.02L-32.37,-102.42L-54.15,-73.83L-46.94,-71.97L-34.50,-65.94L-12.51,-50.20L13.38,-33.34L26.70,-26.78L31.06,-25.92L50.40,-49.73L66.82,-71.77L73.31,-82.78L90.13,-117.16" />
        <path d="M-137.86,-13.52L-142.61,-15.50L-145.66,-14.84L-153.74,-12.25L-159.89,-8.27L-159.43,-7.28L-156.72,-6.34L-154.41,3.73L-152.62,8.13L-147.66,6.33L-135.34,5.47L-135.34,-10.27" />
      </g>
      <g id="f14" style="--index:14; opacity:0;" class="frame">
        <path d="M-11.26,-148.88L-4.90,-147.88L39.14,-150.06L58.61,-148.20L76.56,-147.81L75.22,-130.10L75.10,-61.61L73.97,-53.78L53.05,-51.73L-3.29,-52.45L-10.05,-53.25L-19.32,-56.44L-21.32,-57.91L-22.97,-61.61L-23.24,-67.78L-17.68,-111.99L-16.95,-138.72L-15.61,-144.56" />
        <path d="M245.54,63.52L228.45,60.67L224.01,60.80L226.80,64.92L227.20,75.80L235.53,77.25L245.54,77.45L246.85,63.78" />
      </g>
      <g id="f15" style="--index:15; opacity:0;" class="frame">
        <path d="M-39.85,-117.81L-39.85,-117.81" />
        <path d="M48.82,-156.89L19.80,-143.42L-16.34,-128.63L-39.85,-117.81L-36.27,-116.22L-33.83,-113.56L3.31,-44.63L6.29,-43.44L12.59,-46.69L29.54,-53.39L64.09,-64.14L77.54,-69.52L90.25,-76.22L86.75,-81.59L74.95,-110.66L56.95,-150.27L54.90,-153.19" />
        <path d="M252.02,57.48L246.52,53.91L226.74,47.39L218.59,46.67L214.15,47.00L209.83,48.53L208.06,50.58L209.38,54.44L209.58,82.17L210.96,84.22L225.13,87.61L244.41,90.53L257.71,91.25L259.44,90.53L260.11,89.20L260.23,65.25L258.59,57.88L256.34,56.48" />
      </g>
    </g>
    <g id="t2" transform="translate(-963.05 -5.84)" class="thread">
      <g id="f0" style="--index:0; opacity:1;" class="frame">
        <path d="M510.17,19.17L498.58,17.19L465.40,17.13L460.31,17.72L456.79,19.05L449.58,24.48L446.60,28.73L443.49,36.63L443.28,46.25L445.81,52.02L453.41,61.84L456.21,64.42L463.42,68.28L479.11,70.67L492.08,69.20L500.83,66.61L506.65,63.89L512.28,60.31L518.24,54.88L520.95,51.03L522.80,46.52L524.32,40.81L524.59,34.70L521.22,27.00L518.78,23.89L514.34,19.97L507.13,17.98" />
        <path d="M431.63,279.67L437.93,282.13L450.10,282.19L460.77,279.47L481.55,269.05L502.29,255.52L514.40,248.89L523.34,239.27L525.59,235.08L525.66,232.16L521.82,227.31L514.80,225.27L507.31,225.74L496.58,229.25L479.24,239.27L467.86,244.58L454.93,249.08L435.40,259.03L429.78,264.67L427.86,269.66L427.80,275.63L432.42,279.21" />
      </g>
      <g id="f1" style="--index:1; opacity:0;" class="frame">
        <path d="M542.08,-20.77L534.14,-21.70L525.99,-20.91L517.44,-18.38L512.67,-15.86L507.84,-11.48L504.73,-7.44L498.44,3.98L496.98,10.28L496.98,18.91L500.29,25.08L505.58,30.78L508.38,32.25L521.43,35.44L528.64,34.70L539.77,27.88L547.17,20.91L553.61,10.28L556.17,2.92L556.32,-6.91L553.80,-13.08L548.44,-20.23" />
        <path d="M517.84,250.81L530.37,249.75L547.50,249.61L566.24,246.96L572.20,245.63L581.27,242.11L585.31,239.80L586.77,237.80L586.19,234.81L581.60,228.58L574.60,225.21L563.59,222.28L548.77,222.02L532.54,218.83L522.89,219.22L516.19,220.69L507.44,224.80L502.08,232.36L501.29,237.21L502.69,240.78L508.57,246.30L515.32,249.02L525.26,249.67" />
      </g>
      <g id="f2" style="--index:2; opacity:0;" class="frame">
        <path d="M524.32,-33.31L523.93,-28.33L524.99,-23.36L529.24,-15.92L531.41,-13.67L536.25,-10.08L540.41,-8.50L545.19,-7.77L555.32,-8.16L558.97,-9.22L564.93,-12.47L575.91,-21.23L584.19,-29.13L598.76,-45.66L605.32,-55.73L608.62,-67.41L608.76,-73.45L603.65,-83.74L599.69,-88.52L585.58,-96.28L581.27,-97.00L569.16,-96.81L562.47,-94.08L553.80,-89.17L548.56,-83.61L539.16,-71.00L533.08,-60.78L524.32,-37.42L524.14,-33.05" />
        <path d="M649.41,224.94L626.71,222.94L606.18,219.36L595.38,218.96L583.73,221.08L577.31,225.27L573.33,232.36L573.14,237.67L575.58,243.05L580.08,247.30L586.83,250.55L606.11,256.11L611.35,257.05L628.02,257.58L635.84,257.52L649.01,254.13L655.18,250.81L657.95,247.75L659.54,244.31L659.08,239.39L654.39,231.36L650.68,226.19L649.07,225.33" />
      </g>
      <g id="f3" style="--index:3; opacity:0;" class="frame">
        <path d="M586.96,-119.06L579.56,-114.86L571.95,-108.02L568.89,-103.97L565.91,-96.55L565.11,-89.50L565.84,-79.28L569.55,-71.13L573.47,-66.42L581.75,-58.92L588.36,-55.47L596.51,-52.81L608.30,-51.48L616.43,-51.75L621.02,-53.22L638.03,-64.63L642.86,-69.94L646.76,-75.97L648.89,-81.88L649.16,-89.11L648.49,-91.89L645.30,-97.80L636.50,-109.14L630.42,-113.99L620.68,-119.63L611.01,-122.95L592.00,-122.49L588.36,-120.83L586.96,-119.06" />
        <path d="M589.23,-120.03L586.92,-118.97" />
        <path d="M725.76,203.10L712.98,201.11L696.43,200.91L678.09,204.50L664.85,210.33L660.54,213.85L656.83,218.50L652.39,228.72L646.43,238.06L644.90,242.64L644.99,245.77L647.16,250.61L649.41,253.07L655.24,255.72L662.85,256.58L671.33,259.24L689.68,270.19L703.18,276.36L716.81,278.74L733.11,279.27L738.99,277.88L746.56,274.57L751.12,271.38L753.10,269.05L760.71,256.85L763.69,243.64L763.78,228.99L760.92,223.47L749.21,214.31L737.08,207.08L733.36,203.77L725.63,201.52" />
      </g>
      <g id="f4" style="--index:4; opacity:0;" class="frame">
        <path d="M707.69,-118.03L678.28,-128.39L662.27,-131.97L647.88,-133.36L627.23,-132.38L619.16,-129.78L611.53,-126.13L604.78,-120.03L601.01,-108.55L600.94,-98.74L603.80,-87.78L605.78,-83.53L619.75,-65.95L622.85,-63.50L632.46,-57.45L645.90,-52.42L657.10,-51.09L671.61,-52.28L692.66,-59.05L698.62,-61.84L706.43,-67.49L709.87,-70.92L715.56,-79.28L718.48,-89.91L718.34,-103.38L713.38,-115.05L709.39,-117.05L707.48,-119.09" />
        <path d="M735.70,201.17L740.66,222.61L744.31,232.42L748.66,237.61L756.88,244.11L763.90,246.10L778.26,246.16L799.25,239.33L808.26,233.10L813.57,226.25L815.41,218.16L816.86,201.38L818.66,196.67L828.20,179.88L829.98,173.97L830.58,165.35L827.87,158.78L824.89,154.53L819.85,150.81L809.26,145.25L799.06,142.92L789.60,142.72L783.83,143.58L764.90,152.14L759.92,155.39L753.10,161.97L743.83,176.42L738.81,187.97L737.68,200.38L738.01,205.16" />
        <path d="M328.14,-76.11" />
        <path d="M359.93,161.10" />
      </g>
      <g id="f5" style="--index:5; opacity:0;" class="frame">
        <path d="M723.71,-145.24L718.27,-147.89L711.92,-149.16L699.54,-148.83L688.34,-146.11L683.44,-143.85L680.61,-141.60L675.38,-135.16L671.73,-128.92L669.15,-121.16L667.75,-108.81L671.86,-94.34L674.77,-88.31L677.88,-84.06L683.65,-79.28L691.93,-74.11L698.14,-72.19L705.83,-71.86L709.60,-72.92L715.75,-76.44L720.40,-80.34L728.07,-88.91L736.49,-103.91L738.35,-109.28L739.33,-118.17L738.35,-133.63L735.37,-140.14L730.86,-144.58L727.34,-145.85L722.98,-145.64" />
        <path d="M826.87,155.80L828.52,149.30L834.14,140.06L852.09,96.28L855.34,82.41L856.53,63.17L854.68,55.08L852.76,50.83L849.78,47.25L845.88,44.66L838.33,42.67L831.37,42.92L827.27,44.86L823.89,48.91L813.49,67.61L799.92,104.03L795.42,110.28L785.41,120.16L781.64,126.33L778.60,136.75L777.53,144.19L779.20,148.77L785.50,158.38L791.91,164.81L795.81,166.14L803.11,167.41L808.92,167.41L814.03,165.94L826.68,157.66L827.87,154.41" />
        <path d="M326.08,-91.17L328.87,-85.45L334.56,-81.41L341.38,-80.16L346.73,-80.16L350.26,-83.67L351.05,-86.86L351.45,-102.11L347.01,-107.16L341.19,-108.81L336.21,-108.42L333.77,-106.30L329.33,-97.34L328.48,-97.08" />
        <path d="M364.83,133.70L363.43,147.50L363.89,150.02L365.41,151.61L370.71,154.27L374.42,154.60L378.19,153.67L383.57,150.22L389.53,141.66L404.74,115.05L407.06,107.63L406.74,102.91L405.93,101.52L399.66,97.00L396.41,96.67L391.11,98.86L382.57,104.30L376.08,111.34L370.52,123.35L366.35,129.52L364.95,133.56" />
      </g>
      <g id="f6" style="--index:6; opacity:0;" class="frame">
        <path d="M728.86,-149.16L723.51,-152.41L703.70,-153.47L697.41,-152.20L689.86,-148.63L687.22,-145.85L685.36,-137.94L685.51,-129.13L687.22,-121.89L692.45,-115.19L699.68,-108.81L702.97,-106.95L707.87,-106.03L716.23,-106.30L722.98,-109.41L728.74,-114.72L733.36,-121.09L736.49,-126.60L737.87,-131.05L738.41,-138.14L737.01,-144.05L735.43,-145.85L730.86,-146.56L729.68,-147.77" />
        <path d="M862.89,10.75L857.59,6.03L853.88,-0.86L848.99,-2.72L843.57,-2.78L841.31,-1.66L836.94,1.53L833.16,5.70L830.37,10.42L827.08,18.91L823.62,34.17L819.05,48.83L818.53,56.27L820.51,60.98L823.10,63.97L832.37,68.47L844.69,68.94L850.32,67.34L857.53,62.03L863.62,49.44L866.93,37.69L868.79,27.27L868.18,18.91L864.95,12.55" />
        <path d="M340.92,-121.42L345.42,-112.80L349.53,-109.67L354.30,-108.69L364.62,-108.81L369.39,-111.00L377.21,-119.17L386.28,-133.70L396.13,-146.97L411.98,-166.20L418.25,-171.52L428.19,-182.80L430.44,-188.71L430.57,-195.80L428.78,-200.46L425.67,-205.16L420.04,-208.61L404.95,-209.47L396.93,-206.02L386.55,-199.92L372.64,-189.24L364.68,-181.00L353.30,-163.30L345.69,-145.64L338.94,-133.83L337.67,-125.41L337.81,-122.75L339.06,-121.03" />
        <path d="M406.87,112.67L415.87,104.70L443.82,88.58L455.39,80.69L462.08,75.11L474.74,61.97L478.78,56.59L482.43,47.05L482.62,43.06L481.36,39.67L479.05,37.42L473.94,35.77L468.38,35.56L462.29,36.95L449.31,46.19L441.03,50.56L417.12,67.49L392.82,87.84L387.80,96.94L387.80,105.17L390.11,109.02L395.22,111.74L403.76,112.00L408.66,110.88" />
      </g>
      <g id="f7" style="--index:7; opacity:0;" class="frame">
        <path d="M726.76,-151.94L721.32,-154.27L715.56,-152.74L709.94,-148.95L707.69,-143.52L707.96,-137.14L712.46,-132.30L715.36,-131.05L725.49,-129.72L727.49,-130.97L730.07,-134.69L731.99,-142.13L731.59,-147.77L728.55,-152.14" />
        <path d="M863.83,5.11L868.39,-12.73L872.62,-34.83L873.02,-52.16L871.56,-58.86L869.58,-62.30L865.60,-65.16L861.37,-66.81L856.80,-67.49L852.36,-67.34L848.38,-66.08L845.21,-63.70L842.84,-60.38L840.71,-50.36L839.19,-24.16L836.48,-6.56L836.40,-0.39L840.38,7.03L844.82,10.88L847.73,12.14L852.30,12.20L855.95,11.02L861.97,7.09L864.08,4.45" />
        <path d="M407.60,-212.78L423.29,-217.56L443.74,-221.67L470.63,-223.21L498.98,-227.31L504.88,-227.31L508.32,-226.06L513.80,-220.69L516.32,-214.64L516.19,-209.74L515.19,-206.22L513.67,-202.50L511.09,-199.31L505.19,-194.14L494.27,-187.91L484.14,-183.72L455.33,-174.44L437.66,-174.30L425.61,-172.31L420.98,-172.25L410.43,-177.69L406.99,-183.86L404.89,-203.71L406.14,-206.81L410.52,-211.06" />
        <path d="M535.85,-27.47L531.16,-30.72L520.55,-24.42L510.75,-17.39L490.89,4.38L472.49,20.91L467.19,27.00L460.37,37.16L459.65,39.67L459.77,45.25L464.54,52.16L468.19,54.73L481.76,58.33L491.35,58.25L510.50,51.16L521.28,45.45L537.31,33.84L552.34,26.34L557.63,19.91L559.97,14.14L562.07,5.64L561.82,-2.92L559.49,-8.77L550.82,-21.89L538.89,-29.98" />
      </g>
      <g id="f8" style="--index:8; opacity:0;" class="frame">
        <path d="M155.24,243.58" />
        <path d="M874.87,-72.92L873.35,-89.64L870.58,-95.81L868.18,-98.39L865.28,-100.06L856.13,-103.24L853.36,-103.44L852.36,-102.70L847.40,-92.36L844.75,-79.03L844.42,-47.70L847.67,-43.45L855.61,-39.28L861.49,-38.81L866.81,-41.27L870.43,-45.05L873.68,-50.03L875.08,-55.73L875.08,-63.17L871.10,-76.24" />
        <path d="M537.25,-274.24L529.24,-271.97L515.80,-263.49L489.58,-239.39L480.76,-232.56L477.59,-228.19L474.47,-220.22L473.88,-215.31L474.07,-212.99L477.32,-206.22L487.78,-197.13L497.39,-197.33L511.69,-202.50L521.95,-208.21L530.56,-214.64L538.56,-222.35L547.38,-232.96L553.86,-239.39L565.05,-256.19L566.78,-261.22L567.18,-270.32L567.03,-275.22L565.51,-277.55L557.78,-281.00L547.17,-280.67L542.87,-279.21L532.01,-273.30" />
        <path d="M575.33,-88.45L562.61,-85.86L541.08,-77.09L534.06,-73.05L526.78,-66.88L520.55,-59.66L517.17,-51.75L515.65,-44.13L516.19,-35.09L520.55,-24.75L529.76,-12.88L538.16,-5.11L555.26,4.11L565.32,5.11L572.08,2.66L577.37,-1.13L581.54,-5.44L590.54,-26.88L604.05,-53.14L606.45,-62.44L606.18,-73.99L604.20,-80.55L602.07,-83.94L597.69,-86.78L591.27,-89.50L579.50,-91.03" />
      </g>
      <g id="f9" style="--index:9; opacity:0;" class="frame">
        <path d="M173.59,221.28L167.62,220.02L162.21,220.49L159.16,225.53L158.22,231.83L159.62,234.75L164.58,239.92L166.44,243.38L167.37,246.30L167.44,250.55L172.67,252.00L176.32,252.00L179.21,250.67L181.34,248.02L183.86,239.66L184.32,233.10L182.99,229.38L175.19,218.30" />
        <path d="M865.68,-107.49L858.84,-109.49L854.88,-107.30L852.42,-99.39L851.57,-90.97L852.88,-88.97L859.05,-84.92L864.01,-84.59L865.74,-85.72L868.66,-91.83L869.31,-96.94L863.49,-105.56" />
        <path d="M597.84,-311.99L591.88,-314.38L585.06,-315.18L579.62,-314.91L574.39,-312.85L554.59,-297.46L540.56,-285.44L534.87,-277.75L534.27,-273.71L538.04,-269.39L549.69,-262.61L560.76,-261.03L565.59,-261.96L571.74,-264.88L579.68,-271.97L597.36,-293.41L600.49,-304.61L600.55,-307.21L599.09,-309.07" />
        <path d="M612.11,-119.06L600.42,-118.17L593.07,-116.25L576.52,-108.28L572.26,-105.17L568.89,-100.86L561.40,-87.52L557.71,-83.27L551.21,-78.42L549.42,-75.70L548.71,-68.34L550.09,-61.91L552.21,-58.66L557.97,-53.48L563.26,-50.30L575.18,-47.17L583.27,-47.23L586.77,-47.70L592.07,-49.89L600.09,-55.73L606.91,-61.97L610.28,-66.28L615.06,-76.56L622.39,-99.86L623.12,-104.24L622.93,-110.55L621.93,-112.00L616.64,-117.50L612.11,-119.06" />
        <path d="M612.60,-119.09L609.49,-119.50" />
      </g>
      <g id="f10" style="--index:10; opacity:0;" class="frame">
        <path d="M205.64,203.44L200.60,198.86L191.07,198.06L186.18,199.13L182.74,200.78L178.63,204.16L176.90,207.02L175.44,221.28L184.20,233.56L184.72,239.80L183.20,245.89L187.43,248.96L196.10,251.14L198.49,250.88L202.60,248.89L209.75,240.52L211.73,234.55L216.57,225.47L217.17,218.24L213.86,210.47L210.54,206.63L204.31,203.83L200.81,201.17" />
        <path d="M606.97,-327.44L597.57,-328.97L586.65,-328.18L581.27,-325.72L578.95,-323.33L577.77,-320.21L578.23,-310.60L580.41,-305.08L582.94,-302.03L589.88,-297.13L601.47,-295.86L604.11,-297.78L609.95,-303.89L614.72,-312.52L615.12,-319.88L608.37,-328.77" />
        <path d="M622.27,-156.13L607.43,-153.41L600.94,-148.95L598.42,-145.50L594.59,-137.41L591.73,-127.60L590.88,-121.16L591.94,-111.47L593.98,-108.22L599.49,-104.83L602.20,-104.03L618.29,-102.45L621.93,-104.77L626.17,-111.41L631.27,-125.53L633.19,-133.44L634.44,-148.30L632.40,-153.53L627.23,-157.52" />
      </g>
      <g id="f11" style="--index:11; opacity:0;" class="frame">
        <path d="M202.20,193.75L234.24,179.75L250.67,173.97L257.15,172.99L262.53,173.25L268.88,175.36L274.70,179.35L279.08,185.19L280.87,189.77L281.39,196.74L280.60,201.78L278.28,206.81L272.18,215.85L253.13,229.78L231.66,235.35L223.99,236.02L216.04,234.22L212.86,231.83L207.17,224.94L203.39,213.39L201.93,202.77L203.91,200.64L207.62,198.92" />
        <path d="M605.11,-326.46" />
        <path d="M635.44,-183.45L625.92,-181.61L620.20,-179.28L613.99,-174.83L607.43,-166.28L606.18,-162.03L606.97,-157.52L611.68,-150.08L615.51,-146.64L624.12,-142.78L630.15,-142.25L635.90,-144.85L640.61,-149.49L644.90,-158.11L646.51,-168.47L643.72,-175.83L642.13,-178.61L639.42,-181.00" />
      </g>
      <g id="f12" style="--index:12; opacity:0;" class="frame">
        <path d="M353.11,172.41L339.73,166.20L320.33,160.97L302.19,158.45L293.90,158.31L287.14,159.44L281.51,161.50L274.76,165.61L270.74,168.86L268.49,172.05L266.36,179.14L266.03,197.06L269.80,205.56L273.57,210.86L278.35,215.05L283.37,217.63L289.48,219.36L303.90,220.42L320.45,220.36L325.16,219.22L336.88,215.11L342.05,212.06L352.90,203.10L358.32,196.67L360.33,191.22L360.26,184.33L358.14,179.02L353.11,172.41" />
        <path d="M353.97,172.91L348.74,166.74" />
        <path d="M627.10,-167.61" />
      </g>
      <g id="f13" style="--index:13; opacity:0;" class="frame">
        <path d="M377.06,142.92L370.98,139.27L367.20,139.41L358.32,141.92L347.61,147.30L331.98,158.25L324.83,166.41L322.70,170.60L320.78,179.28L320.72,189.36L323.31,198.06L327.81,205.69L331.12,208.61L338.86,212.52L348.01,213.66L358.80,212.66L368.93,209.27L377.73,202.83L384.42,193.94L389.32,183.72L393.30,170.60L393.88,160.11L392.24,154.47L384.63,142.19L380.98,139.35L375.81,137.28" />
      </g>
      <g id="f14" style="--index:14; opacity:0;" class="frame">
        <path d="M387.92,93.49L381.38,95.34L377.15,97.67L372.64,101.13L364.95,110.61L358.20,125.00L357.47,133.03L357.80,142.19L362.24,154.00L367.60,161.56L372.37,165.55L381.65,168.94L396.20,168.94L401.18,166.35L407.06,160.97L413.41,152.35L417.33,144.58L423.81,123.02L424.75,115.72L424.27,105.50L420.83,96.55L416.21,91.36L412.68,88.99L404.81,86.33L394.22,85.92L386.00,89.58L381.31,94.42" />
      </g>
      <g id="f15" style="--index:15; opacity:0;" class="frame">
        <path d="M456.33,34.91L442.49,36.89L434.34,38.95L425.15,42.86L413.96,51.30L404.49,60.64L400.91,65.30L398.45,70.67L397.53,80.16L398.99,90.56L403.76,100.25L409.79,107.36L415.14,110.55L435.01,113.86L437.72,113.13L450.37,104.44L459.50,95.94L469.78,84.74L474.28,75.44L477.59,62.56L477.78,51.63L476.13,45.19L472.36,37.16L467.80,33.05L459.58,29.27L453.29,29.86" />
        <path d="M425.88,283.92" />
      </g>
    </g>
    <g id="t3" transform="translate(-699.30 -282.34)" class="thread">
      <g id="f0" style="--index:0; opacity:1;" class="frame">
        <path d="M545.77,292.36L566.62,281.08L569.47,279.16L571.85,276.30L573.85,271.92L574.83,267.02L574.58,256.92L572.33,245.78L571.39,235.42L571.72,231.11L573.45,227.27L576.29,223.89L580.40,220.97L585.36,218.70L603.18,215.27L610.20,212.67L615.04,208.22L616.68,203.45L616.89,197.81L615.43,181.01L616.08,175.31L618.73,169.47L623.56,164.50L630.07,160.84" />
      </g>
      <g id="f1" style="--index:1; opacity:0;" class="frame">
        <path d="M42.13,468.99L47.50,469.52L52.47,467.99L57.70,465.47L62.80,460.95" />
        <path d="M621.25,165.69L625.69,161.64L648.99,150.89L652.64,147.78L654.68,142.67L655.62,136.50L655.95,125.55L654.62,110.69L655.81,104.92L660.25,98.15L673.11,88.12L675.94,84.81" />
      </g>
      <g id="f2" style="--index:2; opacity:0;" class="frame">
        <path d="M65.37,461.55L81.46,453.80L85.96,450.20L90.21,445.36L95.11,436.61L103.32,414.05L107.62,407.02L110.99,404.75L129.48,396.47L141.38,389.09L147.22,384.19" />
        <path d="M663.44,95.15L675.03,86.53L687.53,81.23L697.20,78.70" />
      </g>
      <g id="f3" style="--index:3; opacity:0;" class="frame">
        <path d="M139.13,387.91L150.47,381.94L165.83,369.53L171.92,362.63L177.09,354.33L182.51,340.59L184.18,330.97L185.89,308.34L187.62,301.58L191.33,294.28L194.77,290.77L209.06,282.80L226.22,271.59L231.78,266.87L236.54,260.17L242.56,247.31L245.54,232.31L245.35,216.12L241.25,190.70L240.46,177.70L241.37,165.23L243.44,158.92L254.36,137.95L264.03,123.83L274.89,113.28L292.69,98.28L296.34,96.03" />
      </g>
      <g id="f4" style="--index:4; opacity:0;" class="frame">
        <path d="M286.73,103.33L306.34,88.33L324.81,79.11L337.25,74.06L342.15,71.01L351.09,62.72L358.45,53.09L361.43,47.33L372.62,13.09L379.29,-0.11L388.38,-7.96L411.48,-23.67" />
      </g>
      <g id="f5" style="--index:5; opacity:0;" class="frame">
        <path d="M-93.15,497.72L-94.21,488.89L-96.38,484.25L-97.98,477.61" />
      </g>
      <g id="f6" style="--index:6; opacity:0;" class="frame">
        <path d="M-96.25,472.11L-96.13,466.47L-99.36,453.72L-113.74,415.31L-116.39,406.75L-118.70,394.61L-118.89,380.28L-117.31,372.31L-114.14,365.94L-107.72,358.44L-104.47,353.20L-101.22,345.38L-100.03,339.73L-99.84,323.67L-105.13,307.63L-112.07,291.95L-114.93,277.03L-114.39,266.28L-112.28,260.25L-109.09,254.87L-101.49,246.64" />
      </g>
      <g id="f7" style="--index:7; opacity:0;" class="frame">
        <path d="M-105.20,250.69L-83.94,229.53L-79.37,222.36L-76.06,214.86L-74.20,207.62L-74.01,200.00L-74.20,195.69L-77.72,180.89L-77.45,168.95L-71.95,154.69L-67.45,148.97L-59.51,143.67L-53.09,141.40L-46.85,140.34L-35.33,142.61L-15.07,144.59L1.09,144.06L18.49,142.08L29.56,139.42L34.64,137.09L39.35,133.64L43.07,129.67L48.48,121.44L50.40,116.92L53.53,102.12L53.32,88.86L45.44,45.06L45.25,37.04L47.36,28.75L51.53,20.98L66.10,4.79L71.00,1.34L90.28,-7.82" />
      </g>
      <g id="f8" style="--index:8; opacity:0;" class="frame">
        <path d="M78.17,-1.97L82.67,-6.10L84.84,-7.02L102.14,-11.47L123.77,-12.72L140.66,-11.27L156.75,-13.60L165.75,-16.32L173.32,-20.75L179.13,-27.19L183.05,-35.02L189.99,-56.64L192.18,-60.77L195.04,-63.75L203.56,-68.53L215.09,-71.91L237.27,-75.22L255.55,-75.36" />
      </g>
      <g id="f9" style="--index:9; opacity:0;" class="frame">
        <path d="M185.76,517.10L192.51,517.42L200.79,513.64L203.37,510.86L207.54,499.91L211.04,494.80L218.67,488.75L225.22,485.05" />
        <path d="M246.27,-70.91L274.41,-73.91L295.88,-81.21L301.11,-81.60L306.07,-80.86L309.97,-79.28" />
        <path d="M112.58,409.20L124.31,403.89L131.32,398.19L134.11,394.88" />
      </g>
      <g id="f10" style="--index:10; opacity:0;" class="frame">
        <path d="M221.24,481.27L236.68,470.38L277.93,451.47L288.19,445.36L295.40,439.45L301.57,432.95L307.72,423.47L319.06,394.61L323.02,387.44L329.98,377.63L338.65,370.06L350.91,363.22L372.54,353.41L389.57,342.45L396.60,334.75L401.22,326.73L409.10,308.16L410.16,302.58" />
        <path d="M303.09,-85.78L316.53,-86.11L318.51,-86.91L319.52,-88.50" />
        <path d="M135.63,394.94L144.43,384.25L147.74,378.95L151.91,367.94L152.24,360.77L145.49,346.38L136.95,334.56L129.80,327.19L113.31,302.70L103.85,284.86L94.57,264.83L83.98,247.64L71.14,214.00L62.87,186.73L60.55,164.76L60.41,155.08L63.26,144.39L67.56,134.44L81.06,116.39" />
      </g>
      <g id="f11" style="--index:11; opacity:0;" class="frame">
        <path d="M400.95,323.48L409.29,310.08L413.54,299.66L415.58,289.11L417.65,268.27L420.02,253.34L423.73,237.16L427.63,228.33L434.59,217.78L444.85,207.95L460.48,196.08L476.24,186.47L491.73,174.25L498.56,167.16L502.46,160.84L506.05,151.42L507.17,143.67L508.15,125.01L511.19,114.20L517.16,106.05L530.75,92.84L537.29,85.28" />
        <path d="M74.98,123.30L77.10,117.00L80.42,110.69L85.71,102.39L89.42,98.28L93.19,95.09L97.36,92.90L113.12,86.94L116.83,85.67L123.92,84.87L155.83,86.61L188.60,81.76L201.19,77.58L211.25,70.67L215.09,66.50L230.85,40.89L233.76,37.97L238.06,35.31L243.77,33.25" />
      </g>
      <g id="f12" style="--index:12; opacity:0;" class="frame">
        <path d="M505.17,139.01L508.76,134.78L509.21,125.95L511.19,114.34L514.72,105.19L518.09,98.87L526.31,88.79L548.21,71.08L551.74,67.29L553.32,64.44L555.76,54.22L557.03,52.17" />
        <path d="M237.66,38.50L245.14,31.59L249.19,29.94L256.55,28.81L277.06,28.28L305.74,31.73L337.80,34.12L357.12,34.39L366.73,32.65L375.86,29.34L384.53,24.43L392.28,18.39L414.67,-4.89" />
      </g>
      <g id="f13" style="--index:13; opacity:0;" class="frame">
        <path d="M556.36,47.78L561.87,44.34L566.37,40.36" />
        <path d="M401.68,7.25L406.52,5.18L412.48,0.93L421.88,-7.16L442.60,-35.49L446.06,-41.99" />
        <path d="M-4.27,512.85L-1.62,519.28L3.19,522.66L12.07,525.66L23.87,526.71L33.79,525.05" />
      </g>
      <g id="f14" style="--index:14; opacity:0;" class="frame">
        <path d="M442.08,-37.88L447.98,-42.52L451.48,-51.80" />
        <path d="M29.68,522.74L34.46,524.99L45.44,527.77L58.30,529.24L123.13,531.81L139.07,531.28L155.83,528.50L171.98,523.92L187.95,517.42L203.04,510.06L216.48,501.44L231.78,488.16L239.58,478.61L247.06,465.20L251.84,450.14L253.90,435.49L254.09,421.55L252.57,407.75L248.13,383.33L248.86,369.72L253.11,361.77L262.76,351.08L274.10,341.27" />
      </g>
      <g id="f15" style="--index:15; opacity:0;" class="frame">
        <path d="M267.53,349.02L273.10,343.64L287.33,320.89L298.78,307.63L306.01,301.25L314.68,295.28L324.68,289.91L336.00,285.66L347.45,283.27L360.31,282.41L374.33,282.47L388.05,284.59L401.56,288.31L439.16,302.52L464.59,310.14L478.30,313.00L492.73,314.66L507.50,314.78L522.20,311.80L536.71,304.50L547.88,294.95L555.84,285.39" />
      </g>
    </g>
    <g id="t4" transform="translate(-699.30 -282.34)" class="thread">
      <g id="f0" style="--index:0; opacity:1;" class="frame">
        <path d="M69.41,210.22L58.61,210.55L58.55,215.00L56.70,221.77L56.24,227.27L64.78,228.66L72.27,228.80L72.73,212.41" />
      </g>
      <g id="f1" style="--index:1; opacity:0;" class="frame">
        <path d="M80.81,41.69L80.48,55.75L122.25,55.22L122.13,48.72L124.65,43.73L110.87,41.75L87.30,42.54L84.11,43.40L82.73,42.81" />
      </g>
      <g id="f2" style="--index:2; opacity:0;" class="frame">
        <path d="M117.50,40.95L124.38,42.61L165.90,42.61L211.52,46.26L243.89,46.59L243.89,49.19L242.16,53.62L239.12,58.61L237.14,60.12L207.61,62.51L182.11,62.58L149.01,60.12L137.49,57.81L112.85,54.75L111.06,53.09L112.39,39.09" />
      </g>
      <g id="f3" style="--index:3; opacity:0;" class="frame">
        <path d="M223.97,61.51L223.97,61.51" />
        <path d="M223.97,61.51L223.97,61.51" />
        <path d="M227.20,47.98L235.41,46.53L271.24,47.72L267.34,60.47L228.99,60.73L223.97,61.51L226.22,47.12" />
      </g>
      <g id="f4" style="--index:4; opacity:0;" class="frame">
        <path d="M398.18,60.26L397.64,65.97L398.18,68.03L435.39,68.89L435.59,55.75L424.65,53.89L415.98,53.62L403.93,54.36L397.57,56.01" />
      </g>
      <g id="f5" style="--index:5; opacity:0;" class="frame">
        <path d="M431.16,63.69L448.10,66.89L464.40,68.03L505.90,67.29L525.31,68.03L537.75,66.97L555.70,68.75L566.16,67.83L563.18,63.78L561.32,59.14L561.26,53.15L563.18,49.11L540.54,46.59L502.40,49.84L454.00,50.25L442.26,51.11L431.15,53.50L431.16,63.69" />
        <path d="M430.36,58.26L430.49,63.51L431.16,63.69L431.34,67.29L431.61,66.03" />
        <path d="M30.01,487.04L30.14,495.33L30.75,496.06L59.22,493.27L71.00,493.21L68.95,489.89L62.26,483.91L47.63,483.99L34.33,485.77L30.01,487.04" />
        <path d="M29.95,485.38L30.01,487.04L25.72,488.69L25.39,488.24" />
      </g>
      <g id="f6" style="--index:6; opacity:0;" class="frame">
        <path d="M597.61,48.65L569.60,45.00L562.05,44.87L556.49,45.86L555.11,47.12L552.07,59.06L552.07,61.78L554.32,65.04L563.24,67.03L596.82,68.95L605.49,65.70L602.11,55.36L601.72,51.58" />
        <path d="M103.72,477.22L94.72,478.67L68.04,478.14L62.72,479.21L62.07,480.00L62.60,493.53L63.12,492.88L66.31,492.81L123.71,496.60L154.58,495.06L190.72,497.05L215.69,497.19L232.51,496.99L242.25,495.33L242.31,494.27L238.27,488.83L232.43,477.08L229.99,475.36L227.93,474.96L195.10,472.38L176.09,472.77L151.60,475.63L126.56,480.47L107.16,475.81L101.80,475.81L98.95,476.88" />
      </g>
      <g id="f7" style="--index:7; opacity:0;" class="frame">
        <path d="M189.08,430.83L189.08,430.83" />
        <path d="M189.17,430.53L189.17,430.53" />
        <path d="M189.08,430.75L189.08,430.75" />
        <path d="M124.04,431.03L124.04,431.03" />
        <path d="M125.96,411.27L188.26,411.19L189.08,412.33L189.08,430.75L159.14,431.77L131.65,430.30L124.04,431.03L123.98,420.22L124.90,418.16" />
        <path d="M615.89,47.98L598.61,47.86L593.38,59.40L592.59,63.45L593.11,65.37L605.03,67.15L617.35,67.95L616.81,60.65L617.29,48.65" />
        <path d="M271.97,473.71L228.93,473.24L228.80,476.75L226.07,483.78L225.43,489.10L231.51,492.28L235.95,492.94L263.63,493.60L266.34,492.81L265.28,487.44L265.15,476.55" />
      </g>
      <g id="f8" style="--index:8; opacity:0;" class="frame">
        <path d="M171.92,408.28L204.83,408.80L234.95,410.47L276.99,410.53L312.70,407.41L352.82,406.35L378.90,407.22L377.13,421.81L369.56,423.27L346.65,425.80L302.69,425.33L278.12,428.97L270.78,428.97L254.55,430.77L226.22,431.03L207.54,433.36L189.66,433.16L174.90,429.58L173.57,428.11L173.05,413.19" />
      </g>
      <g id="f9" style="--index:9; opacity:0;" class="frame">
        <path d="M426.71,400.78L405.39,401.24L388.78,398.52L373.94,397.27L353.28,397.33L340.69,399.58L336.46,412.19L335.61,419.89L341.76,422.28L346.26,423.06L373.88,422.35L398.76,423.00L425.59,421.67L432.95,420.35L432.34,408.28L431.55,405.55" />
      </g>
      <g id="f10" style="--index:10; opacity:0;" class="frame">
        <path d="M443.81,397.99L438.57,398.72L421.02,397.99L419.11,412.66L419.56,419.42L420.75,423.60L424.86,424.20L454.33,422.02L452.60,414.58L452.41,404.10" />
      </g>
      <g id="f11" style="--index:11; opacity:0;" class="frame" />
      <g id="f12" style="--index:12; opacity:0;" class="frame">
        <path d="M317.51,216.29L317.12,228.20L323.87,226.61L343.61,226.87L348.65,227.53L351.09,229.06L350.09,222.75L350.43,217.78L349.45,216.98L339.50,215.12L330.44,214.59L321.95,214.73L317.51,216.29" />
        <path d="M317.51,215.98L315.01,216.98" />
      </g>
      <g id="f13" style="--index:13; opacity:0;" class="frame">
        <path d="M-107.91,226.14L-107.45,231.78L-106.26,233.17L-72.62,233.17L-73.28,227.53L-72.74,219.58L-79.37,218.11L-92.36,217.78L-104.99,218.52L-109.24,219.37L-109.24,220.03" />
        <path d="M344.74,216.58L350.70,216.06L377.13,218.17L411.69,219.77L432.40,222.36L456.37,223.48L466.17,224.81L482.01,224.22L472.80,239.81L470.28,240.61L466.44,239.67L409.50,234.37L376.65,233.58L360.70,229.33L354.87,226.53L346.13,226.47L343.88,225.81L342.48,222.62L342.30,218.44" />
      </g>
      <g id="f14" style="--index:14; opacity:0;" class="frame">
        <path d="M27.54,225.41L27.54,225.41" />
        <path d="M-77.58,219.70L-78.37,225.14L-76.39,227.41L-74.87,228.00L-50.63,228.33L-25.41,230.12L-11.50,229.86L8.36,227.86L19.16,225.47L27.54,225.41L24.60,217.64L24.91,213.00L26.91,209.48L-0.04,209.55L-30.24,212.47L-59.30,213.00L-66.14,212.00L-67.91,212.87L-70.30,215.66L-71.68,221.09" />
        <path d="M503.32,221.77L493.79,222.36L477.30,220.11L471.01,220.89L470.15,221.69L468.36,227.73L467.96,232.91L468.96,237.16L471.74,239.87L474.45,240.67L510.15,241.73L512.13,239.08L513.13,231.91L510.07,224.34" />
      </g>
      <g id="f15" style="--index:15; opacity:0;" class="frame">
        <path d="M61.68,208.95L56.05,209.42L20.22,206.97L20.49,221.83L21.35,223.36L24.26,224.95L41.40,225.67L55.38,227.67L62.66,227.59L63.20,227.14L63.05,213.06" />
        <path d="M520.68,224.22L512.01,224.81L509.48,225.94L508.94,231.98L507.03,238.02L509.28,237.22L511.19,237.62L517.16,241.14L520.22,241.41L521.80,235.16L522.32,227.53" />
      </g>
    </g>
  </g>
</svg>