<?xml version="1.0" encoding="utf-8"?>
<svg width="1366" height="1024" viewBox="-670 -512 1366 1024" xmlns="http://www.w3.org/2000/svg">
  <style>
svg { background-color:#e9e9e9; }

#looom { --version:2; }

#t0 {
--visible:1; --timeOffset:52; --speed:4; --bookmarkIndex:-1; --latched:0; --playMode:0; --masked:0; --blendMode:0; 
fill:#8E84AF; stroke-opacity:0; fill-opacity:1; stroke-width:10; stroke-linecap:round; stroke-linejoin:round;
}
@keyframes t0 { 0% { opacity: 1; } 6.25% { opacity: 0; } }
#t0 .frame { animation:t0 2s calc(var(--index) * 0.125s) steps(1) infinite; }

#t1 {
--visible:1; --timeOffset:52; --speed:4; --bookmarkIndex:-1; --latched:0; --playMode:0; --masked:0; --blendMode:0; 
fill:#5400D7; stroke-opacity:0; fill-opacity:1; stroke-width:10; stroke-linecap:round; stroke-linejoin:round;
}
@keyframes t1 { 0% { opacity: 1; } 6.25% { opacity: 0; } }
#t1 .frame { animation:t1 2s calc(var(--index) * 0.125s) steps(1) infinite; }

#t2 {
--visible:1; --timeOffset:42; --speed:4; --bookmarkIndex:-1; --latched:0; --playMode:0; --masked:0; --blendMode:0; 
stroke:#FF55AE; stroke-opacity:1; fill-opacity:0; stroke-width:21.74059; stroke-linecap:round; stroke-linejoin:round;
}
@keyframes t2 { 0% { opacity: 1; } 6.25% { opacity: 0; } }
#t2 .frame { animation:t2 2s calc(var(--index) * 0.125s) steps(1) infinite; }

#t3 {
--visible:1; --timeOffset:28; --speed:4; --bookmarkIndex:-1; --latched:0; --playMode:0; --masked:0; --blendMode:0; 
stroke:#fff; stroke-opacity:1; fill-opacity:0; stroke-width:21.74059; stroke-linecap:round; stroke-linejoin:round;
}
@keyframes t3 { 0% { opacity: 1; } 6.25% { opacity: 0; } }
#t3 .frame { animation:t3 2s calc(var(--index) * 0.125s) steps(1) infinite; }

</style>
  <g id="w0" transform="translate(-282.00 140.50) scale(0.83 0.83) rotate(-359.76)" class="weave">
    <g id="t0" transform="translate(-415.25 159.14) scale(0.93 0.93) rotate(-3.01)" class="thread">
      <g id="f0" transform="translate(789.41 -267.07)" style="--index:0; opacity:1;" class="frame">
        <path d="M33.45,-110.66L28.14,-109.19L20.99,-102.49L15.70,-94.00L7.48,-73.83L6.11,-68.72L4.98,-52.66L5.44,-39.52L7.15,-29.23L9.40,-20.94L16.76,-3.30L22.32,6.86L29.99,16.48L40.46,24.77L42.98,25.97L50.28,27.30L57.28,27.23L60.86,26.17L67.55,22.66L74.89,14.48L80.67,1.69L84.04,-21.61L83.96,-40.78L83.17,-46.89L77.87,-67.99L70.06,-84.31L61.13,-96.25L50.73,-107.00L44.96,-110.72L36.04,-111.78" />
      </g>
      <g id="f1" transform="translate(789.41 -267.07)" style="--index:1; opacity:0;" class="frame">
        <path d="M35.37,-112.31L28.68,-110.66L18.88,-103.95L7.02,-93.67L-1.77,-84.38L-7.00,-75.88L-8.34,-70.64L-8.67,-62.14L-7.34,-54.72L-4.75,-48.48L1.13,-41.84L10.21,-36.20L24.64,-31.42L29.81,-30.44L47.61,-30.89L60.59,-35.41L74.83,-47.09L78.27,-50.67L80.67,-54.92L82.83,-61.16L83.44,-69.58L83.50,-75.02L81.79,-83.91L76.89,-91.81L62.84,-105.74L58.55,-108.33L50.67,-110.58L39.33,-110.72L32.79,-109.92L26.55,-108.00" />
      </g>
      <g id="f2" transform="translate(789.41 -267.07)" style="--index:2; opacity:0;" class="frame">
        <path d="M55.02,-109.77L42.65,-111.91L37.08,-111.99L25.64,-106.53L13.26,-97.78L5.77,-88.16L4.25,-83.99L3.59,-79.06L3.52,-73.42L4.50,-69.25L10.73,-60.89L14.24,-58.63L25.70,-55.52L33.31,-55.45L47.94,-58.89L52.84,-61.55L57.82,-66.19L62.91,-72.83L66.16,-80.00L68.28,-88.75L68.41,-94.13L65.22,-102.30L59.01,-107.74L55.02,-109.77" />
        <path d="M55.82,-109.59L53.78,-110.45" />
        <path d="M272.95,92.52L267.65,94.50L263.55,97.83L261.15,104.33L261.57,109.77L265.47,112.89L272.43,114.75L276.66,112.09L279.97,108.70L282.74,101.55L282.62,98.95L281.29,95.83L277.85,94.17L273.80,94.50L270.97,95.44L268.72,98.36" />
      </g>
      <g id="f3" transform="translate(789.41 -267.07)" style="--index:3; opacity:0;" class="frame">
        <path d="M31.77,-110.60L29.41,-110.25L20.93,-101.77L17.82,-93.80L17.61,-89.28L19.95,-83.31L24.12,-79.67L26.55,-78.34L31.54,-77.41L36.75,-77.34L44.71,-80.20L52.98,-87.24L56.61,-95.99L57.15,-104.94L56.09,-107.14L51.80,-111.84L47.75,-113.97L41.33,-113.97L31.77,-110.60" />
        <path d="M34.43,-110.99L26.37,-108.39" />
        <path d="M258.40,108.33L259.71,109.83L269.36,110.36L273.55,108.31L281.29,102.86L285.66,96.56L288.04,91.45L289.83,83.63L289.56,77.45L283.87,69.89L277.05,64.99L269.63,63.99L262.61,67.77L252.69,75.80L249.04,81.83L246.91,89.59L247.19,96.44L250.62,102.80L255.73,107.25L258.40,108.33" />
        <path d="M256.40,106.05L258.40,108.33L266.99,109.03L272.82,107.31L273.47,105.78" />
      </g>
      <g id="f4" transform="translate(789.41 -267.07)" style="--index:4; opacity:0;" class="frame">
        <path d="M34.58,-112.11L30.33,-108.33L28.95,-104.02L29.20,-98.78L32.72,-94.39L36.04,-93.14L39.54,-93.14L45.11,-94.86L48.55,-98.31L50.80,-102.16L52.26,-106.88L52.53,-110.84L51.59,-112.64L47.15,-116.22L43.10,-116.30L40.33,-115.16L32.91,-108.00" />
        <path d="M253.94,101.67L259.23,101.61L263.15,99.75L269.97,94.77L275.93,88.67L279.18,83.36L281.95,76.13L282.22,69.95L280.83,67.38L271.49,56.22L259.50,45.94L250.04,35.92L213.02,-24.00L189.66,-51.53L177.19,-61.02L161.43,-68.72L150.91,-68.92L145.22,-66.00L141.63,-59.30L140.44,-54.52L139.59,-45.56L139.92,-39.45L148.80,-19.61L160.91,-0.77L185.47,24.64L192.49,33.92L200.18,41.89L220.63,69.42L231.09,85.61L240.10,93.25L242.41,96.17L246.91,98.28L254.08,97.63L259.23,95.64L262.15,93.31L264.13,93.11L265.01,90.45" />
        <path d="M-156.45,-232.00L-161.50,-228.89L-165.06,-223.78L-165.33,-218.41L-163.54,-214.96L-161.75,-213.50L-155.93,-212.77L-149.51,-214.75L-146.66,-218.00L-144.95,-221.92L-144.53,-228.30L-145.20,-230.22L-147.84,-232.61L-152.28,-233.14L-155.14,-231.94L-157.33,-230.08L-159.50,-226.56" />
      </g>
      <g id="f5" transform="translate(789.41 -267.07)" style="--index:5; opacity:0;" class="frame">
        <path d="M27.28,-110.13L31.27,-102.95L35.62,-99.44L43.31,-96.99L51.07,-97.05L60.07,-100.03L67.01,-103.36L90.46,-118.41L105.16,-126.25L131.32,-137.39L137.40,-139.05L159.73,-149.00L184.95,-167.31L188.84,-170.97L195.35,-178.27L202.56,-190.47L205.48,-198.10L207.73,-212.83L207.46,-225.31L205.14,-234.66L202.83,-240.71L196.54,-251.11L191.37,-255.89L185.74,-259.02L179.65,-259.88L172.44,-259.28L162.10,-253.71L156.74,-248.47L150.39,-239.71L144.49,-229.42L135.09,-207.66L124.02,-190.21L110.05,-177.94L96.42,-167.78L72.06,-153.45L35.71,-127.91L29.26,-118.88L26.49,-112.97L26.37,-109.99L27.49,-105.55L28.08,-103.81L29.35,-102.95" />
        <path d="M159.64,-67.75L154.74,-68.13L149.85,-64.74L146.28,-60.89L143.30,-53.19L142.57,-41.98L143.57,-34.88L147.99,-25.13L172.57,11.17L180.17,19.73L188.14,24.58L196.26,27.30L207.52,29.02L211.56,29.02L214.75,27.89L218.44,24.77L218.98,23.44L218.86,12.50L217.59,5.73L215.80,0.89L208.58,-10.72L196.87,-35.08L185.15,-51.14L172.84,-64.88L166.42,-69.11L162.23,-69.05L159.64,-67.75" />
        <path d="M172.04,-62.48L159.64,-67.75L155.95,-65.41" />
        <path d="M-167.57,-226.43L-172.94,-224.38L-178.11,-216.41L-179.17,-213.50L-179.90,-203.67L-176.25,-197.05L-170.75,-191.74L-159.04,-186.49L-148.78,-185.50L-141.49,-188.81L-138.51,-191.33L-134.73,-196.25L-131.50,-204.94L-131.11,-214.63L-133.02,-221.99L-135.40,-226.24L-138.05,-229.49L-142.09,-232.00L-150.30,-233.47L-155.47,-233.41L-159.77,-232.00L-167.57,-226.43" />
        <path d="M-156.06,-223.85L-162.75,-226.36L-167.57,-226.43L-170.44,-223.72L-172.82,-218.88L-173.21,-215.22" />
      </g>
      <g id="f6" transform="translate(789.41 -267.07)" style="--index:6; opacity:0;" class="frame">
        <path d="M180.51,-260.08L167.27,-254.03L160.71,-249.39L142.84,-230.02L131.38,-213.89L125.69,-200.69L120.85,-192.06L112.04,-180.99L94.42,-164.27L91.77,-160.88L90.73,-157.16L90.65,-154.11L91.52,-151.99L97.55,-144.75L100.65,-142.36L109.60,-139.45L117.41,-139.38L139.72,-147.35L167.54,-161.08L190.51,-177.60L202.89,-189.88L206.87,-195.58L211.96,-205.21L215.48,-221.86L215.27,-230.35L213.36,-239.44L209.92,-246.41L204.81,-253.05L200.10,-257.63L195.08,-260.08L187.32,-260.61L175.15,-257.28" />
        <path d="M165.88,-67.62L160.52,-68.31L156.35,-66.92L153.83,-65.47L150.24,-60.09L148.32,-52.86L147.80,-42.11L148.47,-37.73L158.33,-17.89L163.83,-10.92L170.65,-4.69L180.44,-0.77L184.95,-0.64L190.57,-4.30L196.81,-13.52L197.60,-20.48L197.45,-29.70L195.28,-41.84L190.30,-51.14L179.65,-63.14L173.23,-67.13L165.88,-67.62" />
        <path d="M172.84,-62.94L166.94,-67.33L161.50,-66.66L159.45,-67.39" />
        <path d="M-165.00,-224.38L-170.04,-222.46L-183.47,-197.17L-214.59,-155.17L-228.76,-133.74L-235.78,-119.74L-243.48,-107.33L-247.71,-98.25L-252.67,-75.49L-252.73,-66.86L-251.54,-64.80L-246.44,-61.55L-231.89,-60.56L-221.03,-62.28L-213.15,-65.59L-201.62,-75.02L-189.70,-88.89L-178.11,-105.67L-173.73,-113.11L-164.73,-133.94L-150.16,-172.89L-141.82,-189.08L-139.38,-205.21L-140.11,-212.36L-142.82,-217.81L-145.59,-220.86L-154.14,-224.97L-158.45,-224.58L-162.23,-221.33L-167.92,-213.10L-172.29,-209.91L-175.25,-209.58L-175.80,-208.31" />
      </g>
      <g id="f7" transform="translate(789.41 -267.07)" style="--index:7; opacity:0;" class="frame">
        <path d="M200.37,-259.82L194.81,-261.74L189.18,-262.39L177.46,-257.89L164.81,-249.78L160.58,-246.21L147.34,-232.53L144.49,-228.16L139.38,-215.96L138.59,-203.94L139.59,-200.96L143.24,-195.25L148.99,-188.02L154.01,-183.83L165.81,-179.52L177.28,-179.33L181.51,-180.13L191.76,-184.77L198.18,-189.74L205.54,-197.50L209.71,-203.35L217.13,-216.41L218.19,-220.13L219.05,-229.42L219.05,-235.19L218.05,-240.03L215.67,-245.41L208.19,-255.50L205.02,-258.35L197.14,-261.94" />
        <path d="M165.21,-67.13L159.52,-67.39L157.66,-66.45L153.76,-60.95L152.83,-56.70L152.70,-50.27L155.41,-41.52L158.79,-35.41L166.54,-28.05L173.96,-23.27L179.53,-21.47L182.82,-21.41L187.20,-23.59L190.39,-27.25L191.76,-30.09L191.82,-39.39L190.18,-45.03L180.38,-57.56L173.90,-64.41L169.71,-67.66L156.93,-67.39L153.49,-66.13" />
        <path d="M-252.21,-66.19L-246.52,-63.28L-236.45,-61.81L-231.28,-61.88L-222.74,-64.27L-215.59,-68.78L-205.73,-76.94L-199.04,-84.84L-191.82,-95.25L-182.22,-111.38L-173.88,-127.64L-164.33,-160.02L-164.14,-168.11L-165.46,-175.02L-168.92,-181.78L-174.13,-186.56L-178.78,-188.81L-182.01,-189.02L-184.47,-188.02L-187.39,-185.30L-193.28,-175.94L-202.54,-156.63L-209.23,-147.02L-219.57,-137.52L-231.41,-128.44L-241.75,-117.42L-247.50,-109.66L-251.88,-98.84L-254.98,-87.36L-256.50,-77.55L-255.86,-70.97L-251.94,-65.74L-249.35,-63.41L-247.89,-63.08" />
        <path d="M-136.40,111.03L-142.49,111.95L-148.18,115.81L-149.64,117.80L-149.64,121.45L-148.18,123.97L-146.32,125.56L-141.70,127.42L-135.40,126.81L-132.09,124.10L-129.59,116.80L-129.38,110.24L-131.29,108.50L-134.73,107.45L-136.19,107.45L-140.70,109.83L-142.55,109.83" />
      </g>
      <g id="f8" transform="translate(789.41 -267.07)" style="--index:8; opacity:0;" class="frame">
        <path d="M200.70,-260.27L195.20,-261.53L190.57,-260.74L181.63,-255.36L172.69,-246.94L167.79,-239.83L164.69,-232.27L163.10,-225.50L162.89,-217.08L166.27,-206.92L168.33,-203.14L174.48,-195.58L180.65,-190.67L186.28,-189.21L191.57,-189.02L204.29,-194.58L213.29,-200.96L220.23,-210.64L223.42,-217.08L225.93,-224.64L226.80,-233.33L225.93,-242.56L220.90,-252.71L214.75,-258.88L210.44,-261.27L204.29,-262.39" />
        <path d="M165.88,-66.31L161.43,-65.14L158.45,-60.56L157.54,-49.08L159.06,-44.36L162.16,-39.66L168.33,-35.41L175.82,-32.30L181.51,-32.75L185.40,-35.88L188.93,-41.98L189.32,-51.53L188.26,-54.72L185.55,-58.83L177.92,-64.53L170.58,-66.27L165.88,-66.31" />
        <path d="M170.04,-66.00L161.71,-65.86" />
        <path d="M-252.60,-68.39L-245.85,-66.13L-233.26,-65.59L-228.82,-66.19L-219.69,-69.25L-210.56,-74.09L-203.54,-79.80L-199.10,-84.17L-191.74,-93.47L-188.64,-99.17L-186.78,-105.28L-186.45,-118.22L-191.89,-126.58L-196.85,-131.28L-203.27,-134.35L-207.04,-134.53L-214.00,-131.49L-218.84,-132.94L-225.45,-132.14L-238.10,-122.00L-249.10,-107.80L-251.35,-103.09L-254.65,-91.28L-255.13,-75.95L-254.59,-73.83L-251.75,-69.99L-246.04,-68.58" />
        <path d="M-133.88,111.77L-131.11,104.39L-130.77,91.33L-133.88,84.55L-139.30,79.58L-143.49,78.05L-156.12,77.25L-161.29,79.44L-165.67,82.97L-167.98,86.67L-172.94,101.20L-180.42,112.28L-180.03,115.55L-173.54,119.52L-165.73,122.24L-147.78,124.17L-140.36,122.97L-132.02,117.13L-130.04,113.95L-129.71,109.17" />
      </g>
      <g id="f9" transform="translate(789.41 -267.07)" style="--index:9; opacity:0;" class="frame">
        <path d="M214.48,-259.28L207.79,-262.27L201.31,-261.33L199.52,-260.21L193.89,-253.24L188.78,-241.50L186.86,-233.06L185.86,-216.75L187.13,-210.78L191.10,-205.06L195.53,-202.41L198.33,-201.49L207.52,-201.22L215.67,-207.33L219.38,-212.10L221.24,-216.02L224.49,-225.44L225.13,-229.49L224.61,-247.74L218.86,-260.41L216.80,-262.92L213.75,-264.58L211.04,-268.17" />
        <path d="M173.69,-65.33L168.00,-65.47L161.43,-61.28L158.60,-55.64L158.12,-51.86L159.06,-49.94L164.02,-45.42L169.71,-41.98L174.02,-40.98L180.11,-41.05L181.69,-41.72L183.95,-44.17L185.95,-48.34L186.13,-54.52L182.97,-58.70L178.13,-62.75L174.82,-62.94L171.17,-61.61L170.50,-62.75" />
        <path d="M-247.98,-68.45L-237.76,-67.86L-230.82,-69.31L-219.03,-76.02L-210.63,-83.11L-205.46,-91.41L-204.66,-95.59L-205.58,-105.34L-207.31,-110.84L-209.29,-112.97L-215.07,-114.89L-227.18,-113.97L-232.53,-117.55L-239.83,-117.69L-243.33,-115.50L-250.42,-107.53L-257.50,-93.27L-258.36,-90.08L-258.23,-82.72L-257.17,-78.88L-253.61,-73.16L-248.56,-68.39L-243.66,-65.86" />
        <path d="M-168.38,116.00L-163.27,116.41L-153.22,114.49L-146.26,109.03L-138.38,100.02L-135.80,91.39L-135.67,70.49L-137.53,62.06L-139.51,58.41L-157.85,37.25L-163.48,29.22L-168.83,19.53L-174.00,15.42L-179.57,14.42L-182.67,16.02L-189.37,22.45L-192.41,28.22L-193.60,32.59L-193.60,50.45L-189.64,61.06L-187.97,70.69L-187.91,77.66L-189.91,87.88L-190.70,101.14L-189.57,105.13L-184.07,111.69L-175.80,115.28L-168.38,116.00" />
        <path d="M-173.61,114.67L-168.38,116.00L-164.54,115.88L-153.28,111.95L-147.72,111.09" />
      </g>
      <g id="f10" transform="translate(789.41 -267.07)" style="--index:10; opacity:0;" class="frame">
        <path d="M222.49,-252.97L220.90,-258.61L216.67,-260.27L214.21,-260.21L209.04,-256.16L205.48,-246.80L203.89,-231.41L203.89,-220.27L205.08,-215.10L207.12,-211.17L210.56,-208.72L214.67,-208.58L217.98,-210.17L219.51,-212.03L225.67,-222.19L228.26,-231.41L228.51,-242.49L223.42,-254.30" />
        <path d="M169.57,-64.88L166.00,-64.88L164.08,-61.69L163.75,-54.39L167.12,-50.73L171.23,-48.61L175.48,-48.08L184.49,-53.86L185.07,-58.70L181.24,-62.48L171.04,-65.67L169.57,-64.88" />
        <path d="M172.84,-64.27L168.06,-64.88" />
        <path d="M-239.36,-68.78L-235.99,-68.78L-227.70,-75.22L-219.82,-83.99L-217.50,-87.63L-216.59,-94.53L-219.63,-102.56L-222.61,-104.75L-233.99,-106.20L-240.22,-103.28L-245.79,-101.95L-251.27,-97.91L-255.65,-91.08L-257.17,-82.58L-253.86,-75.28L-247.25,-70.31L-242.60,-68.72L-239.36,-68.78" />
        <path d="M-246.85,-70.44L-240.16,-68.78L-238.83,-69.25" />
        <path d="M-157.74,40.00L-164.60,29.48L-168.77,20.27L-173.67,15.48L-177.19,14.55L-183.67,14.81L-190.30,26.17L-194.53,48.53L-194.08,60.94L-191.55,67.24L-182.15,85.16L-181.09,90.06L-181.30,96.70L-177.44,98.95L-172.02,99.28L-163.14,97.36L-153.74,93.31L-147.26,87.14L-143.74,80.91L-142.49,74.86L-142.55,64.78L-143.49,60.86L-145.99,55.56L-157.74,40.00" />
        <path d="M-155.72,43.61L-158.91,39.11" />
      </g>
      <g id="f11" transform="translate(789.41 -267.07)" style="--index:11; opacity:0;" class="frame">
        <path d="M228.72,-243.81L228.45,-249.00L227.66,-250.46L224.40,-252.25L221.96,-251.91L218.65,-247.53L215.40,-239.11L212.81,-226.17L212.81,-218.61L214.02,-216.16L216.13,-214.89L219.38,-214.83L222.55,-216.16L227.93,-223.85L229.57,-228.36L230.97,-239.31L229.91,-248.06" />
        <path d="M174.94,-66.86L171.11,-63.14L170.98,-59.36L172.63,-56.38L175.09,-55.31L177.80,-55.31L179.99,-56.78L180.51,-58.83L179.99,-63.34L178.13,-64.88L175.55,-64.20" />
        <path d="M-237.93,-71.05L-233.26,-76.61L-231.74,-81.33L-231.07,-89.22L-232.68,-92.94L-236.12,-95.52L-243.79,-96.58L-247.77,-96.45L-253.40,-93.53L-255.86,-90.08L-256.50,-85.70L-256.38,-79.41L-254.52,-75.09L-249.02,-71.30L-241.29,-69.78L-239.04,-69.99L-237.93,-71.05" />
        <path d="M-244.18,-71.24L-239.04,-70.58L-237.70,-71.30" />
        <path d="M-172.48,16.81L-175.40,12.70L-177.44,11.77L-181.69,11.44L-186.26,13.16L-189.57,18.14L-191.03,25.91L-190.37,48.98L-186.45,56.95L-176.07,63.59L-172.61,64.58L-168.04,64.66L-163.41,62.80L-158.37,59.14L-155.93,56.16L-154.74,52.11L-154.60,41.63L-157.33,31.81L-161.16,21.98L-167.06,17.02L-170.63,15.08L-174.21,10.64L-179.63,9.84" />
      </g>
      <g id="f12" transform="translate(789.41 -267.07)" style="--index:12; opacity:0;" class="frame">
        <path d="M228.45,-235.06L229.05,-240.44L228.38,-241.42L225.40,-241.83L223.76,-240.30L221.63,-234.74L219.57,-217.88L221.63,-216.94L223.28,-217.14L226.01,-220.06L228.05,-225.71L228.72,-234.13" />
        <path d="M-246.25,-72.03L-240.74,-71.70L-238.56,-73.30L-236.64,-77.02L-235.99,-85.64L-239.95,-91.47L-243.00,-93.06L-247.31,-93.06L-253.00,-89.36L-254.65,-86.17L-255.13,-81.78L-250.35,-75.81L-244.60,-72.17L-243.79,-72.83" />
        <path d="M-164.21,15.74L-176.38,2.81L-179.44,2.14L-184.07,2.55L-187.78,4.94L-193.53,12.44L-196.91,20.00L-197.85,24.58L-197.85,29.48L-196.39,33.86L-193.35,40.56L-189.70,45.55L-178.05,56.16L-167.92,58.61L-164.60,57.81L-159.98,53.23L-156.72,47.39L-155.47,41.42L-155.66,33.13L-156.79,29.02L-160.50,20.00L-164.21,15.74" />
        <path d="M-161.89,18.73L-169.71,10.64" />
      </g>
      <g id="f13" transform="translate(789.41 -267.07)" style="--index:13; opacity:0;" class="frame">
        <path d="M-245.25,-74.83L-239.62,-74.42" />
        <path d="M-171.57,8.96L-173.00,6.00L-175.92,3.73L-178.38,3.67L-185.99,6.72L-188.84,9.70L-191.89,15.28L-193.14,19.73L-193.01,24.91L-188.11,34.86L-181.49,42.36L-176.38,45.61L-169.50,47.39L-165.52,47.53L-161.23,44.48L-158.64,40.03L-157.12,31.67L-157.18,25.38L-160.37,17.67L-164.33,13.30L-169.23,10.97L-171.57,8.96" />
        <path d="M-171.09,12.89L-171.57,8.96L-173.27,8.05" />
      </g>
      <g id="f14" transform="translate(789.41 -267.07)" style="--index:14; opacity:0;" class="frame">
        <path d="M33.79,177.58L25.97,185.14L20.53,193.30L19.61,199.74L21.39,203.86L27.68,207.97L34.25,208.10L40.73,205.31L45.69,201.00L48.94,196.81L50.00,193.17L49.86,188.80L44.90,178.91L41.12,176.58L38.94,176.58L32.52,180.70" />
        <path d="M-173.21,10.64L-175.59,5.80L-180.57,5.80L-182.49,6.92L-188.18,14.02L-189.09,20.39L-188.11,24.77L-182.09,32.34L-177.44,35.39L-171.69,37.05L-167.38,37.38L-165.39,36.66L-162.08,33.53L-160.56,27.03L-160.43,22.13L-161.16,19.53L-166.92,11.30L-175.73,5.47" />
      </g>
      <g id="f15" transform="translate(789.41 -267.07)" style="--index:15; opacity:0;" class="frame">
        <path d="M49.00,194.63L50.92,189.78L55.30,168.69L58.74,145.33L62.97,105.66L75.37,38.70L77.54,21.19L77.75,9.44L80.06,-18.56L80.00,-32.95L76.89,-51.33L71.18,-69.19L63.51,-84.44L54.69,-96.05L49.27,-100.89L42.25,-105.61L32.12,-108.27L24.64,-107.33L19.22,-103.95L15.45,-99.38L12.07,-89.63L10.00,-77.74L9.34,-66.80L9.28,-11.25L16.49,59.81L17.76,93.11L17.09,118.80L14.32,156.88L13.78,181.42L14.97,188.00L17.03,192.31L25.83,202.99L28.68,204.58L34.58,205.11L40.94,202.27L47.36,197.08L50.34,192.11" />
        <path d="M-173.88,7.92L-179.11,6.19L-183.34,11.44L-184.01,17.14L-182.15,21.52L-179.17,24.97L-175.98,26.77L-171.81,27.69L-166.92,23.38L-165.39,19.47L-165.73,16.81L-170.63,10.84L-172.75,9.38L-175.52,9.11L-179.11,9.97" />
      </g>
    </g>
    <g id="t1" transform="translate(313.00 -142.75)" class="thread">
      <g id="f0" style="--index:0; opacity:1;" class="frame">
        <path d="M33.45,-110.66L28.14,-109.19L20.99,-102.49L15.70,-94.00L7.48,-73.83L6.11,-68.72L4.98,-52.66L5.44,-39.52L7.15,-29.23L9.40,-20.94L16.76,-3.30L22.32,6.86L29.99,16.48L40.46,24.77L42.98,25.97L50.28,27.30L57.28,27.23L60.86,26.17L67.55,22.66L74.89,14.48L80.67,1.69L84.04,-21.61L83.96,-40.78L83.17,-46.89L77.87,-67.99L70.06,-84.31L61.13,-96.25L50.73,-107.00L44.96,-110.72L36.04,-111.78" />
      </g>
      <g id="f1" style="--index:1; opacity:0;" class="frame">
        <path d="M35.37,-112.31L28.68,-110.66L18.88,-103.95L7.02,-93.67L-1.77,-84.38L-7.00,-75.88L-8.34,-70.64L-8.67,-62.14L-7.34,-54.72L-4.75,-48.48L1.13,-41.84L10.21,-36.20L24.64,-31.42L29.81,-30.44L47.61,-30.89L60.59,-35.41L74.83,-47.09L78.27,-50.67L80.67,-54.92L82.83,-61.16L83.44,-69.58L83.50,-75.02L81.79,-83.91L76.89,-91.81L62.84,-105.74L58.55,-108.33L50.67,-110.58L39.33,-110.72L32.79,-109.92L26.55,-108.00" />
      </g>
      <g id="f2" style="--index:2; opacity:0;" class="frame">
        <path d="M55.02,-109.77L42.65,-111.91L37.08,-111.99L25.64,-106.53L13.26,-97.78L5.77,-88.16L4.25,-83.99L3.59,-79.06L3.52,-73.42L4.50,-69.25L10.73,-60.89L14.24,-58.63L25.70,-55.52L33.31,-55.45L47.94,-58.89L52.84,-61.55L57.82,-66.19L62.91,-72.83L66.16,-80.00L68.28,-88.75L68.41,-94.13L65.22,-102.30L59.01,-107.74L55.02,-109.77" />
        <path d="M55.82,-109.59L53.78,-110.45" />
        <path d="M272.95,92.52L267.65,94.50L263.55,97.83L261.15,104.33L261.57,109.77L265.47,112.89L272.43,114.75L276.66,112.09L279.97,108.70L282.74,101.55L282.62,98.95L281.29,95.83L277.85,94.17L273.80,94.50L270.97,95.44L268.72,98.36" />
      </g>
      <g id="f3" style="--index:3; opacity:0;" class="frame">
        <path d="M31.77,-110.60L29.41,-110.25L20.93,-101.77L17.82,-93.80L17.61,-89.28L19.95,-83.31L24.12,-79.67L26.55,-78.34L31.54,-77.41L36.75,-77.34L44.71,-80.20L52.98,-87.24L56.61,-95.99L57.15,-104.94L56.09,-107.14L51.80,-111.84L47.75,-113.97L41.33,-113.97L31.77,-110.60" />
        <path d="M34.43,-110.99L26.37,-108.39" />
        <path d="M258.40,108.33L259.71,109.83L269.36,110.36L273.55,108.31L281.29,102.86L285.66,96.56L288.04,91.45L289.83,83.63L289.56,77.45L283.87,69.89L277.05,64.99L269.63,63.99L262.61,67.77L252.69,75.80L249.04,81.83L246.91,89.59L247.19,96.44L250.62,102.80L255.73,107.25L258.40,108.33" />
        <path d="M256.40,106.05L258.40,108.33L266.99,109.03L272.82,107.31L273.47,105.78" />
      </g>
      <g id="f4" style="--index:4; opacity:0;" class="frame">
        <path d="M34.58,-112.11L30.33,-108.33L28.95,-104.02L29.20,-98.78L32.72,-94.39L36.04,-93.14L39.54,-93.14L45.11,-94.86L48.55,-98.31L50.80,-102.16L52.26,-106.88L52.53,-110.84L51.59,-112.64L47.15,-116.22L43.10,-116.30L40.33,-115.16L32.91,-108.00" />
        <path d="M253.94,101.67L259.23,101.61L263.15,99.75L269.97,94.77L275.93,88.67L279.18,83.36L281.95,76.13L282.22,69.95L280.83,67.38L271.49,56.22L259.50,45.94L250.04,35.92L213.02,-24.00L189.66,-51.53L177.19,-61.02L161.43,-68.72L150.91,-68.92L145.22,-66.00L141.63,-59.30L140.44,-54.52L139.59,-45.56L139.92,-39.45L148.80,-19.61L160.91,-0.77L185.47,24.64L192.49,33.92L200.18,41.89L220.63,69.42L231.09,85.61L240.10,93.25L242.41,96.17L246.91,98.28L254.08,97.63L259.23,95.64L262.15,93.31L264.13,93.11L265.01,90.45" />
        <path d="M-156.45,-232.00L-161.50,-228.89L-165.06,-223.78L-165.33,-218.41L-163.54,-214.96L-161.75,-213.50L-155.93,-212.77L-149.51,-214.75L-146.66,-218.00L-144.95,-221.92L-144.53,-228.30L-145.20,-230.22L-147.84,-232.61L-152.28,-233.14L-155.14,-231.94L-157.33,-230.08L-159.50,-226.56" />
      </g>
      <g id="f5" style="--index:5; opacity:0;" class="frame">
        <path d="M27.28,-110.13L31.27,-102.95L35.62,-99.44L43.31,-96.99L51.07,-97.05L60.07,-100.03L67.01,-103.36L90.46,-118.41L105.16,-126.25L131.32,-137.39L137.40,-139.05L159.73,-149.00L184.95,-167.31L188.84,-170.97L195.35,-178.27L202.56,-190.47L205.48,-198.10L207.73,-212.83L207.46,-225.31L205.14,-234.66L202.83,-240.71L196.54,-251.11L191.37,-255.89L185.74,-259.02L179.65,-259.88L172.44,-259.28L162.10,-253.71L156.74,-248.47L150.39,-239.71L144.49,-229.42L135.09,-207.66L124.02,-190.21L110.05,-177.94L96.42,-167.78L72.06,-153.45L35.71,-127.91L29.26,-118.88L26.49,-112.97L26.37,-109.99L27.49,-105.55L28.08,-103.81L29.35,-102.95" />
        <path d="M159.64,-67.75L154.74,-68.13L149.85,-64.74L146.28,-60.89L143.30,-53.19L142.57,-41.98L143.57,-34.88L147.99,-25.13L172.57,11.17L180.17,19.73L188.14,24.58L196.26,27.30L207.52,29.02L211.56,29.02L214.75,27.89L218.44,24.77L218.98,23.44L218.86,12.50L217.59,5.73L215.80,0.89L208.58,-10.72L196.87,-35.08L185.15,-51.14L172.84,-64.88L166.42,-69.11L162.23,-69.05L159.64,-67.75" />
        <path d="M172.04,-62.48L159.64,-67.75L155.95,-65.41" />
        <path d="M-167.57,-226.43L-172.94,-224.38L-178.11,-216.41L-179.17,-213.50L-179.90,-203.67L-176.25,-197.05L-170.75,-191.74L-159.04,-186.49L-148.78,-185.50L-141.49,-188.81L-138.51,-191.33L-134.73,-196.25L-131.50,-204.94L-131.11,-214.63L-133.02,-221.99L-135.40,-226.24L-138.05,-229.49L-142.09,-232.00L-150.30,-233.47L-155.47,-233.41L-159.77,-232.00L-167.57,-226.43" />
        <path d="M-156.06,-223.85L-162.75,-226.36L-167.57,-226.43L-170.44,-223.72L-172.82,-218.88L-173.21,-215.22" />
      </g>
      <g id="f6" style="--index:6; opacity:0;" class="frame">
        <path d="M180.51,-260.08L167.27,-254.03L160.71,-249.39L142.84,-230.02L131.38,-213.89L125.69,-200.69L120.85,-192.06L112.04,-180.99L94.42,-164.27L91.77,-160.88L90.73,-157.16L90.65,-154.11L91.52,-151.99L97.55,-144.75L100.65,-142.36L109.60,-139.45L117.41,-139.38L139.72,-147.35L167.54,-161.08L190.51,-177.60L202.89,-189.88L206.87,-195.58L211.96,-205.21L215.48,-221.86L215.27,-230.35L213.36,-239.44L209.92,-246.41L204.81,-253.05L200.10,-257.63L195.08,-260.08L187.32,-260.61L175.15,-257.28" />
        <path d="M165.88,-67.62L160.52,-68.31L156.35,-66.92L153.83,-65.47L150.24,-60.09L148.32,-52.86L147.80,-42.11L148.47,-37.73L158.33,-17.89L163.83,-10.92L170.65,-4.69L180.44,-0.77L184.95,-0.64L190.57,-4.30L196.81,-13.52L197.60,-20.48L197.45,-29.70L195.28,-41.84L190.30,-51.14L179.65,-63.14L173.23,-67.13L165.88,-67.62" />
        <path d="M172.84,-62.94L166.94,-67.33L161.50,-66.66L159.45,-67.39" />
        <path d="M-165.00,-224.38L-170.04,-222.46L-183.47,-197.17L-214.59,-155.17L-228.76,-133.74L-235.78,-119.74L-243.48,-107.33L-247.71,-98.25L-252.67,-75.49L-252.73,-66.86L-251.54,-64.80L-246.44,-61.55L-231.89,-60.56L-221.03,-62.28L-213.15,-65.59L-201.62,-75.02L-189.70,-88.89L-178.11,-105.67L-173.73,-113.11L-164.73,-133.94L-150.16,-172.89L-141.82,-189.08L-139.38,-205.21L-140.11,-212.36L-142.82,-217.81L-145.59,-220.86L-154.14,-224.97L-158.45,-224.58L-162.23,-221.33L-167.92,-213.10L-172.29,-209.91L-175.25,-209.58L-175.80,-208.31" />
      </g>
      <g id="f7" style="--index:7; opacity:0;" class="frame">
        <path d="M200.37,-259.82L194.81,-261.74L189.18,-262.39L177.46,-257.89L164.81,-249.78L160.58,-246.21L147.34,-232.53L144.49,-228.16L139.38,-215.96L138.59,-203.94L139.59,-200.96L143.24,-195.25L148.99,-188.02L154.01,-183.83L165.81,-179.52L177.28,-179.33L181.51,-180.13L191.76,-184.77L198.18,-189.74L205.54,-197.50L209.71,-203.35L217.13,-216.41L218.19,-220.13L219.05,-229.42L219.05,-235.19L218.05,-240.03L215.67,-245.41L208.19,-255.50L205.02,-258.35L197.14,-261.94" />
        <path d="M165.21,-67.13L159.52,-67.39L157.66,-66.45L153.76,-60.95L152.83,-56.70L152.70,-50.27L155.41,-41.52L158.79,-35.41L166.54,-28.05L173.96,-23.27L179.53,-21.47L182.82,-21.41L187.20,-23.59L190.39,-27.25L191.76,-30.09L191.82,-39.39L190.18,-45.03L180.38,-57.56L173.90,-64.41L169.71,-67.66L156.93,-67.39L153.49,-66.13" />
        <path d="M-252.21,-66.19L-246.52,-63.28L-236.45,-61.81L-231.28,-61.88L-222.74,-64.27L-215.59,-68.78L-205.73,-76.94L-199.04,-84.84L-191.82,-95.25L-182.22,-111.38L-173.88,-127.64L-164.33,-160.02L-164.14,-168.11L-165.46,-175.02L-168.92,-181.78L-174.13,-186.56L-178.78,-188.81L-182.01,-189.02L-184.47,-188.02L-187.39,-185.30L-193.28,-175.94L-202.54,-156.63L-209.23,-147.02L-219.57,-137.52L-231.41,-128.44L-241.75,-117.42L-247.50,-109.66L-251.88,-98.84L-254.98,-87.36L-256.50,-77.55L-255.86,-70.97L-251.94,-65.74L-249.35,-63.41L-247.89,-63.08" />
        <path d="M-136.40,111.03L-142.49,111.95L-148.18,115.81L-149.64,117.80L-149.64,121.45L-148.18,123.97L-146.32,125.56L-141.70,127.42L-135.40,126.81L-132.09,124.10L-129.59,116.80L-129.38,110.24L-131.29,108.50L-134.73,107.45L-136.19,107.45L-140.70,109.83L-142.55,109.83" />
      </g>
      <g id="f8" style="--index:8; opacity:0;" class="frame">
        <path d="M200.70,-260.27L195.20,-261.53L190.57,-260.74L181.63,-255.36L172.69,-246.94L167.79,-239.83L164.69,-232.27L163.10,-225.50L162.89,-217.08L166.27,-206.92L168.33,-203.14L174.48,-195.58L180.65,-190.67L186.28,-189.21L191.57,-189.02L204.29,-194.58L213.29,-200.96L220.23,-210.64L223.42,-217.08L225.93,-224.64L226.80,-233.33L225.93,-242.56L220.90,-252.71L214.75,-258.88L210.44,-261.27L204.29,-262.39" />
        <path d="M165.88,-66.31L161.43,-65.14L158.45,-60.56L157.54,-49.08L159.06,-44.36L162.16,-39.66L168.33,-35.41L175.82,-32.30L181.51,-32.75L185.40,-35.88L188.93,-41.98L189.32,-51.53L188.26,-54.72L185.55,-58.83L177.92,-64.53L170.58,-66.27L165.88,-66.31" />
        <path d="M170.04,-66.00L161.71,-65.86" />
        <path d="M-252.60,-68.39L-245.85,-66.13L-233.26,-65.59L-228.82,-66.19L-219.69,-69.25L-210.56,-74.09L-203.54,-79.80L-199.10,-84.17L-191.74,-93.47L-188.64,-99.17L-186.78,-105.28L-186.45,-118.22L-191.89,-126.58L-196.85,-131.28L-203.27,-134.35L-207.04,-134.53L-214.00,-131.49L-218.84,-132.94L-225.45,-132.14L-238.10,-122.00L-249.10,-107.80L-251.35,-103.09L-254.65,-91.28L-255.13,-75.95L-254.59,-73.83L-251.75,-69.99L-246.04,-68.58" />
        <path d="M-133.88,111.77L-131.11,104.39L-130.77,91.33L-133.88,84.55L-139.30,79.58L-143.49,78.05L-156.12,77.25L-161.29,79.44L-165.67,82.97L-167.98,86.67L-172.94,101.20L-180.42,112.28L-180.03,115.55L-173.54,119.52L-165.73,122.24L-147.78,124.17L-140.36,122.97L-132.02,117.13L-130.04,113.95L-129.71,109.17" />
      </g>
      <g id="f9" style="--index:9; opacity:0;" class="frame">
        <path d="M214.48,-259.28L207.79,-262.27L201.31,-261.33L199.52,-260.21L193.89,-253.24L188.78,-241.50L186.86,-233.06L185.86,-216.75L187.13,-210.78L191.10,-205.06L195.53,-202.41L198.33,-201.49L207.52,-201.22L215.67,-207.33L219.38,-212.10L221.24,-216.02L224.49,-225.44L225.13,-229.49L224.61,-247.74L218.86,-260.41L216.80,-262.92L213.75,-264.58L211.04,-268.17" />
        <path d="M173.69,-65.33L168.00,-65.47L161.43,-61.28L158.60,-55.64L158.12,-51.86L159.06,-49.94L164.02,-45.42L169.71,-41.98L174.02,-40.98L180.11,-41.05L181.69,-41.72L183.95,-44.17L185.95,-48.34L186.13,-54.52L182.97,-58.70L178.13,-62.75L174.82,-62.94L171.17,-61.61L170.50,-62.75" />
        <path d="M-247.98,-68.45L-237.76,-67.86L-230.82,-69.31L-219.03,-76.02L-210.63,-83.11L-205.46,-91.41L-204.66,-95.59L-205.58,-105.34L-207.31,-110.84L-209.29,-112.97L-215.07,-114.89L-227.18,-113.97L-232.53,-117.55L-239.83,-117.69L-243.33,-115.50L-250.42,-107.53L-257.50,-93.27L-258.36,-90.08L-258.23,-82.72L-257.17,-78.88L-253.61,-73.16L-248.56,-68.39L-243.66,-65.86" />
        <path d="M-168.38,116.00L-163.27,116.41L-153.22,114.49L-146.26,109.03L-138.38,100.02L-135.80,91.39L-135.67,70.49L-137.53,62.06L-139.51,58.41L-157.85,37.25L-163.48,29.22L-168.83,19.53L-174.00,15.42L-179.57,14.42L-182.67,16.02L-189.37,22.45L-192.41,28.22L-193.60,32.59L-193.60,50.45L-189.64,61.06L-187.97,70.69L-187.91,77.66L-189.91,87.88L-190.70,101.14L-189.57,105.13L-184.07,111.69L-175.80,115.28L-168.38,116.00" />
        <path d="M-173.61,114.67L-168.38,116.00L-164.54,115.88L-153.28,111.95L-147.72,111.09" />
      </g>
      <g id="f10" style="--index:10; opacity:0;" class="frame">
        <path d="M222.49,-252.97L220.90,-258.61L216.67,-260.27L214.21,-260.21L209.04,-256.16L205.48,-246.80L203.89,-231.41L203.89,-220.27L205.08,-215.10L207.12,-211.17L210.56,-208.72L214.67,-208.58L217.98,-210.17L219.51,-212.03L225.67,-222.19L228.26,-231.41L228.51,-242.49L223.42,-254.30" />
        <path d="M169.57,-64.88L166.00,-64.88L164.08,-61.69L163.75,-54.39L167.12,-50.73L171.23,-48.61L175.48,-48.08L184.49,-53.86L185.07,-58.70L181.24,-62.48L171.04,-65.67L169.57,-64.88" />
        <path d="M172.84,-64.27L168.06,-64.88" />
        <path d="M-239.36,-68.78L-235.99,-68.78L-227.70,-75.22L-219.82,-83.99L-217.50,-87.63L-216.59,-94.53L-219.63,-102.56L-222.61,-104.75L-233.99,-106.20L-240.22,-103.28L-245.79,-101.95L-251.27,-97.91L-255.65,-91.08L-257.17,-82.58L-253.86,-75.28L-247.25,-70.31L-242.60,-68.72L-239.36,-68.78" />
        <path d="M-246.85,-70.44L-240.16,-68.78L-238.83,-69.25" />
        <path d="M-157.74,40.00L-164.60,29.48L-168.77,20.27L-173.67,15.48L-177.19,14.55L-183.67,14.81L-190.30,26.17L-194.53,48.53L-194.08,60.94L-191.55,67.24L-182.15,85.16L-181.09,90.06L-181.30,96.70L-177.44,98.95L-172.02,99.28L-163.14,97.36L-153.74,93.31L-147.26,87.14L-143.74,80.91L-142.49,74.86L-142.55,64.78L-143.49,60.86L-145.99,55.56L-157.74,40.00" />
        <path d="M-155.72,43.61L-158.91,39.11" />
      </g>
      <g id="f11" style="--index:11; opacity:0;" class="frame">
        <path d="M228.72,-243.81L228.45,-249.00L227.66,-250.46L224.40,-252.25L221.96,-251.91L218.65,-247.53L215.40,-239.11L212.81,-226.17L212.81,-218.61L214.02,-216.16L216.13,-214.89L219.38,-214.83L222.55,-216.16L227.93,-223.85L229.57,-228.36L230.97,-239.31L229.91,-248.06" />
        <path d="M174.94,-66.86L171.11,-63.14L170.98,-59.36L172.63,-56.38L175.09,-55.31L177.80,-55.31L179.99,-56.78L180.51,-58.83L179.99,-63.34L178.13,-64.88L175.55,-64.20" />
        <path d="M-237.93,-71.05L-233.26,-76.61L-231.74,-81.33L-231.07,-89.22L-232.68,-92.94L-236.12,-95.52L-243.79,-96.58L-247.77,-96.45L-253.40,-93.53L-255.86,-90.08L-256.50,-85.70L-256.38,-79.41L-254.52,-75.09L-249.02,-71.30L-241.29,-69.78L-239.04,-69.99L-237.93,-71.05" />
        <path d="M-244.18,-71.24L-239.04,-70.58L-237.70,-71.30" />
        <path d="M-172.48,16.81L-175.40,12.70L-177.44,11.77L-181.69,11.44L-186.26,13.16L-189.57,18.14L-191.03,25.91L-190.37,48.98L-186.45,56.95L-176.07,63.59L-172.61,64.58L-168.04,64.66L-163.41,62.80L-158.37,59.14L-155.93,56.16L-154.74,52.11L-154.60,41.63L-157.33,31.81L-161.16,21.98L-167.06,17.02L-170.63,15.08L-174.21,10.64L-179.63,9.84" />
      </g>
      <g id="f12" style="--index:12; opacity:0;" class="frame">
        <path d="M228.45,-235.06L229.05,-240.44L228.38,-241.42L225.40,-241.83L223.76,-240.30L221.63,-234.74L219.57,-217.88L221.63,-216.94L223.28,-217.14L226.01,-220.06L228.05,-225.71L228.72,-234.13" />
        <path d="M-246.25,-72.03L-240.74,-71.70L-238.56,-73.30L-236.64,-77.02L-235.99,-85.64L-239.95,-91.47L-243.00,-93.06L-247.31,-93.06L-253.00,-89.36L-254.65,-86.17L-255.13,-81.78L-250.35,-75.81L-244.60,-72.17L-243.79,-72.83" />
        <path d="M-164.21,15.74L-176.38,2.81L-179.44,2.14L-184.07,2.55L-187.78,4.94L-193.53,12.44L-196.91,20.00L-197.85,24.58L-197.85,29.48L-196.39,33.86L-193.35,40.56L-189.70,45.55L-178.05,56.16L-167.92,58.61L-164.60,57.81L-159.98,53.23L-156.72,47.39L-155.47,41.42L-155.66,33.13L-156.79,29.02L-160.50,20.00L-164.21,15.74" />
        <path d="M-161.89,18.73L-169.71,10.64" />
      </g>
      <g id="f13" style="--index:13; opacity:0;" class="frame">
        <path d="M-245.25,-74.83L-239.62,-74.42" />
        <path d="M-171.57,8.96L-173.00,6.00L-175.92,3.73L-178.38,3.67L-185.99,6.72L-188.84,9.70L-191.89,15.28L-193.14,19.73L-193.01,24.91L-188.11,34.86L-181.49,42.36L-176.38,45.61L-169.50,47.39L-165.52,47.53L-161.23,44.48L-158.64,40.03L-157.12,31.67L-157.18,25.38L-160.37,17.67L-164.33,13.30L-169.23,10.97L-171.57,8.96" />
        <path d="M-171.09,12.89L-171.57,8.96L-173.27,8.05" />
      </g>
      <g id="f14" style="--index:14; opacity:0;" class="frame">
        <path d="M33.79,177.58L25.97,185.14L20.53,193.30L19.61,199.74L21.39,203.86L27.68,207.97L34.25,208.10L40.73,205.31L45.69,201.00L48.94,196.81L50.00,193.17L49.86,188.80L44.90,178.91L41.12,176.58L38.94,176.58L32.52,180.70" />
        <path d="M-173.21,10.64L-175.59,5.80L-180.57,5.80L-182.49,6.92L-188.18,14.02L-189.09,20.39L-188.11,24.77L-182.09,32.34L-177.44,35.39L-171.69,37.05L-167.38,37.38L-165.39,36.66L-162.08,33.53L-160.56,27.03L-160.43,22.13L-161.16,19.53L-166.92,11.30L-175.73,5.47" />
      </g>
      <g id="f15" style="--index:15; opacity:0;" class="frame">
        <path d="M49.00,194.63L50.92,189.78L55.30,168.69L58.74,145.33L62.97,105.66L75.37,38.70L77.54,21.19L77.75,9.44L80.06,-18.56L80.00,-32.95L76.89,-51.33L71.18,-69.19L63.51,-84.44L54.69,-96.05L49.27,-100.89L42.25,-105.61L32.12,-108.27L24.64,-107.33L19.22,-103.95L15.45,-99.38L12.07,-89.63L10.00,-77.74L9.34,-66.80L9.28,-11.25L16.49,59.81L17.76,93.11L17.09,118.80L14.32,156.88L13.78,181.42L14.97,188.00L17.03,192.31L25.83,202.99L28.68,204.58L34.58,205.11L40.94,202.27L47.36,197.08L50.34,192.11" />
        <path d="M-173.88,7.92L-179.11,6.19L-183.34,11.44L-184.01,17.14L-182.15,21.52L-179.17,24.97L-175.98,26.77L-171.81,27.69L-166.92,23.38L-165.39,19.47L-165.73,16.81L-170.63,10.84L-172.75,9.38L-175.52,9.11L-179.11,9.97" />
      </g>
    </g>
    <g id="t2" transform="translate(313.00 -142.75)" class="thread">
      <g id="f0" style="--index:0; opacity:1;" class="frame">
        <path d="M130.98,129.74L135.94,132.33L142.30,134.39" />
        <path d="M-222.55,165.70L-219.03,160.92L-217.96,158.00L-216.77,144.47L-216.84,138.36L-218.11,131.80L-222.15,121.25" />
      </g>
      <g id="f1" style="--index:1; opacity:0;" class="frame">
        <path d="M-216.59,135.70L-215.92,127.61L-217.32,121.70L-221.55,109.64L-232.14,88.00L-238.83,78.19L-254.98,58.94L-262.80,51.17L-269.43,45.88L-274.51,43.08" />
      </g>
      <g id="f2" style="--index:2; opacity:0;" class="frame">
        <path d="M-260.28,52.64L-265.51,46.34L-289.29,26.17L-316.97,6.45L-325.91,1.16L-341.13,-5.81L-350.40,-8.80L-361.99,-10.92" />
      </g>
      <g id="f3" style="--index:3; opacity:0;" class="frame">
        <path d="M-305.17,13.56L-311.20,7.86L-326.22,0.95L-357.76,-11.59L-374.98,-16.09" />
      </g>
      <g id="f4" style="--index:4; opacity:0;" class="frame">
        <path d="M-339.48,-4.30L-345.05,-9.20L-361.66,-16.97L-373.12,-20.81L-383.77,-22.61L-392.45,-22.94" />
      </g>
      <g id="f5" style="--index:5; opacity:0;" class="frame">
        <path d="M-377.23,-16.77L-382.65,-19.95L-394.70,-23.41" />
        <path d="M354.32,12.30L347.90,10.84L337.56,1.08L326.91,-12.66L319.49,-25.33" />
      </g>
      <g id="f6" style="--index:6; opacity:0;" class="frame">
        <path d="M-119.52,-50.61L-106.99,-51.53L-100.90,-49.20L-94.55,-45.42L-88.79,-40.58" />
        <path d="M-395.16,-24.39" />
        <path d="M328.96,-12.52L323.60,-17.83L318.97,-24.53L312.55,-39.06L310.88,-46.83L311.55,-53.13L318.58,-64.00L319.89,-67.25" />
      </g>
      <g id="f7" style="--index:7; opacity:0;" class="frame">
        <path d="M-98.78,-51.86L-90.96,-50.27L-78.27,-42.84L-69.72,-35.41L-60.78,-24.59L-51.90,-9.73L-45.21,6.27L-42.96,23.58" />
        <path d="M315.84,-56.17L320.49,-81.52L324.72,-93.33L329.56,-100.30L339.50,-109.39L359.68,-121.33L371.41,-124.45L391.67,-124.92" />
      </g>
      <g id="f8" style="--index:8; opacity:0;" class="frame">
        <path d="M-99.45,-133.35L-92.96,-131.36L-84.15,-131.55L-67.60,-135.14L-57.53,-139.38L-47.07,-146.35L-37.33,-156.10L-30.06,-168.17L-25.35,-182.58L-23.49,-199.83L-24.10,-217.35L-28.66,-235.25L-36.81,-251.78L-47.27,-264.66L-59.84,-274.14L-74.35,-281.17L-88.98,-284.83L-103.03,-285.16L-115.41,-280.91" />
        <path d="M-57.07,-20.22L-52.17,-14.64L-46.09,-4.83L-39.12,16.28L-36.94,31.67L-36.35,47.20L-37.14,58.81" />
        <path d="M373.79,-127.56L384.25,-128.17L389.49,-127.64L397.16,-124.92L406.49,-120.14L417.17,-113.30L427.96,-104.55L436.43,-94.66L441.99,-83.45L443.58,-69.45L440.01,-52.45L428.30,-34.88L411.33,-23.73L393.86,-21.61L375.37,-23.94" />
      </g>
      <g id="f9" style="--index:9; opacity:0;" class="frame">
        <path d="M-23.97,-220.74L-22.12,-225.71L-22.18,-229.36L-23.70,-234.00L-27.20,-239.97L-39.64,-255.77L-48.25,-264.78L-59.05,-273.28L-71.24,-279.32L-85.54,-282.03L-101.63,-281.58L-128.86,-276.80" />
        <path d="M-35.75,39.97L-36.81,59.34L-35.81,69.09L-31.52,80.44L-24.43,92.39L-16.15,101.28L-6.54,106.31" />
        <path d="M400.87,-25.78L393.20,-23.41L387.69,-23.59L381.09,-25.72L373.12,-29.50L364.72,-35.94L355.66,-45.83L347.11,-58.63L339.50,-72.89L332.54,-89.81L328.83,-107.94L328.43,-127.38L329.83,-146.08L336.19,-170.03" />
      </g>
      <g id="f10" style="--index:10; opacity:0;" class="frame">
        <path d="M-53.96,-270.30L-60.38,-277.72L-66.07,-281.50L-74.62,-285.22L-85.33,-288.41L-97.32,-289.33L-111.10,-286.61L-143.01,-273.35" />
        <path d="M-23.43,89.20L-15.82,96.70L-2.25,106.19L5.57,109.17L12.19,109.64" />
        <path d="M333.60,-90.94L331.81,-98.38L329.77,-116.56L328.71,-136.20L328.89,-147.35L331.62,-158.89L336.83,-170.36L341.27,-176.41L347.90,-182.17L353.01,-184.50" />
      </g>
      <g id="f11" style="--index:11; opacity:0;" class="frame">
        <path d="M-109.51,-282.17L-119.85,-283.16L-128.38,-282.10L-138.44,-277.99L-149.57,-269.30L-158.64,-258.42L-163.69,-246.21L-164.39,-234.39L-161.16,-224.05" />
        <path d="M3.71,105.33L14.84,107.25L22.84,107.52L30.81,107.31L36.43,106.19" />
        <path d="M331.35,-130.63L333.67,-160.61L335.92,-169.91L340.69,-177.60L348.30,-183.77L358.82,-187.81L362.41,-188.02" />
      </g>
      <g id="f12" style="--index:12; opacity:0;" class="frame">
        <path d="M159.58,140.63L179.84,143.14L266.53,141.88" />
        <path d="M-159.50,-253.44L-162.23,-242.10L-162.35,-234.74L-159.04,-224.17L-152.01,-212.83L-143.68,-202.81L-135.53,-196.17" />
        <path d="M38.48,102.53" />
        <path d="M335.25,-162.67L338.29,-171.69L343.13,-180.52L350.15,-185.63L355.99,-187.10" />
      </g>
      <g id="f13" style="--index:13; opacity:0;" class="frame">
        <path d="M156.02,139.83L166.15,142.75L174.82,144.14L207.92,144.88L213.21,144.08" />
        <path d="M-151.76,-215.89L-151.28,-210.78L-149.64,-206.06L-145.01,-200.30L-130.77,-192.21" />
        <path d="M343.67,-178.66L354.99,-187.36" />
      </g>
      <g id="f14" style="--index:14; opacity:0;" class="frame">
        <path d="M147.07,137.56L157.72,140.69L165.60,141.88L189.32,142.94" />
        <path d="M-133.15,-195.99L-126.73,-189.47L-119.77,-187.89" />
      </g>
      <g id="f15" style="--index:15; opacity:0;" class="frame">
        <path d="M136.82,134.39L146.41,138.30L156.54,140.16L161.37,140.22" />
        <path d="M-115.35,-187.81" />
      </g>
    </g>
    <g id="t3" transform="translate(-355.14 200.06) scale(0.74 0.74) rotate(-349.18)" class="thread">
      <g id="f0" transform="translate(771.47 -281.18)" style="--index:0; opacity:1;" class="frame">
        <path d="M-59.05,-520.81L-68.35,-518.66L-87.13,-510.00L-90.88,-507.05L-87.35,-504.86L-86.01,-501.91L-83.35,-488.34L-83.43,-479.13L-75.00,-479.11L-61.62,-480.84L-53.48,-480.55L-49.36,-488.32L-46.43,-498.11L-46.04,-508.06L-47.77,-516.36L-49.49,-519.47" />
        <path d="M438.21,-751.05L429.26,-750.84L401.59,-743.11L378.36,-738.46L373.76,-736.54L371.27,-733.97L370.55,-731.38L373.32,-719.52L373.69,-700.19L376.07,-685.67L380.88,-672.33L385.14,-666.37L387.81,-658.38L390.96,-654.22L392.18,-653.68L398.74,-654.51L432.58,-665.46L454.60,-670.55L457.32,-672.52L457.60,-674.45L455.99,-680.90L452.19,-712.29L450.36,-732.90L448.07,-741.23L445.62,-745.39" />
        <path d="M-326.47,-566.87L-336.97,-565.49L-338.14,-564.72L-332.21,-543.47L-330.35,-540.18L-328.99,-539.46L-310.36,-541.43L-310.52,-549.04L-312.42,-562.30L-312.21,-566.78" />
        <path d="M547.16,-405.82" />
        <path d="M99.16,-692.98L107.28,-689.92L80.28,-683.18L76.68,-681.14L74.51,-677.61L78.54,-668.22L84.76,-646.04L87.18,-642.18L94.39,-642.70L107.86,-641.68L112.16,-642.31L115.60,-643.97L118.59,-646.65L115.36,-657.11L109.69,-684.38L107.85,-686.48" />
      </g>
      <g id="f1" transform="translate(771.47 -281.18)" style="--index:1; opacity:0;" class="frame">
        <path d="M-68.02,-501.65" />
        <path d="M431.28,-745.70L417.82,-745.94L403.53,-740.48L384.24,-736.17L383.44,-734.03L383.63,-731.27L385.50,-720.12L384.48,-672.59L386.19,-666.16L388.71,-665.76L395.21,-667.04L404.43,-665.16L410.38,-665.88L428.22,-669.05L449.61,-674.56L451.87,-675.99L452.33,-678.07L443.80,-721.20L441.51,-729.50L437.14,-739.40" />
        <path d="M-145.84,-326.92L-154.31,-322.70L-160.36,-320.84L-162.72,-318.84L-163.12,-317.53L-160.16,-302.37L-153.72,-302.19L-145.20,-303.86L-140.67,-303.86L-143.27,-323.42" />
        <path d="M-304.51,-591.34L-318.85,-587.20L-336.04,-584.08L-348.08,-580.50L-353.35,-578.03L-349.97,-576.58L-348.72,-572.52L-349.94,-555.41L-347.76,-542.65L-345.34,-537.59L-335.75,-527.04L-333.61,-526.23L-328.61,-526.11L-311.81,-529.60L-298.90,-535.02L-295.23,-537.07L-292.28,-540.18L-290.71,-542.81L-290.41,-545.22L-295.16,-584.86" />
        <path d="M93.50,-672.03L92.17,-663.00L92.65,-660.56L94.84,-658.98L99.46,-658.65L100.28,-660.72L99.81,-664.18" />
      </g>
      <g id="f2" transform="translate(771.47 -281.18)" style="--index:2; opacity:0;" class="frame">
        <path d="M446.23,-688.76L449.06,-689.31L449.43,-688.49L448.06,-687.65L446.23,-688.76" />
        <path d="M423.69,-733.02L398.87,-728.16L397.55,-726.91L400.81,-713.58L400.87,-707.04L399.18,-694.86L399.22,-685.55L399.81,-683.10L404.02,-679.17L418.10,-681.80L446.23,-688.76L443.77,-693.03L441.64,-701.25L437.96,-729.69" />
        <path d="M-140.93,-344.92L-171.29,-336.67L-176.08,-334.97L-179.31,-333.01L-180.53,-331.21L-180.41,-329.01L-177.99,-328.93L-175.92,-309.39L-170.41,-281.75L-133.52,-288.28L-124.21,-291.12L-122.19,-293.06L-121.02,-295.61L-123.10,-303.97L-125.60,-322.99L-127.23,-325.78" />
        <path d="M-295.10,-616.81L-328.04,-607.16L-339.43,-604.80L-365.45,-602.51L-371.26,-601.24L-371.61,-600.18L-371.40,-599.13L-367.13,-594.74L-364.10,-586.69L-354.77,-549.14L-351.60,-532.37L-350.85,-519.44L-340.79,-517.18L-325.79,-516.35L-304.53,-520.17L-294.03,-523.65L-273.67,-534.40L-271.19,-538.09L-269.78,-553.01L-270.66,-561.93L-275.02,-584.81L-277.58,-596.29L-281.15,-606.01L-284.36,-612.80L-288.45,-617.32" />
      </g>
      <g id="f3" transform="translate(771.47 -281.18)" style="--index:3; opacity:0;" class="frame">
        <path d="M428.77,-727.35L410.59,-724.68L405.71,-723.08L403.16,-721.35L402.93,-718.10L406.95,-714.44L407.95,-711.64L411.83,-689.45L425.39,-692.10L437.38,-693.45L436.30,-699.01L435.56,-714.16L433.91,-720.81" />
        <path d="M-130.96,-374.26L-151.27,-368.96L-170.66,-361.62L-181.44,-355.65L-188.67,-349.14L-196.44,-344.18L-194.73,-340.41L-190.30,-319.53L-183.57,-298.68L-172.71,-271.43L-165.34,-272.20L-141.28,-277.03L-112.84,-286.56L-111.71,-289.33L-111.78,-292.53L-114.64,-307.17L-119.22,-327.24L-125.96,-351.53L-129.51,-370.24" />
        <path d="M-306.19,-611.87L-336.51,-604.48L-352.89,-597.76L-347.93,-571.34L-345.27,-561.65L-335.70,-536.37L-333.25,-531.86L-329.43,-531.59L-316.41,-533.93L-301.78,-538.33L-288.29,-541.30L-283.25,-544.40L-282.99,-546.44L-286.63,-569.01L-292.33,-597.61L-296.81,-615.92L-297.53,-618.00L-300.01,-619.84" />
      </g>
      <g id="f4" transform="translate(771.47 -281.18)" style="--index:4; opacity:0;" class="frame">
        <path d="M-64.28,46.67L-72.83,50.39L-77.21,54.30L-77.73,61.39L-76.81,63.86L-73.43,66.17L-70.24,66.38L-60.51,63.59L-57.40,61.80L-57.80,58.28L-61.57,51.11" />
        <path d="M421.75,-713.55" />
        <path d="M-149.19,-359.39L-157.96,-357.23L-171.37,-350.62L-184.15,-346.35L-188.43,-343.29L-184.01,-341.73L-182.40,-339.17L-173.01,-289.88L-172.07,-287.95L-151.38,-280.59L-146.00,-281.41L-123.27,-297.49L-129.04,-325.42L-134.37,-345.76L-137.11,-359.77L-137.85,-359.63" />
        <path d="M-307.09,-593.84L-316.94,-587.58L-333.96,-581.82L-337.78,-579.30L-337.76,-578.08L-334.85,-576.77L-332.55,-573.56L-327.49,-555.49L-322.78,-555.29L-314.30,-556.61L-299.95,-559.65L-299.16,-560.59L-300.72,-576.02L-303.35,-587.70L-304.12,-587.76" />
      </g>
      <g id="f5" transform="translate(771.47 -281.18)" style="--index:5; opacity:0;" class="frame">
        <path d="M-65.95,-0.25L-87.06,9.11L-96.80,11.64L-97.53,12.77L-97.01,18.41L-97.74,36.45L-91.17,79.58L-89.25,85.02L-85.42,85.28L-59.38,80.64L-38.39,74.08L-41.31,67.50L-42.50,54.56L-44.36,44.61L-60.18,3.08" />
        <path d="M-150.46,-354.50L-162.53,-347.80L-168.43,-342.89L-169.98,-340.13L-165.47,-314.20L-162.77,-307.18L-153.72,-294.88L-147.35,-294.56L-136.03,-297.22L-127.64,-302.41L-137.38,-333.56L-145.80,-355.07" />
        <path d="M-319.59,-573.54" />
      </g>
      <g id="f6" transform="translate(771.47 -281.18)" style="--index:6; opacity:0;" class="frame">
        <path d="M-63.16,-25.19L-70.24,-25.25L-85.67,-21.02L-108.51,-20.08L-118.12,-15.70L-115.66,-11.59L-113.49,2.88L-112.49,16.22L-112.29,40.89L-111.24,50.13L-103.89,82.24L-98.59,97.24L-98.26,104.66L-85.08,105.99L-72.64,104.33L-39.52,98.36L-35.08,96.97L-26.81,92.78L-29.72,81.50L-35.41,38.17L-43.69,6.45L-52.36,-19.34" />
        <path d="M314.94,-246.68L305.58,-240.20L292.45,-237.19L290.58,-236.04L291.07,-222.17L292.49,-214.90L293.77,-213.48L295.77,-212.88L301.63,-213.58L318.04,-220.68L326.37,-222.75L326.56,-230.88L324.33,-240.52" />
        <path d="M-151.68,-316.01" />
      </g>
      <g id="f7" transform="translate(771.47 -281.18)" style="--index:7; opacity:0;" class="frame">
        <path d="M-56.55,-19.16L-66.28,-15.97L-95.74,-13.11L-103.43,-10.19L-105.14,-8.20L-105.07,-7.61L-100.45,-6.55L-99.45,-3.16L-97.59,28.55L-98.53,62.53L-98.05,70.28L-96.53,75.66L-94.34,78.13L-91.77,78.39L-88.06,77.45L-77.79,84.89L-75.54,85.22L-66.41,84.49L-38.79,76.06L-35.29,76.00L-41.83,45.02L-44.36,37.58L-53.48,17.73L-55.09,11.11L-56.61,-6.81" />
        <path d="M315.78,-260.02L321.71,-267.63L327.02,-269.87L293.39,-263.53L278.39,-261.70L273.50,-260.53L269.97,-256.50L271.78,-249.55L273.76,-232.65L276.59,-219.23L279.63,-214.06L288.52,-204.70L289.68,-200.38L317.18,-204.22L326.54,-206.05L334.55,-208.71L340.97,-211.50L348.29,-215.94L345.46,-226.48L345.26,-244.95L344.46,-251.90L342.69,-261.52L340.08,-264.67" />
      </g>
      <g id="f8" transform="translate(771.47 -281.18)" style="--index:8; opacity:0;" class="frame">
        <path d="M-66.93,-4.95L-75.87,-4.22L-86.06,-2.03L-91.90,1.48L-93.48,4.00L-90.50,8.05L-89.13,22.58L-84.75,44.22L-82.35,61.00L-81.23,63.52L-78.85,65.91L-76.60,71.28L-56.80,67.24L-42.31,62.59L-43.56,62.27L-44.88,60.53L-47.94,51.97L-53.88,18.59L-58.72,2.88" />
        <path d="M344.59,-292.05L337.36,-287.19L330.39,-285.39L281.16,-279.10L262.68,-278.15L254.93,-276.95L253.98,-276.12L257.21,-258.55L265.57,-232.14L268.95,-214.84L269.35,-187.87L277.60,-185.93L288.92,-187.36L339.53,-200.70L363.53,-205.84L368.16,-207.63L366.72,-235.28L361.71,-265.58L357.96,-282.47" />
      </g>
      <g id="f9" transform="translate(771.47 -281.18)" style="--index:9; opacity:0;" class="frame">
        <path d="M-64.89,16.08L-74.81,19.53L-79.85,22.39L-81.10,23.91L-78.91,27.69L-76.66,37.31L-72.83,48.66L-54.88,43.61L-56.67,40.70L-57.34,29.16L-59.65,21.52" />
        <path d="M342.51,-292.53L329.36,-287.85L281.18,-278.43L273.04,-276.63L265.51,-273.83L264.95,-271.50L267.81,-268.27L269.45,-262.72L270.02,-256.96L269.48,-241.55L275.41,-206.78L278.41,-205.49L286.69,-204.45L301.64,-206.04L323.38,-210.97L342.80,-218.52L349.92,-220.04L361.09,-220.11L360.09,-236.99L356.89,-255.66L354.19,-265.55L346.56,-283.56" />
      </g>
      <g id="f10" transform="translate(771.47 -281.18)" style="--index:10; opacity:0;" class="frame">
        <path d="M-66.68,31.08" />
        <path d="M334.84,-281.37L311.15,-280.87L300.14,-279.47L272.13,-274.34L269.01,-271.74L268.10,-266.79L273.22,-242.73L274.88,-237.07L278.85,-230.30L283.85,-226.84L291.42,-223.23L299.91,-220.56L310.11,-221.11L338.88,-226.63L348.87,-226.47L347.45,-238.38L349.99,-258.17L348.97,-269.62L347.73,-272.59L339.82,-276.71" />
        <path d="M88.19,-668.22L69.44,-659.89L71.96,-656.07L75.29,-644.74L78.20,-641.65L85.97,-639.83L95.97,-640.69L97.06,-643.67L96.88,-650.29L94.00,-665.57" />
      </g>
      <g id="f11" transform="translate(771.47 -281.18)" style="--index:11; opacity:0;" class="frame">
        <path d="M328.44,-269.39L297.31,-264.51L290.31,-262.93L283.87,-260.24L283.55,-258.50L285.55,-255.55L293.86,-235.69L296.10,-234.35L304.84,-234.39L332.79,-239.07L337.20,-239.17L336.41,-243.22L336.96,-254.63L336.21,-259.03L334.33,-260.78" />
        <path d="M92.60,-685.72L80.39,-680.33L59.29,-673.88L59.73,-671.64L62.92,-667.25L63.40,-664.81L64.01,-661.15L63.84,-648.48L64.98,-642.62L67.13,-638.94L73.46,-631.51L83.09,-630.86L96.74,-632.30L107.45,-634.73L110.53,-637.11L111.36,-641.27L107.14,-663.39L105.86,-675.65L104.01,-681.18" />
      </g>
      <g id="f12" transform="translate(771.47 -281.18)" style="--index:12; opacity:0;" class="frame">
        <path d="M309.74,-250.65" />
        <path d="M-66.16,-509.76L-76.97,-505.56L-85.53,-504.64L-90.12,-503.20L-87.99,-491.76L-87.81,-480.15L-87.63,-479.20L-85.65,-478.15L-81.11,-477.57L-61.35,-480.55L-58.95,-497.10L-59.16,-507.27" />
        <path d="M103.94,-711.98L91.60,-706.70L82.97,-704.56L55.04,-695.11L48.62,-692.29L42.35,-688.19L45.82,-679.34L48.30,-667.40L54.01,-622.85L55.91,-617.56L58.83,-614.58L66.43,-611.86L77.23,-610.42L99.00,-614.00L121.83,-616.58L125.98,-617.94L131.17,-621.51L131.93,-623.88L131.70,-627.15L126.01,-652.88L112.11,-701.93L109.23,-709.90L106.33,-714.56" />
      </g>
      <g id="f13" transform="translate(771.47 -281.18)" style="--index:13; opacity:0;" class="frame">
        <path d="M-60.01,-525.17L-80.29,-523.63L-86.34,-522.34L-95.52,-517.78L-96.21,-516.86L-96.39,-512.63L-98.02,-506.88L-101.49,-484.90L-101.67,-470.68L-100.34,-464.39L-88.71,-459.80L-83.44,-459.39L-76.29,-460.24L-55.31,-464.44L-48.66,-467.63L-45.12,-470.54L-43.84,-472.56L-40.94,-487.10L-39.52,-501.24L-39.73,-514.27L-41.11,-521.32L-43.96,-525.20L-49.46,-529.45" />
        <path d="M552.14,-415.98L545.90,-409.43L531.47,-406.30L535.11,-400.69L540.77,-387.05L545.07,-380.89L547.89,-379.46L553.19,-380.70L557.62,-384.02L559.98,-388.35L560.93,-393.10L560.81,-398.17L558.29,-411.10" />
        <path d="M119.82,-734.48L112.37,-730.70L103.10,-728.78L65.71,-718.03L37.07,-712.88L34.88,-710.57L33.33,-703.71L34.79,-695.70L34.34,-685.50L37.07,-667.66L46.54,-620.82L51.75,-603.77L53.58,-601.15L72.53,-600.42L101.89,-595.27L110.57,-594.33L119.74,-594.45L128.72,-596.10L138.58,-600.01L146.86,-605.18L153.02,-610.38L157.07,-615.16L159.10,-619.56L159.50,-624.28L156.49,-640.22L131.56,-718.60L128.42,-726.08" />
      </g>
      <g id="f14" transform="translate(771.47 -281.18)" style="--index:14; opacity:0;" class="frame">
        <path d="M-39.02,-546.79L-49.81,-541.57L-79.31,-534.47L-101.89,-527.74L-101.71,-525.22L-99.43,-520.33L-99.28,-517.26L-109.14,-479.30L-111.62,-466.52L-111.77,-458.94L-110.69,-451.64L-102.96,-447.69L-96.50,-447.62L-84.13,-449.39L-50.53,-457.94L-41.81,-459.33L-30.95,-460.23L-29.39,-459.75L-28.56,-458.37L-29.01,-480.45L-26.95,-508.89L-27.58,-524.07L-29.25,-530.29" />
        <path d="M407.96,-712.63L402.67,-704.63L393.08,-701.63L398.71,-677.46L419.54,-681.19L423.51,-682.98L424.74,-688.65L423.38,-706.80L422.12,-712.74L419.90,-715.54" />
        <path d="M554.33,-439.36L545.59,-433.10L525.46,-425.07L521.66,-421.90L519.51,-418.82L519.29,-414.23L525.84,-383.58L528.27,-377.95L531.44,-373.14L535.04,-369.85L541.80,-367.51L547.86,-367.16L553.91,-367.90L572.41,-374.49L578.01,-378.24L578.95,-380.20L578.78,-386.59L574.95,-404.59L568.27,-424.01L565.54,-430.14L564.36,-430.45" />
        <path d="M115.12,-723.93L115.12,-723.93" />
        <path d="M105.53,-722.60L115.12,-723.93L43.13,-702.76L40.38,-701.67L40.09,-700.83L46.82,-695.28L49.57,-690.83L52.94,-677.52L56.08,-653.62L61.93,-626.49L66.41,-616.06L68.59,-613.82L71.13,-612.78L89.37,-608.35L94.78,-607.74L100.96,-608.40L108.44,-609.86L129.89,-619.49L137.37,-621.50L138.68,-622.64L139.34,-628.33L138.85,-637.08L130.03,-685.59L120.65,-713.81L119.39,-716.88L118.02,-718.18" />
      </g>
      <g id="f15" transform="translate(771.47 -281.18)" style="--index:15; opacity:0;" class="frame">
        <path d="M-51.62,-532.13L-59.37,-527.62L-77.91,-522.32L-94.54,-515.65L-95.48,-513.69L-94.62,-505.87L-95.04,-501.25L-98.85,-469.25L-81.40,-464.78L-76.78,-464.35L-64.90,-466.46L-52.78,-470.71L-39.82,-473.35L-38.23,-474.31L-40.09,-507.00L-38.65,-525.14" />
        <path d="M428.48,-730.61L419.78,-730.92L405.21,-727.97L390.64,-721.46L383.02,-716.42L393.07,-661.60L417.85,-667.23L439.17,-673.07L443.08,-674.62L444.81,-676.49L445.16,-679.12L441.90,-705.98L439.33,-719.10L436.80,-723.15" />
        <path d="M551.94,-430.04L543.77,-427.66L534.43,-423.38L532.34,-421.64L532.02,-420.38L532.39,-417.99L535.78,-413.12L537.20,-409.20L543.16,-380.52L546.00,-379.53L556.52,-380.60L563.04,-382.32L564.78,-384.64L565.69,-388.03L565.33,-397.17L563.18,-408.16L558.20,-421.16" />
        <path d="M108.19,-711.27L99.58,-706.14L66.15,-696.50L62.94,-694.20L62.02,-692.14L62.34,-689.98L66.57,-685.28L68.56,-681.33L76.65,-637.80L78.99,-632.04L81.45,-629.10L99.09,-623.13L102.84,-623.18L110.44,-625.11L114.47,-627.67L121.47,-636.04L123.66,-640.67L125.61,-650.47L126.06,-663.54L125.13,-671.66L121.19,-688.96L118.07,-694.79L114.71,-698.24L111.54,-699.84" />
      </g>
    </g>
  </g>
</svg>