<?xml version="1.0" encoding="utf-8"?>
<svg width="1366" height="1024" viewBox="-683 -512 1366 1024" xmlns="http://www.w3.org/2000/svg">
  <style>
svg { background-color:#F0B3AE; }

#looom { --version:2; }

#t0 {
--visible:1; --timeOffset:61; --speed:8; --bookmarkIndex:-1; --latched:0; --playMode:0; --masked:0; --blendMode:0; 
stroke:#A2668B; stroke-opacity:1; fill-opacity:0; stroke-width:50; stroke-linecap:round; stroke-linejoin:round;
}
@keyframes t0 { 0% { opacity: 1; } 12.5% { opacity: 0; } }
#t0 .frame { animation:t0 1s calc(var(--index) * 0.125s) steps(1) infinite; }

#t1 {
--visible:1; --timeOffset:62; --speed:8; --bookmarkIndex:-1; --latched:0; --playMode:0; --masked:0; --blendMode:0; 
stroke:#FFFFFF; stroke-opacity:1; fill-opacity:0; stroke-width:50; stroke-linecap:round; stroke-linejoin:round;
}
@keyframes t1 { 0% { opacity: 1; } 12.5% { opacity: 0; } }
#t1 .frame { animation:t1 1s calc(var(--index) * 0.125s) steps(1) infinite; }

#t2 {
--visible:1; --timeOffset:36.5; --speed:8; --bookmarkIndex:-1; --latched:0; --playMode:0; --masked:0; --blendMode:0; 
stroke:#AA6589; stroke-opacity:0; fill-opacity:0; stroke-width:50; stroke-linecap:round; stroke-linejoin:round;
}
@keyframes t2 { 0% { opacity: 1; } 25% { opacity: 0; } }
#t2 .frame { animation:t2 0.5s calc(var(--index) * 0.125s) steps(1) infinite; }

#t3 {
--visible:1; --timeOffset:37; --speed:8; --bookmarkIndex:-1; --latched:0; --playMode:0; --masked:0; --blendMode:0; 
stroke:#FDFDFD; stroke-opacity:0; fill-opacity:0; stroke-width:50; stroke-linecap:round; stroke-linejoin:round;
}
@keyframes t3 { 0% { opacity: 1; } 25% { opacity: 0; } }
#t3 .frame { animation:t3 0.5s calc(var(--index) * 0.125s) steps(1) infinite; }

#t4 {
--visible:1; --timeOffset:60; --speed:8; --bookmarkIndex:-1; --latched:0; --playMode:0; --masked:0; --blendMode:0; 
stroke:#FFFFFF; stroke-opacity:1; fill-opacity:0; stroke-width:50; stroke-linecap:round; stroke-linejoin:round;
}
@keyframes t4 { 0% { opacity: 1; } 12.5% { opacity: 0; } }
#t4 .frame { animation:t4 1s calc(var(--index) * 0.125s) steps(1) infinite; }

</style>
  <g id="w0" transform="translate(382.25 76.25) scale(0.60 0.60) rotate(-3.56)" class="weave">
    <g id="t0" transform="translate(-660.50 -275.61)" class="thread">
      <g id="f0" style="--index:0; opacity:1;" class="frame">
        <path d="M-115.06,356.81L-115.06,356.81" />
        <path d="M-115.06,356.81L-115.06,356.81" />
        <path d="M52.84,15.48L39.45,48.87L16.28,99.53L-31.89,188.20L-58.22,242.64L-72.82,274.80L-109.23,345.25L-110.36,349.43L-113.55,354.25" />
        <path d="M-117.71,363.65L-127.73,358.04L-144.08,346.65L-156.57,336.06L-160.58,331.64L-159.08,332.10" />
      </g>
      <g id="f1" style="--index:1; opacity:0;" class="frame">
        <path d="M53.15,7.56L53.21,17.11L46.45,85.40L42.03,117.86L25.68,219.14L17.45,285.87L9.75,334.94L8.95,347.59L6.58,358.42" />
        <path d="M8.21,369.54L-31.62,368.25L-35.55,367.46" />
      </g>
      <g id="f2" style="--index:2; opacity:0;" class="frame">
        <path d="M53.38,5.12L64.65,37.22L77.10,77.96L95.89,134.51L107.98,175.58L121.88,228.70L138.75,273.35L144.84,292.47L154.38,314.95L158.95,330.64L160.08,332.86L160.65,333.05L160.61,331.96" />
        <path d="M167.93,337.23L164.00,345.38L147.78,368.80L145.89,372.72L145.66,374.91L133.83,375.65L119.29,374.97" />
      </g>
      <g id="f3" style="--index:3; opacity:0;" class="frame">
        <path d="M49.13,0.86L52.57,7.38L61.61,31.54L71.72,54.83L90.96,93.65L113.17,142.12L118.23,151.30L119.99,153.64L119.08,150.49" />
        <path d="M119.62,152.78L126.64,157.64L174.53,178.58L242.66,211.53L250.36,213.94" />
        <path d="M250.68,219.96L241.67,247.21L236.93,268.35L236.74,265.82" />
      </g>
      <g id="f4" style="--index:4; opacity:0;" class="frame">
        <path d="M40.54,-7.34L46.01,4.06L53.81,25.58L68.49,58.01L106.69,139.64L108.82,143.84L109.18,143.26" />
        <path d="M113.25,156.39L145.97,148.00L205.19,134.57L239.51,122.33L266.63,114.12" />
        <path d="M277.18,114.59L276.66,123.11L272.84,149.76" />
      </g>
      <g id="f5" style="--index:5; opacity:0;" class="frame">
        <path d="M47.80,0.14L43.50,26.10L37.08,88.16L30.76,136.20L28.31,147.94L29.01,146.95" />
        <path d="M27.56,156.19L41.61,182.54L60.60,215.55L76.16,241.59L91.17,263.99L97.82,278.39L99.42,280.89L98.48,278.49" />
        <path d="M97.39,295.42L100.64,288.10L86.19,306.17L83.60,311.32L84.35,308.38" />
      </g>
      <g id="f6" style="--index:6; opacity:0;" class="frame">
        <path d="M44.66,-1.39L-2.40,28.03L-53.00,68.06L-87.63,90.60L-96.31,98.77" />
        <path d="M-92.94,102.25L-39.06,231.06" />
        <path d="M-37.00,241.17L-71.11,248.92L-77.08,250.53L-82.31,253.32" />
      </g>
      <g id="f7" style="--index:7; opacity:0;" class="frame">
        <path d="M42.82,-4.56L36.65,3.94L-36.13,87.66L-44.15,96.71L-57.86,110.06" />
        <path d="M-61.03,120.01L-60.41,169.35L-56.62,243.37L-57.03,284.40L-55.05,283.03" />
        <path d="M-65.60,295.20L-92.67,301.57L-103.18,306.15" />
      </g>
    </g>
    <g id="t1" transform="translate(-660.50 -275.61)" class="thread">
      <g id="f0" style="--index:0; opacity:1;" class="frame">
        <path d="M40.54,-7.34L46.01,4.06L53.81,25.58L68.49,58.01L106.69,139.64L108.82,143.84L109.18,143.26" />
        <path d="M113.25,156.39L145.97,148.00L205.19,134.57L239.51,122.33L266.63,114.12" />
        <path d="M277.18,114.59L276.66,123.11L272.84,149.76" />
        <path d="M-168.07,-44.74L-112.55,-43.00L-72.71,-42.76L-22.83,-45.32L24.15,-49.02L53.02,-50.03L73.55,-52.03L97.58,-53.18L114.60,-55.14L128.93,-55.16L142.43,-56.47L218.33,-56.59L221.64,-56.35L220.71,-55.44" />
      </g>
      <g id="f1" style="--index:1; opacity:0;" class="frame">
        <path d="M47.80,0.14L43.50,26.10L37.08,88.16L30.76,136.20L28.31,147.94L29.01,146.95" />
        <path d="M27.56,156.19L41.61,182.54L60.60,215.55L76.16,241.59L91.17,263.99L97.82,278.39L99.42,280.89L98.48,278.49" />
        <path d="M97.39,295.42L100.64,288.10L86.19,306.17L83.60,311.32L84.35,308.38" />
        <path d="M-141.37,-107.33L-134.36,-97.18L-130.16,-89.42L-116.74,-72.78L-106.76,-63.95L-86.56,-49.14L-76.08,-42.39L-58.26,-35.32L-27.64,-26.76L5.81,-21.37L33.07,-19.83L46.55,-20.52L78.02,-26.64L102.09,-34.53L123.72,-44.46L141.26,-54.52L153.59,-63.64L175.51,-76.96L184.95,-86.02L191.32,-95.17L200.87,-102.86L203.73,-107.03L203.75,-107.82L202.07,-107.87" />
      </g>
      <g id="f2" style="--index:2; opacity:0;" class="frame">
        <path d="M44.66,-1.39L-2.40,28.03L-53.00,68.06L-87.63,90.60L-96.31,98.77" />
        <path d="M-92.94,102.25L-39.06,231.06" />
        <path d="M-37.00,241.17L-71.11,248.92L-77.08,250.53L-82.31,253.32" />
        <path d="M-166.63,-36.45L-149.74,-35.35L-116.03,-27.32L-97.76,-25.89L-86.94,-26.01L-70.83,-27.86L-45.16,-27.73L-6.04,-29.06L19.83,-30.91L43.78,-31.30L105.46,-34.90L159.47,-39.00L202.54,-38.99L205.24,-37.69" />
      </g>
      <g id="f3" style="--index:3; opacity:0;" class="frame">
        <path d="M42.82,-4.56L36.65,3.94L-36.13,87.66L-44.15,96.71L-57.86,110.06" />
        <path d="M-61.03,120.01L-60.41,169.35L-56.62,243.37L-57.03,284.40L-55.05,283.03" />
        <path d="M-65.60,295.20L-92.67,301.57L-103.18,306.15" />
        <path d="M-174.78,12.90L-166.81,1.82L-161.63,-2.93L-144.83,-13.91L-130.59,-20.85L-92.05,-33.84L-24.68,-49.49L-11.34,-51.88L33.05,-55.94L59.05,-57.35L108.19,-56.23L137.55,-52.32L153.75,-47.57L178.81,-37.69L216.20,-20.69L237.67,-6.74L240.62,-4.06L242.69,-0.79L240.79,-0.09" />
      </g>
      <g id="f4" style="--index:4; opacity:0;" class="frame">
        <path d="M-115.06,356.81L-115.06,356.81" />
        <path d="M-115.06,356.81L-115.06,356.81" />
        <path d="M52.84,15.48L39.45,48.87L16.28,99.53L-31.89,188.20L-58.22,242.64L-72.82,274.80L-109.23,345.25L-110.36,349.43L-113.55,354.25" />
        <path d="M-117.71,363.65L-127.73,358.04L-144.08,346.65L-156.57,336.06L-160.58,331.64L-159.08,332.10" />
        <path d="M-190.19,-41.23L-177.15,-43.31L-167.69,-43.04L-148.73,-38.82L-111.16,-37.74L-30.43,-41.87L60.28,-41.71L90.74,-44.48L133.41,-45.41L186.00,-48.94L197.77,-48.46L218.93,-45.40L253.23,-44.71" />
      </g>
      <g id="f5" style="--index:5; opacity:0;" class="frame">
        <path d="M53.15,7.56L53.21,17.11L46.45,85.40L42.03,117.86L25.68,219.14L17.45,285.87L9.75,334.94L8.95,347.59L6.58,358.42" />
        <path d="M8.21,369.54L-31.62,368.25L-35.55,367.46" />
        <path d="M-154.15,-109.21L-146.22,-99.21L-127.90,-82.76L-119.01,-72.56L-104.40,-60.82L-97.50,-56.62L-46.58,-31.92L-25.44,-23.06L-19.24,-21.47L8.60,-18.08L61.24,-16.71L80.71,-18.31L89.74,-19.57L101.75,-22.75L114.38,-27.29L131.63,-32.13L168.23,-45.92L175.59,-48.02L196.87,-59.19L205.44,-66.15L211.99,-74.97L223.76,-81.52L229.16,-88.57L237.72,-93.84L239.34,-96.53" />
      </g>
      <g id="f6" style="--index:6; opacity:0;" class="frame">
        <path d="M53.38,5.12L64.65,37.22L77.10,77.96L95.89,134.51L107.98,175.58L121.88,228.70L138.75,273.35L144.84,292.47L154.38,314.95L158.95,330.64L160.08,332.86L160.65,333.05L160.61,331.96" />
        <path d="M167.93,337.23L164.00,345.38L147.78,368.80L145.89,372.72L145.66,374.91L133.83,375.65L119.29,374.97" />
        <path d="M-166.55,-55.87L-154.44,-57.50L-137.14,-53.80L-122.20,-51.82L-0.99,-40.84L22.14,-37.58L59.67,-35.60L228.87,-30.13L229.28,-29.32" />
      </g>
      <g id="f7" style="--index:7; opacity:0;" class="frame">
        <path d="M49.13,0.86L52.57,7.38L61.61,31.54L71.72,54.83L90.96,93.65L113.17,142.12L118.23,151.30L119.99,153.64L119.08,150.49" />
        <path d="M119.62,152.78L126.64,157.64L174.53,178.58L242.66,211.53L250.36,213.94" />
        <path d="M250.68,219.96L241.67,247.21L236.93,268.35L236.74,265.82" />
        <path d="M-152.66,2.84L-144.74,-7.03L-119.18,-24.81L-101.35,-34.57L-83.30,-40.61L-54.66,-48.51L-35.47,-52.25L-20.40,-56.43L13.11,-63.10L71.32,-69.54L117.88,-68.81L155.74,-62.97L185.26,-54.77L205.73,-44.41L225.54,-31.45L231.91,-25.43L239.39,-19.88L243.67,-14.85" />
      </g>
    </g>
    <g id="t2" transform="translate(-660.50 -275.61)" class="thread">
      <g id="f0" style="--index:0; opacity:1;" class="frame">
        <path d="M28.27,-24.32L24.13,-10.82L-6.61,52.51L-21.37,85.04L-56.01,166.28L-54.60,166.76" />
        <path d="M-54.62,171.97L9.31,189.36L137.88,221.96" />
        <path d="M140.86,222.15L138.07,245.80L129.39,275.05" />
      </g>
      <g id="f1" style="--index:1; opacity:0;" class="frame">
        <path d="M60.62,-45.83L56.23,-37.60L19.97,-2.65L-46.42,58.51L-98.94,105.22L-151.44,149.15L-191.59,181.05L-242.40,217.07L-252.64,225.63" />
        <path d="M-268.37,168.64L-268.46,182.83L-265.28,200.64L-259.53,218.40" />
      </g>
      <g id="f2" style="--index:2; opacity:0;" class="frame">
        <path d="M8.62,-39.63L14.03,-30.96L17.94,-21.85L54.73,71.66L79.79,147.04L96.71,209.22L121.93,321.76L123.57,323.86" />
        <path d="M125.95,321.36L123.53,363.66L123.42,360.45L122.67,363.51L116.11,365.42L95.27,364.67" />
      </g>
      <g id="f3" style="--index:3; opacity:0;" class="frame">
        <path d="M23.30,-8.46L29.14,5.85L33.78,24.17L45.17,60.78L54.64,86.02L70.58,125.49L85.34,155.81" />
        <path d="M89.68,148.06L102.90,152.42L116.56,149.05L140.97,141.53L183.88,126.70L232.25,104.07L266.12,80.98L287.69,68.10" />
        <path d="M289.08,61.40L331.99,84.35L335.60,86.89" />
      </g>
    </g>
    <g id="t3" transform="translate(-660.50 -275.61)" class="thread">
      <g id="f0" style="--index:0; opacity:1;" class="frame">
        <path d="M-173.12,-41.77L-157.31,-39.35L-122.96,-40.11L-91.11,-39.00L-43.96,-38.70L20.21,-41.24L36.48,-42.56L59.55,-42.17L94.14,-45.46L110.65,-48.20L119.42,-48.26L135.82,-46.87L158.82,-48.55L177.89,-47.04L198.38,-50.16L224.04,-47.95" />
        <path d="M8.62,-39.63L14.03,-30.96L17.94,-21.85L54.73,71.66L79.79,147.04L96.71,209.22L121.93,321.76L123.57,323.86" />
        <path d="M116.29,360.89L116.36,359.77L116.29,360.89" />
        <path d="M123.99,317.04L120.00,336.96L116.31,362.22L116.29,360.89L111.73,363.14L89.92,365.67" />
      </g>
      <g id="f1" style="--index:1; opacity:0;" class="frame">
        <path d="M-145.86,-111.38L-144.88,-102.03L-143.68,-98.02L-138.64,-87.81L-132.18,-77.72L-127.67,-72.20L-120.27,-64.44L-114.05,-59.25L-101.65,-51.29L-56.77,-28.69L-24.93,-17.11L-4.05,-14.00L50.64,-19.21L57.83,-20.76L95.50,-32.77L104.58,-37.42L113.76,-43.29L137.25,-53.31L162.09,-70.91L172.23,-76.78L181.29,-84.24L198.80,-107.97L204.71,-112.68" />
        <path d="M23.30,-8.46L29.14,5.85L33.78,24.17L45.17,60.78L54.64,86.02L70.58,125.49L85.34,155.81" />
        <path d="M89.68,148.06L102.90,152.42L116.56,149.05L140.97,141.53L183.88,126.70L232.25,104.07L266.12,80.98L287.69,68.10" />
        <path d="M288.82,63.27L295.06,71.51L303.41,86.67L313.27,106.22L315.23,111.54" />
      </g>
      <g id="f2" style="--index:2; opacity:0;" class="frame">
        <path d="M-166.68,-55.29L-98.51,-42.97L-41.90,-37.31L-7.00,-36.18L45.44,-31.39L62.44,-31.06L151.27,-24.15L160.86,-24.01L171.73,-24.94L215.67,-21.30L228.96,-21.80" />
        <path d="M28.27,-24.32L24.13,-10.82L-6.61,52.51L-21.37,85.04L-56.01,166.28L-54.60,166.76" />
        <path d="M-49.80,174.14L-41.83,179.88L-32.17,184.64L40.58,215.90L82.80,230.01L107.33,236.64L121.95,241.62" />
        <path d="M125.24,243.88L122.25,256.11L110.22,291.71" />
      </g>
      <g id="f3" style="--index:3; opacity:0;" class="frame">
        <path d="M-154.85,8.26L-144.16,-2.43L-120.93,-13.36L-99.52,-28.21L-90.60,-32.38L-70.99,-39.71L-49.40,-44.45L6.46,-50.30L30.81,-55.01L45.02,-54.80L59.21,-57.18L73.23,-56.12L96.54,-55.83L132.35,-52.81L186.36,-41.39L195.54,-37.99L226.31,-20.92L247.77,-4.10L251.78,1.00" />
        <path d="M60.62,-45.83L56.23,-37.60L19.97,-2.65L-46.42,58.51L-98.94,105.22L-151.44,149.15L-191.59,181.05L-242.40,217.07L-252.64,225.63" />
        <path d="M-273.55,177.40L-272.55,185.99L-267.98,203.13L-263.11,215.51L-259.51,221.95" />
      </g>
    </g>
    <g id="t4" transform="translate(-2385.88 -449.36) scale(1.04 1.04) rotate(-356.42)" class="thread">
      <g id="f0" transform="translate(2130.62 14.55)" style="--index:0; opacity:1;" class="frame">
        <path d="M-560.75,-81.92L-566.43,-75.08L-563.96,-71.11L-559.99,-70.28L-557.04,-71.04L-552.36,-75.09L-551.62,-78.31L-553.40,-79.66L-556.27,-79.65L-557.53,-78.28L-557.95,-74.87L-557.06,-74.13L-555.51,-74.29" />
        <path d="M-396.12,-113.01L-399.35,-106.51L-397.31,-104.69L-391.58,-104.16L-389.43,-105.67L-388.00,-108.04L-387.70,-111.78L-389.26,-112.73L-396.12,-113.01" />
        <path d="M-394.45,-116.37L-396.12,-113.01L-398.92,-112.35L-399.98,-110.99L-400.17,-108.00L-399.18,-107.39" />
        <path d="M-309.71,-170.78L-317.71,-167.59L-317.96,-159.77L-315.79,-158.20L-312.80,-157.98L-310.01,-159.10L-307.36,-162.16L-307.58,-167.67L-309.37,-168.35L-314.65,-168.04L-314.84,-165.05L-313.20,-164.57" />
      </g>
      <g id="f1" transform="translate(2130.62 14.55)" style="--index:1; opacity:0;" class="frame">
        <path d="M-536.51,-41.88L-544.22,-41.27L-545.10,-35.30L-544.27,-33.67L-536.00,-33.55L-534.94,-40.10L-536.51,-41.88" />
        <path d="M-535.91,-41.93L-540.58,-43.51L-542.65,-43.43L-543.80,-42.06L-543.87,-40.29" />
        <path d="M-374.99,-45.14L-381.56,-38.94L-381.73,-35.18L-380.45,-33.47L-377.24,-32.84L-371.88,-33.70L-370.64,-35.41L-369.86,-40.28L-370.74,-43.33L-376.77,-42.86L-377.58,-41.41L-377.49,-39.10" />
        <path d="M-314.04,-94.08L-318.37,-86.32L-315.81,-85.43L-312.84,-85.44L-310.37,-87.07L-308.06,-92.55L-308.42,-96.40L-310.19,-96.56L-312.57,-95.46L-313.90,-93.33L-314.07,-91.44" />
      </g>
      <g id="f2" transform="translate(2130.62 14.55)" style="--index:2; opacity:0;" class="frame">
        <path d="M-488.16,-37.63L-497.70,-31.21L-498.65,-24.67L-496.92,-22.87L-493.73,-22.66L-490.69,-23.55L-488.68,-25.16L-487.08,-29.53L-486.88,-33.17L-491.63,-33.42" />
        <path d="M-420.57,-37.08L-427.32,-32.07L-426.24,-30.04L-424.22,-28.90L-421.80,-28.89L-419.53,-30.07L-417.20,-32.26L-415.71,-35.74L-416.62,-39.54L-420.32,-41.39L-423.15,-41.28L-423.90,-37.50L-422.68,-37.10" />
        <path d="M-353.82,-40.57L-362.37,-39.80L-363.35,-37.35L-363.61,-32.70L-360.17,-31.30L-358.40,-31.27L-356.99,-32.21L-354.96,-38.77L-360.45,-38.45L-361.14,-36.55L-360.98,-32.59" />
      </g>
      <g id="f3" transform="translate(2130.62 14.55)" style="--index:3; opacity:0;" class="frame">
        <path d="M-549.10,-182.88L-552.53,-174.91L-546.76,-173.38L-540.29,-179.46L-539.41,-181.70L-539.42,-185.56L-540.92,-186.83L-546.27,-189.16L-548.49,-189.28L-548.92,-186.07L-547.90,-185.57" />
        <path d="M-468.59,-258.79L-474.67,-251.51L-471.94,-248.86L-468.94,-248.20L-466.07,-248.21L-462.50,-252.42L-461.59,-256.63L-461.81,-259.60L-464.91,-260.03L-465.40,-258.58" />
        <path d="M-387.63,-95.95L-391.38,-88.41L-391.14,-84.92L-389.13,-83.78L-386.15,-83.79L-383.37,-85.10L-378.75,-90.80L-377.86,-96.43L-379.39,-99.25L-384.33,-99.06" />
      </g>
      <g id="f4" transform="translate(2130.62 14.55)" style="--index:4; opacity:0;" class="frame">
        <path d="M-477.80,-152.10L-484.89,-147.51L-485.06,-144.09L-484.44,-141.36L-482.59,-139.23L-480.59,-138.53L-478.59,-138.61L-475.98,-141.69L-474.74,-146.25L-475.09,-150.00L-476.54,-150.69L-480.06,-150.45L-481.25,-147.32L-480.01,-146.59" />
        <path d="M-409.64,-46.53L-413.42,-39.02L-412.62,-38.07L-405.68,-38.44L-401.62,-40.67L-401.24,-47.74L-402.49,-48.91L-408.09,-48.79L-410.10,-47.08L-409.64,-46.53" />
        <path d="M-409.25,-47.32L-409.42,-46.54" />
        <path d="M-565.93,-28.54L-572.28,-23.11L-571.73,-22.25L-569.17,-22.25L-566.48,-23.34L-564.48,-25.18L-562.68,-29.42L-563.12,-32.72L-568.40,-32.62L-569.64,-30.60L-569.40,-27.97L-568.21,-27.68" />
      </g>
      <g id="f5" transform="translate(2130.62 14.55)" style="--index:5; opacity:0;" class="frame">
        <path d="M-520.78,-36.89L-524.75,-28.70L-522.94,-27.58L-519.10,-27.63L-516.38,-31.36L-516.01,-36.20L-516.30,-38.18L-518.78,-39.85L-519.68,-39.82L-520.33,-37.04" />
        <path d="M-468.53,-27.17L-476.42,-21.36L-476.89,-16.50L-473.02,-15.77L-470.65,-16.95L-466.70,-22.19L-466.01,-24.73L-468.11,-24.44" />
        <path d="M-419.69,-19.95L-425.00,-12.59L-424.91,-10.26L-423.90,-9.21L-422.24,-9.17L-417.90,-13.08L-417.72,-17.39L-420.34,-17.05L-421.40,-16.02" />
      </g>
      <g id="f6" transform="translate(2130.62 14.55)" style="--index:6; opacity:0;" class="frame">
        <path d="M-486.97,-48.79L-491.07,-41.27L-489.47,-40.12L-487.32,-40.74L-483.93,-44.40L-483.53,-48.28L-485.45,-49.53L-488.08,-49.63L-489.17,-49.38L-489.56,-47.81" />
        <path d="M-444.64,-48.79L-453.31,-48.35L-455.58,-44.63L-456.26,-41.52L-456.26,-38.98L-455.30,-37.38L-450.13,-37.04L-446.45,-38.48L-445.12,-43.28L-448.41,-43.25" />
        <path d="M-386.39,-36.76L-394.32,-39.77L-396.54,-37.14L-397.74,-31.70L-396.92,-30.07L-391.80,-28.41L-389.14,-28.30L-386.65,-29.39L-384.68,-31.87L-383.25,-34.37L-382.50,-38.03L-384.58,-38.28" />
      </g>
      <g id="f7" transform="translate(2130.62 14.55)" style="--index:7; opacity:0;" class="frame">
        <path d="M-322.74,-240.12L-321.22,-240.66L-319.75,-242.81L-319.99,-246.33L-323.20,-246.20L-323.52,-241.11L-322.74,-240.12" />
        <path d="M-323.28,-248.17L-325.91,-240.27L-319.31,-239.51L-318.05,-240.88L-317.23,-242.81L-317.36,-246.10L-320.93,-247.38L-322.33,-246.89L-322.26,-242.48L-319.32,-242.39" />
        <path d="M-416.51,-150.69L-415.22,-158.61L-419.31,-158.76L-421.10,-156.72L-422.48,-153.04L-423.91,-144.61L-423.79,-141.63L-422.88,-140.48L-415.64,-140.97L-413.80,-141.71L-412.55,-143.40L-411.90,-149.70L-416.51,-150.69" />
        <path d="M-416.56,-150.39L-419.64,-150.27L-420.73,-147.28L-419.26,-147.00" />
        <path d="M-537.95,-149.61L-543.85,-155.55L-547.44,-154.53L-548.35,-152.08L-548.23,-149.00L-546.24,-146.00L-543.17,-143.37L-540.38,-142.05L-537.96,-141.91L-535.61,-143.77L-533.17,-148.61L-537.95,-149.61" />
        <path d="M-537.01,-148.66L-537.95,-149.61L-543.03,-148.66L-544.41,-144.07L-544.31,-139.02L-541.36,-136.15L-538.38,-135.96" />
      </g>
    </g>
  </g>
</svg>