<?xml version="1.0" encoding="utf-8"?>
<svg width="1366" height="1024" viewBox="-683 -512 1366 1024" xmlns="http://www.w3.org/2000/svg">
  <style>
svg { background-color:#C9C9C9; }

#looom { --version:2; }

#t0 {
--visible:1; --timeOffset:28; --speed:8; --bookmarkIndex:-1; --latched:0; --playMode:0; --masked:0; --blendMode:0; 
stroke:#BAB5C6; stroke-opacity:1; fill-opacity:0; stroke-width:26.42253; stroke-linecap:round; stroke-linejoin:round;
}
@keyframes t0 { 0% { opacity: 1; } 6.25% { opacity: 0; } }
#t0 .frame { animation:t0 2s calc(var(--index) * 0.125s) steps(1) infinite; }

#t1 {
--visible:1; --timeOffset:28; --speed:8; --bookmarkIndex:-1; --latched:0; --playMode:0; --masked:0; --blendMode:0; 
stroke:#FF6C91; stroke-opacity:1; fill-opacity:0; stroke-width:26.42253; stroke-linecap:round; stroke-linejoin:round;
}
@keyframes t1 { 0% { opacity: 1; } 6.25% { opacity: 0; } }
#t1 .frame { animation:t1 2s calc(var(--index) * 0.125s) steps(1) infinite; }

</style>
  <g id="w0" transform="translate(-389.00 -190.25) scale(0.83 0.83) rotate(-1.84)" class="weave">
    <g id="t0" transform="translate(-286.28 -298.11) scale(1.02 1.02) rotate(-1.61)" class="thread">
      <g id="f0" transform="translate(710.66 427.26)" style="--index:0; opacity:1;" class="frame">
        <path d="M25.76,-9.86L47.09,14.22L50.73,17.41L53.57,18.73L73.04,3.67L86.48,-8.61L88.67,-9.59L91.59,-9.41L94.30,-4.95L101.38,3.41L110.85,12.89L115.95,16.08L118.60,16.67L120.46,16.08L125.29,11.77L139.32,-1.70L146.28,-7.34L147.07,-9.06" />
        <path d="M-146.47,89.13" />
        <path d="M-144.00,231.41L-138.00,227.66L-122.73,210.20L-113.54,201.76L-112.22,201.70L-110.93,204.19L-95.82,219.15L-83.30,229.49L-71.30,220.14L-61.61,210.15L-49.97,200.73" />
      </g>
      <g id="f1" transform="translate(710.66 427.26)" style="--index:1; opacity:0;" class="frame">
        <path d="M90.07,-10.53L95.23,-5.69L109.53,11.38L112.64,14.42L113.89,14.69L130.31,4.59L150.32,-13.38L155.62,-15.38L156.47,-13.64L180.97,10.64" />
        <path d="M-142.82,88.86L-135.46,83.24L-119.31,68.70L-116.27,67.38L-113.89,70.63L-93.42,89.74L-87.46,93.05L-87.27,91.99L-80.77,86.34L-59.45,68.89L-56.74,67.50L-56.61,66.38" />
        <path d="M-105.48,201.91L-88.02,220.99L-85.94,222.11L-80.63,217.88L-51.44,199.09L-49.12,198.33L-24.07,218.58L-16.15,223.21L-7.50,217.73L10.13,202.75L16.59,199.56L19.76,199.04L22.68,200.09L32.77,207.55L44.24,220.91L47.94,224.05" />
      </g>
      <g id="f2" transform="translate(710.66 427.26)" style="--index:2; opacity:0;" class="frame">
        <path d="M181.17,9.78" />
        <path d="M-86.94,94.24L-73.95,83.83L-59.05,69.63L-53.88,66.44L-52.84,66.38L-52.05,68.44L-47.46,72.41L-24.28,89.20L-13.11,96.30L0.08,86.67L11.19,76.13L16.97,73.02" />
        <path d="M-16.41,219.41L4.24,201.78L8.07,198.93L13.04,196.97L16.76,196.77L20.28,201.00L46.47,221.41L49.09,222.82L52.96,223.55L68.89,215.34L84.87,204.93L87.42,203.95L91.46,203.75L92.86,202.68L92.95,201.13" />
      </g>
      <g id="f3" transform="translate(710.66 427.26)" style="--index:3; opacity:0;" class="frame">
        <path d="M-48.73,70.89L-40.46,75.06L-13.90,96.50L-11.38,97.16L-9.19,94.50L5.84,84.55L19.74,70.02L21.39,69.16L24.30,69.09L30.27,73.14L37.23,81.64L46.63,91.13L51.98,95.70L54.96,96.50L70.45,85.81L85.17,70.95L91.92,66.70" />
        <path d="M47.43,218.55L53.17,216.96L83.89,200.43L88.56,198.68L92.37,198.26L103.03,206.41L116.08,218.26L119.62,220.23L122.80,220.79L128.25,216.89L139.09,206.75L147.27,201.40L148.98,201.27L179.99,227.08" />
      </g>
      <g id="f4" transform="translate(710.66 427.26)" style="--index:4; opacity:0;" class="frame">
        <path d="M-133.75,-40.78" />
        <path d="M22.12,67.50L46.75,90.00L54.24,95.56L56.36,93.05L73.83,83.24L95.30,68.09L99.92,66.70L101.05,66.84L105.95,71.69L121.25,88.41L128.46,93.52L131.19,93.64L132.96,92.78L143.03,85.61L153.43,79.97L159.25,74.80" />
        <path d="M179.63,224.20" />
      </g>
      <g id="f5" transform="translate(710.66 427.26)" style="--index:5; opacity:0;" class="frame">
        <path d="M-134.34,-40.13L-129.59,-42.31L-116.14,-52.19L-91.44,-71.91L-86.94,-63.74L-81.17,-55.91L-69.33,-43.70" />
        <path d="M100.32,67.11L107.01,71.42L119.46,83.09L126.54,88.67L132.32,91.45L152.18,81.03L158.85,75.74L164.62,72.67L168.33,69.03L169.79,68.77L169.79,70.28L171.17,72.08L188.53,90.45" />
      </g>
      <g id="f6" transform="translate(710.66 427.26)" style="--index:6; opacity:0;" class="frame">
        <path d="M-87.00,-70.11L-82.10,-65.67L-58.26,-39.78L-35.96,-58.70L-18.74,-69.25L-14.57,-62.88L0.79,-45.03L5.90,-39.78L9.73,-37.47" />
        <path d="M185.28,89.66" />
        <path d="M-146.91,279.39" />
      </g>
      <g id="f7" transform="translate(710.66 427.26)" style="--index:7; opacity:0;" class="frame">
        <path d="M-21.64,-63.81L-13.24,-57.64L17.88,-29.44L21.20,-33.75L38.87,-50.08L51.92,-63.41L61.05,-70.84L62.18,-70.84L66.43,-66.19L81.39,-43.30L87.54,-36.20L93.30,-38.72L107.93,-49.02L111.64,-52.06L120.58,-62.55L123.29,-63.67" />
        <path d="M-147.68,278.83L-127.78,259.86L-117.00,251.44L-116.17,251.37L-111.65,257.84L-101.67,266.55L-94.46,271.57L-84.35,277.02L-60.69,260.49L-50.97,255.23" />
      </g>
      <g id="f8" transform="translate(710.66 427.26)" style="--index:8; opacity:0;" class="frame">
        <path d="M25.03,-38.53L32.58,-42.97L40.67,-49.61L58.95,-67.66L65.55,-70.91L78.87,-55.58L91.38,-43.17L105.16,-50.00L119.66,-62.22L126.02,-63.61L138.19,-51.00L151.18,-39.66L157.93,-32.63" />
        <path d="M-148.45,151.91" />
        <path d="M-83.14,270.05L-62.49,255.36L-52.06,249.87L-50.23,251.99L-20.19,274.60L-15.55,276.65L-6.90,268.59L4.65,259.86L15.38,253.13L18.85,254.95L32.58,269.43L37.32,273.35L41.24,275.25L60.01,263.94L68.83,255.58" />
      </g>
      <g id="f9" transform="translate(710.66 427.26)" style="--index:9; opacity:0;" class="frame">
        <path d="M76.08,-61.02L86.29,-50.00L97.34,-41.72L107.74,-52.13L113.49,-62.08L116.62,-63.02L123.71,-57.83L140.11,-42.84L152.10,-33.34L155.01,-34.61L163.35,-41.52L175.61,-48.55L180.44,-50.14" />
        <path d="M-149.91,155.35L-142.82,151.24L-120.25,133.60L-115.81,131.13L-114.93,131.27L-111.64,136.17L-105.14,143.08L-90.38,156.22L-76.48,147.13L-61.45,135.58L-55.55,132.80" />
        <path d="M-12.57,270.33L-2.22,265.53L16.92,252.83L19.41,252.02L20.66,252.18L37.16,266.52L42.32,269.29L54.15,263.35L74.08,249.66L77.64,248.91L81.10,251.43L96.60,266.93L107.90,275.09L123.44,267.02L133.25,260.51" />
        <path d="M-147.04,366.15" />
      </g>
      <g id="f10" transform="translate(710.66 427.26)" style="--index:10; opacity:0;" class="frame">
        <path d="M179.71,-55.05L183.82,-52.19" />
        <path d="M-107.20,133.13L-93.69,147.52L-89.59,150.77L-87.46,151.30L-85.02,149.31L-70.85,143.08L-52.76,131.20L-46.00,129.14L-27.99,145.20L-23.57,148.25L-17.86,149.85L-7.00,143.08L5.11,132.66L12.07,128.22" />
        <path d="M50.02,263.94L57.00,262.38L81.66,249.02L84.22,248.42L88.05,253.35L110.39,271.48L113.47,273.06L125.70,265.72L144.27,249.29L151.65,246.73L181.64,266.79" />
        <path d="M-147.66,367.70L-143.42,361.76L-128.23,349.82L-115.88,337.22L-111.30,334.23L-109.42,334.09L-107.45,337.45L-92.19,351.40L-88.41,353.75L-79.62,357.32L-74.25,363.74L-42.68,337.60" />
      </g>
      <g id="f11" transform="translate(710.66 427.26)" style="--index:11; opacity:0;" class="frame">
        <path d="M-45.29,130.08L-18.93,152.83L10.07,133.78L20.59,127.88L25.49,130.00L44.96,147.13L50.28,151.03L52.44,151.77L53.96,151.77L82.71,136.11L85.50,133.66" />
        <path d="M181.66,265.31" />
        <path d="M-98.43,342.02L-89.76,350.32L-74.92,360.16L-71.71,363.15L-68.58,359.07L-51.98,348.05L-37.63,336.93L-34.69,335.72L-31.50,342.74L-20.61,353.45L-13.61,358.41L-5.89,361.21L-2.43,363.48L18.12,348.94L30.92,336.95L36.13,335.23" />
      </g>
      <g id="f12" transform="translate(710.66 427.26)" style="--index:12; opacity:0;" class="frame">
        <path d="M-139.38,4.14" />
        <path d="M24.37,124.83L30.93,128.67L45.96,142.67L56.88,149.52L70.45,144.00L83.44,137.38L93.11,134.19L97.22,133.92L106.62,143.02L122.58,154.42L136.94,140.55L139.86,138.50L144.88,136.64" />
        <path d="M-30.69,340.10L-23.81,346.45L-2.97,360.92L23.15,342.70L36.28,334.99L37.37,335.00L38.82,337.03L49.26,345.65L57.41,351.39L65.88,355.60L75.24,357.14L87.70,348.49L100.82,336.91L108.44,331.70" />
      </g>
      <g id="f13" transform="translate(710.66 427.26)" style="--index:13; opacity:0;" class="frame">
        <path d="M-139.17,6.92L-134.21,5.06L-123.08,-3.42L-111.31,-14.44L-108.57,-15.83L-106.66,-11.52L-96.46,4.67L-94.34,7.72L-90.65,10.50L-89.84,10.58L-79.79,2.75L-67.87,-7.73L-61.18,-10.19L-60.84,-11.13" />
        <path d="M59.28,148.58L72.31,143.14L82.65,136.91L90.40,130.88L94.96,129.67L104.03,137.91L121.77,149.25L125.75,150.05L133.75,146.27L141.72,141.02L147.80,136.38L156.27,128.28L163.23,124.17L182.57,147.13" />
        <path d="M42.50,334.12L50.54,341.41L68.84,354.38L74.32,356.82L100.26,338.84L113.05,328.73L116.23,327.29L118.55,326.92L120.54,330.36L137.02,347.02L143.37,352.74L145.99,354.17L170.31,337.63L177.16,331.65" />
      </g>
      <g id="f14" transform="translate(710.66 427.26)" style="--index:14; opacity:0;" class="frame">
        <path d="M-105.20,-11.52L-90.84,10.91L-89.92,10.91L-77.00,1.42L-64.16,-9.00L-54.69,-13.19L-47.40,-7.47L-27.87,10.64L-25.22,12.17L-23.37,12.17L-16.61,8.13L3.98,-9.27L9.15,-11.72" />
        <path d="M178.80,146.60" />
        <path d="M174.64,328.31" />
      </g>
      <g id="f15" transform="translate(710.66 427.26)" style="--index:15; opacity:0;" class="frame">
        <path d="M-52.51,-11.78L-44.02,-3.50L-24.16,12.83L-7.55,3.14L17.43,-14.77L19.74,-14.58L50.46,14.63L53.57,13.89L58.01,10.97L74.56,-2.83L84.63,-7.73L106.22,17.20" />
        <path d="M-142.69,232.20" />
      </g>
    </g>
    <g id="t1" transform="translate(-365.09 -57.68) scale(0.99 0.99) rotate(-1.21)" class="thread">
      <g id="f0" transform="translate(826.52 166.73)" style="--index:0; opacity:1;" class="frame">
        <path d="M25.76,-9.86L47.09,14.22L50.73,17.41L53.57,18.73L73.04,3.67L86.48,-8.61L88.67,-9.59L91.59,-9.41L94.30,-4.95L101.38,3.41L110.85,12.89L115.95,16.08L118.60,16.67L120.46,16.08L125.29,11.77L139.32,-1.70L146.28,-7.34L147.07,-9.06" />
        <path d="M-146.47,89.13" />
        <path d="M-144.00,231.41L-138.00,227.66L-122.73,210.20L-113.54,201.76L-112.22,201.70L-110.93,204.19L-95.82,219.15L-83.30,229.49L-71.30,220.14L-61.61,210.15L-49.97,200.73" />
      </g>
      <g id="f1" transform="translate(826.52 166.73)" style="--index:1; opacity:0;" class="frame">
        <path d="M90.07,-10.53L95.23,-5.69L109.53,11.38L112.64,14.42L113.89,14.69L130.31,4.59L150.32,-13.38L155.62,-15.38L156.47,-13.64L180.97,10.64" />
        <path d="M-142.82,88.86L-135.46,83.24L-119.31,68.70L-116.27,67.38L-113.89,70.63L-93.42,89.74L-87.46,93.05L-87.27,91.99L-80.77,86.34L-59.45,68.89L-56.74,67.50L-56.61,66.38" />
        <path d="M-105.48,201.91L-88.02,220.99L-85.94,222.11L-80.63,217.88L-51.44,199.09L-49.12,198.33L-24.07,218.58L-16.15,223.21L-7.50,217.73L10.13,202.75L16.59,199.56L19.76,199.04L22.68,200.09L32.77,207.55L44.24,220.91L47.94,224.05" />
      </g>
      <g id="f2" transform="translate(826.52 166.73)" style="--index:2; opacity:0;" class="frame">
        <path d="M181.17,9.78" />
        <path d="M-86.94,94.24L-73.95,83.83L-59.05,69.63L-53.88,66.44L-52.84,66.38L-52.05,68.44L-47.46,72.41L-24.28,89.20L-13.11,96.30L0.08,86.67L11.19,76.13L16.97,73.02" />
        <path d="M-16.41,219.41L4.24,201.78L8.07,198.93L13.04,196.97L16.76,196.77L20.28,201.00L46.47,221.41L49.09,222.82L52.96,223.55L68.89,215.34L84.87,204.93L87.42,203.95L91.46,203.75L92.86,202.68L92.95,201.13" />
      </g>
      <g id="f3" transform="translate(826.52 166.73)" style="--index:3; opacity:0;" class="frame">
        <path d="M-48.73,70.89L-40.46,75.06L-13.90,96.50L-11.38,97.16L-9.19,94.50L5.84,84.55L19.74,70.02L21.39,69.16L24.30,69.09L30.27,73.14L37.23,81.64L46.63,91.13L51.98,95.70L54.96,96.50L70.45,85.81L85.17,70.95L91.92,66.70" />
        <path d="M47.43,218.55L53.17,216.96L83.89,200.43L88.56,198.68L92.37,198.26L103.03,206.41L116.08,218.26L119.62,220.23L122.80,220.79L128.25,216.89L139.09,206.75L147.27,201.40L148.98,201.27L179.99,227.08" />
      </g>
      <g id="f4" transform="translate(826.52 166.73)" style="--index:4; opacity:0;" class="frame">
        <path d="M-133.75,-40.78" />
        <path d="M22.12,67.50L46.75,90.00L54.24,95.56L56.36,93.05L73.83,83.24L95.30,68.09L99.92,66.70L101.05,66.84L105.95,71.69L121.25,88.41L128.46,93.52L131.19,93.64L132.96,92.78L143.03,85.61L153.43,79.97L159.25,74.80" />
        <path d="M179.63,224.20" />
      </g>
      <g id="f5" transform="translate(826.52 166.73)" style="--index:5; opacity:0;" class="frame">
        <path d="M-134.34,-40.13L-129.59,-42.31L-116.14,-52.19L-91.44,-71.91L-86.94,-63.74L-81.17,-55.91L-69.33,-43.70" />
        <path d="M100.32,67.11L107.01,71.42L119.46,83.09L126.54,88.67L132.32,91.45L152.18,81.03L158.85,75.74L164.62,72.67L168.33,69.03L169.79,68.77L169.79,70.28L171.17,72.08L188.53,90.45" />
      </g>
      <g id="f6" transform="translate(826.52 166.73)" style="--index:6; opacity:0;" class="frame">
        <path d="M-87.00,-70.11L-82.10,-65.67L-58.26,-39.78L-35.96,-58.70L-18.74,-69.25L-14.57,-62.88L0.79,-45.03L5.90,-39.78L9.73,-37.47" />
        <path d="M185.28,89.66" />
        <path d="M-146.91,279.39" />
      </g>
      <g id="f7" transform="translate(826.52 166.73)" style="--index:7; opacity:0;" class="frame">
        <path d="M-21.64,-63.81L-13.24,-57.64L17.88,-29.44L21.20,-33.75L38.87,-50.08L51.92,-63.41L61.05,-70.84L62.18,-70.84L66.43,-66.19L81.39,-43.30L87.54,-36.20L93.30,-38.72L107.93,-49.02L111.64,-52.06L120.58,-62.55L123.29,-63.67" />
        <path d="M-147.68,278.83L-127.78,259.86L-117.00,251.44L-116.17,251.37L-111.65,257.84L-101.67,266.55L-94.46,271.57L-84.35,277.02L-60.69,260.49L-50.97,255.23" />
      </g>
      <g id="f8" transform="translate(826.52 166.73)" style="--index:8; opacity:0;" class="frame">
        <path d="M25.03,-38.53L32.58,-42.97L40.67,-49.61L58.95,-67.66L65.55,-70.91L78.87,-55.58L91.38,-43.17L105.16,-50.00L119.66,-62.22L126.02,-63.61L138.19,-51.00L151.18,-39.66L157.93,-32.63" />
        <path d="M-148.45,151.91" />
        <path d="M-83.14,270.05L-62.49,255.36L-52.06,249.87L-50.23,251.99L-20.19,274.60L-15.55,276.65L-6.90,268.59L4.65,259.86L15.38,253.13L18.85,254.95L32.58,269.43L37.32,273.35L41.24,275.25L60.01,263.94L68.83,255.58" />
      </g>
      <g id="f9" transform="translate(826.52 166.73)" style="--index:9; opacity:0;" class="frame">
        <path d="M76.08,-61.02L86.29,-50.00L97.34,-41.72L107.74,-52.13L113.49,-62.08L116.62,-63.02L123.71,-57.83L140.11,-42.84L152.10,-33.34L155.01,-34.61L163.35,-41.52L175.61,-48.55L180.44,-50.14" />
        <path d="M-149.91,155.35L-142.82,151.24L-120.25,133.60L-115.81,131.13L-114.93,131.27L-111.64,136.17L-105.14,143.08L-90.38,156.22L-76.48,147.13L-61.45,135.58L-55.55,132.80" />
        <path d="M-12.57,270.33L-2.22,265.53L16.92,252.83L19.41,252.02L20.66,252.18L37.16,266.52L42.32,269.29L54.15,263.35L74.08,249.66L77.64,248.91L81.10,251.43L96.60,266.93L107.90,275.09L123.44,267.02L133.25,260.51" />
        <path d="M-147.04,366.15" />
      </g>
      <g id="f10" transform="translate(826.52 166.73)" style="--index:10; opacity:0;" class="frame">
        <path d="M179.71,-55.05L183.82,-52.19" />
        <path d="M-107.20,133.13L-93.69,147.52L-89.59,150.77L-87.46,151.30L-85.02,149.31L-70.85,143.08L-52.76,131.20L-46.00,129.14L-27.99,145.20L-23.57,148.25L-17.86,149.85L-7.00,143.08L5.11,132.66L12.07,128.22" />
        <path d="M50.02,263.94L57.00,262.38L81.66,249.02L84.22,248.42L88.05,253.35L110.39,271.48L113.47,273.06L125.70,265.72L144.27,249.29L151.65,246.73L181.64,266.79" />
        <path d="M-147.66,367.70L-143.42,361.76L-128.23,349.82L-115.88,337.22L-111.30,334.23L-109.42,334.09L-107.45,337.45L-92.19,351.40L-88.41,353.75L-79.62,357.32L-74.25,363.74L-42.68,337.60" />
      </g>
      <g id="f11" transform="translate(826.52 166.73)" style="--index:11; opacity:0;" class="frame">
        <path d="M-45.29,130.08L-18.93,152.83L10.07,133.78L20.59,127.88L25.49,130.00L44.96,147.13L50.28,151.03L52.44,151.77L53.96,151.77L82.71,136.11L85.50,133.66" />
        <path d="M181.66,265.31" />
        <path d="M-98.43,342.02L-89.76,350.32L-74.92,360.16L-71.71,363.15L-68.58,359.07L-51.98,348.05L-37.63,336.93L-34.69,335.72L-31.50,342.74L-20.61,353.45L-13.61,358.41L-5.89,361.21L-2.43,363.48L18.12,348.94L30.92,336.95L36.13,335.23" />
      </g>
      <g id="f12" transform="translate(826.52 166.73)" style="--index:12; opacity:0;" class="frame">
        <path d="M-139.38,4.14" />
        <path d="M24.37,124.83L30.93,128.67L45.96,142.67L56.88,149.52L70.45,144.00L83.44,137.38L93.11,134.19L97.22,133.92L106.62,143.02L122.58,154.42L136.94,140.55L139.86,138.50L144.88,136.64" />
        <path d="M-30.69,340.10L-23.81,346.45L-2.97,360.92L23.15,342.70L36.28,334.99L37.37,335.00L38.82,337.03L49.26,345.65L57.41,351.39L65.88,355.60L75.24,357.14L87.70,348.49L100.82,336.91L108.44,331.70" />
      </g>
      <g id="f13" transform="translate(826.52 166.73)" style="--index:13; opacity:0;" class="frame">
        <path d="M-139.17,6.92L-134.21,5.06L-123.08,-3.42L-111.31,-14.44L-108.57,-15.83L-106.66,-11.52L-96.46,4.67L-94.34,7.72L-90.65,10.50L-89.84,10.58L-79.79,2.75L-67.87,-7.73L-61.18,-10.19L-60.84,-11.13" />
        <path d="M59.28,148.58L72.31,143.14L82.65,136.91L90.40,130.88L94.96,129.67L104.03,137.91L121.77,149.25L125.75,150.05L133.75,146.27L141.72,141.02L147.80,136.38L156.27,128.28L163.23,124.17L182.57,147.13" />
        <path d="M42.50,334.12L50.54,341.41L68.84,354.38L74.32,356.82L100.26,338.84L113.05,328.73L116.23,327.29L118.55,326.92L120.54,330.36L137.02,347.02L143.37,352.74L145.99,354.17L170.31,337.63L177.16,331.65" />
      </g>
      <g id="f14" transform="translate(826.52 166.73)" style="--index:14; opacity:0;" class="frame">
        <path d="M-105.20,-11.52L-90.84,10.91L-89.92,10.91L-77.00,1.42L-64.16,-9.00L-54.69,-13.19L-47.40,-7.47L-27.87,10.64L-25.22,12.17L-23.37,12.17L-16.61,8.13L3.98,-9.27L9.15,-11.72" />
        <path d="M178.80,146.60" />
        <path d="M174.64,328.31" />
      </g>
      <g id="f15" transform="translate(826.52 166.73)" style="--index:15; opacity:0;" class="frame">
        <path d="M-52.51,-11.78L-44.02,-3.50L-24.16,12.83L-7.55,3.14L17.43,-14.77L19.74,-14.58L50.46,14.63L53.57,13.89L58.01,10.97L74.56,-2.83L84.63,-7.73L106.22,17.20" />
        <path d="M-142.69,232.20" />
      </g>
    </g>
  </g>
</svg>