<?xml version="1.0" encoding="utf-8"?>
<svg width="1366" height="1024" viewBox="-683 -512 1366 1024" xmlns="http://www.w3.org/2000/svg">
  <style>
svg { background-color:#FFD69C; }

#looom { --version:2; }

#t0 {
--visible:1; --timeOffset:28; --speed:8; --bookmarkIndex:-1; --latched:0; --playMode:0; --masked:0; --blendMode:0; 
stroke:#FF717A; stroke-opacity:1; fill-opacity:0; stroke-width:19.99662; stroke-linecap:round; stroke-linejoin:round;
}
@keyframes t0 { 0% { opacity: 1; } 6.25% { opacity: 0; } }
#t0 .frame { animation:t0 2s calc(var(--index) * 0.125s) steps(1) infinite; }

#t1 {
--visible:1; --timeOffset:44; --speed:8; --bookmarkIndex:-1; --latched:0; --playMode:0; --masked:0; --blendMode:0; 
stroke:#FFBC6A; stroke-opacity:1; fill-opacity:0; stroke-width:26.34658; stroke-linecap:round; stroke-linejoin:round;
}
@keyframes t1 { 0% { opacity: 1; } 6.25% { opacity: 0; } }
#t1 .frame { animation:t1 2s calc(var(--index) * 0.125s) steps(1) infinite; }

#t2 {
--visible:1; --timeOffset:44; --speed:8; --bookmarkIndex:-1; --latched:0; --playMode:0; --masked:0; --blendMode:0; 
stroke:#3FB499; stroke-opacity:1; fill-opacity:0; stroke-width:26.34658; stroke-linecap:round; stroke-linejoin:round;
}
@keyframes t2 { 0% { opacity: 1; } 6.25% { opacity: 0; } }
#t2 .frame { animation:t2 2s calc(var(--index) * 0.125s) steps(1) infinite; }

</style>
  <g id="w0" transform="translate(-410.75 91.75) scale(0.95 0.95) rotate(-359.23)" class="weave">
    <g id="t0" transform="translate(401.73 -63.17)" class="thread">
      <g id="f0" style="--index:0; opacity:1;" class="frame">
        <path d="M-263.46,64.39L-249.42,76.45L-246.31,77.99L-229.24,68.17L-218.69,60.80L-214.40,59.94L-195.53,76.80L-183.47,84.28L-159.04,70.63L-155.14,68.77L-150.58,67.77L-123.14,84.49L-111.56,90.06L-95.28,76.13L-89.13,72.49L-82.35,69.77" />
        <path d="M-205.92,-232.21L-178.90,-246.14L-174.21,-247.27L-170.96,-243.36L-156.66,-232.67L-144.53,-225.77L-138.99,-223.85L-102.70,-240.30L-100.90,-239.83L-98.19,-236.99L-88.06,-229.81L-74.41,-222.78L-71.04,-222.13L-61.36,-225.24L-51.57,-231.08L-41.98,-235.60L-35.35,-236.46" />
        <path d="M484.12,91.06" />
      </g>
      <g id="f1" style="--index:1; opacity:0;" class="frame">
        <path d="M-112.89,89.92L-78.18,61.80L-72.31,58.94L-69.78,59.81L-44.36,77.45L-32.10,84.16L-1.77,68.36L-0.25,68.17L3.25,69.83L18.49,85.88L23.12,89.33L27.68,89.13L35.37,85.42L49.27,75.47L59.68,71.55L61.53,71.88L63.45,73.34L75.62,84.55L85.17,89.33" />
        <path d="M-42.50,-238.11" />
      </g>
      <g id="f2" style="--index:2; opacity:0;" class="frame">
        <path d="M20.26,91.92L26.70,89.74L50.40,74.61L53.90,73.08L60.99,78.66L78.14,88.67L85.02,91.45L89.13,87.61L109.60,74.61L120.91,68.36" />
      </g>
      <g id="f3" style="--index:3; opacity:0;" class="frame">
        <path d="M117.48,71.75" />
      </g>
      <g id="f4" style="--index:4; opacity:0;" class="frame">
        <path d="M-157.33,231.66" />
      </g>
      <g id="f5" style="--index:5; opacity:0;" class="frame">
        <path d="M-154.08,231.78L-132.36,218.92L-124.21,227.67L-113.74,235.83L-110.64,235.11L-91.44,224.42L-83.56,222.56L-80.77,227.21L-73.49,234.64L-71.70,235.91L-69.12,236.24L-62.09,232.92L-47.21,222.63L-39.52,220.58" />
        <path d="M-307.57,28.22" />
      </g>
      <g id="f6" style="--index:6; opacity:0;" class="frame">
        <path d="M-111.37,236.30L-86.40,221.91L-85.61,221.97L-84.54,225.69L-80.98,231.13L-75.14,237.77L-72.16,239.69L-37.54,222.24L-20.11,235.83L-8.80,242.53L-3.71,240.14L11.65,230.06L17.49,228.00L18.22,228.21L19.34,234.77L22.93,242.80L26.70,246.13L36.29,245.25L64.03,233.25L68.35,233.78" />
        <path d="M-305.90,27.95L-297.29,24.31L-283.12,16.22L-275.91,13.83L-274.66,14.09L-266.72,23.78L-258.90,27.95L-256.65,28.22L-241.08,18.86L-235.72,16.08L-231.49,15.16L-230.43,15.28L-222.74,24.84L-219.36,27.36L-211.08,29.61L-207.92,29.16L-189.37,17.47L-183.15,15.42L-179.05,15.22" />
      </g>
      <g id="f7" style="--index:7; opacity:0;" class="frame">
        <path d="M-10.71,243.47L12.71,230.13L17.55,240.81L21.80,246.46L23.78,247.58L48.42,236.71L75.22,226.81L82.31,224.96L87.61,235.50L91.52,240.55L101.11,248.17L103.57,246.19L117.20,241.88L134.75,233.25L138.92,233.31" />
        <path d="M-209.04,32.34L-187.72,19.92L-174.86,13.95L-172.82,16.94L-165.39,23.31L-156.12,29.48L-149.12,32.73L-141.15,28.16L-129.17,19.27L-123.54,16.81L-120.77,17.73L-110.51,26.97L-99.51,34.19L-93.09,32.80L-85.48,29.48L-78.12,24.77L-72.77,22.39" />
      </g>
      <g id="f8" style="--index:8; opacity:0;" class="frame">
        <path d="M-33.50,-162.88" />
        <path d="M142.03,232.39" />
        <path d="M-146.59,29.95L-127.58,18.27L-125.48,20.45L-110.64,29.48L-106.07,32.00L-100.51,33.59L-79.58,23.38L-70.45,19.33L-67.41,18.73L-46.09,35.19L-41.98,35.78L-24.10,26.50L-15.49,23.58" />
      </g>
      <g id="f9" style="--index:9; opacity:0;" class="frame">
        <path d="M-34.02,-162.88L-29.12,-165.33L-14.30,-177.33L-8.86,-180.58L-6.15,-175.61L-3.77,-173.49L18.01,-157.83L48.94,-176.35L54.51,-178.13L55.17,-178.20L56.03,-175.61L59.13,-171.30L64.64,-165.13L67.62,-162.80L72.52,-160.61L75.68,-161.47L88.94,-169.64L97.88,-174.14L105.03,-176.47" />
        <path d="M-16.40,25.77" />
        <path d="M-289.02,220.50" />
      </g>
      <g id="f10" style="--index:10; opacity:0;" class="frame">
        <path d="M18.43,-156.63L22.66,-159.89L43.19,-172.16L51.98,-175.67L53.44,-173.63L57.49,-170.56L74.56,-158.89L91.13,-166.78L99.80,-172.63L107.01,-175.08L132.04,-156.17L133.50,-156.30L150.97,-167.11L158.54,-169.83L169.71,-159.28L179.99,-153.64L189.51,-158.22L206.00,-171.24" />
        <path d="M-286.43,222.36L-274.05,213.41L-263.19,203.39L-258.57,201.06L-255.04,201.06L-244.18,214.21L-237.24,219.11L-204.33,204.46L-200.22,203.92L-196.33,212.55L-188.57,219.19L-182.28,221.44L-180.49,221.30L-173.15,215.47L-158.37,205.64L-151.83,202.66L-150.70,201.27" />
      </g>
      <g id="f11" style="--index:11; opacity:0;" class="frame">
        <path d="M107.47,-174.88L127.79,-159.42L158.06,-172.63L159.00,-172.16L162.31,-166.19L166.48,-161.55L174.09,-155.24L176.94,-153.99L187.13,-158.56L203.41,-168.11L213.69,-171.50L230.64,-160.88L243.35,-154.58" />
        <path d="M-202.20,204.25L-188.78,216.27L-180.49,220.38L-152.95,202.46L-148.51,200.35L-140.24,207.56L-117.79,221.30L-115.02,222.30L-106.01,217.52L-90.96,205.85L-83.42,203.78L-80.83,205.19L-71.76,216.53L-67.47,219.46L-61.70,221.11L-52.84,216.72L-44.23,211.16L-38.39,206.11L-36.60,203.60" />
      </g>
      <g id="f12" style="--index:12; opacity:0;" class="frame">
        <path d="M192.89,-156.70L217.86,-170.36L218.98,-167.85L221.69,-164.92L227.45,-160.61L241.16,-151.78L244.81,-150.66L262.21,-158.30L274.60,-164.92L278.06,-165.92L280.70,-165.60L298.50,-147.94L299.69,-147.94L313.68,-156.83L317.51,-158.22" />
        <path d="M154.22,97.42" />
        <path d="M-112.95,219.85L-106.66,217.46L-86.67,204.78L-84.69,204.25L-81.31,212.08L-74.89,218.19L-70.31,219.99L-62.43,220.64L-50.71,214.41L-39.12,206.77L-30.39,203.46L-10.38,217.66L-3.29,224.10L0.27,225.22" />
      </g>
      <g id="f13" style="--index:13; opacity:0;" class="frame">
        <path d="M318.70,-161.67" />
        <path d="M-355.36,-237.19" />
        <path d="M153.76,99.02L161.77,95.64L177.59,85.75L178.59,85.81L191.18,99.28L193.49,100.14L196.99,100.02L217.00,88.08L226.32,85.55L230.18,94.44L236.66,100.34L240.77,102.14L244.41,101.74L255.06,94.24L266.07,88.53L269.57,87.61L270.24,87.67L273.62,94.58L277.24,99.28L280.10,101.88L285.06,102.67L292.75,100.61L297.59,98.28L304.86,94.17L311.95,88.94L316.72,86.94" />
        <path d="M-1.71,223.63" />
      </g>
      <g id="f14" style="--index:14; opacity:0;" class="frame">
        <path d="M-353.84,-235.06L-338.69,-240.17L-314.51,-250.46L-310.07,-251.32L-280.81,-233.53L-276.18,-231.88L-266.45,-236.19L-246.98,-247.21L-241.35,-248.86L-238.56,-247.80L-228.43,-237.31L-221.09,-231.81L-213.00,-227.63L-188.91,-239.77" />
        <path d="M-304.32,66.64" />
        <path d="M236.53,101.88L245.33,97.95L264.47,87.47L268.63,86.75L269.57,86.81L272.68,94.91L275.39,98.95L277.58,100.28L280.62,99.55L306.78,83.63L318.70,78.45L320.43,79.38L325.79,88.14L333.67,97.24L339.23,101.34L343.34,101.74L353.32,96.83L374.58,84.02" />
      </g>
      <g id="f15" style="--index:15; opacity:0;" class="frame">
        <path d="M-306.24,68.44L-299.94,68.36L-281.35,58.02L-274.05,55.30L-252.94,71.49L-242.93,77.13L-223.67,63.59L-215.98,59.67L-215.13,59.67L-210.02,65.11L-189.03,80.97L-179.44,78.58L-160.83,70.69L-152.62,69.24" />
        <path d="M-276.91,-233.06L-266.84,-238.31L-249.17,-249.86L-243.87,-251.78L-231.41,-239.97L-217.65,-230.75L-214.34,-229.81L-211.29,-230.08L-195.33,-236.19L-178.32,-243.89L-169.11,-246.67L-155.66,-234.33L-149.12,-229.75L-140.90,-225.44L-136.86,-224.44L-127.46,-229.16L-118.73,-235.25L-107.78,-241.50" />
        <path d="M347.57,100.67L374.00,85.88L380.09,83.30L380.81,83.30L385.65,92.25L391.34,99.08L396.63,103.92L400.68,106.31L402.93,106.25L416.44,100.49L433.26,91.39L439.61,90.33L444.64,100.34L448.68,104.66L452.00,106.25L459.81,105.19L469.94,99.88L476.49,95.44L482.99,92.39L485.37,92.31" />
      </g>
    </g>
    <g id="t1" transform="translate(-437.29 77.66) scale(0.96 0.96) rotate(-359.53)" class="thread">
      <g id="f0" transform="translate(852.52 -125.79)" style="--index:0; opacity:1;" class="frame">
        <path d="M320.16,135.45L318.64,127.81L313.47,123.50L303.61,122.11L300.17,123.56L295.33,128.55L292.21,135.19L285.12,161.78L278.37,177.64L278.31,183.28L281.10,186.47L284.00,188.13L288.98,189.19L294.79,188.33L304.01,182.36L308.30,177.45L315.84,164.31L319.95,154.30L321.47,147.66L320.89,135.70" />
        <path d="M-259.30,-138.78L-251.27,-133.35L-239.29,-127.38L-228.11,-123.78L-210.96,-122.27L-203.66,-125.25L-199.22,-133.02L-198.43,-141.05L-200.16,-144.69L-203.08,-148.20L-206.79,-150.53L-217.65,-155.11L-232.07,-160.41L-248.29,-164.66L-256.04,-165.39L-259.15,-164.60L-263.01,-161.94L-265.32,-157.42L-265.05,-147.61L-260.55,-139.72" />
        <path d="M175.94,-179.25L181.24,-172.69L186.20,-168.52L198.79,-160.35L206.39,-156.03L223.28,-150.20L237.18,-149.86L243.23,-151.06L251.90,-154.85L260.11,-161.81L265.47,-168.58L268.78,-174.75L271.49,-188.08L271.55,-205.00L269.36,-213.10L266.92,-218.41L253.21,-243.96L248.31,-250.13L243.08,-254.83L237.06,-258.02L217.46,-264.39L210.31,-264.99L197.60,-264.58L184.03,-257.82L175.15,-248.66L170.84,-241.56L166.67,-228.75L165.02,-220.33L165.08,-205.14L166.60,-198.50L173.23,-183.70L180.38,-175.94" />
        <path d="M-35.76,-109.20L-36.54,-109.59L-35.76,-109.20" />
        <path d="M-32.18,-106.20L-35.76,-109.20L-28.66,-104.94L-11.59,-99.44L2.92,-96.39L14.17,-95.06L26.76,-94.92L32.72,-95.66L41.79,-100.09L46.23,-103.16L52.19,-108.99L53.84,-111.78L54.90,-119.28L54.24,-122.80L51.59,-127.64L48.15,-131.55L32.00,-144.10L26.89,-146.22L15.03,-149.33L5.84,-150.47L-6.48,-150.47L-13.69,-148.80L-17.34,-147.14L-28.81,-139.99L-35.35,-125.45L-34.83,-118.08L-32.43,-115.77" />
      </g>
      <g id="f1" transform="translate(852.52 -125.79)" style="--index:1; opacity:0;" class="frame">
        <path d="M299.75,124.56L296.92,112.81L292.02,106.92L286.18,104.19L282.41,103.39L277.12,103.33L272.49,105.78L267.05,112.03L262.94,119.25L254.94,141.69L243.29,166.24L241.62,173.53L241.62,177.05L243.41,180.44L247.58,184.55L252.23,186.74L258.32,187.66L269.30,187.00L275.47,184.55L280.83,180.56L285.93,175.52L289.56,170.49L297.31,154.22L299.69,141.88L299.96,126.36" />
        <path d="M-257.11,-152.99L-252.15,-149.41L-247.64,-147.41L-231.95,-143.83L-225.65,-143.89L-220.42,-144.89L-217.05,-147.28L-215.65,-150.00L-215.59,-154.64L-216.38,-156.83L-221.34,-162.47L-252.60,-168.91L-254.13,-168.85L-255.59,-167.52L-257.23,-164.53L-257.38,-158.89L-256.44,-157.42" />
        <path d="M171.63,-220.06L174.21,-214.75L178.80,-209.78L195.28,-197.77L201.70,-194.72L216.92,-192.60L224.80,-192.39L230.97,-193.46L240.56,-197.24L248.71,-202.61L261.76,-216.49L264.94,-222.58L265.99,-226.71L266.59,-239.38L265.47,-247.21L263.28,-253.64L260.50,-258.82L257.04,-262.74L253.81,-265.19L240.49,-271.22L236.66,-271.82L225.80,-271.55L209.98,-268.57L190.51,-266.17L179.26,-263.72L175.48,-261.33L171.63,-256.89L167.60,-246.27L167.27,-231.55L169.65,-222.05L172.17,-217.02" />
        <path d="M-138.44,106.31" />
        <path d="M-31.45,-151.45L-23.82,-145.63L-13.30,-140.52L-6.61,-137.72L13.32,-132.08L25.58,-130.63L34.77,-130.49L43.58,-131.22L52.59,-133.41L58.68,-137.86L62.51,-145.49L63.05,-153.11L61.20,-159.95L57.74,-167.05L51.98,-173.49L37.56,-185.24L33.18,-187.02L20.41,-190.80L3.86,-193.33L-8.46,-193.72L-14.30,-192.47L-26.87,-186.30L-30.79,-182.85L-33.77,-178.33L-37.00,-171.24L-37.33,-166.25L-35.87,-161.94L-31.85,-155.38L-26.22,-149.41" />
      </g>
      <g id="f2" transform="translate(852.52 -125.79)" style="--index:2; opacity:0;" class="frame">
        <path d="M237.33,184.28L240.10,177.19L255.67,156.14L261.96,145.13L268.11,129.74L271.16,117.00L271.95,102.74L270.36,96.30L266.65,91.78L263.28,89.33L259.38,88.08L254.67,87.94L252.35,88.41L248.92,90.80L244.27,96.70L234.93,118.53L214.42,149.05L210.50,157.41L208.46,164.77L208.46,171.28L210.25,175.72L213.54,180.70L217.98,183.96L224.67,187.00L228.11,187.27L229.91,187.27L236.60,184.28" />
        <path d="M-238.95,-158.75" />
        <path d="M174.09,-247.00L176.28,-239.83L184.34,-232.08L198.06,-223.85L215.21,-218.41L224.61,-217.74L236.60,-220.60L245.27,-225.83L250.23,-230.02L253.94,-234.80L256.73,-241.50L256.98,-249.06L255.46,-253.24L251.10,-259.94L248.19,-263.07L240.49,-268.44L226.99,-275.33L216.52,-278.32L204.87,-278.46L193.03,-272.42L185.07,-266.44L181.36,-262.21L177.34,-254.71L177.34,-252.11" />
        <path d="M-162.56,95.56L-156.45,99.69L-152.89,101.02L-139.90,103.92L-127.92,103.66L-121.96,101.88L-114.87,97.16L-109.30,91.59L-107.20,88.14L-105.28,81.77L-104.68,75.80L-104.80,69.83L-105.87,66.11L-110.24,60.08L-116.14,54.77L-122.89,50.58L-130.17,48.27L-144.28,47.47L-154.20,51.91L-161.29,56.48L-165.00,60.34L-167.85,65.52L-169.56,71.02L-170.04,79.97L-168.65,84.55L-162.35,91.66" />
        <path d="M-29.26,-202.55L-19.72,-194.99L-0.46,-182.85L16.30,-174.94L30.54,-171.30L40.46,-170.36L58.01,-173.69L65.22,-175.94L68.20,-177.60L70.26,-180.05L71.66,-184.17L71.33,-192.00L68.47,-199.36L65.89,-203.74L60.53,-210.05L48.67,-220.06L41.40,-224.44L30.72,-229.10L20.99,-231.41L14.57,-231.94L0.88,-232.00L-6.94,-229.49L-15.42,-225.77L-23.49,-219.27L-26.28,-214.49L-27.26,-209.58L-26.68,-205.94" />
      </g>
      <g id="f3" transform="translate(852.52 -125.79)" style="--index:3; opacity:0;" class="frame">
        <path d="M244.35,147.72L243.14,137.83L243.95,130.53L246.21,124.50L257.92,101.67L259.71,96.70L260.63,90.66L260.57,84.22L258.38,79.31L253.94,74.27L248.52,71.69L242.35,71.55L236.93,74.27L229.72,79.97L224.61,86.28L218.98,96.97L212.23,115.08L205.41,123.83L194.89,132.72L191.97,136.50L188.32,144.67L186.47,154.22L186.93,163.72L188.93,167.36L194.35,172.94L209.04,181.03L218.05,182.63L222.30,182.55L229.45,179.50L233.49,175.39L236.72,170.28L239.43,162.25L240.56,146.92" />
        <path d="M177.53,-262.60L180.72,-257.28L185.07,-253.85L206.33,-244.55L220.17,-242.36L225.67,-242.36L229.39,-243.75L234.01,-246.94L237.45,-251.85L239.52,-260.08L238.58,-264.99L234.68,-270.10L222.15,-277.66L208.12,-280.52L198.33,-280.78L194.74,-280.11L189.39,-277.39L185.07,-273.28L182.57,-269.89L181.24,-264.52" />
        <path d="M-177.65,44.94L-174.40,50.78L-171.23,54.56L-162.14,61.53L-151.28,67.83L-138.51,71.81L-129.25,71.95L-120.50,69.56L-114.47,66.70L-109.30,63.13L-104.80,58.14L-101.63,51.44L-100.45,45.94L-100.30,37.58L-103.89,29.81L-108.45,24.17L-120.10,13.23L-130.71,5.73L-140.90,3.14L-150.03,3.02L-157.33,4.41L-164.08,8.05L-170.04,12.56L-175.46,18.08L-179.05,26.17L-180.24,34.80" />
        <path d="M-21.51,-230.42L-16.49,-224.17L-11.90,-219.94L9.61,-204.14L20.07,-198.30L35.89,-192.66L43.44,-191.86L53.17,-192.06L61.05,-195.91L64.97,-201.16L64.82,-214.30L63.91,-218.00L59.74,-225.83L56.61,-230.49L51.07,-236.13L40.73,-243.69L30.41,-249.60L11.26,-257.10L-2.38,-258.35L-15.61,-253.97L-20.66,-247.67L-22.51,-242.10L-22.76,-236.39" />
      </g>
      <g id="f4" transform="translate(852.52 -125.79)" style="--index:4; opacity:0;" class="frame">
        <path d="M181.63,165.83L191.10,169.69L204.81,171.20L210.77,168.30L213.54,164.50L216.00,158.67L224.74,125.69L236.26,100.94L242.68,81.70L243.68,72.81L243.48,63.39L240.56,55.95L236.60,51.64L231.43,48.45L223.94,47.66L220.30,48.59L215.67,52.38L213.15,57.02L209.58,66.91L203.96,93.64L201.50,98.63L196.26,104.66L190.30,108.24L166.73,114.08L158.20,117.66L151.05,123.38L146.34,129.47L144.76,135.19L144.88,142.61L151.24,152.56L157.14,157.47L165.87,161.99L175.21,165.30L183.09,167.03" />
        <path d="M-269.76,213.74" />
        <path d="M181.30,-266.85L185.68,-261.60L196.08,-256.57L200.52,-255.69L209.71,-255.96L213.54,-258.16L216.86,-261.94L218.65,-265.46L219.05,-271.10L217.98,-273.88L214.88,-276.92L211.38,-278.72L202.50,-279.19L196.81,-278.32L191.70,-275.94L189.12,-271.22L189.97,-263.78" />
        <path d="M-178.96,-7.88L-175.19,-2.36L-170.84,1.88L-152.28,13.16L-139.90,16.55L-126.73,17.55L-120.44,15.95L-114.87,12.77L-110.51,9.17L-107.26,5.13L-103.82,-0.97L-102.76,-4.75L-102.30,-16.17L-103.68,-21.28L-109.45,-32.75L-118.18,-42.91L-124.15,-47.09L-130.63,-50.20L-142.88,-54.13L-149.45,-55.72L-153.47,-55.84L-161.83,-54.78L-168.31,-52.39L-174.34,-48.61L-181.42,-42.11L-183.55,-36.67L-184.28,-27.78L-183.22,-20.75L-180.24,-15.50" />
        <path d="M-20.32,-262.39L1.94,-242.89L15.57,-232.67L29.81,-223.78L42.58,-218.00L58.07,-217.02L67.35,-218.67L70.79,-221.06L74.25,-226.10L74.04,-237.72L71.26,-243.75L63.78,-254.44L53.38,-265.25L38.48,-276.07L17.61,-285.89L11.99,-287.28L2.19,-286.42L-12.32,-280.52L-16.09,-278.25L-18.66,-275.33L-21.57,-265.72" />
      </g>
      <g id="f5" transform="translate(852.52 -125.79)" style="--index:5; opacity:0;" class="frame">
        <path d="M208.71,111.77L210.83,106.25L214.27,89.74L214.88,82.03L214.54,66.44L211.29,52.77L207.06,41.42L200.25,32.53L195.87,31.73L186.41,33.80L182.24,37.84L178.71,46.47L171.17,71.55L168.85,76.00L164.17,81.50L158.45,85.16L151.76,87.14L135.15,87.74L126.27,86.81L110.26,86.75L103.91,88.61L98.92,92.39L93.69,100.08L91.65,108.11L91.52,114.14L92.44,118.53L97.28,126.42L111.18,141.69L117.08,146.92L125.96,153.03L135.69,156.67L144.55,158.80L162.31,159.20L166.67,158.41L175.55,154.89L184.82,149.11L192.22,142.28L202.10,126.42L207.33,108.84" />
        <path d="M-272.99,190.52L-255.71,207.17L-250.42,210.63L-243.48,212.67L-237.37,212.08L-232.93,207.97L-230.43,201.53L-230.16,194.36L-232.80,187.60L-241.35,172.14L-248.04,165.77L-255.77,161.92L-265.32,161.92L-272.01,166.83L-275.05,172.27L-275.91,176.19L-275.78,180.56L-273.53,185.35" />
        <path d="M196.47,-270.63" />
        <path d="M-174.67,-50.94L-165.33,-44.56L-154.01,-39.06L-141.97,-36.34L-128.31,-35.20L-122.62,-36.20L-112.95,-40.78L-105.01,-46.03L-100.24,-51.27L-100.11,-56.58L-107.87,-62.94L-124.94,-71.91L-141.63,-75.42L-156.66,-76.88L-164.81,-75.55L-173.82,-68.66L-176.38,-65.47L-177.84,-61.95L-177.32,-55.25" />
        <path d="M-12.17,-297.36L-0.85,-284.89L19.80,-265.38L39.08,-249.86L54.44,-239.97L58.95,-237.78L72.70,-234.53L76.89,-235.25L81.92,-237.52L85.50,-241.63L86.42,-245.21L86.42,-252.64L82.83,-260.94L79.60,-265.46L72.45,-274.08L63.70,-282.36L37.23,-303.86L26.22,-310.36L21.72,-312.30L14.32,-313.75L3.86,-313.89L-3.04,-312.96L-9.07,-306.72" />
      </g>
      <g id="f6" transform="translate(852.52 -125.79)" style="--index:6; opacity:0;" class="frame">
        <path d="M179.84,89.39L183.76,79.25L188.14,62.92L189.32,50.31L188.99,37.78L186.93,27.30L183.36,20.00L179.44,16.28L172.96,14.09L167.40,14.55L160.85,20.98L152.03,33.66L144.22,40.23L132.96,45.14L107.53,52.58L94.57,57.22L85.56,64.05L81.64,69.09L79.14,73.81L75.22,86.14L74.89,96.03L76.50,102.27L80.52,109.11L88.73,119.72L101.59,130.14L113.31,135.05L124.69,137.17L133.75,137.24L143.24,135.58L152.49,131.80L162.96,124.63L170.65,116.41L175.21,108.77L179.19,99.02L183.09,82.50" />
        <path d="M-281.99,155.02L-252.94,187.39L-243.39,196.16L-238.04,198.55L-231.62,200.00L-228.51,199.81L-224.92,198.41L-220.36,194.89L-217.11,190.72L-215.98,187.60L-215.86,177.97L-219.03,166.44L-243.93,120.99L-253.33,109.17L-259.75,103.92L-263.92,102.08L-269.03,100.61L-273.53,100.49L-280.08,103.53L-287.62,110.44L-292.46,119.39L-294.38,127.02L-292.94,136.58L-287.50,147.39L-282.33,152.83" />
        <path d="M-164.87,-72.03L-160.37,-68.39L-149.12,-63.20L-138.05,-60.16L-130.77,-59.69L-116.20,-65.06L-111.70,-68.52L-109.85,-72.09L-109.12,-76.75L-110.37,-82.25L-114.93,-87.16L-119.43,-89.42L-126.21,-91.08L-152.41,-93.00L-158.97,-90.34L-164.27,-86.24L-165.12,-82.39L-163.54,-78.94" />
        <path d="M5.84,-322.32L29.81,-300.35L52.71,-282.44L71.33,-270.22L79.06,-266.52L82.31,-266.32L89.13,-267.44L91.38,-268.24L92.90,-269.96L93.90,-274.80L93.69,-278.19L92.05,-282.63L84.04,-297.10L76.41,-305.92L68.60,-313.10L48.02,-328.82L31.72,-337.32L25.18,-339.16L17.22,-339.63L14.57,-338.77L6.96,-333.99L5.96,-330.88L7.30,-325.36" />
      </g>
      <g id="f7" transform="translate(852.52 -125.79)" style="--index:7; opacity:0;" class="frame">
        <path d="M179.46,-1.63L175.21,-6.14L167.79,-10.33L161.04,-11.72L154.16,-11.19L146.07,-6.67L124.17,11.77L113.97,17.02L100.53,22.52L91.05,28.48L85.29,33.27L78.60,40.36L73.24,49.19L71.85,55.23L71.91,60.47L75.89,67.83L83.71,75.33L94.57,80.70L105.95,83.77L111.78,84.36L125.81,84.28L135.42,82.17L143.15,79.19L157.27,72.02L172.29,59.28L177.59,51.05L182.49,39.11L185.68,26.03L185.95,13.42L182.97,1.81L179.46,-1.63" />
        <path d="M181.97,2.22L178.40,-2.44" />
        <path d="M-297.17,126.89L-270.68,145.39L-258.57,152.24L-246.98,156.75L-237.97,158.53L-221.94,158.74L-216.98,157.88L-209.23,155.16L-204.85,151.97L-202.81,148.92L-200.77,143.35L-200.62,139.30L-202.54,134.85L-205.58,130.74L-222.34,114.08L-228.82,106.39L-246.37,80.58L-253.61,71.55L-263.26,63.33L-273.53,57.95L-284.64,57.34L-296.96,62.45L-305.78,70.02L-309.42,75.27L-311.86,80.44L-313.78,86.61L-314.05,97.16L-313.39,100.49L-310.95,105.78L-307.88,109.91L-298.57,117.66" />
        <path d="M-153.81,-85.56L-146.66,-81.25L-132.42,-79.00L-124.87,-81.25L-121.83,-85.56L-122.29,-92.88L-124.48,-95.33L-129.71,-97.45L-147.26,-97.99L-151.76,-95.25L-152.95,-90.88" />
        <path d="M27.68,-338.18L36.23,-328.69L46.48,-319.60L67.62,-304.00L77.14,-300.16L89.13,-298.69L93.23,-301.35L96.55,-306.32L97.34,-309.11L97.40,-316.27L96.15,-321.72L94.03,-325.43L85.96,-334.78L77.35,-340.75L61.32,-349.38L57.28,-351.24L46.90,-353.63L41.79,-353.77L39.14,-351.50L36.04,-345.00L36.04,-341.43" />
      </g>
      <g id="f8" transform="translate(852.52 -125.79)" style="--index:8; opacity:0;" class="frame">
        <path d="M68.41,33.92L77.14,39.56L88.06,44.88L99.86,47.73L116.22,47.86L131.11,44.61L154.16,34.33L163.04,26.70L171.63,14.16L175.21,-0.64L175.55,-15.11L174.36,-21.81L171.44,-29.50L169.06,-33.28L164.87,-37.33L153.37,-42.84L144.43,-43.44L139.65,-42.70L129.86,-38.98L108.80,-32.69L82.58,-31.83L77.41,-30.83L66.10,-24.80L62.11,-21.34L57.74,-13.38L56.55,-5.28L56.55,-0.25L58.34,4.86L63.51,12.63L69.47,23.97L74.77,30.22L77.14,31.47" />
        <path d="M-313.45,73.67L-305.32,81.64L-277.76,102.94L-262.28,113.61L-247.98,120.84L-236.45,125.03L-229.55,126.63L-217.38,128.02L-208.17,127.88L-202.75,126.75L-196.33,123.97L-189.70,119.19L-182.49,110.97L-179.63,106.13L-177.84,99.22L-177.51,90.59L-179.17,84.69L-184.59,76.33L-192.01,70.02L-201.08,65.25L-239.10,48.39L-263.07,32.47L-277.49,26.44L-290.08,22.31L-299.09,20.72L-309.15,20.92L-316.30,25.23L-319.87,30.41L-321.81,36.31L-321.93,45.02L-321.08,51.78L-316.64,63.19L-312.66,67.77" />
        <path d="M348.69,97.03" />
        <path d="M-131.36,-93.33" />
        <path d="M47.61,-354.75L55.03,-344.14L61.20,-337.44L67.47,-332.21L79.46,-323.71L84.04,-321.78L90.59,-320.52L94.36,-322.05L95.76,-323.64L96.82,-326.03L97.55,-333.33L96.67,-336.97L94.23,-341.69L89.73,-347.72L81.12,-355.63L70.72,-360.53L60.66,-361.93L56.95,-361.19L55.30,-356.49" />
      </g>
      <g id="f9" transform="translate(852.52 -125.79)" style="--index:9; opacity:0;" class="frame">
        <path d="M74.72,-12.16L78.75,-10.45L94.17,-0.50L104.89,2.67L120.00,5.27L131.65,4.59L140.32,2.75L151.91,-2.17L156.41,-5.34L160.25,-9.67L162.31,-14.25L164.08,-22.41L164.42,-32.56L163.50,-38.33L161.18,-43.70L157.33,-48.34L150.91,-52.19L145.89,-53.72L137.07,-53.92L125.88,-50.20L111.64,-47.42L102.57,-46.89L95.88,-45.50L86.63,-42.11L80.52,-38.59L70.85,-29.97L69.33,-26.39L69.20,-20.34L74.72,-12.16" />
        <path d="M74.04,-12.45L76.23,-11.25" />
        <path d="M-322.06,22.58L-319.16,29.55L-313.59,37.38L-295.11,55.16L-282.93,64.72L-261.67,78.45L-253.61,82.36L-226.05,91.66L-214.34,94.31L-208.17,94.31L-197.39,91.92L-190.30,89.06L-176.38,79.58L-169.71,70.36L-167.38,59.02L-167.38,50.52L-168.38,44.48L-170.75,39.11L-174.67,34.39L-184.07,28.42L-193.93,23.44L-217.11,15.48L-229.36,9.84L-245.06,1.61L-278.89,-18.30L-287.89,-21.14L-303.38,-20.67L-309.09,-19.28L-316.09,-14.25L-320.35,-8.00L-322.93,-0.84L-322.85,10.17L-321.93,15.42L-320.20,20.72L-317.37,24.64" />
        <path d="M321.74,93.58L334.12,89.80L338.96,87.08L347.96,79.11L350.36,76.13L353.01,70.75L353.86,62.00L352.47,57.16L347.90,51.38L340.02,49.59L332.33,49.45L325.39,52.05L321.01,55.83L312.74,66.05L309.42,76.86L309.36,81.50L312.07,89.66L314.59,93.25" />
        <path d="M76.29,-352.18" />
      </g>
      <g id="f10" transform="translate(852.52 -125.79)" style="--index:10; opacity:0;" class="frame">
        <path d="M89.52,-29.23L95.23,-25.78L110.33,-19.95L121.52,-18.75L132.44,-19.42L139.13,-22.61L142.45,-27.38L145.22,-34.08L146.61,-44.36L146.55,-47.42L144.70,-52.06L141.97,-54.92L140.19,-55.45L134.15,-55.72L116.22,-53.25L99.40,-53.19L96.36,-52.00L89.07,-45.95L88.34,-38.86L89.52,-34.48" />
        <path d="M-324.52,-17.95L-322.39,-9.86L-319.56,-3.42L-314.45,5.33L-307.42,15.16L-296.11,26.77L-281.54,38.17L-274.99,41.69L-267.51,47.06L-251.08,54.89L-233.99,59.14L-220.88,60.27L-207.65,60.14L-199.16,59.34L-188.05,56.69L-173.94,50.72L-156.20,40.83L-153.22,38.44L-145.74,29.88L-142.09,22.52L-139.72,14.81L-138.59,8.66L-138.38,-0.58L-140.36,-9.20L-142.76,-14.91L-147.39,-22.14L-152.35,-27.05L-160.89,-32.09L-169.44,-34.94L-221.09,-43.30L-239.10,-48.81L-265.51,-61.48L-279.68,-64.20L-286.37,-64.27L-293.73,-63.34L-305.51,-59.63L-313.05,-54.39L-317.37,-49.67L-323.52,-38.45L-326.10,-29.77L-325.64,-23.59L-321.33,-15.17" />
        <path d="M307.72,71.95L319.95,63.66L329.04,54.70L336.44,44.48L338.90,37.84L339.90,32.41L340.42,23.52L339.90,12.17L336.98,2.48L333.00,-5.42L328.64,-11.86L320.10,-20.28L309.49,-25.33L304.53,-26.39L296.25,-26.25L292.08,-25.45L284.60,-21.02L273.41,-10.13L267.59,-1.56L265.65,2.08L262.36,12.30L261.03,18.14L260.57,28.81L263.55,38.44L271.89,55.63L280.95,65.44L289.16,71.28L295.92,74.14L303.40,74.41L309.97,71.81" />
        <path d="M9.40,114.81" />
      </g>
      <g id="f11" transform="translate(852.52 -125.79)" style="--index:11; opacity:0;" class="frame">
        <path d="M100.38,-36.08L108.60,-34.41L117.75,-34.02L127.48,-37.00L130.92,-39.78L132.71,-42.58L133.84,-52.53L132.71,-56.52L130.98,-57.77L121.98,-59.23L116.54,-58.77L107.80,-51.41L100.72,-47.69L99.74,-45.03L99.53,-40.31L100.13,-39.92" />
        <path d="M-317.37,-42.05L-314.84,-31.63L-307.30,-18.22L-299.88,-7.41L-283.93,9.44L-271.22,18.27L-256.44,26.03L-233.01,34.53L-220.63,36.25L-208.04,36.13L-187.05,31.41L-169.56,22.31L-158.70,13.75L-153.08,7.13L-147.84,-1.30L-144.53,-11.33L-143.40,-18.83L-143.15,-29.23L-146.20,-40.25L-153.35,-50.61L-163.87,-58.50L-167.92,-60.48L-179.51,-64.61L-190.95,-66.59L-199.64,-69.52L-214.86,-76.55L-251.67,-89.55L-262.67,-91.08L-278.10,-91.28L-289.96,-89.88L-298.09,-86.70L-304.05,-82.45L-308.09,-77.81L-315.24,-62.22L-316.82,-52.59L-316.97,-44.97L-316.18,-40.58L-313.26,-32.09L-311.20,-28.77" />
        <path d="M252.54,18.53L257.52,24.77L268.78,33.00L274.20,35.66L278.06,37.11L285.00,38.05L299.23,38.23L309.57,35.19L316.18,30.02L323.54,21.33L326.58,16.14L330.16,4.94L330.62,-7.81L329.56,-14.97L326.52,-22.67L320.89,-29.91L317.85,-32.48L311.22,-36.20L298.38,-40.39L286.46,-41.78L282.56,-41.25L278.64,-39.66L263.88,-32.09L258.05,-26.92L254.79,-21.67L249.71,-9.06L248.64,-3.56L248.25,6.13L249.10,9.64L254.15,18.41" />
        <path d="M-7.67,103.53L4.25,106.66L16.03,107.45L27.49,105.52L31.72,103.33L38.29,97.16L41.73,90.13L42.52,82.50L41.92,79.70L40.21,77.13L28.28,68.50L20.26,65.11L8.48,64.78L0.21,66.64L-9.73,72.02L-15.22,79.44L-16.88,85.81L-16.88,89.74L-14.24,95.77L-11.59,98.63" />
      </g>
      <g id="f12" transform="translate(852.52 -125.79)" style="--index:12; opacity:0;" class="frame">
        <path d="M114.62,-48.48" />
        <path d="M-302.25,-66.97L-299.82,-57.91L-293.73,-47.09L-285.98,-36.47L-278.22,-27.98L-258.17,-14.25L-241.62,-6.41L-226.57,-1.77L-207.04,-1.03L-194.93,-2.30L-185.72,-4.75L-174.80,-9.06L-166.40,-13.52L-157.91,-21.41L-148.91,-32.16L-147.32,-37.20L-147.05,-47.22L-148.91,-53.78L-152.62,-62.41L-159.89,-71.11L-168.25,-77.94L-179.36,-82.99L-187.72,-85.83L-206.85,-90.75L-217.11,-92.27L-223.74,-95.33L-231.95,-97.05L-254.65,-104.08L-269.55,-105.55L-279.68,-105.41L-287.04,-103.49L-292.40,-100.50L-301.55,-91.67L-305.44,-82.66L-305.17,-75.88L-302.25,-66.97" />
        <path d="M-302.59,-69.45L-302.25,-66.97L-299.02,-60.89" />
        <path d="M247.12,-7.28L251.56,-3.23L258.32,0.22L272.01,3.02L277.24,3.20L286.91,1.22L299.23,-3.77L303.80,-6.61L307.51,-10.06L311.82,-17.42L314.53,-27.25L315.53,-41.78L312.55,-52.19L305.53,-63.28L296.06,-72.44L286.85,-76.49L278.51,-77.47L264.34,-74.56L251.17,-68.66L244.87,-63.61L239.04,-57.38L234.93,-49.67L234.41,-34.75L236.47,-25.86L243.35,-11.98L247.33,-7.47" />
        <path d="M-11.82,52.75L-8.86,56.09L1.67,62.59L17.88,66.38L29.54,66.31L36.16,64.45L48.42,58.81L53.71,53.83L56.55,47.66L56.82,38.11L53.51,32.00L47.88,26.63L35.62,17.67L31.39,15.75L19.61,12.23L5.96,9.78L-9.53,9.38L-13.44,10.31L-21.64,15.61L-24.43,19.06L-26.81,27.95L-26.81,34.80L-22.24,43.28L-15.95,49.78L-11.82,52.75" />
        <path d="M-13.90,50.39L-10.86,53.44" />
      </g>
      <g id="f13" transform="translate(852.52 -125.79)" style="--index:13; opacity:0;" class="frame">
        <path d="M331.29,166.24" />
        <path d="M-288.57,-85.63L-284.52,-79.41L-276.85,-71.44L-265.99,-62.55L-256.38,-56.38L-235.05,-47.09L-214.19,-43.38L-202.08,-42.84L-188.11,-44.03L-182.67,-45.30L-175.40,-48.61L-172.29,-51.41L-169.17,-57.56L-167.19,-64.14L-165.33,-75.95L-165.46,-81.92L-167.52,-87.16L-171.02,-90.75L-178.38,-96.19L-186.99,-100.03L-199.50,-103.95L-209.83,-108.20L-238.24,-121.06L-257.50,-127.83L-264.59,-128.70L-273.53,-128.70L-282.60,-126.70L-288.02,-124.19L-292.52,-119.81L-294.98,-111.64L-295.31,-100.24L-292.00,-89.88L-288.57,-85.63" />
        <path d="M-291.81,-92.34L-288.57,-85.63L-286.98,-84.17" />
        <path d="M234.41,-46.48L240.49,-42.38L243.35,-41.45L254.54,-39.59L265.34,-39.39L273.62,-42.64L281.89,-47.09L288.19,-53.86L290.75,-58.03L294.61,-65.41L295.73,-69.64L296.38,-88.56L294.33,-97.78L290.10,-107.47L285.93,-114.36L277.64,-123.66L271.49,-127.70L231.89,-148.80L226.93,-149.53L219.05,-148.20L214.67,-146.35L212.50,-144.56L208.46,-140.17L202.62,-131.36L198.27,-119.88L197.39,-103.95L200.70,-85.03L204.35,-74.03L213.54,-62.55L218.53,-54.45L225.93,-48.94L234.87,-45.23" />
        <path d="M-28.87,14.95L-22.91,19.92L-18.20,22.72L-6.02,28.55L7.02,33.00L20.93,35.45L37.87,34.53L45.17,32.53L51.65,29.22L59.28,23.05L61.20,20.45L63.84,11.91L63.97,-0.25L63.11,-3.03L56.76,-12.19L44.31,-21.81L30.66,-27.38L20.59,-30.44L7.23,-31.95L1.33,-31.03L-14.57,-25.72L-19.59,-22.94L-27.08,-16.44L-31.06,-11.06L-32.89,-6.02L-33.37,0.02L-32.18,4.47" />
      </g>
      <g id="f14" transform="translate(852.52 -125.79)" style="--index:14; opacity:0;" class="frame">
        <path d="M333.60,151.11L331.29,146.27L328.56,145.20L324.79,145.33L321.41,148.05L318.30,155.75L313.53,174.80L316.78,178.24L318.58,178.64L322.20,175.92L328.31,168.49L331.75,160.99L332.33,155.28" />
        <path d="M-286.25,-112.31L-280.95,-103.55L-272.87,-94.86L-267.30,-90.34L-249.81,-80.27L-229.82,-73.77L-219.57,-71.64L-205.85,-70.64L-193.53,-71.64L-186.38,-74.09L-180.76,-77.34L-175.86,-85.91L-175.34,-94.33L-176.13,-98.25L-179.76,-105.88L-182.95,-109.25L-193.74,-114.89L-231.95,-129.89L-244.60,-133.20L-257.11,-138.45L-263.40,-139.99L-269.61,-140.05L-274.12,-138.52L-281.41,-132.55L-284.73,-127.56L-287.04,-120.20L-287.62,-116.16L-287.10,-110.19" />
        <path d="M189.12,-115.36L192.16,-110.84L199.79,-104.55L217.00,-93.59L222.94,-90.75L235.35,-87.30L254.27,-84.84L258.90,-84.91L267.65,-87.36L276.85,-92.00L287.58,-98.84L290.23,-101.89L294.40,-109.06L296.06,-116.63L295.52,-128.30L287.46,-145.63L279.76,-156.50L267.78,-168.97L262.03,-173.10L254.67,-175.88L241.04,-178.86L225.47,-179.78L216.67,-176.47L207.73,-171.56L193.35,-155.50L187.13,-146.28L183.15,-136.33L182.09,-127.97L186.74,-114.77L189.05,-111.19" />
        <path d="M-32.04,-20.14L-27.01,-17.09L3.65,-9.73L19.13,-9.59L31.06,-11.59L38.81,-14.17L47.02,-18.83L50.92,-22.08L53.23,-24.45L56.22,-30.44L57.03,-38.72L56.30,-46.09L52.26,-53.45L46.23,-59.23L40.54,-62.75L25.83,-66.86L6.90,-68.25L-11.84,-67.25L-25.62,-63.20L-35.08,-57.30L-39.79,-52.59L-43.29,-42.91L-43.69,-32.48L-41.10,-28.17L-35.08,-22.08" />
      </g>
      <g id="f15" transform="translate(852.52 -125.79)" style="--index:15; opacity:0;" class="frame">
        <path d="M325.06,145.06L324.85,139.16L320.83,134.78L315.32,134.39L310.76,136.24L308.78,137.97L304.59,147.25L300.17,166.50L297.11,175.39L298.17,179.30L301.69,181.77L305.71,182.55L308.45,181.56L315.45,175.60L318.30,171.94L320.95,167.36L324.27,158.74L324.85,154.75L324.39,145.92" />
        <path d="M-272.20,-126.70L-268.82,-121.80L-264.92,-118.28L-247.77,-108.33L-233.93,-103.36L-228.30,-102.09L-219.76,-100.63L-208.83,-100.03L-204.27,-100.03L-200.29,-101.03L-190.43,-107.06L-187.97,-111.38L-187.05,-115.69L-187.39,-120.34L-189.37,-124.58L-191.28,-126.91L-194.81,-129.30L-217.44,-139.25L-250.15,-150.39L-256.44,-151.72L-262.92,-150.92L-269.82,-148.35L-274.05,-140.05L-274.72,-134.88L-274.05,-129.95" />
        <path d="M193.68,-143.50L196.81,-139.38L202.04,-135.27L218.32,-126.97L233.22,-123.52L241.62,-123.19L251.42,-123.99L258.59,-127.91L263.40,-132.41L269.57,-139.64L274.01,-147.94L275.53,-152.45L275.99,-162.67L273.68,-173.28L268.51,-182.97L264.80,-187.42L259.23,-193.13L251.23,-198.17L236.60,-204.21L226.07,-206.74L213.48,-206.74L205.81,-204.88L202.04,-203.08L187.20,-191.67L182.03,-184.44L178.59,-176.00L178.53,-171.50L183.61,-155.56L187.07,-150.33L193.10,-145.28" />
        <path d="M-38.60,-60.48L-32.77,-56.25L-21.32,-52.98L-7.40,-50.14L16.97,-48.48L27.74,-49.61L36.23,-52.80L42.52,-57.44L47.48,-63.34L49.34,-70.05L48.88,-80.33L46.69,-84.78L43.10,-89.16L30.27,-96.92L13.51,-102.69L-2.31,-104.41L-6.42,-104.34L-10.86,-103.22L-22.24,-97.45L-36.75,-85.97L-39.46,-81.45L-40.85,-74.30L-40.52,-70.78L-36.35,-64.47" />
      </g>
    </g>
    <g id="t2" transform="translate(401.73 -63.17)" class="thread">
      <g id="f0" style="--index:0; opacity:1;" class="frame">
        <path d="M320.16,135.45L318.64,127.81L313.47,123.50L303.61,122.11L300.17,123.56L295.33,128.55L292.21,135.19L285.12,161.78L278.37,177.64L278.31,183.28L281.10,186.47L284.00,188.13L288.98,189.19L294.79,188.33L304.01,182.36L308.30,177.45L315.84,164.31L319.95,154.30L321.47,147.66L320.89,135.70" />
        <path d="M-259.30,-138.78L-251.27,-133.35L-239.29,-127.38L-228.11,-123.78L-210.96,-122.27L-203.66,-125.25L-199.22,-133.02L-198.43,-141.05L-200.16,-144.69L-203.08,-148.20L-206.79,-150.53L-217.65,-155.11L-232.07,-160.41L-248.29,-164.66L-256.04,-165.39L-259.15,-164.60L-263.01,-161.94L-265.32,-157.42L-265.05,-147.61L-260.55,-139.72" />
        <path d="M175.94,-179.25L181.24,-172.69L186.20,-168.52L198.79,-160.35L206.39,-156.03L223.28,-150.20L237.18,-149.86L243.23,-151.06L251.90,-154.85L260.11,-161.81L265.47,-168.58L268.78,-174.75L271.49,-188.08L271.55,-205.00L269.36,-213.10L266.92,-218.41L253.21,-243.96L248.31,-250.13L243.08,-254.83L237.06,-258.02L217.46,-264.39L210.31,-264.99L197.60,-264.58L184.03,-257.82L175.15,-248.66L170.84,-241.56L166.67,-228.75L165.02,-220.33L165.08,-205.14L166.60,-198.50L173.23,-183.70L180.38,-175.94" />
        <path d="M-35.76,-109.20L-36.54,-109.59L-35.76,-109.20" />
        <path d="M-32.18,-106.20L-35.76,-109.20L-28.66,-104.94L-11.59,-99.44L2.92,-96.39L14.17,-95.06L26.76,-94.92L32.72,-95.66L41.79,-100.09L46.23,-103.16L52.19,-108.99L53.84,-111.78L54.90,-119.28L54.24,-122.80L51.59,-127.64L48.15,-131.55L32.00,-144.10L26.89,-146.22L15.03,-149.33L5.84,-150.47L-6.48,-150.47L-13.69,-148.80L-17.34,-147.14L-28.81,-139.99L-35.35,-125.45L-34.83,-118.08L-32.43,-115.77" />
      </g>
      <g id="f1" style="--index:1; opacity:0;" class="frame">
        <path d="M299.75,124.56L296.92,112.81L292.02,106.92L286.18,104.19L282.41,103.39L277.12,103.33L272.49,105.78L267.05,112.03L262.94,119.25L254.94,141.69L243.29,166.24L241.62,173.53L241.62,177.05L243.41,180.44L247.58,184.55L252.23,186.74L258.32,187.66L269.30,187.00L275.47,184.55L280.83,180.56L285.93,175.52L289.56,170.49L297.31,154.22L299.69,141.88L299.96,126.36" />
        <path d="M-257.11,-152.99L-252.15,-149.41L-247.64,-147.41L-231.95,-143.83L-225.65,-143.89L-220.42,-144.89L-217.05,-147.28L-215.65,-150.00L-215.59,-154.64L-216.38,-156.83L-221.34,-162.47L-252.60,-168.91L-254.13,-168.85L-255.59,-167.52L-257.23,-164.53L-257.38,-158.89L-256.44,-157.42" />
        <path d="M171.63,-220.06L174.21,-214.75L178.80,-209.78L195.28,-197.77L201.70,-194.72L216.92,-192.60L224.80,-192.39L230.97,-193.46L240.56,-197.24L248.71,-202.61L261.76,-216.49L264.94,-222.58L265.99,-226.71L266.59,-239.38L265.47,-247.21L263.28,-253.64L260.50,-258.82L257.04,-262.74L253.81,-265.19L240.49,-271.22L236.66,-271.82L225.80,-271.55L209.98,-268.57L190.51,-266.17L179.26,-263.72L175.48,-261.33L171.63,-256.89L167.60,-246.27L167.27,-231.55L169.65,-222.05L172.17,-217.02" />
        <path d="M-138.44,106.31" />
        <path d="M-31.45,-151.45L-23.82,-145.63L-13.30,-140.52L-6.61,-137.72L13.32,-132.08L25.58,-130.63L34.77,-130.49L43.58,-131.22L52.59,-133.41L58.68,-137.86L62.51,-145.49L63.05,-153.11L61.20,-159.95L57.74,-167.05L51.98,-173.49L37.56,-185.24L33.18,-187.02L20.41,-190.80L3.86,-193.33L-8.46,-193.72L-14.30,-192.47L-26.87,-186.30L-30.79,-182.85L-33.77,-178.33L-37.00,-171.24L-37.33,-166.25L-35.87,-161.94L-31.85,-155.38L-26.22,-149.41" />
      </g>
      <g id="f2" style="--index:2; opacity:0;" class="frame">
        <path d="M237.33,184.28L240.10,177.19L255.67,156.14L261.96,145.13L268.11,129.74L271.16,117.00L271.95,102.74L270.36,96.30L266.65,91.78L263.28,89.33L259.38,88.08L254.67,87.94L252.35,88.41L248.92,90.80L244.27,96.70L234.93,118.53L214.42,149.05L210.50,157.41L208.46,164.77L208.46,171.28L210.25,175.72L213.54,180.70L217.98,183.96L224.67,187.00L228.11,187.27L229.91,187.27L236.60,184.28" />
        <path d="M-238.95,-158.75" />
        <path d="M174.09,-247.00L176.28,-239.83L184.34,-232.08L198.06,-223.85L215.21,-218.41L224.61,-217.74L236.60,-220.60L245.27,-225.83L250.23,-230.02L253.94,-234.80L256.73,-241.50L256.98,-249.06L255.46,-253.24L251.10,-259.94L248.19,-263.07L240.49,-268.44L226.99,-275.33L216.52,-278.32L204.87,-278.46L193.03,-272.42L185.07,-266.44L181.36,-262.21L177.34,-254.71L177.34,-252.11" />
        <path d="M-162.56,95.56L-156.45,99.69L-152.89,101.02L-139.90,103.92L-127.92,103.66L-121.96,101.88L-114.87,97.16L-109.30,91.59L-107.20,88.14L-105.28,81.77L-104.68,75.80L-104.80,69.83L-105.87,66.11L-110.24,60.08L-116.14,54.77L-122.89,50.58L-130.17,48.27L-144.28,47.47L-154.20,51.91L-161.29,56.48L-165.00,60.34L-167.85,65.52L-169.56,71.02L-170.04,79.97L-168.65,84.55L-162.35,91.66" />
        <path d="M-29.26,-202.55L-19.72,-194.99L-0.46,-182.85L16.30,-174.94L30.54,-171.30L40.46,-170.36L58.01,-173.69L65.22,-175.94L68.20,-177.60L70.26,-180.05L71.66,-184.17L71.33,-192.00L68.47,-199.36L65.89,-203.74L60.53,-210.05L48.67,-220.06L41.40,-224.44L30.72,-229.10L20.99,-231.41L14.57,-231.94L0.88,-232.00L-6.94,-229.49L-15.42,-225.77L-23.49,-219.27L-26.28,-214.49L-27.26,-209.58L-26.68,-205.94" />
      </g>
      <g id="f3" style="--index:3; opacity:0;" class="frame">
        <path d="M244.35,147.72L243.14,137.83L243.95,130.53L246.21,124.50L257.92,101.67L259.71,96.70L260.63,90.66L260.57,84.22L258.38,79.31L253.94,74.27L248.52,71.69L242.35,71.55L236.93,74.27L229.72,79.97L224.61,86.28L218.98,96.97L212.23,115.08L205.41,123.83L194.89,132.72L191.97,136.50L188.32,144.67L186.47,154.22L186.93,163.72L188.93,167.36L194.35,172.94L209.04,181.03L218.05,182.63L222.30,182.55L229.45,179.50L233.49,175.39L236.72,170.28L239.43,162.25L240.56,146.92" />
        <path d="M177.53,-262.60L180.72,-257.28L185.07,-253.85L206.33,-244.55L220.17,-242.36L225.67,-242.36L229.39,-243.75L234.01,-246.94L237.45,-251.85L239.52,-260.08L238.58,-264.99L234.68,-270.10L222.15,-277.66L208.12,-280.52L198.33,-280.78L194.74,-280.11L189.39,-277.39L185.07,-273.28L182.57,-269.89L181.24,-264.52" />
        <path d="M-177.65,44.94L-174.40,50.78L-171.23,54.56L-162.14,61.53L-151.28,67.83L-138.51,71.81L-129.25,71.95L-120.50,69.56L-114.47,66.70L-109.30,63.13L-104.80,58.14L-101.63,51.44L-100.45,45.94L-100.30,37.58L-103.89,29.81L-108.45,24.17L-120.10,13.23L-130.71,5.73L-140.90,3.14L-150.03,3.02L-157.33,4.41L-164.08,8.05L-170.04,12.56L-175.46,18.08L-179.05,26.17L-180.24,34.80" />
        <path d="M-21.51,-230.42L-16.49,-224.17L-11.90,-219.94L9.61,-204.14L20.07,-198.30L35.89,-192.66L43.44,-191.86L53.17,-192.06L61.05,-195.91L64.97,-201.16L64.82,-214.30L63.91,-218.00L59.74,-225.83L56.61,-230.49L51.07,-236.13L40.73,-243.69L30.41,-249.60L11.26,-257.10L-2.38,-258.35L-15.61,-253.97L-20.66,-247.67L-22.51,-242.10L-22.76,-236.39" />
      </g>
      <g id="f4" style="--index:4; opacity:0;" class="frame">
        <path d="M181.63,165.83L191.10,169.69L204.81,171.20L210.77,168.30L213.54,164.50L216.00,158.67L224.74,125.69L236.26,100.94L242.68,81.70L243.68,72.81L243.48,63.39L240.56,55.95L236.60,51.64L231.43,48.45L223.94,47.66L220.30,48.59L215.67,52.38L213.15,57.02L209.58,66.91L203.96,93.64L201.50,98.63L196.26,104.66L190.30,108.24L166.73,114.08L158.20,117.66L151.05,123.38L146.34,129.47L144.76,135.19L144.88,142.61L151.24,152.56L157.14,157.47L165.87,161.99L175.21,165.30L183.09,167.03" />
        <path d="M-269.76,213.74" />
        <path d="M181.30,-266.85L185.68,-261.60L196.08,-256.57L200.52,-255.69L209.71,-255.96L213.54,-258.16L216.86,-261.94L218.65,-265.46L219.05,-271.10L217.98,-273.88L214.88,-276.92L211.38,-278.72L202.50,-279.19L196.81,-278.32L191.70,-275.94L189.12,-271.22L189.97,-263.78" />
        <path d="M-178.96,-7.88L-175.19,-2.36L-170.84,1.88L-152.28,13.16L-139.90,16.55L-126.73,17.55L-120.44,15.95L-114.87,12.77L-110.51,9.17L-107.26,5.13L-103.82,-0.97L-102.76,-4.75L-102.30,-16.17L-103.68,-21.28L-109.45,-32.75L-118.18,-42.91L-124.15,-47.09L-130.63,-50.20L-142.88,-54.13L-149.45,-55.72L-153.47,-55.84L-161.83,-54.78L-168.31,-52.39L-174.34,-48.61L-181.42,-42.11L-183.55,-36.67L-184.28,-27.78L-183.22,-20.75L-180.24,-15.50" />
        <path d="M-20.32,-262.39L1.94,-242.89L15.57,-232.67L29.81,-223.78L42.58,-218.00L58.07,-217.02L67.35,-218.67L70.79,-221.06L74.25,-226.10L74.04,-237.72L71.26,-243.75L63.78,-254.44L53.38,-265.25L38.48,-276.07L17.61,-285.89L11.99,-287.28L2.19,-286.42L-12.32,-280.52L-16.09,-278.25L-18.66,-275.33L-21.57,-265.72" />
      </g>
      <g id="f5" style="--index:5; opacity:0;" class="frame">
        <path d="M208.71,111.77L210.83,106.25L214.27,89.74L214.88,82.03L214.54,66.44L211.29,52.77L207.06,41.42L200.25,32.53L195.87,31.73L186.41,33.80L182.24,37.84L178.71,46.47L171.17,71.55L168.85,76.00L164.17,81.50L158.45,85.16L151.76,87.14L135.15,87.74L126.27,86.81L110.26,86.75L103.91,88.61L98.92,92.39L93.69,100.08L91.65,108.11L91.52,114.14L92.44,118.53L97.28,126.42L111.18,141.69L117.08,146.92L125.96,153.03L135.69,156.67L144.55,158.80L162.31,159.20L166.67,158.41L175.55,154.89L184.82,149.11L192.22,142.28L202.10,126.42L207.33,108.84" />
        <path d="M-272.99,190.52L-255.71,207.17L-250.42,210.63L-243.48,212.67L-237.37,212.08L-232.93,207.97L-230.43,201.53L-230.16,194.36L-232.80,187.60L-241.35,172.14L-248.04,165.77L-255.77,161.92L-265.32,161.92L-272.01,166.83L-275.05,172.27L-275.91,176.19L-275.78,180.56L-273.53,185.35" />
        <path d="M196.47,-270.63" />
        <path d="M-174.67,-50.94L-165.33,-44.56L-154.01,-39.06L-141.97,-36.34L-128.31,-35.20L-122.62,-36.20L-112.95,-40.78L-105.01,-46.03L-100.24,-51.27L-100.11,-56.58L-107.87,-62.94L-124.94,-71.91L-141.63,-75.42L-156.66,-76.88L-164.81,-75.55L-173.82,-68.66L-176.38,-65.47L-177.84,-61.95L-177.32,-55.25" />
        <path d="M-12.17,-297.36L-0.85,-284.89L19.80,-265.38L39.08,-249.86L54.44,-239.97L58.95,-237.78L72.70,-234.53L76.89,-235.25L81.92,-237.52L85.50,-241.63L86.42,-245.21L86.42,-252.64L82.83,-260.94L79.60,-265.46L72.45,-274.08L63.70,-282.36L37.23,-303.86L26.22,-310.36L21.72,-312.30L14.32,-313.75L3.86,-313.89L-3.04,-312.96L-9.07,-306.72" />
      </g>
      <g id="f6" style="--index:6; opacity:0;" class="frame">
        <path d="M179.84,89.39L183.76,79.25L188.14,62.92L189.32,50.31L188.99,37.78L186.93,27.30L183.36,20.00L179.44,16.28L172.96,14.09L167.40,14.55L160.85,20.98L152.03,33.66L144.22,40.23L132.96,45.14L107.53,52.58L94.57,57.22L85.56,64.05L81.64,69.09L79.14,73.81L75.22,86.14L74.89,96.03L76.50,102.27L80.52,109.11L88.73,119.72L101.59,130.14L113.31,135.05L124.69,137.17L133.75,137.24L143.24,135.58L152.49,131.80L162.96,124.63L170.65,116.41L175.21,108.77L179.19,99.02L183.09,82.50" />
        <path d="M-281.99,155.02L-252.94,187.39L-243.39,196.16L-238.04,198.55L-231.62,200.00L-228.51,199.81L-224.92,198.41L-220.36,194.89L-217.11,190.72L-215.98,187.60L-215.86,177.97L-219.03,166.44L-243.93,120.99L-253.33,109.17L-259.75,103.92L-263.92,102.08L-269.03,100.61L-273.53,100.49L-280.08,103.53L-287.62,110.44L-292.46,119.39L-294.38,127.02L-292.94,136.58L-287.50,147.39L-282.33,152.83" />
        <path d="M-164.87,-72.03L-160.37,-68.39L-149.12,-63.20L-138.05,-60.16L-130.77,-59.69L-116.20,-65.06L-111.70,-68.52L-109.85,-72.09L-109.12,-76.75L-110.37,-82.25L-114.93,-87.16L-119.43,-89.42L-126.21,-91.08L-152.41,-93.00L-158.97,-90.34L-164.27,-86.24L-165.12,-82.39L-163.54,-78.94" />
        <path d="M5.84,-322.32L29.81,-300.35L52.71,-282.44L71.33,-270.22L79.06,-266.52L82.31,-266.32L89.13,-267.44L91.38,-268.24L92.90,-269.96L93.90,-274.80L93.69,-278.19L92.05,-282.63L84.04,-297.10L76.41,-305.92L68.60,-313.10L48.02,-328.82L31.72,-337.32L25.18,-339.16L17.22,-339.63L14.57,-338.77L6.96,-333.99L5.96,-330.88L7.30,-325.36" />
      </g>
      <g id="f7" style="--index:7; opacity:0;" class="frame">
        <path d="M179.46,-1.63L175.21,-6.14L167.79,-10.33L161.04,-11.72L154.16,-11.19L146.07,-6.67L124.17,11.77L113.97,17.02L100.53,22.52L91.05,28.48L85.29,33.27L78.60,40.36L73.24,49.19L71.85,55.23L71.91,60.47L75.89,67.83L83.71,75.33L94.57,80.70L105.95,83.77L111.78,84.36L125.81,84.28L135.42,82.17L143.15,79.19L157.27,72.02L172.29,59.28L177.59,51.05L182.49,39.11L185.68,26.03L185.95,13.42L182.97,1.81L179.46,-1.63" />
        <path d="M181.97,2.22L178.40,-2.44" />
        <path d="M-297.17,126.89L-270.68,145.39L-258.57,152.24L-246.98,156.75L-237.97,158.53L-221.94,158.74L-216.98,157.88L-209.23,155.16L-204.85,151.97L-202.81,148.92L-200.77,143.35L-200.62,139.30L-202.54,134.85L-205.58,130.74L-222.34,114.08L-228.82,106.39L-246.37,80.58L-253.61,71.55L-263.26,63.33L-273.53,57.95L-284.64,57.34L-296.96,62.45L-305.78,70.02L-309.42,75.27L-311.86,80.44L-313.78,86.61L-314.05,97.16L-313.39,100.49L-310.95,105.78L-307.88,109.91L-298.57,117.66" />
        <path d="M-153.81,-85.56L-146.66,-81.25L-132.42,-79.00L-124.87,-81.25L-121.83,-85.56L-122.29,-92.88L-124.48,-95.33L-129.71,-97.45L-147.26,-97.99L-151.76,-95.25L-152.95,-90.88" />
        <path d="M27.68,-338.18L36.23,-328.69L46.48,-319.60L67.62,-304.00L77.14,-300.16L89.13,-298.69L93.23,-301.35L96.55,-306.32L97.34,-309.11L97.40,-316.27L96.15,-321.72L94.03,-325.43L85.96,-334.78L77.35,-340.75L61.32,-349.38L57.28,-351.24L46.90,-353.63L41.79,-353.77L39.14,-351.50L36.04,-345.00L36.04,-341.43" />
      </g>
      <g id="f8" style="--index:8; opacity:0;" class="frame">
        <path d="M68.41,33.92L77.14,39.56L88.06,44.88L99.86,47.73L116.22,47.86L131.11,44.61L154.16,34.33L163.04,26.70L171.63,14.16L175.21,-0.64L175.55,-15.11L174.36,-21.81L171.44,-29.50L169.06,-33.28L164.87,-37.33L153.37,-42.84L144.43,-43.44L139.65,-42.70L129.86,-38.98L108.80,-32.69L82.58,-31.83L77.41,-30.83L66.10,-24.80L62.11,-21.34L57.74,-13.38L56.55,-5.28L56.55,-0.25L58.34,4.86L63.51,12.63L69.47,23.97L74.77,30.22L77.14,31.47" />
        <path d="M-313.45,73.67L-305.32,81.64L-277.76,102.94L-262.28,113.61L-247.98,120.84L-236.45,125.03L-229.55,126.63L-217.38,128.02L-208.17,127.88L-202.75,126.75L-196.33,123.97L-189.70,119.19L-182.49,110.97L-179.63,106.13L-177.84,99.22L-177.51,90.59L-179.17,84.69L-184.59,76.33L-192.01,70.02L-201.08,65.25L-239.10,48.39L-263.07,32.47L-277.49,26.44L-290.08,22.31L-299.09,20.72L-309.15,20.92L-316.30,25.23L-319.87,30.41L-321.81,36.31L-321.93,45.02L-321.08,51.78L-316.64,63.19L-312.66,67.77" />
        <path d="M348.69,97.03" />
        <path d="M-131.36,-93.33" />
        <path d="M47.61,-354.75L55.03,-344.14L61.20,-337.44L67.47,-332.21L79.46,-323.71L84.04,-321.78L90.59,-320.52L94.36,-322.05L95.76,-323.64L96.82,-326.03L97.55,-333.33L96.67,-336.97L94.23,-341.69L89.73,-347.72L81.12,-355.63L70.72,-360.53L60.66,-361.93L56.95,-361.19L55.30,-356.49" />
      </g>
      <g id="f9" style="--index:9; opacity:0;" class="frame">
        <path d="M74.72,-12.16L78.75,-10.45L94.17,-0.50L104.89,2.67L120.00,5.27L131.65,4.59L140.32,2.75L151.91,-2.17L156.41,-5.34L160.25,-9.67L162.31,-14.25L164.08,-22.41L164.42,-32.56L163.50,-38.33L161.18,-43.70L157.33,-48.34L150.91,-52.19L145.89,-53.72L137.07,-53.92L125.88,-50.20L111.64,-47.42L102.57,-46.89L95.88,-45.50L86.63,-42.11L80.52,-38.59L70.85,-29.97L69.33,-26.39L69.20,-20.34L74.72,-12.16" />
        <path d="M74.04,-12.45L76.23,-11.25" />
        <path d="M-322.06,22.58L-319.16,29.55L-313.59,37.38L-295.11,55.16L-282.93,64.72L-261.67,78.45L-253.61,82.36L-226.05,91.66L-214.34,94.31L-208.17,94.31L-197.39,91.92L-190.30,89.06L-176.38,79.58L-169.71,70.36L-167.38,59.02L-167.38,50.52L-168.38,44.48L-170.75,39.11L-174.67,34.39L-184.07,28.42L-193.93,23.44L-217.11,15.48L-229.36,9.84L-245.06,1.61L-278.89,-18.30L-287.89,-21.14L-303.38,-20.67L-309.09,-19.28L-316.09,-14.25L-320.35,-8.00L-322.93,-0.84L-322.85,10.17L-321.93,15.42L-320.20,20.72L-317.37,24.64" />
        <path d="M321.74,93.58L334.12,89.80L338.96,87.08L347.96,79.11L350.36,76.13L353.01,70.75L353.86,62.00L352.47,57.16L347.90,51.38L340.02,49.59L332.33,49.45L325.39,52.05L321.01,55.83L312.74,66.05L309.42,76.86L309.36,81.50L312.07,89.66L314.59,93.25" />
        <path d="M76.29,-352.18" />
      </g>
      <g id="f10" style="--index:10; opacity:0;" class="frame">
        <path d="M89.52,-29.23L95.23,-25.78L110.33,-19.95L121.52,-18.75L132.44,-19.42L139.13,-22.61L142.45,-27.38L145.22,-34.08L146.61,-44.36L146.55,-47.42L144.70,-52.06L141.97,-54.92L140.19,-55.45L134.15,-55.72L116.22,-53.25L99.40,-53.19L96.36,-52.00L89.07,-45.95L88.34,-38.86L89.52,-34.48" />
        <path d="M-324.52,-17.95L-322.39,-9.86L-319.56,-3.42L-314.45,5.33L-307.42,15.16L-296.11,26.77L-281.54,38.17L-274.99,41.69L-267.51,47.06L-251.08,54.89L-233.99,59.14L-220.88,60.27L-207.65,60.14L-199.16,59.34L-188.05,56.69L-173.94,50.72L-156.20,40.83L-153.22,38.44L-145.74,29.88L-142.09,22.52L-139.72,14.81L-138.59,8.66L-138.38,-0.58L-140.36,-9.20L-142.76,-14.91L-147.39,-22.14L-152.35,-27.05L-160.89,-32.09L-169.44,-34.94L-221.09,-43.30L-239.10,-48.81L-265.51,-61.48L-279.68,-64.20L-286.37,-64.27L-293.73,-63.34L-305.51,-59.63L-313.05,-54.39L-317.37,-49.67L-323.52,-38.45L-326.10,-29.77L-325.64,-23.59L-321.33,-15.17" />
        <path d="M307.72,71.95L319.95,63.66L329.04,54.70L336.44,44.48L338.90,37.84L339.90,32.41L340.42,23.52L339.90,12.17L336.98,2.48L333.00,-5.42L328.64,-11.86L320.10,-20.28L309.49,-25.33L304.53,-26.39L296.25,-26.25L292.08,-25.45L284.60,-21.02L273.41,-10.13L267.59,-1.56L265.65,2.08L262.36,12.30L261.03,18.14L260.57,28.81L263.55,38.44L271.89,55.63L280.95,65.44L289.16,71.28L295.92,74.14L303.40,74.41L309.97,71.81" />
        <path d="M9.40,114.81" />
      </g>
      <g id="f11" style="--index:11; opacity:0;" class="frame">
        <path d="M100.38,-36.08L108.60,-34.41L117.75,-34.02L127.48,-37.00L130.92,-39.78L132.71,-42.58L133.84,-52.53L132.71,-56.52L130.98,-57.77L121.98,-59.23L116.54,-58.77L107.80,-51.41L100.72,-47.69L99.74,-45.03L99.53,-40.31L100.13,-39.92" />
        <path d="M-317.37,-42.05L-314.84,-31.63L-307.30,-18.22L-299.88,-7.41L-283.93,9.44L-271.22,18.27L-256.44,26.03L-233.01,34.53L-220.63,36.25L-208.04,36.13L-187.05,31.41L-169.56,22.31L-158.70,13.75L-153.08,7.13L-147.84,-1.30L-144.53,-11.33L-143.40,-18.83L-143.15,-29.23L-146.20,-40.25L-153.35,-50.61L-163.87,-58.50L-167.92,-60.48L-179.51,-64.61L-190.95,-66.59L-199.64,-69.52L-214.86,-76.55L-251.67,-89.55L-262.67,-91.08L-278.10,-91.28L-289.96,-89.88L-298.09,-86.70L-304.05,-82.45L-308.09,-77.81L-315.24,-62.22L-316.82,-52.59L-316.97,-44.97L-316.18,-40.58L-313.26,-32.09L-311.20,-28.77" />
        <path d="M252.54,18.53L257.52,24.77L268.78,33.00L274.20,35.66L278.06,37.11L285.00,38.05L299.23,38.23L309.57,35.19L316.18,30.02L323.54,21.33L326.58,16.14L330.16,4.94L330.62,-7.81L329.56,-14.97L326.52,-22.67L320.89,-29.91L317.85,-32.48L311.22,-36.20L298.38,-40.39L286.46,-41.78L282.56,-41.25L278.64,-39.66L263.88,-32.09L258.05,-26.92L254.79,-21.67L249.71,-9.06L248.64,-3.56L248.25,6.13L249.10,9.64L254.15,18.41" />
        <path d="M-7.67,103.53L4.25,106.66L16.03,107.45L27.49,105.52L31.72,103.33L38.29,97.16L41.73,90.13L42.52,82.50L41.92,79.70L40.21,77.13L28.28,68.50L20.26,65.11L8.48,64.78L0.21,66.64L-9.73,72.02L-15.22,79.44L-16.88,85.81L-16.88,89.74L-14.24,95.77L-11.59,98.63" />
      </g>
      <g id="f12" style="--index:12; opacity:0;" class="frame">
        <path d="M114.62,-48.48" />
        <path d="M-302.25,-66.97L-299.82,-57.91L-293.73,-47.09L-285.98,-36.47L-278.22,-27.98L-258.17,-14.25L-241.62,-6.41L-226.57,-1.77L-207.04,-1.03L-194.93,-2.30L-185.72,-4.75L-174.80,-9.06L-166.40,-13.52L-157.91,-21.41L-148.91,-32.16L-147.32,-37.20L-147.05,-47.22L-148.91,-53.78L-152.62,-62.41L-159.89,-71.11L-168.25,-77.94L-179.36,-82.99L-187.72,-85.83L-206.85,-90.75L-217.11,-92.27L-223.74,-95.33L-231.95,-97.05L-254.65,-104.08L-269.55,-105.55L-279.68,-105.41L-287.04,-103.49L-292.40,-100.50L-301.55,-91.67L-305.44,-82.66L-305.17,-75.88L-302.25,-66.97" />
        <path d="M-302.59,-69.45L-302.25,-66.97L-299.02,-60.89" />
        <path d="M247.12,-7.28L251.56,-3.23L258.32,0.22L272.01,3.02L277.24,3.20L286.91,1.22L299.23,-3.77L303.80,-6.61L307.51,-10.06L311.82,-17.42L314.53,-27.25L315.53,-41.78L312.55,-52.19L305.53,-63.28L296.06,-72.44L286.85,-76.49L278.51,-77.47L264.34,-74.56L251.17,-68.66L244.87,-63.61L239.04,-57.38L234.93,-49.67L234.41,-34.75L236.47,-25.86L243.35,-11.98L247.33,-7.47" />
        <path d="M-11.82,52.75L-8.86,56.09L1.67,62.59L17.88,66.38L29.54,66.31L36.16,64.45L48.42,58.81L53.71,53.83L56.55,47.66L56.82,38.11L53.51,32.00L47.88,26.63L35.62,17.67L31.39,15.75L19.61,12.23L5.96,9.78L-9.53,9.38L-13.44,10.31L-21.64,15.61L-24.43,19.06L-26.81,27.95L-26.81,34.80L-22.24,43.28L-15.95,49.78L-11.82,52.75" />
        <path d="M-13.90,50.39L-10.86,53.44" />
      </g>
      <g id="f13" style="--index:13; opacity:0;" class="frame">
        <path d="M331.29,166.24" />
        <path d="M-288.57,-85.63L-284.52,-79.41L-276.85,-71.44L-265.99,-62.55L-256.38,-56.38L-235.05,-47.09L-214.19,-43.38L-202.08,-42.84L-188.11,-44.03L-182.67,-45.30L-175.40,-48.61L-172.29,-51.41L-169.17,-57.56L-167.19,-64.14L-165.33,-75.95L-165.46,-81.92L-167.52,-87.16L-171.02,-90.75L-178.38,-96.19L-186.99,-100.03L-199.50,-103.95L-209.83,-108.20L-238.24,-121.06L-257.50,-127.83L-264.59,-128.70L-273.53,-128.70L-282.60,-126.70L-288.02,-124.19L-292.52,-119.81L-294.98,-111.64L-295.31,-100.24L-292.00,-89.88L-288.57,-85.63" />
        <path d="M-291.81,-92.34L-288.57,-85.63L-286.98,-84.17" />
        <path d="M234.41,-46.48L240.49,-42.38L243.35,-41.45L254.54,-39.59L265.34,-39.39L273.62,-42.64L281.89,-47.09L288.19,-53.86L290.75,-58.03L294.61,-65.41L295.73,-69.64L296.38,-88.56L294.33,-97.78L290.10,-107.47L285.93,-114.36L277.64,-123.66L271.49,-127.70L231.89,-148.80L226.93,-149.53L219.05,-148.20L214.67,-146.35L212.50,-144.56L208.46,-140.17L202.62,-131.36L198.27,-119.88L197.39,-103.95L200.70,-85.03L204.35,-74.03L213.54,-62.55L218.53,-54.45L225.93,-48.94L234.87,-45.23" />
        <path d="M-28.87,14.95L-22.91,19.92L-18.20,22.72L-6.02,28.55L7.02,33.00L20.93,35.45L37.87,34.53L45.17,32.53L51.65,29.22L59.28,23.05L61.20,20.45L63.84,11.91L63.97,-0.25L63.11,-3.03L56.76,-12.19L44.31,-21.81L30.66,-27.38L20.59,-30.44L7.23,-31.95L1.33,-31.03L-14.57,-25.72L-19.59,-22.94L-27.08,-16.44L-31.06,-11.06L-32.89,-6.02L-33.37,0.02L-32.18,4.47" />
      </g>
      <g id="f14" style="--index:14; opacity:0;" class="frame">
        <path d="M333.60,151.11L331.29,146.27L328.56,145.20L324.79,145.33L321.41,148.05L318.30,155.75L313.53,174.80L316.78,178.24L318.58,178.64L322.20,175.92L328.31,168.49L331.75,160.99L332.33,155.28" />
        <path d="M-286.25,-112.31L-280.95,-103.55L-272.87,-94.86L-267.30,-90.34L-249.81,-80.27L-229.82,-73.77L-219.57,-71.64L-205.85,-70.64L-193.53,-71.64L-186.38,-74.09L-180.76,-77.34L-175.86,-85.91L-175.34,-94.33L-176.13,-98.25L-179.76,-105.88L-182.95,-109.25L-193.74,-114.89L-231.95,-129.89L-244.60,-133.20L-257.11,-138.45L-263.40,-139.99L-269.61,-140.05L-274.12,-138.52L-281.41,-132.55L-284.73,-127.56L-287.04,-120.20L-287.62,-116.16L-287.10,-110.19" />
        <path d="M189.12,-115.36L192.16,-110.84L199.79,-104.55L217.00,-93.59L222.94,-90.75L235.35,-87.30L254.27,-84.84L258.90,-84.91L267.65,-87.36L276.85,-92.00L287.58,-98.84L290.23,-101.89L294.40,-109.06L296.06,-116.63L295.52,-128.30L287.46,-145.63L279.76,-156.50L267.78,-168.97L262.03,-173.10L254.67,-175.88L241.04,-178.86L225.47,-179.78L216.67,-176.47L207.73,-171.56L193.35,-155.50L187.13,-146.28L183.15,-136.33L182.09,-127.97L186.74,-114.77L189.05,-111.19" />
        <path d="M-32.04,-20.14L-27.01,-17.09L3.65,-9.73L19.13,-9.59L31.06,-11.59L38.81,-14.17L47.02,-18.83L50.92,-22.08L53.23,-24.45L56.22,-30.44L57.03,-38.72L56.30,-46.09L52.26,-53.45L46.23,-59.23L40.54,-62.75L25.83,-66.86L6.90,-68.25L-11.84,-67.25L-25.62,-63.20L-35.08,-57.30L-39.79,-52.59L-43.29,-42.91L-43.69,-32.48L-41.10,-28.17L-35.08,-22.08" />
      </g>
      <g id="f15" style="--index:15; opacity:0;" class="frame">
        <path d="M325.06,145.06L324.85,139.16L320.83,134.78L315.32,134.39L310.76,136.24L308.78,137.97L304.59,147.25L300.17,166.50L297.11,175.39L298.17,179.30L301.69,181.77L305.71,182.55L308.45,181.56L315.45,175.60L318.30,171.94L320.95,167.36L324.27,158.74L324.85,154.75L324.39,145.92" />
        <path d="M-272.20,-126.70L-268.82,-121.80L-264.92,-118.28L-247.77,-108.33L-233.93,-103.36L-228.30,-102.09L-219.76,-100.63L-208.83,-100.03L-204.27,-100.03L-200.29,-101.03L-190.43,-107.06L-187.97,-111.38L-187.05,-115.69L-187.39,-120.34L-189.37,-124.58L-191.28,-126.91L-194.81,-129.30L-217.44,-139.25L-250.15,-150.39L-256.44,-151.72L-262.92,-150.92L-269.82,-148.35L-274.05,-140.05L-274.72,-134.88L-274.05,-129.95" />
        <path d="M193.68,-143.50L196.81,-139.38L202.04,-135.27L218.32,-126.97L233.22,-123.52L241.62,-123.19L251.42,-123.99L258.59,-127.91L263.40,-132.41L269.57,-139.64L274.01,-147.94L275.53,-152.45L275.99,-162.67L273.68,-173.28L268.51,-182.97L264.80,-187.42L259.23,-193.13L251.23,-198.17L236.60,-204.21L226.07,-206.74L213.48,-206.74L205.81,-204.88L202.04,-203.08L187.20,-191.67L182.03,-184.44L178.59,-176.00L178.53,-171.50L183.61,-155.56L187.07,-150.33L193.10,-145.28" />
        <path d="M-38.60,-60.48L-32.77,-56.25L-21.32,-52.98L-7.40,-50.14L16.97,-48.48L27.74,-49.61L36.23,-52.80L42.52,-57.44L47.48,-63.34L49.34,-70.05L48.88,-80.33L46.69,-84.78L43.10,-89.16L30.27,-96.92L13.51,-102.69L-2.31,-104.41L-6.42,-104.34L-10.86,-103.22L-22.24,-97.45L-36.75,-85.97L-39.46,-81.45L-40.85,-74.30L-40.52,-70.78L-36.35,-64.47" />
      </g>
    </g>
  </g>
</svg>