<?xml version="1.0" encoding="utf-8"?>
<svg width="1366" height="1024" viewBox="-683 -512 1366 1024" xmlns="http://www.w3.org/2000/svg">
  <style>
svg { background-color:#4B88FF; }

#looom { --version:2; }

#t0 {
--visible:1; --timeOffset:10.99999; --speed:12; --bookmarkIndex:-1; --latched:0; --playMode:0; --masked:0; --blendMode:0; 
fill:#393CFF; stroke-opacity:0; fill-opacity:1; stroke-width:27.4282; stroke-linecap:round; stroke-linejoin:round;
}
@keyframes t0 { 0% { opacity: 1; } 8.333333% { opacity: 0; } }
#t0 .frame { animation:t0 1s calc(var(--index) * 0.08333334s) steps(1) infinite; }

#t1 {
--visible:1; --timeOffset:10.99999; --speed:12; --bookmarkIndex:-1; --latched:0; --playMode:0; --masked:0; --blendMode:0; 
fill:#F3DE77; stroke-opacity:0; fill-opacity:1; stroke-width:27.4282; stroke-linecap:round; stroke-linejoin:round;
}
@keyframes t1 { 0% { opacity: 1; } 8.333333% { opacity: 0; } }
#t1 .frame { animation:t1 1s calc(var(--index) * 0.08333334s) steps(1) infinite; }

#t2 {
--visible:1; --timeOffset:1; --speed:12; --bookmarkIndex:-1; --latched:0; --playMode:0; --masked:0; --blendMode:0; 
stroke:#F3DE77; stroke-opacity:1; fill-opacity:0; stroke-width:27.4282; stroke-linecap:round; stroke-linejoin:round;
}
@keyframes t2 { 0% { opacity: 1; } 8.333333% { opacity: 0; } }
#t2 .frame { animation:t2 1s calc(var(--index) * 0.08333334s) steps(1) infinite; }

</style>
  <g id="w0" transform="translate(-427.75 114.00) scale(0.19 0.19) rotate(-3.44)" class="weave">
    <g id="t0" transform="translate(-1946.55 492.29) scale(0.92 0.92) rotate(-359.23)" class="thread">
      <g id="f0" transform="translate(5136.50 -518.46)" style="--index:0; opacity:1;" class="frame">
        <path d="M-489.98,817.27L-455.16,838.21L-445.85,841.91L-436.32,843.31L-405.00,844.94L-393.18,844.66L-381.97,842.69L-370.95,838.46L-333.46,819.72L-322.49,810.77L-312.97,798.81L-295.37,771.98L-289.00,759.27L-284.88,747.41L-282.69,736.05L-281.40,711.30L-282.56,696.91L-291.08,664.60L-296.60,649.69L-308.00,624.58L-314.70,613.05L-331.54,588.63L-340.82,576.68L-350.38,566.28L-368.08,550.74L-377.23,543.89L-386.84,538.29L-397.00,533.63L-407.63,530.23L-418.02,528.12L-446.83,526.24L-477.21,529.46L-486.23,531.84L-495.01,535.21L-515.91,546.57L-527.16,555.21L-532.60,561.60L-542.88,576.66L-550.30,590.30L-556.19,605.59L-561.57,624.43L-565.09,642.09L-568.00,697.96L-566.84,706.34L-561.78,726.33L-558.48,736.02L-553.87,745.48L-544.07,757.17L-533.05,772.06L-523.93,779.59L-512.80,792.54L-496.22,808.40L-493.13,810.43L-488.39,811.66" />
        <path d="M1494.20,-1038.74L1474.64,-1066.53L1446.84,-1099.47L1406.26,-1150.02L1231.99,-1355.56L1136.80,-1462.05L1035.05,-1571.20L931.65,-1677.51L892.59,-1715.16L727.11,-1870.30L656.36,-1938.92L636.97,-1956.50L613.20,-1976.48L588.12,-1996.31L564.59,-2013.13L560.13,-2019.74L559.01,-2023.25L559.26,-2028.03" />
        <path d="M1253.30,-848.14L1235.82,-873.57L1144.87,-982.76L1130.25,-999.72L1055.97,-1081.27L984.55,-1162.07L963.26,-1187.40L935.28,-1222.60L819.17,-1361.44L791.29,-1392.81L686.19,-1516.39L620.51,-1597.87L546.72,-1683.22L499.83,-1739.42L473.67,-1774.91L450.75,-1803.47L444.26,-1813.33L438.67,-1823.22L433.58,-1834.96L422.91,-1868.28L419.36,-1890.44L417.26,-1924.97L418.03,-1945.62L421.35,-1953.70L430.59,-1965.96L441.58,-1982.94L457.57,-2001.83L462.82,-2006.66L475.02,-2014.27L480.79,-2015.54L505.91,-2015.89L514.33,-2018.00L520.36,-2018.58L548.88,-2016.80L555.51,-2015.48L582.38,-2007.11L598.56,-2000.87" />
        <path d="M1239.13,-858.40L1259.42,-844.59L1273.38,-832.09L1281.21,-828.84L1288.43,-827.19L1310.79,-824.45L1349.50,-822.43L1364.16,-823.55L1374.79,-825.92L1389.13,-832.45L1403.16,-840.64L1421.30,-852.74L1430.26,-859.62L1440.86,-869.27L1450.37,-880.85L1459.26,-897.93L1466.36,-913.16L1482.14,-953.06L1486.22,-970.09L1491.55,-1007.01L1493.14,-1029.87L1491.62,-1037.30L1477.07,-1082.60L1473.66,-1090.13L1463.88,-1103.98" />
        <path d="M669.64,-1612.54L699.25,-1571.61L719.79,-1541.03L737.99,-1516.65L750.48,-1500.40L786.45,-1457.74L797.15,-1443.91L825.35,-1406.17L849.20,-1372.31L917.42,-1291.63L958.59,-1245.24L981.80,-1215.70L1036.71,-1149.25L1056.00,-1122.58L1070.39,-1098.28L1093.49,-1066.42L1113.69,-1043.82L1144.19,-1006.70L1172.28,-974.24L1207.15,-925.91L1239.47,-879.12L1255.19,-865.50L1263.31,-860.56L1266.25,-859.61L1288.54,-856.34L1305.91,-855.17L1328.56,-862.08L1365.63,-876.28L1378.51,-883.64L1404.86,-895.75L1413.10,-901.09L1425.50,-916.08L1438.98,-936.30L1444.02,-947.16L1451.64,-972.22L1457.90,-998.96L1459.85,-1017.84L1459.67,-1021.60L1453.96,-1045.05L1449.86,-1054.37L1438.54,-1072.79L1421.83,-1103.55L1400.12,-1134.63L1384.25,-1160.42L1377.32,-1167.99L1354.78,-1188.82L1327.52,-1221.23L1273.28,-1276.56L1229.47,-1330.33L1172.20,-1394.92L1101.72,-1485.99L1061.08,-1533.44L1032.43,-1569.40L1004.65,-1600.68L983.85,-1625.63L945.33,-1662.33L926.18,-1681.83L895.58,-1709.12L874.55,-1729.07L824.68,-1773.28L800.08,-1798.67L787.04,-1813.33L773.05,-1830.72L757.23,-1847.47L705.07,-1893.58L662.42,-1928.58L630.13,-1952.91L609.31,-1969.90L598.94,-1975.30L588.82,-1978.46L563.09,-1979.66" />
      </g>
      <g id="f1" transform="translate(5136.50 -518.46)" style="--index:1; opacity:0;" class="frame">
        <path d="M-288.56,733.49L-283.84,642.71L-282.98,564.76L-283.45,512.17L-288.02,417.38L-291.02,382.80L-303.80,280.53L-315.57,158.66L-329.25,37.22L-331.44,11.99L-334.00,-42.59L-349.57,-281.63L-358.02,-436.47L-361.31,-482.83L-374.64,-622.70L-384.94,-743.89L-387.23,-784.51L-389.56,-862.61L-390.78,-935.27L-390.84,-1001.48L-392.06,-1033.72L-394.70,-1067.60L-402.60,-1136.85L-415.68,-1233.36L-439.49,-1368.00L-446.88,-1402.80L-455.30,-1436.99L-473.70,-1504.46L-506.14,-1613.45L-515.54,-1640.41L-525.38,-1664.77L-536.34,-1686.71L-548.68,-1707.08L-576.56,-1744.22L-591.30,-1760.88L-607.95,-1777.35L-624.06,-1790.64L-637.93,-1799.01L-648.82,-1803.02L-658.65,-1804.51L-674.23,-1803.07L-691.22,-1793.83L-699.53,-1787.89L-707.86,-1779.70L-715.98,-1769.62L-723.61,-1757.57L-730.41,-1744.28L-736.30,-1728.99L-740.59,-1711.96L-747.53,-1670.93L-752.45,-1626.27L-753.82,-1599.95L-752.35,-1572.50L-749.35,-1543.70L-741.78,-1489.16L-736.82,-1461.46L-717.62,-1372.95L-712.42,-1344.04L-702.27,-1269.94L-693.60,-1217.53L-676.13,-1138.03L-666.22,-1084.28L-649.27,-975.49L-634.22,-849.55L-625.61,-795.94L-607.23,-691.50L-594.57,-598.45L-591.86,-552.50L-589.73,-453.03L-584.50,-346.05L-581.27,-248.47L-576.04,-166.39L-571.81,-82.41L-566.78,101.65L-561.71,248.36L-558.27,303.28L-557.60,430.72L-560.18,505.42L-556.99,559.35L-555.56,570.30L-547.23,617.83L-543.67,628.21L-541.69,669.11L-542.54,697.03L-541.08,707.31L-535.27,728.31L-528.33,748.76L-523.77,759.20L-518.18,767.14L-502.75,781.96L-473.51,806.36L-463.98,811.65L-453.94,814.72L-443.52,816.24L-393.14,818.86L-379.04,817.05L-338.82,807.37L-326.13,801.95L-314.36,794.92L-287.77,772.08L-276.52,757.74L-267.69,741.93L-265.12,734.71L-263.48,714.78" />
        <path d="M419.35,-1824.82L437.05,-1803.51L445.78,-1794.50L451.58,-1790.68L469.04,-1784.07L476.54,-1780.15L491.78,-1774.94L509.13,-1772.08L529.72,-1771.69L551.53,-1775.58L570.98,-1782.21L588.80,-1794.04L598.44,-1802.46L607.20,-1813.17L617.59,-1828.23L631.05,-1850.48L638.97,-1873.91L640.76,-1883.34L643.54,-1925.26L643.02,-1938.34L636.67,-1964.16L628.51,-1990.08L624.88,-1999.12L614.77,-2018.17L602.33,-2030.89L595.24,-2035.08L585.35,-2039.12L574.97,-2041.54L557.31,-2044.41L541.45,-2045.23L511.54,-2037.56L496.93,-2031.58L483.48,-2025.00L475.64,-2020.31L464.02,-2010.42L459.99,-2006.13L451.02,-1993.25L441.63,-1978.14L432.21,-1960.48L415.73,-1918.67L413.34,-1909.20L405.59,-1864.08L405.21,-1839.58L408.33,-1826.37L413.17,-1815.62L420.12,-1808.89" />
      </g>
      <g id="f2" transform="translate(5136.50 -518.46)" style="--index:2; opacity:0;" class="frame">
        <path d="M-755.10,-1604.14L-744.36,-1574.26L-738.55,-1562.86L-728.90,-1552.16L-721.90,-1546.39L-705.93,-1535.96L-696.99,-1531.07L-687.28,-1527.35L-676.98,-1525.23L-642.73,-1524.13L-632.17,-1525.15L-622.17,-1527.18L-612.76,-1531.12L-603.23,-1537.37L-594.24,-1544.85L-569.44,-1569.65L-556.13,-1587.11L-550.49,-1597.31L-541.64,-1621.37L-536.61,-1645.03L-535.33,-1658.01L-533.45,-1699.91L-535.09,-1722.27L-536.72,-1729.40L-543.49,-1745.35L-548.98,-1755.16L-555.50,-1764.42L-574.13,-1785.19L-586.24,-1796.62L-598.79,-1805.22L-605.65,-1808.12L-639.76,-1811.85L-657.54,-1812.40L-680.91,-1803.42L-690.77,-1796.66L-699.88,-1786.93L-705.01,-1780.53L-719.76,-1758.65L-731.34,-1737.95L-740.19,-1713.89L-751.75,-1687.72L-758.53,-1667.08L-764.14,-1645.70L-768.61,-1613.76L-770.26,-1587.75L-769.11,-1573.37L-765.35,-1555.33L-759.95,-1535.93" />
        <path d="M415.25,-1819.04L429.20,-1798.89L436.77,-1792.42L447.61,-1787.36L463.14,-1785.95L489.94,-1782.01L507.00,-1781.12L520.75,-1781.98L537.73,-1785.22L558.81,-1792.45L575.60,-1803.65L598.45,-1821.88L606.18,-1830.10L613.38,-1839.55L619.28,-1849.14L626.04,-1863.78L629.31,-1876.66L630.27,-1895.06L629.35,-1902.46L622.83,-1923.19L615.22,-1942.33L610.53,-1950.23L605.43,-1955.89L600.88,-1958.98L592.77,-1962.62L577.62,-1965.66L565.40,-1967.20L546.95,-1968.16L518.91,-1965.79L496.07,-1961.28L489.67,-1959.37L482.19,-1955.93L471.85,-1947.55L447.45,-1924.67L436.18,-1909.96L429.68,-1900.40L424.33,-1889.88L415.90,-1868.05L410.63,-1851.37L406.31,-1824.23L406.03,-1818.84L407.88,-1817.77" />
      </g>
      <g id="f3" transform="translate(5136.50 -518.46)" style="--index:3; opacity:0;" class="frame">
        <path d="M-702.44,-1530.08L-674.56,-1527.66L-660.57,-1529.18L-639.28,-1534.75L-624.10,-1540.03L-609.15,-1546.53L-603.88,-1549.78L-589.91,-1560.82L-573.21,-1575.93L-568.53,-1581.38L-561.68,-1589.95L-555.80,-1599.17L-551.59,-1606.97L-544.04,-1625.32L-539.98,-1641.68L-538.06,-1653.66L-536.34,-1680.94L-536.65,-1686.43L-542.60,-1695.29L-548.05,-1700.07L-567.04,-1713.81L-584.12,-1721.97L-591.90,-1724.32L-639.47,-1727.10L-648.45,-1725.62L-679.97,-1712.03L-687.22,-1707.31L-695.81,-1699.81L-706.70,-1686.65L-716.07,-1671.84L-727.15,-1647.30L-731.94,-1634.13L-735.17,-1621.92L-737.23,-1607.33L-738.50,-1582.88L-733.81,-1569.28L-724.74,-1553.22L-721.45,-1549.22L-717.21,-1546.15L-690.09,-1534.84L-681.42,-1530.27L-680.76,-1531.51" />
        <path d="M411.73,-1818.79L426.16,-1801.90L433.36,-1799.95L455.19,-1798.44L471.52,-1795.04L491.17,-1794.02L518.90,-1800.22L534.69,-1805.77L540.98,-1809.27L557.50,-1823.03L561.29,-1828.61L564.35,-1837.38L565.54,-1843.01L565.90,-1861.52L557.60,-1873.05L552.48,-1878.41L541.85,-1887.59L536.88,-1890.02L507.71,-1898.59L494.73,-1898.96L486.72,-1896.83L463.37,-1888.45L453.91,-1883.54L441.55,-1872.71L431.36,-1865.29L426.60,-1860.44L421.52,-1853.06L413.16,-1832.79L411.73,-1818.79" />
        <path d="M409.94,-1820.89L412.62,-1816.63" />
      </g>
      <g id="f4" transform="translate(5136.50 -518.46)" style="--index:4; opacity:0;" class="frame">
        <path d="M-575.37,-1642.46L-595.52,-1649.00L-605.83,-1646.99L-621.87,-1642.42L-639.86,-1638.93L-658.16,-1629.39L-669.40,-1621.05L-677.97,-1610.02L-684.62,-1597.62L-688.99,-1586.67L-691.75,-1576.02L-693.94,-1564.66L-695.66,-1545.03L-695.11,-1542.15L-690.87,-1533.31L-687.16,-1529.59L-683.85,-1527.84L-668.20,-1522.90L-661.85,-1521.90L-641.58,-1521.22L-629.05,-1523.72L-622.93,-1525.95L-610.80,-1532.29L-602.56,-1538.61L-580.10,-1572.46L-574.60,-1585.82L-569.99,-1609.13L-568.97,-1628.57L-570.73,-1637.21L-575.37,-1642.46" />
        <path d="M-572.11,-1641.41L-577.38,-1643.93" />
        <path d="M427.84,-1803.39L456.15,-1797.79L467.23,-1797.21L477.48,-1798.25L491.23,-1801.06L497.78,-1803.87L511.88,-1813.34L521.64,-1824.00L528.27,-1834.15L528.63,-1841.11L521.68,-1847.84L517.02,-1850.64L510.10,-1852.27L499.03,-1852.85L472.56,-1851.67L453.94,-1841.85L437.06,-1828.70L423.36,-1815.39L417.57,-1808.04L417.19,-1806.49" />
      </g>
      <g id="f5" transform="translate(5136.50 -518.46)" style="--index:5; opacity:0;" class="frame">
        <path d="M-626.06,-1547.44L-623.22,-1549.21L-626.35,-1556.34L-632.02,-1558.89L-638.90,-1559.25L-645.62,-1553.22L-650.17,-1544.54L-651.87,-1536.98L-652.18,-1530.99L-649.14,-1527.91L-642.58,-1526.97L-634.75,-1529.41L-628.57,-1538.69L-626.06,-1547.44" />
        <path d="M-644.93,-1535.71L-626.06,-1547.44L-625.13,-1556.66L-629.49,-1563.26" />
      </g>
      <g id="f6" transform="translate(5136.50 -518.46)" style="--index:6; opacity:0;" class="frame">
        <path d="M565.40,-617.73L528.82,-624.06L486.80,-585.53L463.70,-539.56L454.94,-475.08L466.08,-425.76L483.82,-393.64L515.82,-368.43L566.78,-376.95L606.01,-433.17L621.52,-500.45L613.44,-583.66L561.32,-643.06" />
        <path d="M-3347.65,-2097.63L-3371.81,-2090.94L-3382.88,-2085.75L-3400.59,-2074.22L-3408.68,-2066.69L-3434.20,-2039.67L-3448.92,-2020.12L-3455.20,-2008.97L-3460.19,-1997.76L-3467.79,-1974.61L-3470.90,-1962.92L-3474.81,-1937.71L-3475.54,-1923.72L-3474.39,-1909.34L-3471.36,-1894.48L-3463.79,-1868.97L-3459.03,-1856.65L-3448.69,-1834.14L-3442.84,-1825.51L-3434.14,-1815.83L-3417.86,-1803.81L-3406.07,-1797.80L-3393.60,-1793.33L-3381.46,-1790.15L-3356.83,-1786.69L-3333.69,-1785.49L-3323.36,-1787.80L-3303.63,-1794.12L-3285.08,-1802.68L-3276.28,-1808.29L-3267.63,-1815.12L-3252.10,-1832.83L-3245.47,-1842.98L-3236.10,-1865.37L-3226.15,-1897.02L-3221.14,-1920.38L-3218.25,-1945.05L-3216.43,-1979.98L-3218.70,-1992.17L-3225.72,-2014.88L-3235.44,-2035.70L-3246.10,-2051.86L-3252.39,-2059.83L-3258.11,-2065.23L-3264.58,-2069.69L-3273.54,-2074.36L-3292.22,-2080.73L-3307.76,-2087.61L-3319.07,-2091.35L-3336.01,-2094.48L-3349.68,-2095.19L-3353.44,-2090.29" />
      </g>
      <g id="f7" transform="translate(5136.50 -518.46)" style="--index:7; opacity:0;" class="frame">
        <path d="M566.39,-631.02L539.17,-640.39L532.14,-645.56L487.85,-673.06L405.82,-726.67L355.26,-756.67L289.06,-797.38L183.79,-858.27L128.53,-888.22L-34.39,-982.93L-91.76,-1014.64L-123.69,-1031.52L-242.26,-1090.56L-293.14,-1114.28L-400.60,-1161.86L-467.65,-1194.00L-506.53,-1210.04L-543.07,-1220.87L-622.59,-1238.35L-655.71,-1243.90L-702.27,-1247.00L-713.74,-1245.65L-722.18,-1242.94L-727.34,-1239.98L-733.77,-1233.64L-742.69,-1219.78L-744.19,-1216.04L-743.79,-1206.49L-736.00,-1190.79L-725.07,-1173.95L-717.35,-1164.70L-688.31,-1136.42L-668.81,-1119.13L-655.72,-1109.22L-624.12,-1087.86L-522.61,-1022.06L-315.64,-895.36L-212.70,-833.99L-167.45,-805.84L-3.86,-700.82L28.14,-681.31L87.96,-646.70L164.34,-599.76L337.32,-485.02L377.92,-453.96L395.18,-443.47L418.45,-427.33L442.51,-412.96L472.49,-397.08L486.51,-391.62L502.57,-388.84L533.70,-387.22L539.15,-388.21L555.00,-394.73L559.98,-398.30L564.64,-403.16L568.14,-408.97L575.64,-424.18L580.82,-439.21L583.06,-457.24L584.73,-489.32L584.63,-498.92L582.41,-517.79L577.07,-538.16L573.47,-547.87L559.93,-574.07L524.43,-624.29L503.74,-649.58L490.47,-661.75L477.83,-670.65L471.22,-676.40" />
        <path d="M-3391.32,-1789.09L-3365.16,-1784.20L-3355.39,-1783.69L-3324.86,-1789.75L-3309.54,-1797.88L-3288.32,-1807.65L-3265.33,-1822.65L-3241.98,-1844.68L-3236.53,-1851.44L-3231.92,-1859.15L-3227.97,-1867.87L-3220.26,-1889.07L-3217.72,-1901.38L-3213.41,-1934.30L-3212.14,-1964.45L-3219.10,-1984.54L-3222.81,-1992.08L-3232.19,-2007.87L-3237.23,-2014.80L-3242.30,-2021.14L-3255.67,-2033.31L-3273.04,-2047.56L-3279.84,-2051.44L-3299.66,-2060.72L-3314.26,-2066.58L-3326.90,-2067.83L-3342.79,-2068.06L-3351.12,-2067.52L-3358.85,-2065.07L-3374.44,-2057.64L-3413.10,-2049.07L-3429.37,-2040.10L-3437.65,-2034.75L-3445.28,-2028.48L-3451.98,-2020.88L-3457.81,-2012.56L-3463.06,-2003.98L-3468.51,-1991.52L-3470.87,-1982.72L-3474.84,-1960.28L-3482.33,-1933.60L-3483.97,-1925.13L-3484.96,-1906.06L-3482.72,-1895.45L-3478.26,-1883.07L-3461.40,-1847.55L-3450.95,-1832.98L-3439.88,-1820.93L-3420.70,-1804.94L-3408.43,-1796.65L-3398.20,-1791.39L-3383.42,-1781.33L-3379.99,-1779.87L-3373.43,-1779.23" />
      </g>
      <g id="f8" transform="translate(5136.50 -518.46)" style="--index:8; opacity:0;" class="frame">
        <path d="M-709.73,-1134.31L-671.30,-1107.79L-649.76,-1094.89L-606.57,-1075.17L-598.51,-1072.50L-588.39,-1071.00L-573.52,-1070.23L-555.62,-1072.15L-538.57,-1076.73L-530.71,-1079.77L-523.91,-1083.62L-517.98,-1088.03L-512.24,-1094.41L-502.12,-1110.16L-498.17,-1118.87L-492.90,-1135.47L-491.14,-1144.30L-489.80,-1152.86L-488.24,-1176.92L-488.43,-1184.88L-489.88,-1193.58L-494.94,-1211.69L-498.66,-1220.81L-502.63,-1229.26L-512.84,-1246.36L-517.84,-1253.97L-527.72,-1265.96L-553.17,-1284.46L-598.15,-1304.27L-620.17,-1309.91L-643.53,-1312.71L-675.85,-1314.39L-684.23,-1312.95L-696.82,-1307.53L-713.72,-1301.74L-719.29,-1298.50L-736.74,-1286.06L-740.42,-1282.73L-744.19,-1277.53L-749.52,-1267.30L-754.84,-1249.73L-758.55,-1214.91L-759.41,-1198.38L-758.23,-1190.37L-753.27,-1176.09L-738.33,-1151.77L-734.46,-1147.37L-725.26,-1139.61L-708.21,-1119.30L-703.06,-1114.54L-658.02,-1082.27" />
        <path d="M-3473.62,-1851.03L-3451.31,-1833.90L-3440.34,-1823.51L-3404.72,-1787.23L-3375.06,-1759.29L-3358.45,-1742.16L-3319.74,-1699.73L-3295.23,-1674.90L-3265.01,-1646.26L-3188.80,-1576.68L-2790.78,-1221.00L-2619.68,-1064.30L-2517.56,-967.95L-2347.92,-802.40L-2252.48,-712.10L-2194.22,-659.12L-2136.99,-605.53L-2010.78,-491.58L-1884.68,-379.36L-1611.47,-139.36L-1404.35,44.04L-1274.24,158.12L-1089.92,316.41L-1028.88,369.90L-972.50,422.48L-759.66,626.87L-624.26,754.57L-505.01,873.48L-471.12,906.51L-440.20,935.19L-387.35,982.49L-364.79,1000.83L-321.70,1033.97L-197.75,1137.53L-178.25,1152.94L-159.25,1166.60L-136.99,1178.93L-113.65,1188.09L-96.88,1190.54L-76.28,1190.72L-68.21,1187.61L-62.15,1182.53L-57.98,1175.40L-55.90,1166.28L-55.29,1154.54L-55.63,1141.77L-58.41,1127.91L-63.27,1111.76L-71.66,1090.32L-94.86,1040.37L-109.64,1012.83L-146.50,952.35L-170.26,914.82L-195.99,876.89L-224.82,838.72L-293.23,755.90L-330.09,712.59L-412.32,620.42L-593.00,428.58L-642.44,377.26L-691.41,328.22L-832.14,193.50L-981.85,46.60L-1061.18,-28.24L-1199.81,-161.20L-1500.54,-445.01L-1676.73,-607.67L-1731.17,-655.35L-1971.91,-871.39L-2018.13,-911.67L-2063.58,-953.25L-2200.04,-1074.03L-2514.85,-1337.20L-2681.91,-1479.29L-2745.47,-1534.19L-2853.58,-1630.85L-2883.73,-1656.94L-2925.59,-1694.51L-2963.84,-1730.25L-3064.02,-1819.82L-3130.71,-1876.16L-3150.96,-1894.38L-3203.68,-1944.29L-3251.53,-1984.05L-3269.25,-1997.35L-3305.26,-2020.29L-3319.78,-2027.72L-3330.66,-2032.11L-3346.62,-2036.77L-3374.81,-2039.13L-3401.14,-2040.50L-3414.57,-2038.05L-3423.43,-2033.11L-3431.73,-2025.60L-3444.10,-2008.99L-3448.23,-2002.54L-3466.20,-1937.86L-3468.14,-1900.69L-3466.42,-1885.68L-3465.20,-1878.27L-3462.41,-1870.47L-3451.91,-1853.05L-3422.50,-1812.68L-3417.41,-1806.72L-3410.13,-1800.56" />
      </g>
      <g id="f9" transform="translate(5136.50 -518.46)" style="--index:9; opacity:0;" class="frame">
        <path d="M-772.55,-1203.42L-803.55,-1124.87L-837.00,-1045.40L-918.22,-858.93L-971.88,-754.41L-1000.29,-704.30L-1028.82,-650.07L-1076.26,-551.61L-1124.85,-454.10L-1201.58,-315.47L-1246.07,-231.47L-1275.86,-164.56L-1281.42,-149.85L-1285.34,-136.11L-1292.65,-93.75L-1293.30,-81.11L-1290.94,-70.79L-1280.43,-53.67L-1269.12,-38.46L-1262.16,-31.72L-1253.53,-26.47L-1243.86,-22.15L-1231.98,-19.65L-1204.75,-18.24L-1191.85,-20.04L-1179.99,-22.95L-1168.69,-26.86L-1145.78,-38.41L-1094.47,-72.94L-1045.18,-108.92L-1021.32,-129.05L-1005.95,-143.84L-934.63,-218.79L-924.21,-230.62L-901.67,-260.05L-869.30,-307.40L-842.69,-343.89L-832.98,-359.35L-816.92,-387.46L-770.32,-475.47L-754.59,-508.70L-695.32,-640.37L-681.57,-673.99L-665.67,-716.13L-642.74,-766.53L-629.66,-791.05L-595.91,-859.03L-562.05,-931.13L-557.58,-942.07L-535.31,-1010.65L-527.04,-1040.74L-520.71,-1071.98L-516.32,-1112.17L-514.57,-1145.82L-515.20,-1152.90L-517.27,-1161.26L-519.71,-1170.01L-525.70,-1183.67L-542.42,-1210.34L-552.37,-1221.05L-569.36,-1234.68L-582.02,-1243.29L-595.06,-1248.39L-645.36,-1271.71L-651.86,-1273.70L-672.95,-1277.94L-685.32,-1278.59L-697.25,-1276.06L-708.56,-1272.15L-717.73,-1266.93L-728.99,-1258.21L-742.70,-1250.38L-748.07,-1245.26L-760.09,-1227.74L-772.55,-1203.42" />
        <path d="M-762.22,-1231.00L-772.55,-1203.42L-785.99,-1181.62" />
        <path d="M-194.27,1126.31L-185.81,1152.17L-177.53,1158.38L-167.33,1164.31L-155.61,1169.71L-143.11,1173.52L-129.24,1176.19L-73.77,1179.07L-64.14,1176.65L-54.30,1172.06L-44.16,1165.62L-34.09,1156.62L-23.98,1144.99L-0.20,1114.74L5.41,1104.83L9.77,1094.26L12.94,1083.25L14.76,1071.27L15.92,1043.29L13.16,1029.12L8.74,1015.85L-2.34,990.45L-14.18,968.16L-20.05,959.91L-32.26,950.35L-45.08,944.88L-59.80,941.27L-82.91,933.69L-98.16,932.59L-105.49,933.19L-118.62,935.65L-131.36,941.97L-147.10,952.32L-157.77,961.29L-167.86,972.61L-180.53,989.12L-183.61,994.66L-186.54,1000.88L-194.28,1022.83L-199.89,1044.13L-204.72,1069.68L-205.95,1087.46L-200.16,1110.71L-198.19,1115.23L-179.73,1139.14L-172.81,1146.47" />
      </g>
      <g id="f10" transform="translate(5136.50 -518.46)" style="--index:10; opacity:0;" class="frame">
        <path d="M-1308.96,-66.63L-1291.02,-44.32L-1281.89,-37.17L-1270.15,-30.19L-1263.01,-26.97L-1238.07,-18.02L-1228.39,-15.64L-1217.95,-14.42L-1155.20,-11.16L-1144.64,-12.18L-1125.32,-16.28L-1106.90,-22.37L-1098.79,-26.37L-1090.49,-32.01L-1081.90,-39.51L-1043.01,-77.61L-1035.96,-86.16L-1029.33,-96.32L-1019.41,-115.90L-1014.74,-132.53L-1012.89,-162.35L-1012.68,-172.16L-1013.59,-179.56L-1021.92,-202.26L-1026.27,-210.81L-1034.82,-223.33L-1043.94,-230.85L-1059.62,-240.89L-1072.67,-247.57L-1086.68,-253.40L-1101.04,-257.97L-1134.48,-263.24L-1166.40,-264.90L-1173.44,-264.29L-1202.46,-256.28L-1208.28,-254.03L-1219.75,-248.85L-1235.13,-239.83L-1260.06,-218.18L-1275.48,-196.71L-1296.50,-154.16L-1304.10,-135.14L-1309.11,-119.50L-1312.68,-104.69L-1314.69,-91.15L-1315.42,-77.16L-1314.38,-72.01L-1305.48,-54.67L-1301.19,-50.62L-1291.98,-45.05" />
        <path d="M-45.57,1147.33L-27.31,1135.90L-4.61,1109.11L67.04,1031.63L107.71,982.45L136.83,949.62L182.89,894.95L242.01,827.69L270.16,792.19L300.05,756.18L323.28,724.91L350.35,687.18L402.97,610.28L457.61,536.71L552.16,405.68L673.68,244.48L736.24,159.25L794.32,75.29L851.66,-13.43L908.89,-98.34L1021.10,-251.70L1076.25,-329.07L1155.85,-447.83L1204.08,-524.95L1297.81,-665.25L1320.71,-697.80L1341.18,-724.11L1360.44,-746.35L1382.17,-773.57L1411.37,-815.69L1435.83,-857.09L1444.27,-873.22L1452.99,-894.74L1465.17,-932.65L1469.55,-955.36L1471.52,-975.96L1472.15,-993.70L1468.67,-1011.43L1458.50,-1042.85L1448.43,-1062.79L1440.07,-1073.13L1431.49,-1079.27L1419.88,-1083.03L1410.70,-1083.51L1391.72,-1078.19L1377.57,-1069.63L1357.06,-1054.20L1339.37,-1037.28L1243.82,-934.94L1213.63,-904.64L1163.17,-857.63L1134.58,-832.94L1074.51,-783.88L977.16,-708.71L918.62,-658.21L891.59,-632.92L865.02,-604.69L841.55,-576.59L798.10,-522.16L760.05,-469.40L743.19,-443.51L727.54,-417.55L697.75,-364.06L654.54,-291.17L614.46,-218.72L590.05,-170.65L552.40,-100.62L528.00,-58.62L372.56,198.89L310.47,298.17L253.71,395.25L226.92,439.07L200.84,476.86L164.18,533.52L101.99,617.57L52.12,678.33L-1.93,746.24L-28.71,778.29L-66.09,829.51L-102.53,876.28L-121.03,903.06L-140.11,933.26L-187.17,1018.70L-194.97,1041.84L-198.46,1058.90L-199.56,1099.26L-197.62,1104.17L-193.41,1109.78L-178.79,1121.04L-139.03,1139.38L-120.92,1145.05L-110.19,1146.58L-73.78,1148.48L-60.80,1148.85L-45.57,1147.33" />
        <path d="M-51.30,1150.92L-45.57,1147.33L-22.62,1143.79L-3.93,1138.39" />
      </g>
      <g id="f11" transform="translate(5136.50 -518.46)" style="--index:11; opacity:0;" class="frame">
        <path d="M-1320.38,-85.67L-1296.46,-51.28L-1275.23,-24.75L-1203.08,47.84L-1119.82,133.68L-1006.27,260.25L-977.86,294.87L-832.74,466.42L-707.79,612.40L-649.51,670.77L-580.11,742.24L-547.36,772.29L-530.56,785.92L-483.68,819.25L-469.83,827.92L-456.29,835.00L-443.80,839.10L-431.82,841.37L-409.60,843.13L-398.80,843.09L-378.84,838.35L-370.45,834.67L-362.89,829.66L-355.54,822.99L-348.38,814.14L-342.44,803.95L-338.33,792.09L-335.47,779.50L-333.71,764.96L-332.14,734.75L-333.30,707.02L-335.79,693.47L-346.36,658.20L-360.21,620.58L-368.53,601.71L-389.09,558.57L-401.34,536.26L-414.10,514.30L-429.48,490.85L-460.49,446.57L-523.30,365.62L-570.27,309.03L-609.92,263.70L-687.86,181.28L-863.79,2.06L-886.02,-22.65L-902.42,-43.90L-918.90,-63.50L-934.79,-81.20L-976.50,-123.49L-991.43,-140.24L-1046.92,-192.77L-1062.73,-206.04L-1091.55,-226.96L-1110.68,-238.15L-1143.09,-249.66L-1157.80,-253.28L-1183.14,-254.60L-1189.89,-253.67L-1204.09,-249.99L-1220.10,-247.97L-1239.01,-244.15L-1251.59,-240.69L-1255.83,-238.06L-1270.32,-217.14L-1272.81,-211.50L-1278.29,-192.73L-1282.69,-181.19L-1287.73,-157.53L-1288.98,-133.38L-1286.66,-104.91L-1281.65,-83.95L-1279.45,-78.14L-1267.31,-53.96L-1262.55,-41.57" />
        <path d="M1448.42,-1051.02L1434.06,-1073.07L1430.70,-1075.79L1423.22,-1080.00L1417.88,-1081.26L1401.12,-1082.13L1388.24,-1078.67L1364.19,-1068.15L1352.35,-1061.72L1340.55,-1054.09L1332.60,-1047.45L1301.42,-1017.28L1292.66,-1006.56L1285.36,-995.17L1265.75,-960.49L1256.82,-940.64L1250.01,-919.32L1246.32,-898.52L1245.68,-886.10L1246.31,-879.10L1249.36,-870.31L1256.11,-859.76L1261.20,-853.80L1271.79,-843.95L1289.32,-832.91L1312.69,-824.35L1328.65,-819.70L1350.05,-815.73L1380.18,-814.16L1392.65,-815.39L1411.38,-821.76L1417.97,-825.25L1441.72,-841.48L1450.68,-850.24L1456.45,-857.29L1464.32,-868.35L1481.06,-895.82L1488.05,-909.18L1491.79,-919.49L1493.87,-928.60L1496.40,-946.62L1497.73,-972.04L1496.14,-989.60L1491.53,-1018.18L1488.71,-1031.38L1482.95,-1049.53L1470.94,-1074.37L1464.66,-1082.35L1460.74,-1086.00L1452.73,-1091.52L1438.56,-1099.90L1427.34,-1103.34L1396.31,-1104.95" />
      </g>
    </g>
    <g id="t1" transform="translate(2887.92 6.39)" class="thread">
      <g id="f0" style="--index:0; opacity:1;" class="frame">
        <path d="M-489.98,817.27L-455.16,838.21L-445.85,841.91L-436.32,843.31L-405.00,844.94L-393.18,844.66L-381.97,842.69L-370.95,838.46L-333.46,819.72L-322.49,810.77L-312.97,798.81L-295.37,771.98L-289.00,759.27L-284.88,747.41L-282.69,736.05L-281.40,711.30L-282.56,696.91L-291.08,664.60L-296.60,649.69L-308.00,624.58L-314.70,613.05L-331.54,588.63L-340.82,576.68L-350.38,566.28L-368.08,550.74L-377.23,543.89L-386.84,538.29L-397.00,533.63L-407.63,530.23L-418.02,528.12L-446.83,526.24L-477.21,529.46L-486.23,531.84L-495.01,535.21L-515.91,546.57L-527.16,555.21L-532.60,561.60L-542.88,576.66L-550.30,590.30L-556.19,605.59L-561.57,624.43L-565.09,642.09L-568.00,697.96L-566.84,706.34L-561.78,726.33L-558.48,736.02L-553.87,745.48L-544.07,757.17L-533.05,772.06L-523.93,779.59L-512.80,792.54L-496.22,808.40L-493.13,810.43L-488.39,811.66" />
        <path d="M1494.20,-1038.74L1474.64,-1066.53L1446.84,-1099.47L1406.26,-1150.02L1231.99,-1355.56L1136.80,-1462.05L1035.05,-1571.20L931.65,-1677.51L892.59,-1715.16L727.11,-1870.30L656.36,-1938.92L636.97,-1956.50L613.20,-1976.48L588.12,-1996.31L564.59,-2013.13L560.13,-2019.74L559.01,-2023.25L559.26,-2028.03" />
        <path d="M1253.30,-848.14L1235.82,-873.57L1144.87,-982.76L1130.25,-999.72L1055.97,-1081.27L984.55,-1162.07L963.26,-1187.40L935.28,-1222.60L819.17,-1361.44L791.29,-1392.81L686.19,-1516.39L620.51,-1597.87L546.72,-1683.22L499.83,-1739.42L473.67,-1774.91L450.75,-1803.47L444.26,-1813.33L438.67,-1823.22L433.58,-1834.96L422.91,-1868.28L419.36,-1890.44L417.26,-1924.97L418.03,-1945.62L421.35,-1953.70L430.59,-1965.96L441.58,-1982.94L457.57,-2001.83L462.82,-2006.66L475.02,-2014.27L480.79,-2015.54L505.91,-2015.89L514.33,-2018.00L520.36,-2018.58L548.88,-2016.80L555.51,-2015.48L582.38,-2007.11L598.56,-2000.87" />
        <path d="M1239.13,-858.40L1259.42,-844.59L1273.38,-832.09L1281.21,-828.84L1288.43,-827.19L1310.79,-824.45L1349.50,-822.43L1364.16,-823.55L1374.79,-825.92L1389.13,-832.45L1403.16,-840.64L1421.30,-852.74L1430.26,-859.62L1440.86,-869.27L1450.37,-880.85L1459.26,-897.93L1466.36,-913.16L1482.14,-953.06L1486.22,-970.09L1491.55,-1007.01L1493.14,-1029.87L1491.62,-1037.30L1477.07,-1082.60L1473.66,-1090.13L1463.88,-1103.98" />
        <path d="M620.64,-1948.95L616.58,-1956.10L612.48,-1957.72L620.64,-1948.95" />
        <path d="M629.16,-1927.27L620.64,-1948.95L655.68,-1913.65L705.50,-1866.85L791.29,-1781.18L831.47,-1744.15L907.08,-1664.57L927.10,-1644.89L976.98,-1599.05L1028.74,-1545.27L1059.42,-1514.95L1092.25,-1475.62L1125.48,-1441.11L1150.39,-1413.23L1167.26,-1396.81L1180.36,-1381.98L1200.64,-1361.24L1210.72,-1351.68L1233.25,-1334.27L1265.40,-1306.92L1276.67,-1295.67L1286.63,-1284.10L1305.22,-1258.62L1321.92,-1239.14L1328.32,-1232.95L1339.45,-1224.69L1351.08,-1214.07L1373.73,-1191.49L1395.51,-1167.19L1460.20,-1077.70L1469.64,-1057.61L1472.51,-1049.85L1475.29,-1038.71L1477.37,-1021.48L1475.61,-992.14L1473.07,-973.09L1466.54,-937.90L1457.40,-905.86L1449.25,-890.29L1445.94,-885.33L1441.13,-880.45L1422.88,-872.27L1384.69,-861.90L1360.02,-861.37L1333.74,-862.94L1327.11,-865.36L1311.60,-868.71L1266.21,-871.12L1256.85,-874.75L1252.91,-877.08L1245.34,-881.97L1240.16,-887.05L1223.20,-900.41L1179.70,-944.82L1151.94,-982.47L1145.51,-995.52L1139.24,-1005.82L1135.70,-1014.99" />
      </g>
      <g id="f1" style="--index:1; opacity:0;" class="frame">
        <path d="M-288.56,733.49L-283.84,642.71L-282.98,564.76L-283.45,512.17L-288.02,417.38L-291.02,382.80L-303.80,280.53L-315.57,158.66L-329.25,37.22L-331.44,11.99L-334.00,-42.59L-349.57,-281.63L-358.02,-436.47L-361.31,-482.83L-374.64,-622.70L-384.94,-743.89L-387.23,-784.51L-389.56,-862.61L-390.78,-935.27L-390.84,-1001.48L-392.06,-1033.72L-394.70,-1067.60L-402.60,-1136.85L-415.68,-1233.36L-439.49,-1368.00L-446.88,-1402.80L-455.30,-1436.99L-473.70,-1504.46L-506.14,-1613.45L-515.54,-1640.41L-525.38,-1664.77L-536.34,-1686.71L-548.68,-1707.08L-576.56,-1744.22L-591.30,-1760.88L-607.95,-1777.35L-624.06,-1790.64L-637.93,-1799.01L-648.82,-1803.02L-658.65,-1804.51L-674.23,-1803.07L-691.22,-1793.83L-699.53,-1787.89L-707.86,-1779.70L-715.98,-1769.62L-723.61,-1757.57L-730.41,-1744.28L-736.30,-1728.99L-740.59,-1711.96L-747.53,-1670.93L-752.45,-1626.27L-753.82,-1599.95L-752.35,-1572.50L-749.35,-1543.70L-741.78,-1489.16L-736.82,-1461.46L-717.62,-1372.95L-712.42,-1344.04L-702.27,-1269.94L-693.60,-1217.53L-676.13,-1138.03L-666.22,-1084.28L-649.27,-975.49L-634.22,-849.55L-625.61,-795.94L-607.23,-691.50L-594.57,-598.45L-591.86,-552.50L-589.73,-453.03L-584.50,-346.05L-581.27,-248.47L-576.04,-166.39L-571.81,-82.41L-566.78,101.65L-561.71,248.36L-558.27,303.28L-557.60,430.72L-560.18,505.42L-556.99,559.35L-555.56,570.30L-547.23,617.83L-543.67,628.21L-541.69,669.11L-542.54,697.03L-541.08,707.31L-535.27,728.31L-528.33,748.76L-523.77,759.20L-518.18,767.14L-502.75,781.96L-473.51,806.36L-463.98,811.65L-453.94,814.72L-443.52,816.24L-393.14,818.86L-379.04,817.05L-338.82,807.37L-326.13,801.95L-314.36,794.92L-287.77,772.08L-276.52,757.74L-267.69,741.93L-265.12,734.71L-263.48,714.78" />
        <path d="M419.35,-1824.82L437.05,-1803.51L445.78,-1794.50L451.58,-1790.68L469.04,-1784.07L476.54,-1780.15L491.78,-1774.94L509.13,-1772.08L529.72,-1771.69L551.53,-1775.58L570.98,-1782.21L588.80,-1794.04L598.44,-1802.46L607.20,-1813.17L617.59,-1828.23L631.05,-1850.48L638.97,-1873.91L640.76,-1883.34L643.54,-1925.26L643.02,-1938.34L636.67,-1964.16L628.51,-1990.08L624.88,-1999.12L614.77,-2018.17L602.33,-2030.89L595.24,-2035.08L585.35,-2039.12L574.97,-2041.54L557.31,-2044.41L541.45,-2045.23L511.54,-2037.56L496.93,-2031.58L483.48,-2025.00L475.64,-2020.31L464.02,-2010.42L459.99,-2006.13L451.02,-1993.25L441.63,-1978.14L432.21,-1960.48L415.73,-1918.67L413.34,-1909.20L405.59,-1864.08L405.21,-1839.58L408.33,-1826.37L413.17,-1815.62L420.12,-1808.89" />
      </g>
      <g id="f2" style="--index:2; opacity:0;" class="frame">
        <path d="M-755.10,-1604.14L-744.36,-1574.26L-738.55,-1562.86L-728.90,-1552.16L-721.90,-1546.39L-705.93,-1535.96L-696.99,-1531.07L-687.28,-1527.35L-676.98,-1525.23L-642.73,-1524.13L-632.17,-1525.15L-622.17,-1527.18L-612.76,-1531.12L-603.23,-1537.37L-594.24,-1544.85L-569.44,-1569.65L-556.13,-1587.11L-550.49,-1597.31L-541.64,-1621.37L-536.61,-1645.03L-535.33,-1658.01L-533.45,-1699.91L-535.09,-1722.27L-536.72,-1729.40L-543.49,-1745.35L-548.98,-1755.16L-555.50,-1764.42L-574.13,-1785.19L-586.24,-1796.62L-598.79,-1805.22L-605.65,-1808.12L-639.76,-1811.85L-657.54,-1812.40L-680.91,-1803.42L-690.77,-1796.66L-699.88,-1786.93L-705.01,-1780.53L-719.76,-1758.65L-731.34,-1737.95L-740.19,-1713.89L-751.75,-1687.72L-758.53,-1667.08L-764.14,-1645.70L-768.61,-1613.76L-770.26,-1587.75L-769.11,-1573.37L-765.35,-1555.33L-759.95,-1535.93" />
        <path d="M415.25,-1819.04L429.20,-1798.89L436.77,-1792.42L447.61,-1787.36L463.14,-1785.95L489.94,-1782.01L507.00,-1781.12L520.75,-1781.98L537.73,-1785.22L558.81,-1792.45L575.60,-1803.65L598.45,-1821.88L606.18,-1830.10L613.38,-1839.55L619.28,-1849.14L626.04,-1863.78L629.31,-1876.66L630.27,-1895.06L629.35,-1902.46L622.83,-1923.19L615.22,-1942.33L610.53,-1950.23L605.43,-1955.89L600.88,-1958.98L592.77,-1962.62L577.62,-1965.66L565.40,-1967.20L546.95,-1968.16L518.91,-1965.79L496.07,-1961.28L489.67,-1959.37L482.19,-1955.93L471.85,-1947.55L447.45,-1924.67L436.18,-1909.96L429.68,-1900.40L424.33,-1889.88L415.90,-1868.05L410.63,-1851.37L406.31,-1824.23L406.03,-1818.84L407.88,-1817.77" />
      </g>
      <g id="f3" style="--index:3; opacity:0;" class="frame">
        <path d="M-702.44,-1530.08L-674.56,-1527.66L-660.57,-1529.18L-639.28,-1534.75L-624.10,-1540.03L-609.15,-1546.53L-603.88,-1549.78L-589.91,-1560.82L-573.21,-1575.93L-568.53,-1581.38L-561.68,-1589.95L-555.80,-1599.17L-551.59,-1606.97L-544.04,-1625.32L-539.98,-1641.68L-538.06,-1653.66L-536.34,-1680.94L-536.65,-1686.43L-542.60,-1695.29L-548.05,-1700.07L-567.04,-1713.81L-584.12,-1721.97L-591.90,-1724.32L-639.47,-1727.10L-648.45,-1725.62L-679.97,-1712.03L-687.22,-1707.31L-695.81,-1699.81L-706.70,-1686.65L-716.07,-1671.84L-727.15,-1647.30L-731.94,-1634.13L-735.17,-1621.92L-737.23,-1607.33L-738.50,-1582.88L-733.81,-1569.28L-724.74,-1553.22L-721.45,-1549.22L-717.21,-1546.15L-690.09,-1534.84L-681.42,-1530.27L-680.76,-1531.51" />
        <path d="M411.73,-1818.79L426.16,-1801.90L433.36,-1799.95L455.19,-1798.44L471.52,-1795.04L491.17,-1794.02L518.90,-1800.22L534.69,-1805.77L540.98,-1809.27L557.50,-1823.03L561.29,-1828.61L564.35,-1837.38L565.54,-1843.01L565.90,-1861.52L557.60,-1873.05L552.48,-1878.41L541.85,-1887.59L536.88,-1890.02L507.71,-1898.59L494.73,-1898.96L486.72,-1896.83L463.37,-1888.45L453.91,-1883.54L441.55,-1872.71L431.36,-1865.29L426.60,-1860.44L421.52,-1853.06L413.16,-1832.79L411.73,-1818.79" />
        <path d="M409.94,-1820.89L412.62,-1816.63" />
      </g>
      <g id="f4" style="--index:4; opacity:0;" class="frame">
        <path d="M-575.37,-1642.46L-595.52,-1649.00L-605.83,-1646.99L-621.87,-1642.42L-639.86,-1638.93L-658.16,-1629.39L-669.40,-1621.05L-677.97,-1610.02L-684.62,-1597.62L-688.99,-1586.67L-691.75,-1576.02L-693.94,-1564.66L-695.66,-1545.03L-695.11,-1542.15L-690.87,-1533.31L-687.16,-1529.59L-683.85,-1527.84L-668.20,-1522.90L-661.85,-1521.90L-641.58,-1521.22L-629.05,-1523.72L-622.93,-1525.95L-610.80,-1532.29L-602.56,-1538.61L-580.10,-1572.46L-574.60,-1585.82L-569.99,-1609.13L-568.97,-1628.57L-570.73,-1637.21L-575.37,-1642.46" />
        <path d="M-572.11,-1641.41L-577.38,-1643.93" />
        <path d="M427.84,-1803.39L456.15,-1797.79L467.23,-1797.21L477.48,-1798.25L491.23,-1801.06L497.78,-1803.87L511.88,-1813.34L521.64,-1824.00L528.27,-1834.15L528.63,-1841.11L521.68,-1847.84L517.02,-1850.64L510.10,-1852.27L499.03,-1852.85L472.56,-1851.67L453.94,-1841.85L437.06,-1828.70L423.36,-1815.39L417.57,-1808.04L417.19,-1806.49" />
      </g>
      <g id="f5" style="--index:5; opacity:0;" class="frame">
        <path d="M-626.06,-1547.44L-623.22,-1549.21L-626.35,-1556.34L-632.02,-1558.89L-638.90,-1559.25L-645.62,-1553.22L-650.17,-1544.54L-651.87,-1536.98L-652.18,-1530.99L-649.14,-1527.91L-642.58,-1526.97L-634.75,-1529.41L-628.57,-1538.69L-626.06,-1547.44" />
        <path d="M-644.93,-1535.71L-626.06,-1547.44L-625.13,-1556.66L-629.49,-1563.26" />
      </g>
      <g id="f6" style="--index:6; opacity:0;" class="frame">
        <path d="M565.40,-617.73L528.82,-624.06L486.80,-585.53L463.70,-539.56L454.94,-475.08L466.08,-425.76L483.82,-393.64L515.82,-368.43L566.78,-376.95L606.01,-433.17L621.52,-500.45L613.44,-583.66L561.32,-643.06" />
        <path d="M-3347.65,-2097.63L-3371.81,-2090.94L-3382.88,-2085.75L-3400.59,-2074.22L-3408.68,-2066.69L-3434.20,-2039.67L-3448.92,-2020.12L-3455.20,-2008.97L-3460.19,-1997.76L-3467.79,-1974.61L-3470.90,-1962.92L-3474.81,-1937.71L-3475.54,-1923.72L-3474.39,-1909.34L-3471.36,-1894.48L-3463.79,-1868.97L-3459.03,-1856.65L-3448.69,-1834.14L-3442.84,-1825.51L-3434.14,-1815.83L-3417.86,-1803.81L-3406.07,-1797.80L-3393.60,-1793.33L-3381.46,-1790.15L-3356.83,-1786.69L-3333.69,-1785.49L-3323.36,-1787.80L-3303.63,-1794.12L-3285.08,-1802.68L-3276.28,-1808.29L-3267.63,-1815.12L-3252.10,-1832.83L-3245.47,-1842.98L-3236.10,-1865.37L-3226.15,-1897.02L-3221.14,-1920.38L-3218.25,-1945.05L-3216.43,-1979.98L-3218.70,-1992.17L-3225.72,-2014.88L-3235.44,-2035.70L-3246.10,-2051.86L-3252.39,-2059.83L-3258.11,-2065.23L-3264.58,-2069.69L-3273.54,-2074.36L-3292.22,-2080.73L-3307.76,-2087.61L-3319.07,-2091.35L-3336.01,-2094.48L-3349.68,-2095.19L-3353.44,-2090.29" />
      </g>
      <g id="f7" style="--index:7; opacity:0;" class="frame">
        <path d="M566.39,-631.02L539.17,-640.39L532.14,-645.56L487.85,-673.06L405.82,-726.67L355.26,-756.67L289.06,-797.38L183.79,-858.27L128.53,-888.22L-34.39,-982.93L-91.76,-1014.64L-123.69,-1031.52L-242.26,-1090.56L-293.14,-1114.28L-400.60,-1161.86L-467.65,-1194.00L-506.53,-1210.04L-543.07,-1220.87L-622.59,-1238.35L-655.71,-1243.90L-702.27,-1247.00L-713.74,-1245.65L-722.18,-1242.94L-727.34,-1239.98L-733.77,-1233.64L-742.69,-1219.78L-744.19,-1216.04L-743.79,-1206.49L-736.00,-1190.79L-725.07,-1173.95L-717.35,-1164.70L-688.31,-1136.42L-668.81,-1119.13L-655.72,-1109.22L-624.12,-1087.86L-522.61,-1022.06L-315.64,-895.36L-212.70,-833.99L-167.45,-805.84L-3.86,-700.82L28.14,-681.31L87.96,-646.70L164.34,-599.76L337.32,-485.02L377.92,-453.96L395.18,-443.47L418.45,-427.33L442.51,-412.96L472.49,-397.08L486.51,-391.62L502.57,-388.84L533.70,-387.22L539.15,-388.21L555.00,-394.73L559.98,-398.30L564.64,-403.16L568.14,-408.97L575.64,-424.18L580.82,-439.21L583.06,-457.24L584.73,-489.32L584.63,-498.92L582.41,-517.79L577.07,-538.16L573.47,-547.87L559.93,-574.07L524.43,-624.29L503.74,-649.58L490.47,-661.75L477.83,-670.65L471.22,-676.40" />
        <path d="M-3391.32,-1789.09L-3365.16,-1784.20L-3355.39,-1783.69L-3324.86,-1789.75L-3309.54,-1797.88L-3288.32,-1807.65L-3265.33,-1822.65L-3241.98,-1844.68L-3236.53,-1851.44L-3231.92,-1859.15L-3227.97,-1867.87L-3220.26,-1889.07L-3217.72,-1901.38L-3213.41,-1934.30L-3212.14,-1964.45L-3219.10,-1984.54L-3222.81,-1992.08L-3232.19,-2007.87L-3237.23,-2014.80L-3242.30,-2021.14L-3255.67,-2033.31L-3273.04,-2047.56L-3279.84,-2051.44L-3299.66,-2060.72L-3314.26,-2066.58L-3326.90,-2067.83L-3342.79,-2068.06L-3351.12,-2067.52L-3358.85,-2065.07L-3374.44,-2057.64L-3413.10,-2049.07L-3429.37,-2040.10L-3437.65,-2034.75L-3445.28,-2028.48L-3451.98,-2020.88L-3457.81,-2012.56L-3463.06,-2003.98L-3468.51,-1991.52L-3470.87,-1982.72L-3474.84,-1960.28L-3482.33,-1933.60L-3483.97,-1925.13L-3484.96,-1906.06L-3482.72,-1895.45L-3478.26,-1883.07L-3461.40,-1847.55L-3450.95,-1832.98L-3439.88,-1820.93L-3420.70,-1804.94L-3408.43,-1796.65L-3398.20,-1791.39L-3383.42,-1781.33L-3379.99,-1779.87L-3373.43,-1779.23" />
      </g>
      <g id="f8" style="--index:8; opacity:0;" class="frame">
        <path d="M-709.73,-1134.31L-671.30,-1107.79L-649.76,-1094.89L-606.57,-1075.17L-598.51,-1072.50L-588.39,-1071.00L-573.52,-1070.23L-555.62,-1072.15L-538.57,-1076.73L-530.71,-1079.77L-523.91,-1083.62L-517.98,-1088.03L-512.24,-1094.41L-502.12,-1110.16L-498.17,-1118.87L-492.90,-1135.47L-491.14,-1144.30L-489.80,-1152.86L-488.24,-1176.92L-488.43,-1184.88L-489.88,-1193.58L-494.94,-1211.69L-498.66,-1220.81L-502.63,-1229.26L-512.84,-1246.36L-517.84,-1253.97L-527.72,-1265.96L-553.17,-1284.46L-598.15,-1304.27L-620.17,-1309.91L-643.53,-1312.71L-675.85,-1314.39L-684.23,-1312.95L-696.82,-1307.53L-713.72,-1301.74L-719.29,-1298.50L-736.74,-1286.06L-740.42,-1282.73L-744.19,-1277.53L-749.52,-1267.30L-754.84,-1249.73L-758.55,-1214.91L-759.41,-1198.38L-758.23,-1190.37L-753.27,-1176.09L-738.33,-1151.77L-734.46,-1147.37L-725.26,-1139.61L-708.21,-1119.30L-703.06,-1114.54L-658.02,-1082.27" />
        <path d="M-3473.62,-1851.03L-3451.31,-1833.90L-3440.34,-1823.51L-3404.72,-1787.23L-3375.06,-1759.29L-3358.45,-1742.16L-3319.74,-1699.73L-3295.23,-1674.90L-3265.01,-1646.26L-3188.80,-1576.68L-2790.78,-1221.00L-2619.68,-1064.30L-2517.56,-967.95L-2347.92,-802.40L-2252.48,-712.10L-2194.22,-659.12L-2136.99,-605.53L-2010.78,-491.58L-1884.68,-379.36L-1611.47,-139.36L-1404.35,44.04L-1274.24,158.12L-1089.92,316.41L-1028.88,369.90L-972.50,422.48L-759.66,626.87L-624.26,754.57L-505.01,873.48L-471.12,906.51L-440.20,935.19L-387.35,982.49L-364.79,1000.83L-321.70,1033.97L-197.75,1137.53L-178.25,1152.94L-159.25,1166.60L-136.99,1178.93L-113.65,1188.09L-96.88,1190.54L-76.28,1190.72L-68.21,1187.61L-62.15,1182.53L-57.98,1175.40L-55.90,1166.28L-55.29,1154.54L-55.63,1141.77L-58.41,1127.91L-63.27,1111.76L-71.66,1090.32L-94.86,1040.37L-109.64,1012.83L-146.50,952.35L-170.26,914.82L-195.99,876.89L-224.82,838.72L-293.23,755.90L-330.09,712.59L-412.32,620.42L-593.00,428.58L-642.44,377.26L-691.41,328.22L-832.14,193.50L-981.85,46.60L-1061.18,-28.24L-1199.81,-161.20L-1500.54,-445.01L-1676.73,-607.67L-1731.17,-655.35L-1971.91,-871.39L-2018.13,-911.67L-2063.58,-953.25L-2200.04,-1074.03L-2514.85,-1337.20L-2681.91,-1479.29L-2745.47,-1534.19L-2853.58,-1630.85L-2883.73,-1656.94L-2925.59,-1694.51L-2963.84,-1730.25L-3064.02,-1819.82L-3130.71,-1876.16L-3150.96,-1894.38L-3203.68,-1944.29L-3251.53,-1984.05L-3269.25,-1997.35L-3305.26,-2020.29L-3319.78,-2027.72L-3330.66,-2032.11L-3346.62,-2036.77L-3374.81,-2039.13L-3401.14,-2040.50L-3414.57,-2038.05L-3423.43,-2033.11L-3431.73,-2025.60L-3444.10,-2008.99L-3448.23,-2002.54L-3466.20,-1937.86L-3468.14,-1900.69L-3466.42,-1885.68L-3465.20,-1878.27L-3462.41,-1870.47L-3451.91,-1853.05L-3422.50,-1812.68L-3417.41,-1806.72L-3410.13,-1800.56" />
      </g>
      <g id="f9" style="--index:9; opacity:0;" class="frame">
        <path d="M-772.55,-1203.42L-803.55,-1124.87L-837.00,-1045.40L-918.22,-858.93L-971.88,-754.41L-1000.29,-704.30L-1028.82,-650.07L-1076.26,-551.61L-1124.85,-454.10L-1201.58,-315.47L-1246.07,-231.47L-1275.86,-164.56L-1281.42,-149.85L-1285.34,-136.11L-1292.65,-93.75L-1293.30,-81.11L-1290.94,-70.79L-1280.43,-53.67L-1269.12,-38.46L-1262.16,-31.72L-1253.53,-26.47L-1243.86,-22.15L-1231.98,-19.65L-1204.75,-18.24L-1191.85,-20.04L-1179.99,-22.95L-1168.69,-26.86L-1145.78,-38.41L-1094.47,-72.94L-1045.18,-108.92L-1021.32,-129.05L-1005.95,-143.84L-934.63,-218.79L-924.21,-230.62L-901.67,-260.05L-869.30,-307.40L-842.69,-343.89L-832.98,-359.35L-816.92,-387.46L-770.32,-475.47L-754.59,-508.70L-695.32,-640.37L-681.57,-673.99L-665.67,-716.13L-642.74,-766.53L-629.66,-791.05L-595.91,-859.03L-562.05,-931.13L-557.58,-942.07L-535.31,-1010.65L-527.04,-1040.74L-520.71,-1071.98L-516.32,-1112.17L-514.57,-1145.82L-515.20,-1152.90L-517.27,-1161.26L-519.71,-1170.01L-525.70,-1183.67L-542.42,-1210.34L-552.37,-1221.05L-569.36,-1234.68L-582.02,-1243.29L-595.06,-1248.39L-645.36,-1271.71L-651.86,-1273.70L-672.95,-1277.94L-685.32,-1278.59L-697.25,-1276.06L-708.56,-1272.15L-717.73,-1266.93L-728.99,-1258.21L-742.70,-1250.38L-748.07,-1245.26L-760.09,-1227.74L-772.55,-1203.42" />
        <path d="M-762.22,-1231.00L-772.55,-1203.42L-785.99,-1181.62" />
        <path d="M-194.27,1126.31L-185.81,1152.17L-177.53,1158.38L-167.33,1164.31L-155.61,1169.71L-143.11,1173.52L-129.24,1176.19L-73.77,1179.07L-64.14,1176.65L-54.30,1172.06L-44.16,1165.62L-34.09,1156.62L-23.98,1144.99L-0.20,1114.74L5.41,1104.83L9.77,1094.26L12.94,1083.25L14.76,1071.27L15.92,1043.29L13.16,1029.12L8.74,1015.85L-2.34,990.45L-14.18,968.16L-20.05,959.91L-32.26,950.35L-45.08,944.88L-59.80,941.27L-82.91,933.69L-98.16,932.59L-105.49,933.19L-118.62,935.65L-131.36,941.97L-147.10,952.32L-157.77,961.29L-167.86,972.61L-180.53,989.12L-183.61,994.66L-186.54,1000.88L-194.28,1022.83L-199.89,1044.13L-204.72,1069.68L-205.95,1087.46L-200.16,1110.71L-198.19,1115.23L-179.73,1139.14L-172.81,1146.47" />
      </g>
      <g id="f10" style="--index:10; opacity:0;" class="frame">
        <path d="M-1308.96,-66.63L-1291.02,-44.32L-1281.89,-37.17L-1270.15,-30.19L-1263.01,-26.97L-1238.07,-18.02L-1228.39,-15.64L-1217.95,-14.42L-1155.20,-11.16L-1144.64,-12.18L-1125.32,-16.28L-1106.90,-22.37L-1098.79,-26.37L-1090.49,-32.01L-1081.90,-39.51L-1043.01,-77.61L-1035.96,-86.16L-1029.33,-96.32L-1019.41,-115.90L-1014.74,-132.53L-1012.89,-162.35L-1012.68,-172.16L-1013.59,-179.56L-1021.92,-202.26L-1026.27,-210.81L-1034.82,-223.33L-1043.94,-230.85L-1059.62,-240.89L-1072.67,-247.57L-1086.68,-253.40L-1101.04,-257.97L-1134.48,-263.24L-1166.40,-264.90L-1173.44,-264.29L-1202.46,-256.28L-1208.28,-254.03L-1219.75,-248.85L-1235.13,-239.83L-1260.06,-218.18L-1275.48,-196.71L-1296.50,-154.16L-1304.10,-135.14L-1309.11,-119.50L-1312.68,-104.69L-1314.69,-91.15L-1315.42,-77.16L-1314.38,-72.01L-1305.48,-54.67L-1301.19,-50.62L-1291.98,-45.05" />
        <path d="M-45.57,1147.33L-27.31,1135.90L-4.61,1109.11L67.04,1031.63L107.71,982.45L136.83,949.62L182.89,894.95L242.01,827.69L270.16,792.19L300.05,756.18L323.28,724.91L350.35,687.18L402.97,610.28L457.61,536.71L552.16,405.68L673.68,244.48L736.24,159.25L794.32,75.29L851.66,-13.43L908.89,-98.34L1021.10,-251.70L1076.25,-329.07L1155.85,-447.83L1204.08,-524.95L1297.81,-665.25L1320.71,-697.80L1341.18,-724.11L1360.44,-746.35L1382.17,-773.57L1411.37,-815.69L1435.83,-857.09L1444.27,-873.22L1452.99,-894.74L1465.17,-932.65L1469.55,-955.36L1471.52,-975.96L1472.15,-993.70L1468.67,-1011.43L1458.50,-1042.85L1448.43,-1062.79L1440.07,-1073.13L1431.49,-1079.27L1419.88,-1083.03L1410.70,-1083.51L1391.72,-1078.19L1377.57,-1069.63L1357.06,-1054.20L1339.37,-1037.28L1243.82,-934.94L1213.63,-904.64L1163.17,-857.63L1134.58,-832.94L1074.51,-783.88L977.16,-708.71L918.62,-658.21L891.59,-632.92L865.02,-604.69L841.55,-576.59L798.10,-522.16L760.05,-469.40L743.19,-443.51L727.54,-417.55L697.75,-364.06L654.54,-291.17L614.46,-218.72L590.05,-170.65L552.40,-100.62L528.00,-58.62L372.56,198.89L310.47,298.17L253.71,395.25L226.92,439.07L200.84,476.86L164.18,533.52L101.99,617.57L52.12,678.33L-1.93,746.24L-28.71,778.29L-66.09,829.51L-102.53,876.28L-121.03,903.06L-140.11,933.26L-187.17,1018.70L-194.97,1041.84L-198.46,1058.90L-199.56,1099.26L-197.62,1104.17L-193.41,1109.78L-178.79,1121.04L-139.03,1139.38L-120.92,1145.05L-110.19,1146.58L-73.78,1148.48L-60.80,1148.85L-45.57,1147.33" />
        <path d="M-51.30,1150.92L-45.57,1147.33L-22.62,1143.79L-3.93,1138.39" />
      </g>
      <g id="f11" style="--index:11; opacity:0;" class="frame">
        <path d="M-1320.38,-85.67L-1296.46,-51.28L-1275.23,-24.75L-1203.08,47.84L-1119.82,133.68L-1006.27,260.25L-977.86,294.87L-832.74,466.42L-707.79,612.40L-649.51,670.77L-580.11,742.24L-547.36,772.29L-530.56,785.92L-483.68,819.25L-469.83,827.92L-456.29,835.00L-443.80,839.10L-431.82,841.37L-409.60,843.13L-398.80,843.09L-378.84,838.35L-370.45,834.67L-362.89,829.66L-355.54,822.99L-348.38,814.14L-342.44,803.95L-338.33,792.09L-335.47,779.50L-333.71,764.96L-332.14,734.75L-333.30,707.02L-335.79,693.47L-346.36,658.20L-360.21,620.58L-368.53,601.71L-389.09,558.57L-401.34,536.26L-414.10,514.30L-429.48,490.85L-460.49,446.57L-523.30,365.62L-570.27,309.03L-609.92,263.70L-687.86,181.28L-863.79,2.06L-886.02,-22.65L-902.42,-43.90L-918.90,-63.50L-934.79,-81.20L-976.50,-123.49L-991.43,-140.24L-1046.92,-192.77L-1062.73,-206.04L-1091.55,-226.96L-1110.68,-238.15L-1143.09,-249.66L-1157.80,-253.28L-1183.14,-254.60L-1189.89,-253.67L-1204.09,-249.99L-1220.10,-247.97L-1239.01,-244.15L-1251.59,-240.69L-1255.83,-238.06L-1270.32,-217.14L-1272.81,-211.50L-1278.29,-192.73L-1282.69,-181.19L-1287.73,-157.53L-1288.98,-133.38L-1286.66,-104.91L-1281.65,-83.95L-1279.45,-78.14L-1267.31,-53.96L-1262.55,-41.57" />
        <path d="M1448.42,-1051.02L1434.06,-1073.07L1430.70,-1075.79L1423.22,-1080.00L1417.88,-1081.26L1401.12,-1082.13L1388.24,-1078.67L1364.19,-1068.15L1352.35,-1061.72L1340.55,-1054.09L1332.60,-1047.45L1301.42,-1017.28L1292.66,-1006.56L1285.36,-995.17L1265.75,-960.49L1256.82,-940.64L1250.01,-919.32L1246.32,-898.52L1245.68,-886.10L1246.31,-879.10L1249.36,-870.31L1256.11,-859.76L1261.20,-853.80L1271.79,-843.95L1289.32,-832.91L1312.69,-824.35L1328.65,-819.70L1350.05,-815.73L1380.18,-814.16L1392.65,-815.39L1411.38,-821.76L1417.97,-825.25L1441.72,-841.48L1450.68,-850.24L1456.45,-857.29L1464.32,-868.35L1481.06,-895.82L1488.05,-909.18L1491.79,-919.49L1493.87,-928.60L1496.40,-946.62L1497.73,-972.04L1496.14,-989.60L1491.53,-1018.18L1488.71,-1031.38L1482.95,-1049.53L1470.94,-1074.37L1464.66,-1082.35L1460.74,-1086.00L1452.73,-1091.52L1438.56,-1099.90L1427.34,-1103.34L1396.31,-1104.95" />
      </g>
    </g>
    <g id="t2" transform="translate(3827.00 52.77)" class="thread">
      <g id="f0" style="--index:0; opacity:1;" class="frame">
        <path d="M-1363.22,360.99L-1357.46,329.19L-1345.17,196.73L-1341.69,143.37L-1340.49,120.19L-1340.91,114.77" />
        <path d="M-1140.74,524.19L-1093.21,516.16L-1040.12,509.03L-982.03,498.03L-920.90,482.46L-873.68,472.77" />
        <path d="M-1630.31,687.83L-1692.47,704.02L-1776.39,723.20L-1881.72,749.89" />
        <path d="M-1462.92,908.30L-1464.92,946.74L-1472.89,990.27L-1479.97,1047.57L-1483.38,1099.58L-1481.76,1129.89L-1477.96,1137.73" />
        <path d="M514.79,-1477.00L504.59,-1550.12L491.59,-1603.97" />
        <path d="M848.96,-1149.47L882.52,-1165.87L898.93,-1169.74L941.41,-1174.88" />
        <path d="M63.97,-739.42L-0.03,-718.53L-19.25,-710.61L-35.99,-700.30" />
        <path d="M652.92,-602.07L678.22,-569.25L696.03,-550.18L710.88,-535.68" />
      </g>
      <g id="f1" style="--index:1; opacity:0;" class="frame">
        <path d="M-1830.77,722.32L-1876.95,742.86L-1915.88,752.91L-1941.57,758.24" />
        <path d="M-915.68,474.41L-873.84,464.22L-828.06,457.30" />
        <path d="M-1482.37,1080.21L-1481.65,1104.77L-1486.17,1130.03L-1489.90,1188.40L-1489.52,1200.20" />
        <path d="M-360.25,-2242.79L-355.49,-2290.01L-354.34,-2337.12L-349.66,-2446.35L-341.90,-2478.12" />
        <path d="M-621.22,-2070.10L-762.30,-2130.98L-772.28,-2141.03" />
        <path d="M-146.88,-1975.68L-87.31,-1972.88L-30.79,-1972.86L46.74,-1978.65L58.51,-1978.04" />
        <path d="M-696.85,-1795.09L-719.90,-1778.81L-780.18,-1756.45L-885.32,-1714.16" />
        <path d="M-366.89,-1717.40L-338.56,-1686.98L-318.30,-1618.74L-309.20,-1591.87L-283.56,-1534.75L-274.43,-1527.60" />
      </g>
      <g id="f2" style="--index:2; opacity:0;" class="frame">
        <path d="M-358.95,-2431.24L-354.18,-2505.53" />
        <path d="M15.87,-1952.59L46.16,-1959.94L79.66,-1969.29L101.06,-1971.10L129.27,-1969.26" />
        <path d="M-737.44,-2114.69L-785.05,-2139.74L-816.31,-2150.29L-849.38,-2154.94" />
        <path d="M-831.82,-1734.92L-886.11,-1698.90L-908.12,-1691.12" />
        <path d="M-299.72,-1579.90L-290.42,-1556.77L-273.72,-1524.04L-262.93,-1504.43L-253.10,-1491.47" />
        <path d="M-1608.51,-1961.01L-1610.11,-2020.63L-1614.98,-2086.50L-1617.94,-2144.91L-1623.83,-2208.59" />
        <path d="M-1348.95,-1868.24L-1368.30,-1850.12L-1334.20,-1863.27L-1213.79,-1899.37L-1163.60,-1918.13L-1100.59,-1944.77L-1073.06,-1954.81" />
        <path d="M-1876.16,-1684.81L-1909.12,-1691.62L-1979.44,-1683.81L-2035.94,-1678.50L-2119.17,-1672.63L-2147.93,-1669.71" />
        <path d="M-1759.36,-1430.37L-1786.10,-1393.22L-1870.06,-1319.60L-1959.22,-1247.83" />
        <path d="M-1418.53,-1496.10L-1390.45,-1497.49L-1367.14,-1482.25L-1329.06,-1448.77L-1273.86,-1392.74L-1236.76,-1361.79L-1218.52,-1350.94L-1212.17,-1351.88" />
      </g>
      <g id="f3" style="--index:3; opacity:0;" class="frame">
        <path d="M-866.78,-2174.29" />
        <path d="M-333.03,-2533.37" />
        <path d="M144.69,-1973.26" />
        <path d="M-248.84,-1463.88" />
        <path d="M-932.94,-1673.67L-928.15,-1648.52L-921.39,-1651.40L-921.11,-1656.78" />
        <path d="M-1620.72,-2104.94L-1622.33,-2133.67L-1631.19,-2190.15L-1644.78,-2265.39L-1657.91,-2330.41L-1668.14,-2372.04" />
        <path d="M-1149.45,-1915.15L-1121.10,-1929.27L-987.76,-1975.50L-953.36,-1988.70" />
        <path d="M-2057.75,-1674.54L-2194.60,-1659.09L-2310.42,-1644.04" />
        <path d="M-1904.98,-1302.00L-1918.56,-1271.81L-1957.39,-1229.21L-1991.90,-1188.72L-2026.04,-1142.05" />
        <path d="M-1285.60,-1424.84L-1269.18,-1403.89L-1233.06,-1377.19L-1124.33,-1311.69L-1091.27,-1293.40" />
      </g>
      <g id="f4" style="--index:4; opacity:0;" class="frame">
        <path d="M-1685.43,-2362.74" />
        <path d="M-909.54,-2013.12L-913.71,-2006.66L-903.40,-2002.98L-897.31,-2002.66L-890.37,-2009.27L-889.57,-2011.18L-893.01,-2012.26L-909.54,-2013.12" />
        <path d="M-900.55,-2027.05L-909.54,-2013.12L-910.17,-2013.15" />
        <path d="M-2338.66,-1631.86L-2313.24,-1632.12L-2311.59,-1633.00L-2311.16,-1635.53L-2315.18,-1637.02L-2339.38,-1637.30L-2348.47,-1633.65L-2352.54,-1628.46L-2352.81,-1623.38L-2343.03,-1620.92L-2328.70,-1621.45L-2317.41,-1624.98" />
        <path d="M-2030.86,-1130.23L-2036.24,-1105.69L-2026.43,-1103.90L-2016.60,-1104.29L-2011.92,-1107.87L-2011.45,-1111.07" />
        <path d="M-1061.99,-1287.08" />
      </g>
      <g id="f5" style="--index:5; opacity:0;" class="frame" />
      <g id="f6" style="--index:6; opacity:0;" class="frame" />
      <g id="f7" style="--index:7; opacity:0;" class="frame" />
      <g id="f8" style="--index:8; opacity:0;" class="frame">
        <path d="M-1645.99,-1454.09L-1683.89,-1544.63L-1706.82,-1609.48L-1714.09,-1654.40" />
        <path d="M-1472.14,-1392.48L-1459.64,-1413.50L-1428.77,-1431.99L-1363.94,-1462.96L-1320.88,-1490.64" />
        <path d="M-1814.22,-1212.24L-1889.17,-1183.00L-1944.31,-1168.99L-1983.60,-1157.99L-2006.04,-1147.69" />
        <path d="M-1657.37,-1064.30L-1649.18,-1031.41L-1673.05,-951.44L-1680.85,-905.35L-1683.41,-880.96" />
        <path d="M-1328.09,-1096.51L-1289.30,-1096.07L-1237.90,-1087.99L-1191.78,-1076.67L-1148.89,-1064.61L-1118.13,-1057.91" />
      </g>
      <g id="f9" style="--index:9; opacity:0;" class="frame">
        <path d="M-1702.73,-1603.50L-1730.54,-1672.81" />
        <path d="M-1348.33,-1476.47L-1313.78,-1486.82L-1290.97,-1492.61L-1281.34,-1493.08" />
        <path d="M-1121.41,-1048.79L-1079.34,-1051.70L-1056.24,-1049.59" />
        <path d="M-1940.99,-1177.14L-2020.82,-1144.33L-2031.59,-1139.19" />
        <path d="M-1022.54,774.87L-1025.31,749.23L-1025.64,713.22L-1025.07,634.97L-1023.60,595.22" />
        <path d="M-861.84,867.97L-829.92,848.56L-794.77,832.62L-753.82,820.35L-721.09,814.11" />
        <path d="M-1233.41,901.80L-1351.17,880.98L-1408.70,867.86" />
        <path d="M-1187.42,1171.37L-1232.27,1202.78L-1264.52,1218.88L-1288.52,1234.20L-1301.52,1245.67" />
        <path d="M-894.98,1164.62L-850.51,1182.83L-819.30,1200.05L-782.36,1222.67L-750.72,1237.37L-726.44,1241.85" />
      </g>
      <g id="f10" style="--index:10; opacity:0;" class="frame">
        <path d="M-1028.02,655.21L-1028.29,623.92L-1032.16,600.18L-1033.83,565.07L-1035.35,551.94" />
        <path d="M-1373.42,856.95L-1399.57,869.23L-1457.50,865.62" />
        <path d="M-1269.50,1228.22L-1313.79,1254.56L-1334.82,1268.46" />
        <path d="M-728.93,1222.30L-709.53,1239.81L-689.31,1247.24L-660.46,1256.09" />
        <path d="M-2190.50,-424.96L-2272.12,-573.11L-2304.04,-636.26" />
        <path d="M-1993.55,-399.71L-1963.49,-427.47L-1944.33,-447.77L-1915.89,-475.31L-1881.59,-511.69L-1856.52,-541.58" />
        <path d="M-2369.08,-162.95L-2417.23,-141.23L-2465.21,-122.73L-2535.78,-98.66L-2546.87,-93.16" />
        <path d="M-2153.84,37.44L-2141.40,67.41L-2140.62,106.30L-2137.99,148.13L-2134.12,183.35L-2129.74,203.00L-2124.02,208.39" />
        <path d="M-1878.33,-97.59L-1848.22,-95.65L-1822.23,-95.27L-1783.17,-88.52L-1735.50,-70.36L-1686.11,-48.75L-1644.74,-36.40" />
      </g>
      <g id="f11" style="--index:11; opacity:0;" class="frame">
        <path d="M-2288.64,-615.06L-2306.04,-640.11L-2346.66,-709.11" />
        <path d="M-1847.72,-526.20L-1874.99,-526.95L-1879.70,-528.77L-1852.77,-557.96L-1814.61,-601.19" />
        <path d="M-2537.75,-83.84L-2576.37,-68.30L-2629.82,-42.74" />
        <path d="M-2141.94,187.36L-2127.71,231.15L-2121.91,254.32L-2120.25,270.38" />
        <path d="M-1669.67,-51.34L-1629.50,-48.65L-1576.75,-43.36L-1562.49,-42.61" />
        <path d="M522.68,-1292.20L527.53,-1354.71L521.96,-1461.03L518.87,-1493.96L510.56,-1547.56" />
        <path d="M700.35,-1134.86L725.25,-1142.48L763.19,-1150.71L860.80,-1163.77L888.72,-1169.67" />
        <path d="M240.26,-1135.93L149.52,-1162.62L53.48,-1185.46" />
        <path d="M195.89,-831.24L158.28,-798.48L61.98,-751.00L15.26,-720.28" />
        <path d="M534.15,-761.07L562.31,-735.16L583.35,-705.04L612.18,-661.18L634.12,-625.31L665.69,-578.45" />
      </g>
    </g>
  </g>
</svg>